<svg xmlns="http://www.w3.org/2000/svg" xmlns:xlink="http://www.w3.org/1999/xlink" width="20" height="20" viewBox="0 0 20 20" fill="none">
<path d="M10 19.375C4.8225 19.375 0.625 15.1775 0.625 10C0.625 4.8225 4.8225 0.625 10 0.625C15.1775 0.625 19.375 4.8225 19.375 10C19.375 15.1775 15.1775 19.375 10 19.375ZM10 18.125C14.4875 18.125 18.125 14.4875 18.125 10C18.125 5.5125 14.4875 1.875 10 1.875C5.5125 1.875 1.875 5.5125 1.875 10C1.875 14.4875 5.5125 18.125 10 18.125Z"   fill="currentColor" >
</path>
<path d="M5 10.625C4.98977 10.625 4.97955 10.6247 4.96934 10.6242C4.95912 10.6237 4.94891 10.623 4.93873 10.622C4.92856 10.621 4.91842 10.6197 4.9083 10.6182C4.89818 10.6167 4.88811 10.615 4.87807 10.613C4.86804 10.611 4.85807 10.6088 4.84814 10.6063C4.83822 10.6038 4.82837 10.6011 4.81857 10.5981C4.80878 10.5951 4.79907 10.5919 4.78943 10.5885C4.77981 10.585 4.77027 10.5813 4.76082 10.5774C4.75137 10.5735 4.74202 10.5694 4.73277 10.565C4.72353 10.5606 4.71439 10.556 4.70537 10.5512C4.69635 10.5464 4.68746 10.5413 4.67869 10.5361C4.66992 10.5308 4.66128 10.5253 4.65277 10.5197C4.64427 10.514 4.63591 10.5081 4.6277 10.502C4.61948 10.4959 4.61141 10.4896 4.6035 10.4831C4.59559 10.4766 4.58785 10.47 4.58027 10.4631C4.5727 10.4562 4.56529 10.4492 4.55807 10.4419C4.55083 10.4347 4.54378 10.4273 4.53691 10.4197C4.53004 10.4121 4.52336 10.4044 4.51688 10.3965C4.51038 10.3886 4.50408 10.3805 4.49799 10.3723C4.49189 10.3641 4.48601 10.3557 4.48033 10.3472C4.47466 10.3387 4.46919 10.3301 4.46393 10.3213C4.45867 10.3125 4.45363 10.3036 4.44881 10.2946C4.44398 10.2856 4.43938 10.2765 4.435 10.2672C4.43062 10.258 4.42648 10.2486 4.42258 10.2392C4.41866 10.2297 4.41498 10.2202 4.41154 10.2105C4.40809 10.2009 4.40488 10.1912 4.40191 10.1814C4.39895 10.1716 4.39622 10.1618 4.39373 10.1519C4.39124 10.1419 4.389 10.132 4.38701 10.1219C4.38502 10.1119 4.38327 10.1018 4.38176 10.0917C4.38026 10.0816 4.37901 10.0714 4.37801 10.0613C4.37701 10.0511 4.37626 10.0409 4.37576 10.0307C4.37525 10.0205 4.375 10.0102 4.375 10C4.375 9.98977 4.37525 9.97954 4.37576 9.96934C4.37626 9.95912 4.37701 9.94891 4.37801 9.93873C4.37901 9.92856 4.38026 9.91842 4.38176 9.9083C4.38327 9.89818 4.38502 9.88811 4.38701 9.87807C4.389 9.86804 4.39124 9.85807 4.39373 9.84814C4.39622 9.83822 4.39895 9.82837 4.40191 9.81857C4.40488 9.80878 4.40809 9.79907 4.41154 9.78943C4.41498 9.77981 4.41866 9.77027 4.42258 9.76082C4.42648 9.75137 4.43062 9.74202 4.435 9.73277C4.43938 9.72353 4.44398 9.71439 4.44881 9.70537C4.45363 9.69635 4.45867 9.68746 4.46393 9.67869C4.46919 9.66992 4.47466 9.66128 4.48033 9.65277C4.48601 9.64427 4.49189 9.63591 4.49799 9.6277C4.50408 9.61948 4.51038 9.61141 4.51688 9.6035C4.52336 9.59559 4.53004 9.58785 4.53691 9.58027C4.54378 9.5727 4.55083 9.56529 4.55807 9.55807C4.56529 9.55083 4.5727 9.54378 4.58027 9.53691C4.58785 9.53004 4.59559 9.52336 4.6035 9.51688C4.61141 9.51038 4.61948 9.50408 4.6277 9.49799C4.63591 9.49189 4.64427 9.48601 4.65277 9.48033C4.66128 9.47466 4.66992 9.46919 4.67869 9.46393C4.68746 9.45866 4.69635 9.45363 4.70537 9.44881C4.71439 9.44398 4.72353 9.43937 4.73277 9.435C4.74202 9.43062 4.75137 9.42648 4.76082 9.42258C4.77027 9.41866 4.77981 9.41498 4.78943 9.41154C4.79907 9.40809 4.80878 9.40488 4.81857 9.40191C4.82837 9.39895 4.83822 9.39622 4.84814 9.39373C4.85807 9.39124 4.86804 9.389 4.87807 9.38701C4.88811 9.38502 4.89818 9.38327 4.9083 9.38176C4.91842 9.38026 4.92856 9.37901 4.93873 9.37801C4.94891 9.377 4.95912 9.37626 4.96934 9.37576C4.97955 9.37525 4.98977 9.375 5 9.375L15 9.375C15.0102 9.375 15.0204 9.37525 15.0307 9.37576C15.0409 9.37626 15.0511 9.377 15.0613 9.37801C15.0714 9.37901 15.0816 9.38026 15.0917 9.38176C15.1018 9.38327 15.1119 9.38502 15.1219 9.38701C15.132 9.389 15.1419 9.39124 15.1519 9.39373C15.1618 9.39622 15.1716 9.39895 15.1814 9.40191C15.1912 9.40488 15.2009 9.40809 15.2105 9.41154C15.2202 9.41498 15.2297 9.41866 15.2392 9.42258C15.2486 9.42648 15.258 9.43062 15.2672 9.435C15.2765 9.43937 15.2856 9.44398 15.2946 9.44881C15.3036 9.45363 15.3125 9.45866 15.3213 9.46393C15.3301 9.46919 15.3387 9.47466 15.3472 9.48033C15.3557 9.48601 15.3641 9.49189 15.3723 9.49799C15.3805 9.50408 15.3886 9.51038 15.3965 9.51688C15.4044 9.52336 15.4121 9.53004 15.4197 9.53691C15.4273 9.54378 15.4347 9.55083 15.4419 9.55807C15.4492 9.56529 15.4562 9.5727 15.4631 9.58027C15.47 9.58785 15.4766 9.59559 15.4831 9.6035C15.4896 9.61141 15.4959 9.61948 15.502 9.6277C15.5081 9.63591 15.514 9.64427 15.5197 9.65277C15.5254 9.66128 15.5308 9.66992 15.5361 9.67869C15.5413 9.68746 15.5464 9.69635 15.5512 9.70537C15.556 9.71439 15.5606 9.72353 15.565 9.73277C15.5694 9.74202 15.5735 9.75137 15.5774 9.76082C15.5813 9.77027 15.585 9.77981 15.5885 9.78943C15.5919 9.79907 15.5951 9.80878 15.5981 9.81857C15.6011 9.82837 15.6038 9.83822 15.6063 9.84814C15.6088 9.85807 15.611 9.86804 15.613 9.87807C15.615 9.88811 15.6167 9.89818 15.6182 9.9083C15.6197 9.91842 15.621 9.92856 15.622 9.93873C15.623 9.94891 15.6237 9.95912 15.6242 9.96934C15.6247 9.97954 15.625 9.98977 15.625 10C15.625 10.0102 15.6247 10.0205 15.6242 10.0307C15.6237 10.0409 15.623 10.0511 15.622 10.0613C15.621 10.0714 15.6197 10.0816 15.6182 10.0917C15.6167 10.1018 15.615 10.1119 15.613 10.1219C15.611 10.132 15.6088 10.1419 15.6063 10.1519C15.6038 10.1618 15.6011 10.1716 15.5981 10.1814C15.5951 10.1912 15.5919 10.2009 15.5885 10.2105C15.585 10.2202 15.5813 10.2297 15.5774 10.2392C15.5735 10.2486 15.5694 10.258 15.565 10.2672C15.5606 10.2765 15.556 10.2856 15.5512 10.2946C15.5464 10.3036 15.5413 10.3125 15.5361 10.3213C15.5308 10.3301 15.5254 10.3387 15.5197 10.3472C15.514 10.3557 15.5081 10.3641 15.502 10.3723C15.4959 10.3805 15.4896 10.3886 15.4831 10.3965C15.4766 10.4044 15.47 10.4121 15.4631 10.4197C15.4562 10.4273 15.4492 10.4347 15.4419 10.4419C15.4347 10.4492 15.4273 10.4562 15.4197 10.4631C15.4121 10.47 15.4044 10.4766 15.3965 10.4831C15.3886 10.4896 15.3805 10.4959 15.3723 10.502C15.3641 10.5081 15.3557 10.514 15.3472 10.5197C15.3387 10.5253 15.3301 10.5308 15.3213 10.5361C15.3125 10.5413 15.3036 10.5464 15.2946 10.5512C15.2856 10.556 15.2765 10.5606 15.2672 10.565C15.258 10.5694 15.2486 10.5735 15.2392 10.5774C15.2297 10.5813 15.2202 10.585 15.2105 10.5885C15.2009 10.5919 15.1912 10.5951 15.1814 10.5981C15.1716 10.6011 15.1618 10.6038 15.1519 10.6063C15.1419 10.6088 15.132 10.611 15.1219 10.613C15.1119 10.615 15.1018 10.6167 15.0917 10.6182C15.0816 10.6197 15.0714 10.621 15.0613 10.622C15.0511 10.623 15.0409 10.6237 15.0307 10.6242C15.0204 10.6247 15.0102 10.625 15 10.625L5 10.625Z"   fill="currentColor" >
</path>
<path d="M9.375 5C9.375 4.98977 9.37525 4.97955 9.37576 4.96934C9.37626 4.95912 9.377 4.94891 9.37801 4.93873C9.37901 4.92856 9.38026 4.91842 9.38176 4.9083C9.38327 4.89818 9.38502 4.88811 9.38701 4.87807C9.389 4.86804 9.39124 4.85807 9.39373 4.84814C9.39622 4.83822 9.39895 4.82837 9.40191 4.81857C9.40488 4.80878 9.40809 4.79907 9.41154 4.78943C9.41498 4.77981 9.41866 4.77027 9.42258 4.76082C9.42648 4.75137 9.43062 4.74202 9.435 4.73277C9.43937 4.72353 9.44398 4.71439 9.44881 4.70537C9.45363 4.69635 9.45866 4.68746 9.46393 4.67869C9.46917 4.66992 9.47464 4.66128 9.48033 4.65277C9.48601 4.64427 9.49189 4.63591 9.49799 4.6277C9.50408 4.61948 9.51038 4.61141 9.51688 4.6035C9.52336 4.59559 9.53004 4.58785 9.53691 4.58027C9.54378 4.5727 9.55083 4.56529 9.55807 4.55807C9.56529 4.55083 9.5727 4.54378 9.58027 4.53691C9.58785 4.53004 9.59559 4.52336 9.6035 4.51688C9.61141 4.51038 9.61948 4.50408 9.6277 4.49799C9.63591 4.49189 9.64427 4.48601 9.65277 4.48033C9.66128 4.47466 9.66992 4.46919 9.67869 4.46393C9.68746 4.45867 9.69635 4.45363 9.70537 4.44881C9.71439 4.44398 9.72353 4.43938 9.73277 4.435C9.74202 4.43062 9.75137 4.42648 9.76082 4.42258C9.77027 4.41866 9.77981 4.41498 9.78943 4.41154C9.79907 4.40809 9.80878 4.40488 9.81857 4.40191C9.82837 4.39895 9.83822 4.39622 9.84814 4.39373C9.85807 4.39124 9.86804 4.389 9.87807 4.38701C9.88811 4.38502 9.89818 4.38327 9.9083 4.38176C9.91842 4.38026 9.92856 4.37901 9.93873 4.37801C9.94891 4.37701 9.95912 4.37626 9.96934 4.37576C9.97954 4.37525 9.98977 4.375 10 4.375C10.0102 4.375 10.0205 4.37525 10.0307 4.37576C10.0409 4.37626 10.0511 4.37701 10.0613 4.37801C10.0714 4.37901 10.0816 4.38026 10.0917 4.38176C10.1018 4.38327 10.1119 4.38502 10.1219 4.38701C10.132 4.389 10.1419 4.39124 10.1519 4.39373C10.1618 4.39622 10.1716 4.39895 10.1814 4.40191C10.1912 4.40488 10.2009 4.40809 10.2105 4.41154C10.2202 4.41498 10.2297 4.41866 10.2392 4.42258C10.2486 4.42648 10.258 4.43062 10.2672 4.435C10.2765 4.43938 10.2856 4.44398 10.2946 4.44881C10.3036 4.45363 10.3125 4.45867 10.3213 4.46393C10.3301 4.46919 10.3387 4.47466 10.3472 4.48033C10.3557 4.48601 10.3641 4.49189 10.3723 4.49799C10.3805 4.50408 10.3886 4.51038 10.3965 4.51688C10.4044 4.52336 10.4121 4.53004 10.4197 4.53691C10.4273 4.54378 10.4347 4.55083 10.4419 4.55807C10.4492 4.56529 10.4562 4.5727 10.4631 4.58027C10.47 4.58785 10.4766 4.59559 10.4831 4.6035C10.4896 4.61141 10.4959 4.61948 10.502 4.6277C10.5081 4.63591 10.514 4.64427 10.5197 4.65277C10.5253 4.66128 10.5308 4.66992 10.5361 4.67869C10.5413 4.68746 10.5464 4.69635 10.5512 4.70537C10.556 4.71439 10.5606 4.72353 10.565 4.73277C10.5694 4.74202 10.5735 4.75137 10.5774 4.76082C10.5813 4.77027 10.585 4.77981 10.5885 4.78943C10.5919 4.79907 10.5951 4.80878 10.5981 4.81857C10.6011 4.82837 10.6038 4.83822 10.6063 4.84814C10.6088 4.85807 10.611 4.86804 10.613 4.87807C10.615 4.88811 10.6167 4.89818 10.6182 4.9083C10.6197 4.91842 10.621 4.92856 10.622 4.93873C10.623 4.94891 10.6237 4.95912 10.6242 4.96934C10.6247 4.97955 10.625 4.98977 10.625 5L10.625 15C10.625 15.0102 10.6247 15.0204 10.6242 15.0307C10.6237 15.0409 10.623 15.0511 10.622 15.0613C10.621 15.0714 10.6197 15.0816 10.6182 15.0917C10.6167 15.1018 10.615 15.1119 10.613 15.1219C10.611 15.132 10.6088 15.1419 10.6063 15.1519C10.6038 15.1618 10.6011 15.1716 10.5981 15.1814C10.5951 15.1912 10.5919 15.2009 10.5885 15.2105C10.585 15.2202 10.5813 15.2297 10.5774 15.2392C10.5735 15.2486 10.5694 15.258 10.565 15.2672C10.5606 15.2765 10.556 15.2856 10.5512 15.2946C10.5464 15.3036 10.5413 15.3125 10.5361 15.3213C10.5308 15.3301 10.5253 15.3387 10.5197 15.3472C10.514 15.3557 10.5081 15.3641 10.502 15.3723C10.4959 15.3805 10.4896 15.3886 10.4831 15.3965C10.4766 15.4044 10.47 15.4121 10.4631 15.4197C10.4562 15.4273 10.4492 15.4347 10.4419 15.4419C10.4347 15.4492 10.4273 15.4562 10.4197 15.4631C10.4121 15.47 10.4044 15.4766 10.3965 15.4831C10.3886 15.4896 10.3805 15.4959 10.3723 15.502C10.3641 15.5081 10.3557 15.514 10.3472 15.5197C10.3387 15.5254 10.3301 15.5308 10.3213 15.5361C10.3125 15.5413 10.3036 15.5464 10.2946 15.5512C10.2856 15.556 10.2765 15.5606 10.2672 15.565C10.258 15.5694 10.2486 15.5735 10.2392 15.5774C10.2297 15.5813 10.2202 15.585 10.2105 15.5885C10.2009 15.5919 10.1912 15.5951 10.1814 15.5981C10.1716 15.6011 10.1618 15.6038 10.1519 15.6063C10.1419 15.6088 10.132 15.611 10.1219 15.613C10.1119 15.615 10.1018 15.6167 10.0917 15.6182C10.0816 15.6197 10.0714 15.621 10.0613 15.622C10.0511 15.623 10.0409 15.6237 10.0307 15.6242C10.0205 15.6247 10.0102 15.625 10 15.625C9.98977 15.625 9.97954 15.6247 9.96934 15.6242C9.95912 15.6237 9.94891 15.623 9.93873 15.622C9.92856 15.621 9.91842 15.6197 9.9083 15.6182C9.89818 15.6167 9.88811 15.615 9.87807 15.613C9.86804 15.611 9.85807 15.6088 9.84814 15.6063C9.83822 15.6038 9.82837 15.6011 9.81857 15.5981C9.80878 15.5951 9.79907 15.5919 9.78943 15.5885C9.77981 15.585 9.77027 15.5813 9.76082 15.5774C9.75137 15.5735 9.74202 15.5694 9.73277 15.565C9.72353 15.5606 9.71439 15.556 9.70537 15.5512C9.69635 15.5464 9.68746 15.5413 9.67869 15.5361C9.66992 15.5308 9.66128 15.5254 9.65277 15.5197C9.64427 15.514 9.63591 15.5081 9.6277 15.502C9.61948 15.4959 9.61141 15.4896 9.6035 15.4831C9.59559 15.4766 9.58785 15.47 9.58027 15.4631C9.5727 15.4562 9.56529 15.4492 9.55807 15.4419C9.55083 15.4347 9.54378 15.4273 9.53691 15.4197C9.53004 15.4121 9.52336 15.4044 9.51688 15.3965C9.51038 15.3886 9.50408 15.3805 9.49799 15.3723C9.49189 15.3641 9.48601 15.3557 9.48033 15.3472C9.47464 15.3387 9.46917 15.3301 9.46393 15.3213C9.45866 15.3125 9.45363 15.3036 9.44881 15.2946C9.44398 15.2856 9.43937 15.2765 9.435 15.2672C9.43062 15.258 9.42648 15.2486 9.42258 15.2392C9.41866 15.2297 9.41498 15.2202 9.41154 15.2105C9.40809 15.2009 9.40488 15.1912 9.40191 15.1814C9.39895 15.1716 9.39622 15.1618 9.39373 15.1519C9.39124 15.1419 9.389 15.132 9.38701 15.1219C9.38502 15.1119 9.38327 15.1018 9.38176 15.0917C9.38026 15.0816 9.37901 15.0714 9.37801 15.0613C9.377 15.0511 9.37626 15.0409 9.37576 15.0307C9.37525 15.0204 9.375 15.0102 9.375 15L9.375 5Z"   fill="currentColor" >
</path>
</svg>
