<svg xmlns="http://www.w3.org/2000/svg" xmlns:xlink="http://www.w3.org/1999/xlink" width="30" height="29.4117431640625" viewBox="0 0 30 29.4117431640625" fill="none">
<path d="M0.839969 21.735C0.201934 22.3731 0.201934 23.4076 0.840029 24.0457C1.47807 24.6838 2.51269 24.6838 3.15066 24.0458L3.15072 24.0457L13.4816 13.7149C14.1569 13.0396 15.2518 13.0396 15.9271 13.7149L26.2594 24.0473C26.8976 24.6854 27.9321 24.6854 28.5701 24.0473C29.2082 23.4092 29.2082 22.3747 28.5701 21.7366C28.5696 21.7361 28.5691 21.7356 28.5685 21.7351L17.9648 11.1314C16.164 9.33063 13.2443 9.33063 11.4435 11.1314L0.840029 21.735L0.839969 21.735Z"   fill="#231815" >
</path>
<path d="M27.7765 4.87909L27.7764 4.87909L27.7764 4.87903L1.63375 4.87903L1.63375 4.87909C0.731356 4.87914 0 5.61062 0 6.51299C0 7.41528 0.731356 8.14684 1.63375 8.14689L27.7765 8.14689L27.7765 8.14689C28.6789 8.14689 29.4103 7.41533 29.4103 6.51302C29.4103 5.61056 28.6789 4.87909 27.7765 4.87909Z"   fill="#231815" >
</path>
</svg>
