<svg xmlns="http://www.w3.org/2000/svg" xmlns:xlink="http://www.w3.org/1999/xlink" width="20" height="19.60784912109375" viewBox="0 0 20 19.60784912109375" fill="none">
<path d="M0.559972 14.49C0.134615 14.9154 0.134615 15.6051 0.560012 16.0305C0.98537 16.4559 1.67512 16.4559 2.10043 16.0305L2.10047 16.0305L8.98772 9.14329C9.4379 8.6931 10.1678 8.6931 10.618 9.14329L17.5063 16.0315C17.9317 16.457 18.6214 16.457 19.0468 16.0316C19.4722 15.6062 19.4722 14.9165 19.0468 14.4911C19.0464 14.4908 19.0461 14.4904 19.0457 14.4901L11.9765 7.42096C10.776 6.22044 8.82956 6.22044 7.629 7.42096L0.560012 14.49L0.559972 14.49Z"   fill="#231815" >
</path>
<path d="M18.5177 3.25272L18.5176 3.25272L18.5176 3.25269L1.08916 3.25269L1.08916 3.25272C0.487571 3.25276 0 3.74041 0 4.34199C0 4.94352 0.487571 5.43122 1.08916 5.43126L18.5176 5.43126L18.5177 5.43126C19.1192 5.43126 19.6069 4.94356 19.6069 4.34201C19.6069 3.74037 19.1192 3.25272 18.5177 3.25272Z"   fill="#231815" >
</path>
</svg>
