<svg xmlns="http://www.w3.org/2000/svg" xmlns:xlink="http://www.w3.org/1999/xlink" width="20.000045776367188" height="20.000001907348633" viewBox="0 0 20.000045776367188 20.000001907348633" fill="none">
<path d="M18.8254 20C18.529 20 18.2327 19.8857 17.9956 19.657L0.344502 1.99825C-0.114833 1.54138 -0.114833 0.799747 0.344502 0.342875C0.804018 -0.11429 1.54503 -0.11429 2.00437 0.342875L19.6555 18.0018C20.1148 18.4586 20.1148 19.2003 19.6555 19.657C19.4182 19.8857 19.1219 20 18.8254 20Z"   fill="currentColor" >
</path>
<path d="M1.17453 20C0.878011 20 0.566842 19.8857 0.344502 19.657C-0.114833 19.2001 -0.114833 18.4586 0.344502 18.0018L17.9956 0.342875C18.4549 -0.11429 19.1959 -0.11429 19.6555 0.342875C20.1148 0.799893 20.1148 1.54138 19.6555 1.99825L2.00437 19.657C1.76719 19.8857 1.47086 20 1.17453 20Z"   fill="currentColor" >
</path>
</svg>
