<svg xmlns="http://www.w3.org/2000/svg" xmlns:xlink="http://www.w3.org/1999/xlink" width="20" height="20" viewBox="0 0 20 20" fill="none">
<path d="M10 18.7113C7.66313 18.7113 5.46623 17.8056 3.81373 16.1613C2.16061 14.5156 1.25 12.3281 1.25 10C1.25 7.6725 2.16062 5.4844 3.81313 3.83938C5.46563 2.19503 7.66252 1.2894 9.99939 1.2894C12.3363 1.2894 14.5332 2.19503 16.185 3.83938C17.8388 5.4844 18.7488 7.6725 18.7488 9.99938C18.7494 12.3275 17.8388 14.5156 16.185 16.1606C14.5338 17.805 12.3369 18.7113 10 18.7113ZM10 2.53872C7.99563 2.53872 6.11188 3.31496 4.69564 4.72498C3.28 6.13373 2.5 8.00748 2.5 9.99998C2.5 11.9925 3.27936 13.8662 4.695 15.2743C6.11125 16.6843 7.995 17.4606 9.99936 17.4606C12.0031 17.4606 13.8875 16.6844 15.3037 15.2743C16.7194 13.8649 17.4994 11.9919 17.4987 9.99934C17.4987 8.00684 16.7194 6.13373 15.3037 4.72559C13.8881 3.31561 12.0038 2.53872 10 2.53872Z"   fill="#575B66" >
</path>
<path d="M14.375 9.37502L10.625 9.37502L10.625 5.62502C10.625 5.28 10.345 5 10 5C9.65498 5 9.37498 5.28 9.37498 5.62502L9.37498 9.37502L5.62502 9.37502C5.28 9.37502 5 9.65502 5 10C5 10.345 5.28 10.6251 5.62502 10.6251L9.37502 10.6251L9.37502 14.3751C9.37502 14.7207 9.65502 15.0001 10 15.0001C10.345 15.0001 10.6251 14.7207 10.6251 14.3751L10.6251 10.625L14.3751 10.625C14.7207 10.625 15.0001 10.345 15.0001 10C15.0001 9.65498 14.7206 9.37502 14.375 9.37502Z"   fill="#575B66" >
</path>
</svg>
