<svg xmlns="http://www.w3.org/2000/svg" xmlns:xlink="http://www.w3.org/1999/xlink" width="20" height="20" viewBox="0 0 20 20" fill="none">
<path d="M10 1.25C5.17502 1.25 1.25 5.17502 1.25 10C1.25 14.825 5.17502 18.75 10 18.75C14.825 18.75 18.75 14.825 18.75 10C18.75 5.17502 14.825 1.25 10 1.25ZM12.925 10.4681L9.79502 13.5637C9.67316 13.6838 9.51437 13.7444 9.35563 13.7444C9.1944 13.7444 9.03312 13.6825 8.91127 13.5587C8.66877 13.3131 8.67064 12.9181 8.91627 12.675L11.6 10.0206L8.93814 7.35123C8.6944 7.10684 8.69504 6.71123 8.93939 6.46748C9.18379 6.22309 9.57939 6.22437 9.82314 6.46873L12.9269 9.58121C12.9275 9.58184 12.9275 9.58244 12.9281 9.58309C12.9288 9.58373 12.9294 9.58373 12.93 9.58434C12.9875 9.64246 13.0288 9.70996 13.0588 9.78057C13.06 9.78307 13.0631 9.78559 13.0638 9.78807C13.1563 10.015 13.11 10.285 12.925 10.4681Z"   fill="#C4C4C4" >
</path>
</svg>
