<svg xmlns="http://www.w3.org/2000/svg" xmlns:xlink="http://www.w3.org/1999/xlink" width="20" height="20.63726806640625" viewBox="0 0 20 20.63726806640625" fill="none">
<path d="M20 9.88788L20 6.02894C20 6.01781 19.9997 6.0067 19.9992 5.9956C19.9986 5.98449 19.9978 5.97339 19.9967 5.96234C19.9956 5.95127 19.9943 5.94022 19.9927 5.92924C19.991 5.91825 19.9891 5.9073 19.9869 5.89637C19.9848 5.88548 19.9823 5.87465 19.9797 5.86384C19.9769 5.85307 19.974 5.84235 19.9707 5.8317C19.9675 5.82108 19.964 5.81051 19.9603 5.80004C19.9565 5.7896 19.9525 5.77921 19.9483 5.76895C19.9441 5.75869 19.9395 5.74852 19.9348 5.73846C19.93 5.72841 19.925 5.71848 19.9198 5.70867C19.9145 5.69886 19.9091 5.6892 19.9033 5.67966C19.8976 5.67012 19.8917 5.66073 19.8855 5.65149C19.8793 5.64225 19.8729 5.63316 19.8663 5.62422C19.8597 5.61529 19.8528 5.60653 19.8458 5.59792C19.8387 5.58934 19.8315 5.58092 19.824 5.57267C19.8165 5.56446 19.8089 5.55639 19.801 5.54853C19.7932 5.54068 19.7851 5.53301 19.7769 5.52554C19.7686 5.51808 19.7602 5.51083 19.7516 5.50375C19.743 5.49668 19.7343 5.48985 19.7253 5.48323C19.7164 5.47661 19.7073 5.4702 19.6981 5.46403C19.6888 5.45786 19.6794 5.4519 19.6699 5.44618C19.6603 5.44049 19.6507 5.43502 19.6409 5.42975C19.6311 5.42451 19.6211 5.41952 19.6111 5.41476C19.601 5.41001 19.5909 5.40549 19.5806 5.40125C19.5703 5.39701 19.5599 5.393 19.5495 5.38924C19.539 5.38551 19.5285 5.38202 19.5178 5.3788C19.5072 5.37558 19.4965 5.3726 19.4857 5.36989C19.4749 5.36721 19.4641 5.36477 19.4531 5.36258C19.4422 5.36041 19.4313 5.35851 19.4203 5.35689C19.4093 5.35526 19.3982 5.35391 19.3872 5.3528C19.3761 5.35171 19.3651 5.3509 19.3539 5.35036C19.3428 5.34982 19.3317 5.34955 19.3206 5.34955L13.2006 5.34955L13.2006 0.679366C13.2006 0.668252 13.2004 0.657147 13.1998 0.646051C13.1993 0.634936 13.1985 0.623849 13.1973 0.612796C13.1963 0.601721 13.1949 0.590685 13.1933 0.579691C13.1916 0.568697 13.1897 0.557743 13.1876 0.546827C13.1854 0.535933 13.183 0.52509 13.1803 0.514294C13.1776 0.50352 13.1746 0.492807 13.1714 0.482153C13.1682 0.47152 13.1647 0.460966 13.1609 0.450493C13.1572 0.44002 13.1532 0.429646 13.1489 0.419375C13.1447 0.409103 13.1402 0.39894 13.1354 0.388888C13.1307 0.378837 13.1257 0.368914 13.1204 0.359124C13.1152 0.349313 13.1097 0.339644 13.104 0.330113C13.0982 0.320563 13.0923 0.311162 13.0861 0.301914C13.0799 0.292685 13.0735 0.283606 13.0669 0.274678C13.0603 0.265729 13.0535 0.256962 13.0464 0.248375C13.0393 0.239787 13.0321 0.231371 13.0246 0.223125C13.0172 0.214879 13.0095 0.206833 13.0016 0.198989C12.9938 0.191124 12.9857 0.18346 12.9775 0.175996C12.9693 0.168512 12.9608 0.161249 12.9522 0.154207C12.9436 0.147145 12.9349 0.140303 12.9259 0.133682C12.917 0.127061 12.9079 0.120661 12.8987 0.114482C12.8894 0.108302 12.8801 0.102353 12.8705 0.0966352C12.861 0.0909175 12.8513 0.0854399 12.8415 0.0802036C12.8317 0.0749671 12.8218 0.0699713 12.8117 0.0652163C12.8017 0.060461 12.7915 0.0559569 12.7812 0.0517033C12.771 0.0474503 12.7606 0.0434476 12.7501 0.0396954C12.7397 0.0359437 12.7291 0.0324626 12.7184 0.0292524C12.7078 0.0260223 12.6971 0.023053 12.6863 0.0203446C12.6755 0.0176357 12.6647 0.0151982 12.6538 0.0130311C12.6429 0.0108646 12.6319 0.00896845 12.6209 0.00734328C12.6099 0.00571812 12.5989 0.00435382 12.5878 0.00325033C12.5768 0.00216703 12.5657 0.00135422 12.5546 0.00081281C12.5435 0.000270936 12.5323 0 12.5212 0L7.51136 0C7.50026 0 7.48915 0.000270936 7.47805 0.00081281C7.46694 0.00135422 7.45584 0.00216703 7.44479 0.00325033C7.43372 0.00435382 7.42267 0.00571812 7.41169 0.00734328C7.40071 0.00896845 7.38975 0.0108646 7.37883 0.0130311C7.36793 0.0151982 7.3571 0.0176357 7.34629 0.0203446C7.33552 0.023053 7.32481 0.0260223 7.31415 0.0292524C7.30353 0.0324626 7.29296 0.0359437 7.28249 0.0396954C7.27202 0.0434476 7.26164 0.0474503 7.25137 0.0517033C7.24111 0.0559569 7.23094 0.060461 7.22089 0.0652163C7.21084 0.0699713 7.2009 0.0749671 7.19112 0.0802036C7.18131 0.0854399 7.17165 0.0909175 7.16211 0.0966352C7.15257 0.102353 7.14315 0.108302 7.13391 0.114482C7.12467 0.120661 7.11558 0.127061 7.10665 0.133682C7.09771 0.140303 7.08895 0.147145 7.08037 0.154207C7.0718 0.161249 7.06337 0.168512 7.05512 0.175996C7.04688 0.18346 7.03881 0.191124 7.03096 0.198989C7.0231 0.206833 7.01546 0.214879 7.00796 0.223125C7.0005 0.231371 6.99325 0.239787 6.98621 0.248375C6.97913 0.256962 6.9723 0.265729 6.96568 0.274678C6.95906 0.283606 6.95265 0.292685 6.94648 0.301914C6.94031 0.311162 6.93435 0.320563 6.92863 0.330113C6.92292 0.339644 6.91744 0.349313 6.9122 0.359124C6.90697 0.368914 6.90197 0.378837 6.89721 0.388888C6.89246 0.39894 6.88795 0.409103 6.8837 0.419375C6.87946 0.429646 6.87546 0.44002 6.87169 0.450493C6.86793 0.460966 6.86444 0.47152 6.86122 0.482153C6.858 0.492807 6.85505 0.50352 6.85234 0.514294C6.84963 0.52509 6.8472 0.535933 6.84503 0.546827C6.84286 0.557743 6.84097 0.568697 6.83934 0.579691C6.83769 0.590685 6.83633 0.601721 6.83525 0.612796C6.83417 0.623849 6.83335 0.634936 6.83281 0.646051C6.83224 0.657147 6.83197 0.668252 6.83197 0.679366L6.83197 5.3509L0.679396 5.3509C0.668261 5.3509 0.657147 5.35117 0.646051 5.35171C0.634936 5.35225 0.623849 5.35307 0.612796 5.35418C0.601721 5.35526 0.590685 5.35662 0.579691 5.35824C0.568697 5.3599 0.557743 5.3618 0.546827 5.36396C0.535933 5.36613 0.52509 5.36857 0.514294 5.37124C0.50352 5.37395 0.492807 5.37693 0.482153 5.38015C0.47152 5.38337 0.460966 5.38686 0.450493 5.39063C0.440041 5.39436 0.429676 5.39836 0.419405 5.4026C0.409133 5.40685 0.39897 5.41136 0.388918 5.41612C0.378867 5.42087 0.368935 5.42587 0.359124 5.43113C0.349313 5.43637 0.339644 5.44185 0.330113 5.44757C0.320563 5.45328 0.311174 5.45921 0.301944 5.46538C0.292694 5.47155 0.283606 5.47796 0.274678 5.48458C0.265749 5.49123 0.256981 5.49807 0.248374 5.50511C0.239787 5.51218 0.23137 5.51943 0.223124 5.5269C0.214899 5.53436 0.206853 5.54203 0.198989 5.54989C0.191123 5.55774 0.183459 5.56581 0.175996 5.57403C0.168512 5.58227 0.161249 5.5907 0.154207 5.59928C0.147145 5.60788 0.140303 5.61664 0.133682 5.62558C0.127061 5.63452 0.120661 5.64361 0.114482 5.65284C0.108302 5.66208 0.102353 5.67147 0.0966352 5.68101C0.0909373 5.69055 0.0854597 5.70021 0.080203 5.71003C0.0749668 5.71984 0.069971 5.72977 0.0652157 5.73982C0.0604607 5.74987 0.0559566 5.76004 0.051703 5.77031C0.0474497 5.78057 0.043447 5.79095 0.0396954 5.80142C0.0359633 5.81187 0.0324825 5.82243 0.0292524 5.83308C0.0260218 5.84371 0.0230525 5.85442 0.0203441 5.86523C0.0176554 5.876 0.0152179 5.88683 0.0130311 5.89776C0.0108641 5.90865 0.008968 5.91961 0.00734283 5.93059C0.00571767 5.94161 0.00435334 5.95265 0.00324984 5.9637C0.00216657 5.97477 0.00135422 5.98585 0.00081235 5.99695C0.000270477 6.00806 0 6.01919 0 6.0303L0 9.88927L20 9.88927L20 9.88788ZM18.3599 11.2467L1.58977 11.2467L1.59928 16.5161L0.962019 19.8288C0.95971 19.841 0.957736 19.8533 0.95609 19.8657C0.954465 19.878 0.953171 19.8904 0.952208 19.9028C0.951266 19.9153 0.950652 19.9277 0.950372 19.9401C0.950092 19.9526 0.950161 19.965 0.950582 19.9775C0.950983 19.9899 0.951726 20.0023 0.952809 20.0148C0.953893 20.0272 0.955316 20.0395 0.957083 20.0519C0.95885 20.0642 0.960956 20.0765 0.963403 20.0887C0.965832 20.1009 0.9686 20.113 0.971709 20.1251C0.974818 20.1372 0.978249 20.1491 0.982002 20.161C0.985754 20.1729 0.989835 20.1847 0.99425 20.1963C0.998644 20.208 1.00336 20.2195 1.00839 20.2309C1.01343 20.2423 1.01878 20.2535 1.02444 20.2646C1.03009 20.2757 1.03604 20.2867 1.04228 20.2974C1.04854 20.3082 1.05508 20.3188 1.0619 20.3292C1.06873 20.3396 1.07584 20.3499 1.08324 20.3599C1.09062 20.3699 1.09828 20.3797 1.1062 20.3893C1.11413 20.3989 1.12231 20.4083 1.13076 20.4175C1.13921 20.4266 1.14789 20.4355 1.15682 20.4442C1.16575 20.4529 1.17491 20.4614 1.1843 20.4695C1.19369 20.4777 1.2033 20.4856 1.21313 20.4933C1.22296 20.5009 1.23299 20.5083 1.24323 20.5154C1.25346 20.5225 1.26387 20.5293 1.27447 20.5359C1.28508 20.5424 1.29585 20.5487 1.30679 20.5546C1.31774 20.5605 1.32885 20.5662 1.3401 20.5715C1.35136 20.5768 1.36274 20.5819 1.37426 20.5866C1.3858 20.5913 1.39745 20.5957 1.40923 20.5998C1.42099 20.6038 1.43286 20.6076 1.44483 20.611C1.45681 20.6145 1.46887 20.6175 1.48101 20.6203C1.49317 20.6231 1.50538 20.6255 1.51766 20.6276C1.52994 20.6297 1.54226 20.6314 1.55462 20.6328C1.567 20.6343 1.57941 20.6353 1.59185 20.6361C1.60429 20.6368 1.61673 20.6372 1.62917 20.6373L5.54113 20.6373L5.54113 16.2212C5.54113 16.2101 5.5414 16.199 5.54194 16.1879C5.54249 16.1768 5.5433 16.1657 5.54441 16.1546C5.5455 16.1436 5.54685 16.1325 5.54847 16.1215C5.55013 16.1105 5.55203 16.0996 5.55419 16.0887C5.55636 16.0777 5.5588 16.0669 5.56151 16.0561C5.56418 16.0453 5.56716 16.0346 5.57038 16.024C5.5736 16.0134 5.5771 16.0028 5.58086 15.9923C5.58459 15.9819 5.58859 15.9715 5.59283 15.9612C5.59708 15.951 5.60159 15.9408 5.60635 15.9307C5.6111 15.9207 5.6161 15.9107 5.62137 15.9009C5.6266 15.8912 5.63208 15.8815 5.6378 15.8719C5.64352 15.8624 5.64947 15.853 5.65564 15.8438C5.66181 15.8345 5.66819 15.8254 5.67484 15.8165C5.68146 15.8075 5.6883 15.7988 5.69534 15.7902C5.70241 15.7816 5.70966 15.7732 5.71713 15.765C5.72459 15.7567 5.73227 15.7487 5.74012 15.7408C5.74797 15.7329 5.75604 15.7253 5.76429 15.7178C5.7725 15.7103 5.78093 15.7031 5.78954 15.696C5.79811 15.689 5.80687 15.6821 5.81581 15.6755C5.82475 15.6689 5.83384 15.6625 5.84308 15.6563C5.85231 15.6502 5.8617 15.6442 5.87124 15.6385C5.88078 15.6328 5.89044 15.6273 5.90026 15.622C5.91007 15.6168 5.92 15.6118 5.93005 15.6071C5.9401 15.6023 5.95027 15.5978 5.96054 15.5935C5.9708 15.5893 5.98118 15.5853 5.99165 15.5815C6.0021 15.5778 6.01266 15.5743 6.02331 15.5711C6.03394 15.5678 6.04465 15.5649 6.05546 15.5622C6.06623 15.5595 6.07706 15.557 6.08799 15.5549C6.09888 15.5527 6.10984 15.5508 6.12085 15.5492C6.13184 15.5475 6.14288 15.5462 6.15393 15.5451C6.165 15.544 6.17608 15.5432 6.18718 15.5427C6.19829 15.5421 6.20942 15.5418 6.22053 15.5418C6.23163 15.5418 6.24277 15.5421 6.25387 15.5427C6.26498 15.5432 6.27605 15.544 6.28713 15.5451C6.29817 15.5462 6.30922 15.5475 6.3202 15.5492C6.33122 15.5508 6.34217 15.5527 6.35307 15.5549C6.36399 15.557 6.37483 15.5595 6.3856 15.5622C6.3964 15.5649 6.40712 15.5678 6.41774 15.5711C6.42836 15.5743 6.43893 15.5778 6.4494 15.5815C6.45987 15.5853 6.47026 15.5893 6.48052 15.5935C6.49078 15.5978 6.50095 15.6023 6.511 15.6071C6.52106 15.6118 6.53099 15.6168 6.5408 15.622C6.55058 15.6273 6.56027 15.6328 6.56981 15.6385C6.57935 15.6442 6.58874 15.6502 6.59798 15.6563C6.60722 15.6625 6.61631 15.6689 6.62525 15.6755C6.63418 15.6821 6.64294 15.689 6.65152 15.696C6.66013 15.7031 6.66855 15.7103 6.67677 15.7178C6.68501 15.7253 6.69308 15.7329 6.70093 15.7408C6.70879 15.7487 6.71646 15.7567 6.72393 15.765C6.73139 15.7732 6.73864 15.7816 6.74572 15.7902C6.75276 15.7988 6.75959 15.8075 6.76621 15.8165C6.77283 15.8254 6.77924 15.8345 6.78541 15.8438C6.79158 15.853 6.79754 15.8624 6.80326 15.8719C6.80898 15.8815 6.81445 15.8912 6.81969 15.9009C6.82493 15.9107 6.82992 15.9207 6.83468 15.9307C6.83943 15.9408 6.84395 15.951 6.84819 15.9612C6.85246 15.9715 6.85647 15.9819 6.8602 15.9923C6.86396 16.0028 6.86745 16.0134 6.87067 16.024C6.87389 16.0346 6.87687 16.0453 6.87955 16.0561C6.88226 16.0669 6.8847 16.0777 6.88686 16.0887C6.88903 16.0996 6.89092 16.1105 6.89258 16.1215C6.89421 16.1325 6.89556 16.1436 6.89664 16.1546C6.89776 16.1657 6.89857 16.1768 6.89911 16.1879C6.89965 16.199 6.89992 16.2101 6.89992 16.2212L6.89992 20.6373L9.31993 20.6373L9.31993 16.2212C9.31993 16.2101 9.3202 16.199 9.32074 16.1879C9.32128 16.1768 9.32209 16.1657 9.32321 16.1546C9.32429 16.1436 9.32565 16.1325 9.32727 16.1215C9.32893 16.1105 9.33082 16.0996 9.33299 16.0887C9.33516 16.0777 9.33759 16.0669 9.34027 16.0561C9.34298 16.0453 9.34596 16.0346 9.34918 16.024C9.3524 16.0134 9.35589 16.0028 9.35962 15.9923C9.36338 15.9819 9.36739 15.9715 9.37163 15.9612C9.37587 15.951 9.38039 15.9408 9.38514 15.9307C9.3899 15.9207 9.39489 15.9107 9.40013 15.9009C9.4054 15.8912 9.41087 15.8815 9.41659 15.8719C9.42228 15.8624 9.42824 15.853 9.43441 15.8438C9.44058 15.8345 9.44699 15.8254 9.45361 15.8165C9.46026 15.8075 9.46709 15.7988 9.47413 15.7902C9.48121 15.7816 9.48846 15.7732 9.49592 15.765C9.50339 15.7567 9.51106 15.7487 9.51892 15.7408C9.52677 15.7329 9.53484 15.7253 9.54305 15.7178C9.5513 15.7103 9.55972 15.7031 9.5683 15.696C9.57691 15.689 9.58567 15.6821 9.5946 15.6755C9.60354 15.6689 9.61263 15.6625 9.62187 15.6563C9.63111 15.6502 9.6405 15.6442 9.65004 15.6385C9.65958 15.6328 9.66924 15.6273 9.67905 15.622C9.68886 15.6168 9.69879 15.6118 9.70885 15.6071C9.7189 15.6023 9.72907 15.5978 9.73933 15.5935C9.74959 15.5893 9.75998 15.5853 9.77042 15.5815C9.78089 15.5778 9.79146 15.5743 9.80211 15.5711C9.81273 15.5678 9.82345 15.5649 9.83422 15.5622C9.84503 15.5595 9.85586 15.557 9.86678 15.5549C9.87768 15.5527 9.88863 15.5508 9.89962 15.5492C9.91063 15.5475 9.92168 15.5462 9.93272 15.5451C9.9438 15.544 9.95487 15.5432 9.96598 15.5427C9.97708 15.5421 9.98822 15.5418 9.99932 15.5418C10.0104 15.5418 10.0215 15.5421 10.0326 15.5427C10.0437 15.5432 10.0548 15.544 10.0659 15.5451C10.077 15.5462 10.088 15.5475 10.099 15.5492C10.11 15.5508 10.1209 15.5527 10.1319 15.5549C10.1428 15.557 10.1536 15.5595 10.1644 15.5622C10.1752 15.5649 10.1859 15.5678 10.1965 15.5711C10.2072 15.5743 10.2177 15.5778 10.2282 15.5815C10.2387 15.5853 10.2491 15.5893 10.2593 15.5935C10.2696 15.5978 10.2797 15.6023 10.2898 15.6071C10.2999 15.6118 10.3098 15.6168 10.3196 15.622C10.3294 15.6273 10.3391 15.6328 10.3486 15.6385C10.3581 15.6442 10.3675 15.6502 10.3768 15.6563C10.386 15.6625 10.3951 15.6689 10.404 15.6755C10.413 15.6821 10.4217 15.689 10.4303 15.696C10.4389 15.7031 10.4473 15.7103 10.4556 15.7178C10.4638 15.7253 10.4719 15.7329 10.4797 15.7408C10.4876 15.7487 10.4953 15.7567 10.5027 15.765C10.5102 15.7732 10.5174 15.7816 10.5245 15.7902C10.5316 15.7988 10.5384 15.8075 10.545 15.8165C10.5516 15.8254 10.558 15.8345 10.5642 15.8438C10.5704 15.853 10.5763 15.8624 10.5821 15.8719C10.5878 15.8815 10.5932 15.8912 10.5985 15.9009C10.6037 15.9107 10.6087 15.9207 10.6135 15.9307C10.6182 15.9408 10.6227 15.951 10.627 15.9612C10.6312 15.9715 10.6352 15.9819 10.639 15.9923C10.6428 16.0028 10.6462 16.0134 10.6495 16.024C10.6527 16.0346 10.6557 16.0453 10.6583 16.0561C10.6611 16.0669 10.6635 16.0777 10.6657 16.0887C10.6678 16.0996 10.6697 16.1105 10.6713 16.1215C10.673 16.1325 10.6744 16.1436 10.6754 16.1546C10.6765 16.1657 10.6773 16.1768 10.6779 16.1879C10.6784 16.199 10.6787 16.2101 10.6787 16.2212L10.6787 20.6373L13.0987 20.6373L13.0987 16.2212C13.0987 16.2101 13.099 16.199 13.0995 16.1879C13.1001 16.1768 13.1009 16.1657 13.102 16.1546C13.1031 16.1436 13.1044 16.1325 13.1061 16.1215C13.1077 16.1105 13.1096 16.0996 13.1118 16.0887C13.114 16.0777 13.1164 16.0669 13.1191 16.0561C13.1218 16.0453 13.1248 16.0346 13.128 16.024C13.1312 16.0134 13.1347 16.0028 13.1384 15.9923C13.1422 15.9819 13.1462 15.9715 13.1504 15.9612C13.1547 15.951 13.1592 15.9408 13.1639 15.9307C13.1687 15.9207 13.1737 15.9107 13.1789 15.9009C13.1842 15.8912 13.1897 15.8815 13.1954 15.8719C13.2011 15.8624 13.207 15.853 13.2132 15.8438C13.2194 15.8345 13.2258 15.8254 13.2324 15.8165C13.239 15.8075 13.2459 15.7988 13.2529 15.7902C13.26 15.7816 13.2672 15.7732 13.2747 15.765C13.2822 15.7567 13.2899 15.7487 13.2977 15.7408C13.3056 15.7329 13.3136 15.7253 13.3218 15.7178C13.3301 15.7103 13.3385 15.7031 13.3471 15.696C13.3557 15.689 13.3645 15.6821 13.3734 15.6755C13.3823 15.6689 13.3914 15.6625 13.4007 15.6563C13.4099 15.6502 13.4193 15.6442 13.4288 15.6385C13.4384 15.6328 13.448 15.6273 13.4578 15.622C13.4677 15.6168 13.4776 15.6118 13.4876 15.6071C13.4977 15.6023 13.5079 15.5978 13.5181 15.5935C13.5284 15.5893 13.5388 15.5853 13.5492 15.5815C13.5597 15.5778 13.5703 15.5743 13.5809 15.5711C13.5915 15.5678 13.6022 15.5649 13.613 15.5622C13.6238 15.5595 13.6347 15.557 13.6455 15.5549C13.6565 15.5527 13.6674 15.5508 13.6784 15.5492C13.6894 15.5475 13.7004 15.5462 13.7115 15.5451C13.7226 15.544 13.7337 15.5432 13.7448 15.5427C13.7559 15.5421 13.767 15.5418 13.7781 15.5418C13.7892 15.5418 13.8003 15.5421 13.8114 15.5427C13.8225 15.5432 13.8336 15.544 13.8447 15.5451C13.8558 15.5462 13.8668 15.5475 13.8778 15.5492C13.8888 15.5508 13.8997 15.5527 13.9107 15.5549C13.9216 15.557 13.9324 15.5595 13.9432 15.5622C13.954 15.5649 13.9647 15.5678 13.9753 15.5711C13.986 15.5743 13.9965 15.5778 14.007 15.5815C14.0175 15.5853 14.0278 15.5893 14.0381 15.5935C14.0484 15.5978 14.0585 15.6023 14.0686 15.6071C14.0786 15.6118 14.0886 15.6168 14.0984 15.622C14.1082 15.6273 14.1178 15.6328 14.1274 15.6385C14.1369 15.6442 14.1463 15.6502 14.1556 15.6563C14.1648 15.6625 14.1739 15.6689 14.1828 15.6755C14.1918 15.6821 14.2005 15.689 14.2091 15.696C14.2177 15.7031 14.2261 15.7103 14.2344 15.7178C14.2426 15.7253 14.2507 15.7329 14.2585 15.7408C14.2664 15.7487 14.274 15.7567 14.2815 15.765C14.289 15.7732 14.2962 15.7816 14.3033 15.7902C14.3103 15.7988 14.3172 15.8075 14.3238 15.8165C14.3304 15.8254 14.3368 15.8345 14.343 15.8438C14.3492 15.853 14.3551 15.8624 14.3608 15.8719C14.3666 15.8815 14.372 15.8912 14.3773 15.9009C14.3825 15.9107 14.3875 15.9207 14.3923 15.9307C14.397 15.9408 14.4015 15.951 14.4058 15.9612C14.41 15.9715 14.414 15.9819 14.4178 15.9923C14.4216 16.0028 14.425 16.0134 14.4283 16.024C14.4315 16.0346 14.4344 16.0453 14.4371 16.0561C14.4398 16.0669 14.4423 16.0777 14.4445 16.0887C14.4466 16.0996 14.4485 16.1105 14.4501 16.1215C14.4518 16.1325 14.4532 16.1436 14.4542 16.1546C14.4553 16.1657 14.4561 16.1768 14.4567 16.1879C14.4572 16.199 14.4575 16.2101 14.4575 16.2212L14.4575 20.6373L18.4007 20.6373C18.4134 20.6373 18.4261 20.637 18.4387 20.6364C18.4514 20.6357 18.464 20.6347 18.4766 20.6333C18.4893 20.632 18.5018 20.6302 18.5143 20.6281C18.5268 20.6261 18.5393 20.6237 18.5516 20.6209C18.564 20.6181 18.5763 20.615 18.5885 20.6115C18.6007 20.6081 18.6128 20.6043 18.6248 20.6002C18.6368 20.596 18.6486 20.5915 18.6604 20.5867C18.6721 20.5819 18.6837 20.5768 18.6952 20.5714C18.7066 20.5659 18.7179 20.5601 18.729 20.554C18.7401 20.5479 18.7511 20.5416 18.7619 20.5348C18.7726 20.5281 18.7832 20.5211 18.7936 20.5138C18.804 20.5065 18.8141 20.4989 18.824 20.4911C18.834 20.4832 18.8437 20.4751 18.8532 20.4667C18.8627 20.4583 18.8719 20.4496 18.8809 20.4407C18.8899 20.4317 18.8987 20.4226 18.9072 20.4131C18.9157 20.4037 18.9239 20.3941 18.9319 20.3842C18.9398 20.3743 18.9475 20.3642 18.9549 20.3539C18.9622 20.3436 18.9693 20.3331 18.9761 20.3223C18.9829 20.3116 18.9894 20.3007 18.9956 20.2897C19.0017 20.2786 19.0076 20.2674 19.0132 20.256C19.0187 20.2446 19.0239 20.233 19.0288 20.2213C19.0337 20.2096 19.0383 20.1978 19.0426 20.1858C19.0468 20.1739 19.0507 20.1618 19.0543 20.1497C19.0578 20.1375 19.061 20.1252 19.0639 20.1129C19.0668 20.1005 19.0693 20.0881 19.0715 20.0756C19.0736 20.0631 19.0755 20.0506 19.077 20.038C19.0784 20.0254 19.0795 20.0128 19.0803 20.0001C19.081 19.9874 19.0815 19.9748 19.0815 19.9621C19.0816 19.9494 19.0813 19.9367 19.0806 19.924C19.08 19.9114 19.0789 19.8988 19.0776 19.8862C19.0762 19.8735 19.0745 19.861 19.0724 19.8485C19.0703 19.836 19.0679 19.8235 19.0652 19.8111L18.3586 16.6125L18.3586 11.2467L18.3599 11.2467Z"   fill="currentColor" >
</path>
</svg>
