<svg xmlns="http://www.w3.org/2000/svg" xmlns:xlink="http://www.w3.org/1999/xlink" width="24" height="17.454238891601562" viewBox="0 0 24 17.454238891601562" fill="none">
<path d="M14.1815 10.3309C14.7086 10.3312 15.1357 10.7586 15.1354 11.2857C15.1351 11.7821 14.7545 12.1954 14.2601 12.2365L14.1815 12.2399L9.81878 12.2399C9.29169 12.2396 8.8646 11.8122 8.86488 11.2851C8.86516 10.7887 9.24576 10.3755 9.74018 10.3346L9.81878 10.3312L14.1815 10.3312L14.1815 10.3309ZM5.45776 15.2726L17.4556 15.2726C19.8652 15.2709 21.8172 13.3161 21.8155 10.9068C21.8139 8.49724 19.859 6.5452 17.4497 6.54689C17.3531 6.54689 17.2568 6.55027 17.1604 6.55675L16.3336 6.6114L16.0586 5.83047C15.056 2.98877 11.9399 1.49818 9.09842 2.50054C6.9196 3.26936 5.46142 5.32704 5.45804 7.63743L5.45917 7.75209L5.47663 8.61584L4.63993 8.83079C2.89073 9.28915 1.84386 11.0786 2.30222 12.8278C2.67831 14.264 3.97338 15.2672 5.45776 15.2726ZM24 10.9099C24 14.5241 21.0701 17.4542 17.4556 17.4542L5.45776 17.4542C2.44589 17.4565 0.00225553 15.0165 1.71948e-06 12.0046C-0.00168853 9.82244 1.29789 7.84928 3.30345 6.98863C3.66067 2.78705 7.35627 -0.329336 11.5578 0.0278857C14.2697 0.258614 16.6536 1.91513 17.8154 4.37624C21.2845 4.56752 23.9994 7.43571 24 10.9099Z"   fill="currentColor" >
</path>
</svg>
