<svg xmlns="http://www.w3.org/2000/svg" xmlns:xlink="http://www.w3.org/1999/xlink" width="20" height="20" viewBox="0 0 20 20" fill="none">
<path d="M10.279 0.0936694C10.3336 0.079739 10.3886 0.0673583 10.4439 0.0565273C10.4993 0.0456797 10.5548 0.0363819 10.6106 0.0286338C10.6664 0.0209019 10.7224 0.014736 10.7786 0.0101359C10.8347 0.00551962 10.891 0.00247755 10.9473 0.00100935C11.0036 -0.000442233 11.0599 -0.000328176 11.1162 0.0013519C11.1726 0.00303216 11.2288 0.0062863 11.2849 0.0111147C11.3411 0.015943 11.397 0.0223374 11.4528 0.0302977C11.5086 0.0382578 11.5641 0.0477678 11.6194 0.0588273C11.6747 0.0698865 11.7296 0.0824797 11.7842 0.0966058C11.8388 0.110748 11.893 0.126399 11.9467 0.14356C12.0005 0.16072 12.0537 0.179364 12.1065 0.199493C12.1592 0.219639 12.2114 0.241236 12.263 0.264286C12.3146 0.287349 12.3655 0.311827 12.4157 0.337714C12.466 0.363616 12.5155 0.390905 12.5643 0.419584C12.6131 0.448243 12.6611 0.478248 12.7083 0.509601C12.7554 0.540952 12.8017 0.573599 12.8471 0.607546C12.8925 0.641491 12.937 0.676675 12.9805 0.713098C13.024 0.749524 13.0665 0.787138 13.108 0.825945C13.1495 0.864736 13.1898 0.90466 13.2292 0.945718C13.2685 0.986775 13.3067 1.0289 13.3437 1.07209C13.3808 1.1153 13.4166 1.1595 13.4513 1.20469C13.486 1.24989 13.5194 1.29603 13.5516 1.3431C13.5838 1.39016 13.6146 1.43809 13.6442 1.4869C13.6738 1.53569 13.7021 1.58527 13.729 1.63564C13.7559 1.68601 13.7815 1.7371 13.8056 1.78891C13.8297 1.8407 13.8525 1.89313 13.8738 1.94621C13.8952 1.99929 13.915 2.05292 13.9334 2.10709C13.9519 2.16127 13.9689 2.21594 13.9843 2.27107C13.9998 2.32621 14.0138 2.38173 14.0263 2.43765C14.0388 2.49355 14.0497 2.54978 14.0592 2.6063C14.0687 2.66282 14.0766 2.71959 14.083 2.77655C14.0894 2.83351 14.0942 2.89062 14.0975 2.94785L14.1027 3.1316L14.1027 5.38446L15.1283 5.38446C15.1768 5.38446 15.2253 5.38564 15.2737 5.38796C15.3221 5.39031 15.3704 5.39379 15.4187 5.39843C15.467 5.40308 15.5151 5.40891 15.5631 5.41586C15.6111 5.42285 15.6589 5.43098 15.7065 5.44023C15.7541 5.4495 15.8015 5.4599 15.8486 5.47145C15.8957 5.483 15.9426 5.49567 15.9891 5.50947C16.0356 5.52327 16.0818 5.5382 16.1277 5.5542C16.1735 5.57022 16.219 5.58735 16.264 5.60556C16.3091 5.62376 16.3537 5.64304 16.3979 5.6634C16.442 5.68375 16.4857 5.70516 16.5288 5.7276C16.572 5.75006 16.6146 5.77355 16.6567 5.79804C16.6988 5.82256 16.7403 5.84808 16.7812 5.87456C16.8221 5.90108 16.8623 5.92853 16.9019 5.95696C16.9415 5.98542 16.9805 6.01481 17.0187 6.0451C17.057 6.07541 17.0945 6.10663 17.1313 6.13874C17.1681 6.17086 17.2041 6.20385 17.2394 6.23768C17.2747 6.27155 17.3092 6.30622 17.3428 6.34172C17.3765 6.37725 17.4093 6.41354 17.4412 6.4506C17.4732 6.4877 17.5043 6.52555 17.5345 6.56411C17.5648 6.60272 17.5941 6.64199 17.6225 6.68197C17.6509 6.72198 17.6783 6.76264 17.7048 6.80395C17.7313 6.84525 17.7569 6.88719 17.7814 6.92971C17.806 6.97226 17.8295 7.01537 17.8521 7.05905C17.8746 7.10272 17.8962 7.14691 17.9167 7.19162C17.9372 7.23634 17.9566 7.28151 17.975 7.32714C17.9934 7.3728 18.0108 7.41887 18.0271 7.46534C18.0433 7.51183 18.0585 7.55868 18.0726 7.60588C18.0867 7.65311 18.0997 7.70062 18.1116 7.74846C18.1234 7.79629 18.1342 7.84437 18.1439 7.89272C18.1535 7.94109 18.1621 7.98966 18.1694 8.0384C18.1768 8.08719 18.1831 8.1361 18.1882 8.18514C18.1934 8.23422 18.1973 8.28338 18.2002 8.33263L18.2053 8.51636L18.2053 18.434L19.231 18.434C19.243 18.434 19.2551 18.4343 19.2671 18.4349C19.2791 18.4355 19.2911 18.4364 19.3031 18.4375C19.3151 18.4387 19.327 18.4401 19.339 18.4418C19.3509 18.4435 19.3628 18.4455 19.3746 18.4478C19.3864 18.4501 19.3982 18.4527 19.4099 18.4556C19.4216 18.4584 19.4332 18.4615 19.4448 18.4649C19.4564 18.4684 19.4678 18.472 19.4792 18.476C19.4906 18.48 19.5019 18.4842 19.5131 18.4887C19.5243 18.4932 19.5354 18.498 19.5464 18.503C19.5574 18.508 19.5682 18.5133 19.579 18.5189C19.5897 18.5244 19.6003 18.5302 19.6108 18.5362C19.6213 18.5423 19.6316 18.5486 19.6417 18.5552C19.6519 18.5617 19.6619 18.5685 19.6718 18.5755C19.6817 18.5826 19.6914 18.5898 19.7009 18.5973C19.7104 18.6048 19.7198 18.6125 19.7289 18.6204C19.7381 18.6284 19.7471 18.6365 19.7559 18.6449C19.7647 18.6533 19.7733 18.6618 19.7817 18.6706C19.7901 18.6794 19.7983 18.6884 19.8063 18.6975C19.8143 18.7067 19.822 18.716 19.8296 18.7256C19.8372 18.7351 19.8445 18.7448 19.8516 18.7547C19.8587 18.7646 19.8656 18.7747 19.8722 18.7849C19.8789 18.7951 19.8853 18.8055 19.8914 18.816C19.8976 18.8265 19.9035 18.8372 19.9092 18.848C19.9149 18.8588 19.9203 18.8698 19.9255 18.8808C19.9307 18.8919 19.9356 18.9031 19.9402 18.9144C19.9449 18.9257 19.9493 18.9371 19.9534 18.9486C19.9575 18.9601 19.9614 18.9717 19.965 18.9834C19.9686 18.9951 19.9719 19.0069 19.9749 19.0188C19.978 19.0306 19.9808 19.0425 19.9833 19.0545C19.9858 19.0665 19.988 19.0786 19.9899 19.0906C19.9919 19.1027 19.9935 19.1149 19.9949 19.1271C19.9963 19.1392 19.9974 19.1514 19.9982 19.1637C19.999 19.1759 19.9996 19.1881 19.9998 19.2004C20.0001 19.2126 20.0001 19.2249 19.9997 19.2371C19.9994 19.2494 19.9988 19.2616 19.998 19.2738C19.9971 19.2861 19.9959 19.2983 19.9945 19.3104C19.9931 19.3226 19.9914 19.3347 19.9894 19.3468C19.9874 19.3589 19.9851 19.3709 19.9825 19.3829C19.98 19.3949 19.9772 19.4068 19.974 19.4186C19.971 19.4305 19.9676 19.4422 19.9639 19.4539C19.9603 19.4656 19.9564 19.4772 19.9522 19.4886C19.948 19.5001 19.9436 19.5115 19.9389 19.5228C19.9342 19.5341 19.9292 19.5453 19.924 19.5563C19.9188 19.5674 19.9133 19.5783 19.9076 19.5891C19.9019 19.5998 19.8959 19.6105 19.8897 19.621C19.8835 19.6315 19.877 19.6418 19.8703 19.652C19.8637 19.6622 19.8568 19.6722 19.8496 19.6821C19.8425 19.6919 19.8351 19.7016 19.8275 19.7111C19.8199 19.7206 19.8121 19.73 19.804 19.7391C19.796 19.7482 19.7878 19.7571 19.7793 19.7659C19.7709 19.7746 19.7623 19.7832 19.7534 19.7915C19.7446 19.7998 19.7356 19.8079 19.7263 19.8158C19.7172 19.8237 19.7078 19.8314 19.6982 19.8388C19.6886 19.8463 19.6789 19.8535 19.669 19.8605C19.6591 19.8675 19.6491 19.8742 19.6389 19.8807C19.6287 19.8872 19.6183 19.8935 19.6078 19.8995C19.5973 19.9055 19.5867 19.9112 19.5759 19.9167C19.5652 19.9222 19.5543 19.9275 19.5433 19.9324C19.5323 19.9374 19.5212 19.9421 19.5099 19.9466C19.4987 19.951 19.4874 19.9552 19.476 19.9591C19.4646 19.963 19.4531 19.9667 19.4415 19.97C19.4299 19.9734 19.4183 19.9765 19.4066 19.9792C19.3948 19.9821 19.3831 19.9846 19.3712 19.9868C19.3594 19.9891 19.3475 19.991 19.3356 19.9927L19.231 20L0.769015 20C0.756982 20 0.744945 19.9997 0.732909 19.9991C0.720889 19.9985 0.708887 19.9977 0.696898 19.9965C0.684913 19.9954 0.672956 19.9939 0.661035 19.9922C0.649109 19.9905 0.637234 19.9885 0.625406 19.9862C0.613579 19.9839 0.601817 19.9813 0.590117 19.9785C0.578403 19.9756 0.566761 19.9725 0.555191 19.9691C0.543635 19.9657 0.532161 19.962 0.520765 19.958C0.50937 19.954 0.498072 19.9498 0.486869 19.9453C0.475667 19.9408 0.464578 19.9361 0.453599 19.931C0.442623 19.926 0.431765 19.9207 0.421029 19.9152C0.410291 19.9096 0.39969 19.9038 0.389223 19.8978C0.378759 19.8917 0.368439 19.8854 0.358263 19.8789C0.348085 19.8723 0.338061 19.8655 0.32819 19.8585C0.318332 19.8515 0.308637 19.8442 0.299103 19.8367C0.289567 19.8292 0.280216 19.8215 0.27105 19.8136C0.261864 19.8057 0.252874 19.7975 0.244078 19.7891C0.235294 19.7808 0.226696 19.7722 0.218283 19.7634C0.209885 19.7547 0.201688 19.7457 0.193691 19.7365C0.18571 19.7273 0.177937 19.718 0.170373 19.7084C0.162825 19.6989 0.155493 19.6892 0.148377 19.6793C0.141278 19.6694 0.134403 19.6594 0.127752 19.6491C0.121117 19.6389 0.114715 19.6285 0.108545 19.618C0.102374 19.6075 0.096453 19.5968 0.0907798 19.586C0.0851049 19.5752 0.0796833 19.5643 0.074515 19.5532C0.0693449 19.5421 0.064433 19.5309 0.059779 19.5196C0.0551265 19.5083 0.0507363 19.4969 0.0466081 19.4854C0.0424813 19.4739 0.0386223 19.4623 0.0350309 19.4506C0.031438 19.4389 0.0281172 19.4271 0.0250691 19.4153C0.0220208 19.4034 0.0192476 19.3915 0.0167491 19.3795C0.0142492 19.3675 0.0120279 19.3555 0.0100855 19.3434C0.00814163 19.3313 0.00647816 19.3192 0.00509512 19.307C0.00371208 19.2948 0.0026102 19.2826 0.00178965 19.2704C0.000969102 19.2582 0.00043063 19.2459 0.000174233 19.2337C-8.21646e-05 19.2214 -5.57547e-05 19.2092 0.000253648 19.1969C0.000562864 19.1847 0.00115416 19.1724 0.00202771 19.1602C0.00290108 19.148 0.00405577 19.1358 0.00549164 19.1236C0.00692915 19.1115 0.00864563 19.0993 0.0106409 19.0872C0.0126361 19.0752 0.0149094 19.0631 0.0174607 19.0512C0.0200104 19.0392 0.0228359 19.0272 0.0259369 19.0154C0.0290365 19.0036 0.0324072 18.9918 0.0360501 18.9801C0.0396927 18.9685 0.0436032 18.9569 0.0477812 18.9454C0.0519575 18.9339 0.0563967 18.9225 0.0610988 18.9112C0.0658008 18.8999 0.0707608 18.8888 0.0759789 18.8777C0.0811971 18.8667 0.086666 18.8558 0.0923856 18.845C0.09811 18.8342 0.104073 18.8236 0.110275 18.8131C0.116494 18.8026 0.122944 18.7922 0.129627 18.782C0.136326 18.7719 0.143249 18.7618 0.150397 18.752C0.157544 18.7421 0.164916 18.7324 0.172512 18.7229C0.180109 18.7134 0.187921 18.7041 0.19595 18.6949C0.203979 18.6858 0.212217 18.6769 0.220663 18.6681C0.229108 18.6594 0.237746 18.6509 0.246575 18.6425C0.255407 18.6342 0.264429 18.6261 0.273643 18.6182C0.282843 18.6103 0.292226 18.6026 0.301795 18.5952C0.311361 18.5878 0.321089 18.5805 0.330976 18.5735C0.340866 18.5666 0.350914 18.5598 0.361121 18.5533C0.371331 18.5468 0.381684 18.5406 0.39218 18.5346C0.402678 18.5285 0.413303 18.5228 0.424058 18.5173C0.434811 18.5118 0.445693 18.5066 0.456703 18.5016C0.467696 18.4966 0.478802 18.4919 0.490019 18.4874C0.501238 18.483 0.51256 18.4788 0.523986 18.4749C0.535397 18.471 0.546888 18.4674 0.558458 18.464C0.570045 18.4607 0.581696 18.4576 0.59341 18.4548C0.605127 18.452 0.616906 18.4495 0.628748 18.4472C0.640592 18.445 0.652474 18.443 0.6644 18.4413L0.769015 18.434L1.79469 18.434L1.79469 4.69755C1.79469 4.65625 1.79549 4.61495 1.79709 4.57364C1.7987 4.53239 1.8011 4.49116 1.80431 4.44996C1.80751 4.40878 1.81151 4.36767 1.8163 4.32664C1.82111 4.28563 1.82671 4.24472 1.8331 4.20391C1.8395 4.16312 1.84669 4.12248 1.85467 4.08196C1.86265 4.04147 1.87141 4.00114 1.88094 3.96097C1.89049 3.92082 1.90081 3.88086 1.9119 3.84112C1.92299 3.80139 1.93486 3.7619 1.94751 3.72263C1.96013 3.68338 1.97352 3.64438 1.98768 3.60567C2.00181 3.56696 2.0167 3.52852 2.03234 3.4904C2.04798 3.45228 2.06436 3.4145 2.08147 3.37702C2.09859 3.33956 2.11643 3.30246 2.13498 3.26571C2.15353 3.22896 2.17278 3.1926 2.19275 3.15663C2.21272 3.12067 2.23338 3.08511 2.25472 3.04998C2.27609 3.01484 2.29811 2.98017 2.32081 2.94592C2.3435 2.91166 2.36685 2.87789 2.39086 2.84457C2.41489 2.81127 2.43953 2.77846 2.46482 2.74613C2.49011 2.71384 2.51602 2.68203 2.54254 2.65076C2.56907 2.61949 2.59619 2.58878 2.62388 2.55859C2.65162 2.52842 2.67992 2.49881 2.70876 2.46974C2.73764 2.44072 2.76706 2.41227 2.79704 2.38441C2.82701 2.35656 2.85752 2.32933 2.88855 2.30271C2.91959 2.27607 2.95113 2.25008 2.98317 2.22473C3.01521 2.19936 3.04774 2.17466 3.08074 2.15062C3.11375 2.12657 3.14721 2.10321 3.18111 2.08052C3.21503 2.05781 3.24938 2.0358 3.28414 2.0145C3.31892 1.99318 3.35409 1.97257 3.38965 1.95267C3.42522 1.93277 3.46119 1.9136 3.49749 1.89515C3.53381 1.8767 3.57047 1.85898 3.60746 1.842C3.64448 1.82504 3.68179 1.80881 3.71941 1.79334C3.75706 1.77787 3.79499 1.76316 3.83319 1.74922C3.87141 1.73527 3.90987 1.72211 3.94858 1.70973L4.12498 1.65962L10.279 0.0936694ZM10.6523 1.61264L4.49833 3.17858C4.47772 3.18382 4.45722 3.18949 4.43683 3.19561C4.41645 3.20173 4.39621 3.20828 4.37609 3.21523C4.35599 3.22221 4.33601 3.2296 4.31621 3.2374C4.2964 3.24521 4.27676 3.25343 4.25726 3.26207C4.23779 3.2707 4.21851 3.27973 4.19938 3.28918C4.18029 3.29865 4.16137 3.30851 4.14264 3.31873C4.12394 3.32899 4.10546 3.33963 4.08716 3.35064C4.06889 3.36167 4.05086 3.37308 4.03303 3.38487C4.01524 3.39666 3.99766 3.40882 3.98033 3.42135C3.96302 3.43388 3.94598 3.44677 3.92918 3.46001C3.9124 3.47327 3.89588 3.48685 3.87963 3.5008C3.86338 3.51475 3.84745 3.52904 3.83177 3.54364C3.81612 3.55827 3.80076 3.5732 3.78571 3.58847C3.77066 3.60374 3.75593 3.61932 3.74151 3.63518C3.72711 3.65108 3.71302 3.66725 3.69924 3.68375C3.68549 3.70024 3.67208 3.717 3.659 3.73403C3.64593 3.75108 3.63321 3.7684 3.62083 3.78597C3.60847 3.80357 3.59645 3.8214 3.58482 3.83948C3.57318 3.85759 3.56191 3.87592 3.551 3.89446C3.54011 3.91303 3.5296 3.93183 3.51946 3.95081C3.50931 3.96982 3.49958 3.98903 3.49023 4.00846C3.48087 4.02789 3.47191 4.04749 3.46335 4.06728C3.45482 4.08708 3.44667 4.10704 3.43893 4.12718C3.43119 4.14732 3.42385 4.1676 3.41693 4.18805C3.41003 4.20851 3.40354 4.22911 3.39746 4.24981C3.39138 4.27054 3.38573 4.29138 3.38049 4.31233C3.37527 4.3333 3.37046 4.35436 3.36609 4.37553C3.36171 4.39669 3.35777 4.41793 3.35426 4.43927C3.35078 4.4606 3.3477 4.48199 3.34505 4.50345C3.34243 4.5249 3.34025 4.54641 3.33847 4.56794C3.33671 4.58952 3.33539 4.6111 3.3345 4.63269C3.33364 4.65432 3.33318 4.67592 3.33318 4.69755L3.33318 18.434L12.5642 18.434L12.5642 3.1316C12.5642 3.10197 12.5633 3.07237 12.5617 3.04278C12.56 3.01323 12.5576 2.98372 12.5542 2.95426C12.5509 2.92485 12.5468 2.89554 12.5419 2.86632C12.537 2.83711 12.5312 2.80809 12.5247 2.77922C12.5181 2.75034 12.5108 2.72169 12.5026 2.69326C12.4945 2.66483 12.4855 2.63664 12.4758 2.6087C12.4661 2.58078 12.4556 2.55316 12.4443 2.52583C12.4331 2.49852 12.4211 2.47153 12.4083 2.44492C12.3955 2.4183 12.382 2.39206 12.3678 2.3662C12.3535 2.34037 12.3386 2.31495 12.323 2.28996C12.3073 2.26499 12.291 2.24048 12.274 2.21644C12.2569 2.19241 12.2393 2.16888 12.221 2.14584C12.2026 2.12283 12.1837 2.10036 12.1641 2.07844C12.1445 2.05651 12.1243 2.03518 12.1036 2.01443C12.0828 1.99366 12.0615 1.97352 12.0396 1.95399C12.0177 1.93447 11.9953 1.91559 11.9723 1.89737C11.9494 1.87914 11.926 1.86158 11.902 1.84469C11.8781 1.82783 11.8537 1.81166 11.8289 1.7962C11.8041 1.78072 11.7788 1.76597 11.7532 1.75196C11.7276 1.73796 11.7015 1.72471 11.6751 1.7122C11.6488 1.69969 11.622 1.68795 11.595 1.67699C11.568 1.66603 11.5406 1.65586 11.513 1.64648C11.4854 1.63708 11.4576 1.6285 11.4295 1.62071C11.4014 1.61295 11.3731 1.60599 11.3446 1.59984C11.3162 1.59371 11.2875 1.58839 11.2587 1.58389C11.23 1.5794 11.2011 1.57575 11.1721 1.57293C11.1432 1.57011 11.1141 1.56812 11.085 1.56698C11.056 1.56584 11.0269 1.56554 10.9978 1.56608C10.9687 1.56662 10.9396 1.56799 10.9106 1.57021C10.8816 1.57243 10.8526 1.57548 10.8237 1.57936C10.7949 1.58326 10.7662 1.58798 10.7376 1.59353C10.709 1.59908 10.6806 1.60545 10.6523 1.61264ZM15.1283 6.95041L14.1027 6.95041L14.1027 18.434L16.6668 18.434L16.6668 8.51636C16.6668 8.49074 16.6662 8.46512 16.665 8.43953C16.6637 8.41394 16.6619 8.38839 16.6594 8.36287C16.6569 8.33738 16.6539 8.31195 16.6502 8.2866C16.6465 8.26126 16.6422 8.23601 16.6373 8.21088C16.6324 8.18575 16.6268 8.16074 16.6207 8.13588C16.6146 8.11102 16.6079 8.08634 16.6006 8.06179C16.5932 8.03728 16.5854 8.01296 16.5769 7.98881C16.5684 7.96468 16.5594 7.9408 16.5497 7.91711C16.5401 7.89343 16.5299 7.87001 16.5191 7.84684C16.5083 7.8237 16.497 7.80079 16.4851 7.77819C16.4733 7.75558 16.4609 7.73329 16.4479 7.71132C16.435 7.68934 16.4215 7.66769 16.4075 7.64638C16.3935 7.62507 16.3791 7.60412 16.3641 7.58354C16.3491 7.56297 16.3336 7.54276 16.3176 7.52294C16.3016 7.50314 16.2852 7.48374 16.2683 7.46475C16.2514 7.44576 16.234 7.42719 16.2162 7.40906C16.1984 7.39096 16.1802 7.37329 16.1615 7.35606C16.1429 7.33886 16.1238 7.32213 16.1043 7.30588C16.0849 7.28963 16.065 7.27385 16.0448 7.25858C16.0246 7.24332 16.004 7.22856 15.9831 7.21432C15.9621 7.20008 15.9409 7.18638 15.9193 7.17322C15.8977 7.16005 15.8758 7.1474 15.8536 7.13532C15.8314 7.12325 15.8089 7.11173 15.7861 7.10077C15.7633 7.08981 15.7403 7.07943 15.7171 7.06962C15.6938 7.05983 15.6703 7.05061 15.6466 7.04195C15.6229 7.03333 15.599 7.02528 15.5749 7.01784C15.5508 7.01041 15.5266 7.00358 15.5021 6.99734C15.4777 6.99113 15.4532 6.98552 15.4285 6.98051C15.4038 6.97552 15.379 6.97114 15.3541 6.96737C15.3292 6.96362 15.3042 6.96049 15.2791 6.95797C15.2541 6.95548 15.229 6.95357 15.2038 6.9523C15.1787 6.95105 15.1535 6.95041 15.1283 6.95041Z"   fill="currentColor" >
</path>
<path d="M7.505 13.545L9.165 13.545C9.17523 13.545 9.18478 13.545 9.195 13.545C9.20521 13.545 9.21482 13.545 9.225 13.545C9.23518 13.545 9.24488 13.545 9.255 13.545C9.26512 13.545 9.27498 13.555 9.285 13.555C9.29504 13.555 9.315 13.565 9.315 13.565L9.345 13.565L9.375 13.575L9.405 13.585L9.435 13.605L9.465 13.615L9.485 13.635L9.515 13.645L9.535 13.665L9.565 13.685L9.585 13.705L9.605 13.725L9.625 13.745L9.645 13.775L9.665 13.795L9.685 13.815L9.705 13.845L9.715 13.875L9.735 13.895L9.745 13.925L9.755 13.955L9.765 13.985L9.775 14.015C9.775 14.015 9.775 14.035 9.775 14.045C9.775 14.055 9.785 14.0649 9.785 14.075C9.785 14.0851 9.785 14.0948 9.785 14.105C9.785 14.1152 9.795 14.1248 9.795 14.135C9.795 14.1452 9.795 14.1548 9.795 14.165C9.795 14.1752 9.795 14.1848 9.795 14.195C9.795 14.2052 9.785 14.2148 9.785 14.225C9.785 14.2352 9.785 14.2449 9.785 14.255C9.785 14.2651 9.775 14.275 9.775 14.285C9.775 14.295 9.775 14.315 9.775 14.315L9.765 14.345L9.755 14.375L9.745 14.405L9.735 14.435L9.715 14.465L9.705 14.485L9.685 14.515L9.665 14.535L9.645 14.565L9.625 14.585L9.605 14.605L9.585 14.625L9.565 14.645L9.535 14.665L9.515 14.685L9.485 14.705L9.465 14.715L9.435 14.735L9.405 14.745L9.375 14.755L9.345 14.765L9.315 14.775C9.315 14.775 9.29504 14.775 9.285 14.775C9.27498 14.775 9.26512 14.785 9.255 14.785C9.24488 14.785 9.23518 14.785 9.225 14.785C9.21482 14.785 9.20521 14.795 9.195 14.795C9.18478 14.795 9.17523 14.795 9.165 14.795L7.505 14.795C7.49477 14.795 7.47521 14.795 7.465 14.795C7.45478 14.795 7.44518 14.785 7.435 14.785C7.42483 14.785 7.41512 14.785 7.405 14.785C7.39488 14.785 7.38504 14.775 7.375 14.775C7.36497 14.775 7.345 14.775 7.345 14.775L7.315 14.765L7.285 14.755L7.265 14.745L7.235 14.735L7.205 14.715L7.175 14.705L7.155 14.685L7.125 14.665L7.105 14.645L7.085 14.625L7.055 14.605L7.035 14.585L7.015 14.565L6.995 14.535L6.985 14.515L6.965 14.485L6.945 14.465L6.935 14.435L6.925 14.405L6.915 14.375L6.905 14.345L6.895 14.315C6.895 14.315 6.885 14.295 6.885 14.285C6.885 14.275 6.885 14.2651 6.885 14.255C6.885 14.2449 6.875 14.2352 6.875 14.225C6.875 14.2148 6.875 14.2052 6.875 14.195C6.875 14.1848 6.875 14.1752 6.875 14.165C6.875 14.1548 6.875 14.1452 6.875 14.135C6.875 14.1248 6.875 14.1152 6.875 14.105C6.875 14.0948 6.885 14.0851 6.885 14.075C6.885 14.0649 6.885 14.055 6.885 14.045C6.885 14.035 6.895 14.015 6.895 14.015L6.905 13.985L6.915 13.955L6.925 13.925L6.935 13.895L6.945 13.875L6.965 13.845L6.985 13.815L6.995 13.795L7.015 13.775L7.035 13.745L7.055 13.725L7.085 13.705L7.105 13.685L7.125 13.665L7.155 13.645L7.175 13.635L7.205 13.615L7.235 13.605L7.265 13.585L7.285 13.575L7.315 13.565L7.345 13.565C7.345 13.565 7.36497 13.555 7.375 13.555C7.38504 13.555 7.39488 13.545 7.405 13.545C7.41512 13.545 7.42483 13.545 7.435 13.545C7.44518 13.545 7.45478 13.545 7.465 13.545C7.47521 13.545 7.49477 13.545 7.505 13.545ZM7.505 10.205L9.165 10.205C9.17523 10.205 9.18478 10.205 9.195 10.205C9.20521 10.205 9.21482 10.215 9.225 10.215C9.23518 10.215 9.24488 10.215 9.255 10.215C9.26512 10.215 9.27498 10.225 9.285 10.225C9.29504 10.225 9.315 10.225 9.315 10.225L9.345 10.235L9.375 10.245L9.405 10.255L9.435 10.265L9.465 10.285L9.485 10.295L9.515 10.315L9.535 10.335L9.565 10.355L9.585 10.375L9.605 10.395L9.625 10.415L9.645 10.435L9.665 10.465L9.685 10.485L9.705 10.515L9.715 10.535L9.735 10.565L9.745 10.595L9.755 10.625L9.765 10.655L9.775 10.685C9.775 10.685 9.775 10.705 9.775 10.715C9.775 10.725 9.785 10.7349 9.785 10.745C9.785 10.7551 9.785 10.7648 9.785 10.775C9.785 10.7852 9.795 10.7948 9.795 10.805C9.795 10.8152 9.795 10.8248 9.795 10.835C9.795 10.8452 9.795 10.8548 9.795 10.865C9.795 10.8752 9.785 10.8848 9.785 10.895C9.785 10.9052 9.785 10.9149 9.785 10.925C9.785 10.9351 9.775 10.945 9.775 10.955C9.775 10.965 9.775 10.985 9.775 10.985L9.765 11.015L9.755 11.045L9.745 11.075L9.735 11.105L9.715 11.125L9.705 11.155L9.685 11.185L9.665 11.205L9.645 11.225L9.625 11.255L9.605 11.275L9.585 11.295L9.565 11.315L9.535 11.335L9.515 11.355L9.485 11.365L9.465 11.385L9.435 11.395L9.405 11.415L9.375 11.425L9.345 11.435L9.315 11.435C9.315 11.435 9.29504 11.445 9.285 11.445C9.27498 11.445 9.26512 11.455 9.255 11.455C9.24488 11.455 9.23518 11.455 9.225 11.455C9.21482 11.455 9.20521 11.455 9.195 11.455C9.18478 11.455 9.17523 11.455 9.165 11.455L7.505 11.455C7.49477 11.455 7.47521 11.455 7.465 11.455C7.45478 11.455 7.44518 11.455 7.435 11.455C7.42483 11.455 7.41512 11.455 7.405 11.455C7.39488 11.455 7.38504 11.445 7.375 11.445C7.36497 11.445 7.345 11.435 7.345 11.435L7.315 11.435L7.285 11.425L7.265 11.415L7.235 11.395L7.205 11.385L7.175 11.365L7.155 11.355L7.125 11.335L7.105 11.315L7.085 11.295L7.055 11.275L7.035 11.255L7.015 11.225L6.995 11.205L6.985 11.185L6.965 11.155L6.945 11.125L6.935 11.105L6.925 11.075L6.915 11.045L6.905 11.015L6.895 10.985C6.895 10.985 6.885 10.965 6.885 10.955C6.885 10.945 6.885 10.9351 6.885 10.925C6.885 10.9149 6.875 10.9052 6.875 10.895C6.875 10.8848 6.875 10.8752 6.875 10.865C6.875 10.8548 6.875 10.8452 6.875 10.835C6.875 10.8248 6.875 10.8152 6.875 10.805C6.875 10.7948 6.875 10.7852 6.875 10.775C6.875 10.7648 6.885 10.7551 6.885 10.745C6.885 10.7349 6.885 10.725 6.885 10.715C6.885 10.705 6.895 10.685 6.895 10.685L6.905 10.655L6.915 10.625L6.925 10.595L6.935 10.565L6.945 10.535L6.965 10.515L6.985 10.485L6.995 10.465L7.015 10.435L7.035 10.415L7.055 10.395L7.085 10.375L7.105 10.355L7.125 10.335L7.155 10.315L7.175 10.295L7.205 10.285L7.235 10.265L7.265 10.255L7.285 10.245L7.315 10.235L7.345 10.225C7.345 10.225 7.36497 10.225 7.375 10.225C7.38504 10.225 7.39488 10.215 7.405 10.215C7.41512 10.215 7.42483 10.215 7.435 10.215C7.44518 10.215 7.45478 10.205 7.465 10.205C7.47521 10.205 7.49477 10.205 7.505 10.205ZM7.505 6.875L9.165 6.875C9.17523 6.875 9.18478 6.875 9.195 6.875C9.20521 6.875 9.21482 6.875 9.225 6.875C9.23518 6.875 9.24488 6.885 9.255 6.885C9.26512 6.885 9.27498 6.885 9.285 6.885C9.29504 6.885 9.315 6.895 9.315 6.895L9.345 6.905L9.375 6.915L9.405 6.925L9.435 6.935L9.465 6.945L9.485 6.965L9.515 6.985L9.535 6.995L9.565 7.015L9.585 7.035L9.605 7.055L9.625 7.085L9.645 7.105L9.665 7.125L9.685 7.155L9.705 7.175L9.715 7.205L9.735 7.235L9.745 7.265L9.755 7.285L9.765 7.315L9.775 7.345C9.775 7.345 9.775 7.36497 9.775 7.375C9.775 7.38504 9.785 7.39488 9.785 7.405C9.785 7.41512 9.785 7.42483 9.785 7.435C9.785 7.44518 9.795 7.45478 9.795 7.465C9.795 7.47521 9.795 7.49477 9.795 7.505C9.795 7.51523 9.795 7.52479 9.795 7.535C9.795 7.54522 9.785 7.55482 9.785 7.565C9.785 7.57517 9.785 7.58488 9.785 7.595C9.785 7.60512 9.775 7.61496 9.775 7.625C9.775 7.63503 9.775 7.655 9.775 7.655L9.765 7.685L9.755 7.715L9.745 7.735L9.735 7.765L9.715 7.795L9.705 7.825L9.685 7.845L9.665 7.875L9.645 7.895L9.625 7.915L9.605 7.945L9.585 7.965L9.565 7.985L9.535 8.005L9.515 8.015L9.485 8.035L9.465 8.055L9.435 8.065L9.405 8.075L9.375 8.085L9.345 8.095L9.315 8.105C9.315 8.105 9.29504 8.115 9.285 8.115C9.27498 8.115 9.26512 8.115 9.255 8.115C9.24488 8.115 9.23518 8.125 9.225 8.125C9.21482 8.125 9.20521 8.125 9.195 8.125C9.18478 8.125 9.17523 8.125 9.165 8.125L7.505 8.125C7.49477 8.125 7.47521 8.125 7.465 8.125C7.45478 8.125 7.44518 8.125 7.435 8.125C7.42483 8.125 7.41512 8.115 7.405 8.115C7.39488 8.115 7.38504 8.115 7.375 8.115C7.36497 8.115 7.345 8.105 7.345 8.105L7.315 8.095L7.285 8.085L7.265 8.075L7.235 8.065L7.205 8.055L7.175 8.035L7.155 8.015L7.125 8.005L7.105 7.985L7.085 7.965L7.055 7.945L7.035 7.915L7.015 7.895L6.995 7.875L6.985 7.845L6.965 7.825L6.945 7.795L6.935 7.765L6.925 7.735L6.915 7.715L6.905 7.685L6.895 7.655C6.895 7.655 6.885 7.63503 6.885 7.625C6.885 7.61496 6.885 7.60512 6.885 7.595C6.885 7.58488 6.875 7.57517 6.875 7.565C6.875 7.55482 6.875 7.54522 6.875 7.535C6.875 7.52479 6.875 7.51523 6.875 7.505C6.875 7.49477 6.875 7.47521 6.875 7.465C6.875 7.45478 6.875 7.44518 6.875 7.435C6.875 7.42483 6.885 7.41512 6.885 7.405C6.885 7.39488 6.885 7.38504 6.885 7.375C6.885 7.36497 6.895 7.345 6.895 7.345L6.905 7.315L6.915 7.285L6.925 7.265L6.935 7.235L6.945 7.205L6.965 7.175L6.985 7.155L6.995 7.125L7.015 7.105L7.035 7.085L7.055 7.055L7.085 7.035L7.105 7.015L7.125 6.995L7.155 6.985L7.175 6.965L7.205 6.945L7.235 6.935L7.265 6.925L7.285 6.915L7.315 6.905L7.345 6.895C7.345 6.895 7.36497 6.885 7.375 6.885C7.38504 6.885 7.39488 6.885 7.405 6.885C7.41512 6.885 7.42483 6.875 7.435 6.875C7.44518 6.875 7.45478 6.875 7.465 6.875C7.47521 6.875 7.49477 6.875 7.505 6.875Z"   fill="currentColor" >
</path>
</svg>
