<svg xmlns="http://www.w3.org/2000/svg" xmlns:xlink="http://www.w3.org/1999/xlink" width="20" height="20" viewBox="0 0 20 20" fill="none">
<g  clip-path="url(#clip-path-81En8vjeWYPfSVxdOYwdr)">
<path d="M9.98013 7.06961C10.7334 7.06961 11.3442 6.44187 11.3442 5.66731C11.3442 4.8929 10.7334 4.26508 9.98013 4.26508C9.22684 4.26508 8.61606 4.89292 8.61606 5.66731C8.61604 6.44187 9.22684 7.06961 9.98013 7.06961Z"   fill="#272636" >
</path>
<path d="M11.15 16.2723L8.81027 16.2723L8.95293 8.4527L11.0073 8.4527L11.15 16.2723Z"   fill="#272636" >
</path>
<path d="M9.98012 1.14141C11.1765 1.14141 12.3365 1.37546 13.4279 1.8371C14.4827 2.28322 15.4302 2.92213 16.2441 3.73605C17.058 4.54996 17.6969 5.49747 18.1431 6.5522C18.6046 7.6436 18.8387 8.8036 18.8387 10C18.8387 11.1964 18.6046 12.3564 18.1431 13.4478C17.6969 14.5026 17.058 15.4501 16.2441 16.264C15.4302 17.0779 14.4827 17.7168 13.428 18.163C12.3365 18.6245 11.1765 18.8586 9.98012 18.8586C8.78373 18.8586 7.62371 18.6245 6.53229 18.163C5.47756 17.7168 4.53005 17.0779 3.71614 16.264C2.90219 15.4501 2.26331 14.5026 1.8172 13.4478C1.35559 12.3564 1.12152 11.1964 1.12152 10C1.12152 8.8036 1.35559 7.64362 1.8172 6.5522C2.26331 5.49747 2.90221 4.54996 3.71614 3.73605C4.53005 2.9221 5.47756 2.28322 6.53229 1.8371C7.62371 1.37544 8.78371 1.14141 9.98012 1.14141ZM9.98012 0C4.45728 0 -0.0198669 4.47719 -0.0198669 10C-0.0198669 15.5229 4.4573 20 9.98012 20C15.503 20 19.9801 15.5228 19.9801 10C19.9801 4.47719 15.503 0 9.98012 0Z"   fill="currentColor" >
</path>
</g>
<defs>
<clipPath id="clip-path-81En8vjeWYPfSVxdOYwdr">
<path d="M0 20L20 20L20 0L0 0L0 20Z" fill="white"/>
</clipPath>
</defs>
</svg>
