<svg xmlns="http://www.w3.org/2000/svg" xmlns:xlink="http://www.w3.org/1999/xlink" width="20" height="19.85369873046875" viewBox="0 0 20 19.85369873046875" fill="none">
<path d="M17.7529 7.1913L16.8426 7.1913L16.8426 6.85336C16.8426 5.02964 16.1271 3.31251 14.8301 2.01247C13.5332 0.715495 11.813 0 9.98926 0C8.16556 0 6.44841 0.715495 5.14837 2.01247C3.8514 3.30945 3.1359 5.02966 3.1359 6.85336L3.1359 7.1913L2.25298 7.1913C0.925545 7.1913 0 8.11687 0 9.44428L0 13.3079C0 14.5501 1.01079 15.5608 2.25298 15.5608L3.41296 15.5608L3.41296 15.5669C3.41296 17.3115 4.83477 18.7333 6.57934 18.7333L7.63275 18.7333C7.68147 19.3575 8.20819 19.8537 8.84752 19.8537L11.1675 19.8537C11.8373 19.8537 12.3853 19.3057 12.3853 18.6359L12.3853 17.8503C12.3853 17.1805 11.8373 16.6325 11.1675 16.6325L8.84752 16.6325C8.20816 16.6325 7.68144 17.1318 7.63275 17.759L6.57934 17.759C5.37064 17.759 4.38725 16.7756 4.38725 15.5669L4.38725 15.3477L4.40857 15.3264C4.42074 15.3142 4.43293 15.299 4.44204 15.2868C4.4451 15.2838 4.4451 15.2808 4.44811 15.2777C4.46027 15.2625 4.46943 15.2503 4.47856 15.2351C4.47856 15.232 4.48162 15.232 4.48162 15.229C4.49075 15.2138 4.49991 15.2016 4.50902 15.1864C4.50902 15.1833 4.51208 15.1833 4.51208 15.1803C4.52121 15.1651 4.5273 15.1499 4.53644 15.1316C4.53644 15.1285 4.5395 15.1255 4.5395 15.1225C4.54557 15.1072 4.55166 15.089 4.55778 15.0737C4.55778 15.0707 4.56085 15.0677 4.56085 15.0677C4.56692 15.0524 4.57301 15.0342 4.57607 15.0159L4.57607 15.0129C4.58214 14.9946 4.5852 14.9763 4.58824 14.958C4.58824 14.955 4.58824 14.952 4.5913 14.9489C4.59436 14.9306 4.59737 14.9124 4.59737 14.8941L4.59737 14.885C4.59737 14.8667 4.60043 14.8454 4.60043 14.8271L4.60043 6.85333C4.60043 3.88183 7.01783 1.46441 9.98936 1.46441C12.9609 1.46441 15.3783 3.8818 15.3783 6.85333L15.3783 14.8301C15.3783 14.8421 15.3785 14.8541 15.3791 14.866C15.3796 14.878 15.3805 14.8899 15.3817 14.9018C15.3828 14.9137 15.3842 14.9256 15.386 14.9374C15.3877 14.9493 15.3897 14.9611 15.392 14.9728C15.3943 14.9846 15.397 14.9962 15.3998 15.0079C15.4027 15.0195 15.4059 15.031 15.4093 15.0425C15.4128 15.0539 15.4165 15.0653 15.4206 15.0765C15.4246 15.0878 15.4289 15.099 15.4334 15.11C15.438 15.1211 15.4428 15.1321 15.448 15.1429C15.453 15.1537 15.4584 15.1644 15.464 15.1749C15.4697 15.1855 15.4756 15.1959 15.4817 15.2062C15.4879 15.2164 15.4942 15.2266 15.5009 15.2365C15.5075 15.2465 15.5144 15.2563 15.5215 15.2659C15.5287 15.2755 15.536 15.2849 15.5436 15.2942C15.5512 15.3034 15.559 15.3125 15.567 15.3213C15.5751 15.3302 15.5833 15.3389 15.5918 15.3473C15.6003 15.3558 15.6089 15.364 15.6178 15.3721C15.6266 15.3801 15.6357 15.3879 15.645 15.3955C15.6542 15.4031 15.6637 15.4105 15.6733 15.4176C15.6829 15.4247 15.6926 15.4316 15.7026 15.4382C15.7126 15.4449 15.7227 15.4513 15.7329 15.4574C15.7432 15.4636 15.7536 15.4695 15.7642 15.4751C15.7748 15.4807 15.7854 15.4861 15.7963 15.4912C15.8071 15.4963 15.818 15.5011 15.8291 15.5057C15.8402 15.5103 15.8513 15.5146 15.8626 15.5186C15.8739 15.5226 15.8852 15.5263 15.8967 15.5298C15.9081 15.5332 15.9197 15.5364 15.9313 15.5393C15.9429 15.5422 15.9546 15.5448 15.9663 15.5471C15.9781 15.5494 15.9899 15.5514 16.0017 15.5532C16.0135 15.5549 16.0254 15.5563 16.0373 15.5575C16.0492 15.5586 16.0611 15.5595 16.0731 15.56C16.0851 15.5606 16.097 15.5609 16.109 15.5608L17.747 15.5608C18.9892 15.5608 20 14.5501 20 13.3079L20 9.44428C20.006 8.11685 19.0805 7.1913 17.7531 7.1913L17.7529 7.1913ZM1.46137 13.3079L1.46137 9.4443C1.46137 8.78972 1.89068 8.65272 2.25295 8.65272L3.13891 8.65272L3.13891 14.0995L2.25295 14.0995C1.81454 14.0995 1.46137 13.7433 1.46137 13.3079L1.46137 13.3079ZM18.5445 13.3079C18.5445 13.7433 18.1883 14.0995 17.7529 14.0995L16.8426 14.0995L16.8426 8.6527L17.7529 8.6527C18.1152 8.6527 18.5445 8.78969 18.5445 9.44428L18.5445 13.3079L18.5445 13.3079Z"   fill="currentColor" >
</path>
</svg>
