<svg xmlns="http://www.w3.org/2000/svg" xmlns:xlink="http://www.w3.org/1999/xlink" width="30" height="29.78057861328125" viewBox="0 0 30 29.78057861328125" fill="none">
<path d="M26.6294 10.787L25.2639 10.787L25.2639 10.28C25.2639 7.54446 24.1907 4.96877 22.2452 3.01871C20.2998 1.07324 17.7194 0 14.9839 0C12.2483 0 9.67262 1.07324 7.72256 3.01871C5.77709 4.96418 4.70385 7.5445 4.70385 10.28L4.70385 10.787L3.37947 10.787C1.38832 10.787 0 12.1753 0 14.1664L0 19.9618C0 21.8251 1.51618 23.3413 3.37947 23.3413L5.11944 23.3413L5.11944 23.3504C5.11944 25.9672 7.25215 28.0999 9.86901 28.0999L11.4491 28.0999C11.5222 29.0362 12.3123 29.7805 13.2713 29.7805L16.7513 29.7805C17.756 29.7805 18.578 28.9585 18.578 27.9538L18.578 26.7755C18.578 25.7708 17.756 24.9488 16.7513 24.9488L13.2713 24.9488C12.3122 24.9488 11.5222 25.6977 11.4491 26.6385L9.86901 26.6385C8.05596 26.6385 6.58087 25.1635 6.58087 23.3504L6.58087 23.0216L6.61285 22.9896C6.6311 22.9714 6.64939 22.9485 6.66305 22.9302C6.66764 22.9256 6.66764 22.9211 6.67216 22.9165C6.69041 22.8937 6.70414 22.8754 6.71784 22.8526C6.71784 22.848 6.72243 22.848 6.72243 22.8435C6.73613 22.8207 6.74986 22.8024 6.76352 22.7796C6.76352 22.775 6.76812 22.775 6.76812 22.7705C6.78181 22.7476 6.79096 22.7248 6.80465 22.6974C6.80465 22.6928 6.80924 22.6883 6.80924 22.6837C6.81835 22.6608 6.8275 22.6335 6.83668 22.6106C6.83668 22.606 6.84127 22.6015 6.84127 22.6015C6.85037 22.5787 6.85952 22.5513 6.86411 22.5239L6.86411 22.5193C6.87322 22.4918 6.87781 22.4645 6.88236 22.4371C6.88236 22.4325 6.88236 22.428 6.88695 22.4234C6.89154 22.3959 6.89606 22.3686 6.89606 22.3411L6.89606 22.3274C6.89606 22.3 6.90065 22.2681 6.90065 22.2407L6.90065 10.28C6.90065 5.82274 10.5267 2.19661 14.984 2.19661C19.4413 2.19661 23.0674 5.8227 23.0674 10.28L23.0674 22.2452C23.0674 22.2632 23.0678 22.2811 23.0686 22.299C23.0695 22.317 23.0707 22.3349 23.0725 22.3527C23.0742 22.3706 23.0764 22.3884 23.0789 22.4062C23.0815 22.4239 23.0846 22.4416 23.0881 22.4592C23.0915 22.4768 23.0954 22.4944 23.0998 22.5118C23.1041 22.5292 23.1089 22.5465 23.114 22.5637C23.1192 22.5809 23.1248 22.5979 23.1308 22.6148C23.1369 22.6317 23.1433 22.6485 23.1501 22.6651C23.157 22.6817 23.1643 22.6981 23.1719 22.7143C23.1796 22.7305 23.1876 22.7466 23.1961 22.7624C23.2045 22.7782 23.2134 22.7939 23.2226 22.8093C23.2318 22.8246 23.2414 22.8398 23.2513 22.8548C23.2613 22.8697 23.2716 22.8844 23.2823 22.8988C23.293 22.9132 23.304 22.9274 23.3154 22.9413C23.3268 22.9551 23.3385 22.9687 23.3506 22.982C23.3626 22.9953 23.375 23.0083 23.3877 23.021C23.4004 23.0337 23.4134 23.0461 23.4267 23.0581C23.44 23.0702 23.4536 23.0819 23.4674 23.0933C23.4813 23.1047 23.4955 23.1157 23.5099 23.1264C23.5243 23.1371 23.539 23.1474 23.5539 23.1574C23.5689 23.1673 23.584 23.1769 23.5994 23.1861C23.6148 23.1953 23.6305 23.2042 23.6463 23.2126C23.6621 23.2211 23.6782 23.2291 23.6944 23.2368C23.7106 23.2444 23.727 23.2517 23.7436 23.2586C23.7602 23.2654 23.777 23.2718 23.7939 23.2779C23.8108 23.2839 23.8278 23.2895 23.845 23.2946C23.8622 23.2998 23.8795 23.3046 23.8969 23.3089C23.9143 23.3133 23.9319 23.3172 23.9495 23.3206C23.9671 23.3241 23.9848 23.3272 24.0025 23.3298C24.0203 23.3323 24.0381 23.3345 24.056 23.3362C24.0738 23.338 24.0917 23.3392 24.1097 23.3401C24.1276 23.3409 24.1455 23.3413 24.1635 23.3413L26.6205 23.3413C28.4838 23.3413 30 21.8251 30 19.9618L30 14.1664C30.0091 12.1753 28.6207 10.787 26.6296 10.787L26.6294 10.787ZM2.19205 19.9618L2.19205 14.1665C2.19205 13.1846 2.83602 12.9791 3.37943 12.9791L4.70837 12.9791L4.70837 21.1493L3.37943 21.1493C2.72181 21.1493 2.19205 20.6149 2.19205 19.9619L2.19205 19.9618ZM27.8168 19.9618C27.8168 20.6149 27.2825 21.1492 26.6294 21.1492L25.2639 21.1492L25.2639 12.979L26.6294 12.979C27.1729 12.979 27.8168 13.1845 27.8168 14.1664L27.8168 19.9618L27.8168 19.9618Z"   fill="#000000" >
</path>
</svg>
