<svg xmlns="http://www.w3.org/2000/svg" xmlns:xlink="http://www.w3.org/1999/xlink" width="20" height="20" viewBox="0 0 20 20" fill="none">
<path d="M17.421 5.63316C17.0697 5.63316 16.7787 5.31776 16.7787 4.9277L16.7787 3.75333C16.7787 2.46111 15.9157 1.40587 14.8418 1.40587L3.23128 1.40587C2.1675 1.40587 1.29445 2.45896 1.29445 3.75333L1.29445 15.9639C1.29445 17.2583 2.1675 18.3114 3.23128 18.3114L5.81026 18.3114C6.16146 18.3114 6.45251 18.6267 6.45251 19.0167C6.45251 19.4048 6.1715 19.7207 5.81026 19.7207L3.23128 19.7207C1.45504 19.7207 0 18.0364 0 15.9661L0 3.75473C0 1.68454 1.45504 0 3.23128 0L14.8418 0C16.6181 0 18.0733 1.68443 18.0733 3.75473L18.0733 4.9291C18.0733 5.31776 17.7822 5.63316 17.421 5.63316ZM2.58902 10.5629C2.58902 10.175 2.88008 9.85895 3.23128 9.85895L7.10483 9.85895C7.45603 9.85895 7.74708 10.1742 7.74708 10.5629C7.74708 10.9509 7.45603 11.2684 7.10483 11.2684L3.23128 11.2684C2.88008 11.2661 2.58902 10.9509 2.58902 10.5629ZM2.58902 6.33712C2.58902 5.9491 2.88008 5.63306 3.23128 5.63306L8.38935 5.63306C8.7506 5.63306 9.04166 5.94846 9.04166 6.33712C9.04166 6.72718 8.7506 7.04097 8.38935 7.04097L3.23128 7.04097C2.88008 7.04033 2.58902 6.72503 2.58902 6.33712ZM11.9417 13.5636C10.9683 12.7947 10.326 11.5512 10.326 10.1404C10.326 7.81132 12.0621 5.91451 14.1996 5.91451C16.327 5.91451 18.0632 7.81132 18.0632 10.1404C18.0632 11.5519 17.421 12.7954 16.4475 13.5636C18.5047 14.6837 19.9999 17.1667 19.9999 19.296C19.9999 19.6861 19.7089 20 19.3577 20C18.9964 20 18.7154 19.6847 18.7154 19.296C18.7154 17.3493 16.6884 14.3663 14.1996 14.3663C11.7009 14.3663 9.67375 17.3486 9.67375 19.296C9.67375 19.6861 9.39287 20 9.03161 20C8.68028 20 8.38935 19.6847 8.38935 19.296C8.38935 17.1667 9.88458 14.6836 11.9417 13.5636ZM16.7787 10.1404C16.7787 8.5879 15.6246 7.32382 14.1996 7.32382C12.7747 7.32382 11.6207 8.58725 11.6207 10.1404C11.6207 11.6951 12.7747 12.957 14.1996 12.957C15.6246 12.957 16.7787 11.6951 16.7787 10.1404Z"   fill="currentColor" >
</path>
</svg>
