<svg xmlns="http://www.w3.org/2000/svg" xmlns:xlink="http://www.w3.org/1999/xlink" width="22.22222900390625" height="20" viewBox="0 0 22.22222900390625 20" fill="none">
<path d="M21.0941 18.0889L1.12816 18.0889C0.498491 18.0889 0 18.5111 0 19.0444C0 19.5778 0.498491 20 1.12816 20L21.0941 20C21.7237 20 22.2222 19.5778 22.2222 19.0444C22.2222 18.5333 21.7237 18.0889 21.0941 18.0889ZM10.3634 16.4444C10.5733 16.6222 10.8619 16.7111 11.1242 16.6889C11.3866 16.6889 11.6752 16.6222 11.8851 16.4444L18.7065 10.6667C19.1001 10.3333 19.1001 9.77778 18.7065 9.44444C18.313 9.11111 17.6571 9.11111 17.2635 9.44444L12.095 13.8222L12.095 0.866667C12.095 0.4 11.649 0 11.0718 0C10.4946 0 10.0485 0.377778 10.0485 0.866667L10.0485 13.7333L4.98491 9.44444C4.59137 9.11111 3.93546 9.11111 3.54191 9.44444C3.14837 9.77778 3.14837 10.3333 3.54191 10.6667L10.3634 16.4444Z"   fill="currentColor" >
</path>
</svg>
