<svg xmlns="http://www.w3.org/2000/svg" xmlns:xlink="http://www.w3.org/1999/xlink" width="20" height="20" viewBox="0 0 20 20" fill="none">
<path d="M2.5 1.25C2.47776 1.25 2.45551 1.25056 2.43327 1.25156C2.42228 1.25256 2.40003 1.254 2.37779 1.256C2.35556 1.258 2.33331 1.26056 2.31107 1.26356C2.29994 1.26656 2.27783 1.27 2.25559 1.274C2.23334 1.278 2.2111 1.28244 2.19998 1.28744C2.17773 1.29244 2.15549 1.29789 2.13338 1.30378C2.12226 1.30978 2.10001 1.31622 2.07778 1.32311C2.05553 1.33 2.04441 1.33733 2.02217 1.34511C2.00006 1.353 1.98893 1.36122 1.96669 1.37C1.94444 1.37878 1.93332 1.388 1.91108 1.39756C1.88883 1.40722 1.87771 1.41733 1.8556 1.42789C1.84448 1.43833 1.82223 1.44933 1.8 1.46067C1.78888 1.472 1.76663 1.48378 1.75551 1.496C1.74439 1.50822 1.72228 1.52078 1.71116 1.53378C1.68891 1.54667 1.67779 1.56011 1.65554 1.57378C1.64442 1.58756 1.6333 1.60167 1.61106 1.61611C1.59993 1.63056 1.58894 1.64544 1.57782 1.66056C1.55558 1.67567 1.54446 1.69122 1.53333 1.707C1.52222 1.72278 1.5111 1.73889 1.49998 1.75533C1.48886 1.77178 1.46661 1.78856 1.45562 1.80556C1.4445 1.82256 1.43338 1.83978 1.43338 1.85733C1.42226 1.87489 1.41113 1.89267 1.40001 1.91078C1.38889 1.92878 1.37777 1.94711 1.36664 1.96556C1.36664 1.984 1.35552 2.00278 1.3444 2.02167C1.33328 2.04056 1.33328 2.05967 1.32216 2.07889C1.31117 2.09811 1.31117 2.11756 1.30004 2.13711C1.30004 2.15667 1.28892 2.17644 1.28892 2.19622C1.2778 2.21611 1.2778 2.23611 1.2778 2.25611C1.26668 2.27622 1.26668 2.29633 1.26668 2.31656C1.25556 2.33678 1.25556 2.35711 1.25556 2.37744C1.25556 2.39789 1.25556 2.41822 1.25556 2.43867C1.25556 2.45911 1.24444 2.47956 1.24444 2.5L1.24444 17.5C1.24444 17.5204 1.25556 17.5409 1.25556 17.5613C1.25556 17.5818 1.25556 17.6021 1.25556 17.6226C1.25556 17.6429 1.25556 17.6632 1.26668 17.6834C1.26668 17.7037 1.26668 17.7238 1.2778 17.7439C1.2778 17.7639 1.2778 17.7839 1.28892 17.8038C1.28892 17.8236 1.30004 17.8433 1.30004 17.8629C1.31117 17.8824 1.31117 17.9019 1.32216 17.9211C1.33328 17.9403 1.33328 17.9594 1.3444 17.9783C1.35552 17.9972 1.36664 18.016 1.36664 18.0344C1.37777 18.053 1.38889 18.0712 1.40001 18.0892C1.41113 18.1073 1.42226 18.1251 1.43338 18.1427C1.43338 18.1602 1.4445 18.1774 1.45562 18.1944C1.46661 18.2114 1.48886 18.2282 1.49998 18.2447C1.5111 18.2611 1.52222 18.2772 1.53333 18.293C1.54446 18.3088 1.55558 18.3243 1.57782 18.3394C1.58894 18.3546 1.59993 18.3694 1.61106 18.3839C1.6333 18.3983 1.64442 18.4124 1.65554 18.4262C1.67779 18.4399 1.68891 18.4533 1.71116 18.4662C1.72228 18.4792 1.74439 18.4918 1.75551 18.504C1.76663 18.5162 1.78888 18.528 1.8 18.5393C1.82223 18.5507 1.84448 18.5617 1.8556 18.5721C1.87771 18.5827 1.88883 18.5928 1.91108 18.6024C1.93332 18.612 1.94444 18.6212 1.96669 18.63C1.98893 18.6388 2.00006 18.647 2.02217 18.6549C2.04441 18.6627 2.05553 18.67 2.07778 18.6769C2.10001 18.6838 2.12226 18.6902 2.13338 18.6962C2.15549 18.7021 2.17773 18.7076 2.19998 18.7126C2.2111 18.7176 2.23334 18.722 2.25559 18.726C2.27783 18.73 2.29994 18.7334 2.31107 18.7364C2.33331 18.7394 2.35556 18.742 2.37779 18.744C2.40003 18.746 2.42228 18.7474 2.43327 18.7484C2.45551 18.7494 2.47776 18.75 2.5 18.75L17.5 18.75C17.5222 18.75 17.5444 18.7494 17.5668 18.7484C17.5777 18.7474 17.6 18.746 17.6222 18.744C17.6444 18.742 17.6667 18.7394 17.6889 18.7364C17.7001 18.7334 17.7222 18.73 17.7444 18.726C17.7667 18.722 17.7889 18.7176 17.8 18.7126C17.8222 18.7076 17.8446 18.7021 17.8667 18.6962C17.8778 18.6902 17.9 18.6838 17.9222 18.6769C17.9444 18.67 17.9556 18.6627 17.9779 18.6549C18 18.647 18.0111 18.6388 18.0333 18.63C18.0556 18.6212 18.0667 18.612 18.0889 18.6024C18.1111 18.5928 18.1223 18.5827 18.1444 18.5722C18.1556 18.5617 18.1778 18.5507 18.2 18.5393C18.2111 18.528 18.2333 18.5162 18.2444 18.504C18.2557 18.4918 18.2778 18.4792 18.2889 18.4662C18.3111 18.4533 18.3222 18.4399 18.3444 18.4262C18.3556 18.4124 18.3667 18.3983 18.3889 18.3839C18.4001 18.3694 18.411 18.3546 18.4222 18.3394C18.4444 18.3243 18.4556 18.3088 18.4667 18.293C18.4778 18.2772 18.4889 18.2611 18.5 18.2447C18.5111 18.2282 18.5334 18.2114 18.5443 18.1944C18.5556 18.1774 18.5667 18.1602 18.5667 18.1427C18.5778 18.1251 18.5889 18.1073 18.6 18.0892C18.6111 18.0712 18.6222 18.0529 18.6333 18.0344C18.6333 18.0159 18.6444 17.9972 18.6556 17.9783C18.6667 17.9594 18.6667 17.9403 18.6779 17.9211C18.6888 17.9019 18.6888 17.8824 18.7 17.8629C18.7 17.8433 18.7111 17.8236 18.7111 17.8038C18.7222 17.7839 18.7222 17.7639 18.7222 17.7439C18.7333 17.7238 18.7333 17.7037 18.7333 17.6834C18.7444 17.6632 18.7444 17.6429 18.7444 17.6226C18.7444 17.6021 18.7444 17.5818 18.7444 17.5613C18.7444 17.5409 18.7556 17.5204 18.7556 17.5L18.7556 2.5C18.7556 2.47956 18.7444 2.45911 18.7444 2.43867C18.7444 2.41822 18.7444 2.39789 18.7444 2.37744C18.7444 2.35711 18.7444 2.33678 18.7333 2.31656C18.7333 2.29633 18.7333 2.27622 18.7222 2.25611C18.7222 2.23611 18.7222 2.21611 18.7111 2.19622C18.7111 2.17644 18.7 2.15667 18.7 2.13711C18.6888 2.11756 18.6888 2.09811 18.6779 2.07889C18.6667 2.05967 18.6667 2.04056 18.6556 2.02167C18.6444 2.00278 18.6333 1.984 18.6333 1.96556C18.6222 1.94711 18.6111 1.92878 18.6 1.91078C18.5889 1.89267 18.5778 1.87489 18.5667 1.85733C18.5667 1.83978 18.5556 1.82256 18.5443 1.80556C18.5334 1.78856 18.5111 1.77178 18.5 1.75533C18.4889 1.73889 18.4778 1.72278 18.4667 1.707C18.4556 1.69122 18.4444 1.67567 18.4222 1.66056C18.411 1.64544 18.4001 1.63056 18.3889 1.61611C18.3667 1.60167 18.3556 1.58756 18.3444 1.57378C18.3222 1.56011 18.3111 1.54667 18.2889 1.53378C18.2778 1.52078 18.2557 1.50822 18.2444 1.496C18.2333 1.48378 18.2111 1.472 18.2 1.46067C18.1778 1.44933 18.1556 1.43833 18.1444 1.42789C18.1223 1.41733 18.1111 1.40722 18.0889 1.39756C18.0667 1.388 18.0556 1.37878 18.0333 1.37C18.0111 1.36122 18 1.353 17.9779 1.34511C17.9556 1.33733 17.9444 1.33 17.9222 1.32311C17.9 1.31622 17.8778 1.30978 17.8667 1.30378C17.8446 1.29789 17.8222 1.29244 17.8 1.28744C17.7889 1.28244 17.7667 1.278 17.7444 1.274C17.7222 1.27 17.7001 1.26656 17.6889 1.26356C17.6667 1.26056 17.6444 1.258 17.6222 1.256C17.6 1.254 17.5777 1.25256 17.5668 1.25156C17.5444 1.25056 17.5222 1.25 17.5 1.25L2.5 1.25ZM2.5 0L17.5 0C17.5444 0 17.5777 0.0010003 17.6222 0.0030009C17.6667 0.00500149 17.7001 0.00799814 17.7444 0.0119993C17.7889 0.0160006 17.8222 0.0211122 17.8667 0.0271098C17.9111 0.0331116 17.9444 0.0399992 17.9888 0.0480016C18.0333 0.0559998 18.0667 0.0649982 18.1111 0.074891C18.1444 0.0848898 18.1889 0.0957786 18.2222 0.107668C18.2666 0.119557 18.3 0.132332 18.3444 0.146111C18.3778 0.159891 18.4222 0.174667 18.4556 0.190332C18.5 0.205998 18.5334 0.222553 18.5667 0.24C18.6111 0.257556 18.6444 0.275888 18.6779 0.295223C18.7111 0.314446 18.7556 0.334668 18.7889 0.355666C18.8221 0.376668 18.8556 0.398556 18.8889 0.421333C18.9222 0.444111 18.9557 0.467554 18.9889 0.491999C19.0222 0.516332 19.0556 0.541556 19.089 0.567444C19.1222 0.593444 19.1444 0.620113 19.1778 0.647668C19.2111 0.675112 19.2334 0.703332 19.2667 0.732222C19.3 0.761112 19.3222 0.790778 19.3556 0.821109C19.3777 0.851444 19.4111 0.882446 19.4333 0.914001C19.4556 0.945668 19.4889 0.977889 19.5112 1.01078C19.5333 1.04367 19.5556 1.077 19.5778 1.11111C19.6 1.14511 19.6222 1.17967 19.6446 1.21478C19.6667 1.24989 19.6889 1.28544 19.7 1.32156C19.7222 1.35756 19.7444 1.39411 19.7556 1.43111C19.7778 1.46811 19.789 1.50544 19.8111 1.54333C19.8222 1.58111 19.8444 1.61922 19.8556 1.65778C19.8667 1.69633 19.8778 1.73511 19.8889 1.77433C19.9 1.81344 19.9111 1.85289 19.9223 1.89256C19.9332 1.93222 19.9444 1.97211 19.9556 2.01222C19.9556 2.05244 19.9667 2.09267 19.9778 2.13311C19.9778 2.17367 19.9889 2.21422 19.9889 2.255C19.9889 2.29567 20 2.33644 20 2.37733C20 2.41822 20 2.45911 20 2.5L20 17.5C20 17.5409 20 17.5818 20 17.6227C20 17.6636 19.9889 17.7043 19.9889 17.745C19.9889 17.7858 19.9778 17.8263 19.9778 17.8668C19.9667 17.9073 19.9556 17.9476 19.9556 17.9878C19.9444 18.0279 19.9332 18.0678 19.9223 18.1074C19.9111 18.1471 19.9 18.1866 19.8889 18.2257C19.8778 18.2649 19.8667 18.3037 19.8556 18.3422C19.8444 18.3808 19.8222 18.4189 19.8111 18.4567C19.789 18.4944 19.7778 18.5319 19.7556 18.5689C19.7444 18.6059 19.7222 18.6424 19.7 18.6784C19.6889 18.7146 19.6667 18.7501 19.6446 18.7852C19.6222 18.8203 19.6 18.8549 19.5778 18.8889C19.5556 18.923 19.5333 18.9563 19.5112 18.9892C19.4889 19.0221 19.4556 19.0543 19.4333 19.086C19.4111 19.1176 19.3777 19.1486 19.3556 19.1789C19.3222 19.2092 19.3 19.2389 19.2667 19.2678C19.2334 19.2967 19.2111 19.3249 19.1778 19.3523C19.1444 19.3799 19.1222 19.4066 19.089 19.4326C19.0556 19.4584 19.0222 19.4837 18.9889 19.508C18.9557 19.5324 18.9222 19.5559 18.8889 19.5787C18.8556 19.6013 18.8221 19.6232 18.7889 19.6443C18.7556 19.6652 18.7111 19.6856 18.6779 19.7049C18.6444 19.7242 18.6111 19.7426 18.5667 19.76C18.5334 19.7773 18.5 19.794 18.4556 19.8098C18.4222 19.8253 18.3778 19.84 18.3444 19.8539C18.3 19.8678 18.2666 19.8804 18.2222 19.8923C18.1889 19.9043 18.1444 19.915 18.1111 19.925C18.0667 19.935 18.0333 19.944 17.9888 19.952C17.9444 19.96 17.9111 19.9668 17.8667 19.9729C17.8222 19.9789 17.7889 19.984 17.7444 19.9879C17.7001 19.992 17.6667 19.9949 17.6222 19.9971C17.5777 19.999 17.5444 20 17.5 20L2.5 20C2.45551 20 2.42228 19.999 2.37779 19.9971C2.33331 19.9949 2.29994 19.992 2.25559 19.9879C2.2111 19.984 2.17773 19.9789 2.13338 19.9729C2.08889 19.9668 2.05553 19.96 2.01118 19.952C1.96669 19.944 1.93332 19.935 1.88883 19.925C1.8556 19.915 1.81111 19.9043 1.77776 19.8923C1.7334 19.8804 1.70003 19.8678 1.65554 19.8539C1.62218 19.84 1.57782 19.8253 1.54446 19.8098C1.49998 19.794 1.46661 19.7773 1.43338 19.76C1.38889 19.7426 1.35552 19.7242 1.32216 19.7049C1.28892 19.6856 1.24444 19.6652 1.21108 19.6443C1.17784 19.6232 1.14448 19.6013 1.11111 19.5787C1.07775 19.5559 1.04438 19.5324 1.01115 19.508C0.977783 19.4837 0.944418 19.4584 0.911051 19.4326C0.877821 19.4066 0.855578 19.3799 0.822211 19.3523C0.788846 19.3249 0.766601 19.2967 0.733371 19.2678C0.700006 19.2389 0.677761 19.2092 0.644396 19.1789C0.622288 19.1486 0.588921 19.1176 0.566678 19.086C0.544433 19.0543 0.511068 19.0221 0.488823 18.9892C0.466716 18.9563 0.444471 18.923 0.422228 18.8889C0.399983 18.8549 0.37774 18.8203 0.355496 18.7852C0.333388 18.7501 0.311143 18.7146 0.300022 18.6784C0.277778 18.6424 0.255533 18.6059 0.244412 18.5689C0.222168 18.5319 0.211046 18.4944 0.188938 18.4567C0.177816 18.4189 0.155572 18.3808 0.14445 18.3422C0.133328 18.3037 0.122206 18.2649 0.111084 18.2257C0.099962 18.1866 0.0888401 18.1471 0.0777181 18.1074C0.0667318 18.0678 0.0556098 18.0279 0.0444879 17.9877C0.0444879 17.9476 0.0333659 17.9073 0.0222439 17.8668C0.0222439 17.8263 0.011122 17.7858 0.011122 17.745C0.011122 17.7043 0 17.6636 0 17.6227C0 17.5818 0 17.5409 0 17.5L0 2.5C0 2.45911 0 2.41822 0 2.37733C0 2.33644 0.011122 2.29567 0.011122 2.255C0.011122 2.21422 0.0222439 2.17367 0.0222439 2.13311C0.0333659 2.09267 0.0444879 2.05244 0.0444879 2.01222C0.0556098 1.97211 0.0667318 1.93222 0.0777181 1.89256C0.0888401 1.85289 0.099962 1.81344 0.111084 1.77433C0.122206 1.73511 0.133328 1.69633 0.14445 1.65778C0.155572 1.61922 0.177816 1.58111 0.188938 1.54333C0.211046 1.50544 0.222168 1.46811 0.244412 1.43111C0.255533 1.39411 0.277778 1.35756 0.300022 1.32156C0.311143 1.28544 0.333388 1.24989 0.355496 1.21478C0.37774 1.17967 0.399983 1.14511 0.422228 1.11111C0.444471 1.077 0.466716 1.04367 0.488823 1.01078C0.511068 0.977889 0.544433 0.945668 0.566678 0.914001C0.588921 0.882446 0.622288 0.851444 0.644396 0.821109C0.677761 0.790778 0.700006 0.761112 0.733371 0.732222C0.766601 0.703332 0.788846 0.675112 0.822211 0.647668C0.855578 0.620113 0.877821 0.593444 0.911051 0.567444C0.944418 0.541556 0.977783 0.516332 1.01115 0.491999C1.04438 0.467554 1.07775 0.444111 1.11111 0.421333C1.14448 0.398556 1.17784 0.376668 1.21108 0.355666C1.24444 0.334668 1.28892 0.314446 1.32216 0.295223C1.35552 0.275888 1.38889 0.257556 1.43338 0.24C1.46661 0.222553 1.49998 0.205998 1.54446 0.190332C1.57782 0.174667 1.62218 0.159891 1.65554 0.146111C1.70003 0.132332 1.7334 0.119557 1.77776 0.107668C1.81111 0.0957786 1.8556 0.0848898 1.88883 0.074891C1.93332 0.0649982 1.96669 0.0559998 2.01118 0.0480016C2.05553 0.0399992 2.08889 0.0331116 2.13338 0.0271098C2.17773 0.0211122 2.2111 0.0160006 2.25559 0.0119993C2.29994 0.00799814 2.33331 0.00500149 2.37779 0.0030009C2.42228 0.0010003 2.45551 0 2.5 0Z"   fill="currentColor" >
</path>
<path d="M3.75556 15.625C3.74444 15.625 3.73331 15.6247 3.72219 15.6242C3.71107 15.6237 3.69995 15.623 3.68883 15.622C3.67784 15.621 3.66672 15.6197 3.6556 15.6182C3.64447 15.6167 3.63335 15.615 3.63335 15.613C3.62223 15.611 3.61111 15.6087 3.59999 15.6063C3.58886 15.6037 3.57774 15.601 3.56662 15.5981C3.5555 15.5951 3.54438 15.5919 3.54438 15.5884C3.53339 15.585 3.52227 15.5813 3.51115 15.5774C3.50002 15.5735 3.4889 15.5693 3.47778 15.565C3.47778 15.5606 3.46666 15.556 3.45554 15.5512C3.44441 15.5463 3.43329 15.5413 3.43329 15.5361C3.42217 15.5307 3.41105 15.5253 3.40006 15.5196C3.38894 15.514 3.38894 15.5081 3.37782 15.502C3.3667 15.4959 3.3667 15.4896 3.35557 15.4831C3.34445 15.4766 3.33333 15.47 3.33333 15.4631C3.32221 15.4562 3.31109 15.4492 3.31109 15.442C3.29996 15.4348 3.28884 15.4273 3.28884 15.4197C3.27772 15.4121 3.27772 15.4045 3.2666 15.3965C3.25561 15.3886 3.25561 15.3806 3.24449 15.3723C3.24449 15.3641 3.23337 15.3558 3.23337 15.3472C3.22225 15.3388 3.22225 15.3301 3.21112 15.3213C3.21112 15.3126 3.2 15.3037 3.2 15.2947C3.18888 15.2856 3.18888 15.2765 3.18888 15.2672C3.17776 15.258 3.17776 15.2487 3.17776 15.2392C3.16664 15.2298 3.16664 15.2202 3.16664 15.2106C3.15551 15.2009 3.15551 15.1912 3.15551 15.1815C3.14439 15.1717 3.14439 15.1618 3.14439 15.1519C3.14439 15.142 3.14439 15.132 3.13327 15.1219C3.13327 15.1119 3.13327 15.1018 3.13327 15.0917C3.13327 15.0816 3.13327 15.0715 3.13327 15.0613C3.12228 15.0511 3.12228 15.0409 3.12228 15.0307C3.12228 15.0205 3.12228 15.0102 3.12228 15C3.12228 14.9898 3.12228 14.9796 3.12228 14.9693C3.12228 14.9591 3.12228 14.9489 3.13327 14.9388C3.13327 14.9286 3.13327 14.9185 3.13327 14.9083C3.13327 14.8982 3.13327 14.8881 3.13327 14.8781C3.14439 14.868 3.14439 14.8581 3.14439 14.8481C3.14439 14.8382 3.14439 14.8283 3.15551 14.8186C3.15551 14.8088 3.15551 14.7991 3.16664 14.7895C3.16664 14.7798 3.16664 14.7702 3.17776 14.7609C3.17776 14.7513 3.17776 14.742 3.18888 14.7328C3.18888 14.7236 3.18888 14.7145 3.2 14.7053C3.2 14.6963 3.21112 14.6875 3.21112 14.6787C3.22225 14.6699 3.22225 14.6613 3.23337 14.6528C3.23337 14.6442 3.24449 14.6359 3.24449 14.6277C3.25561 14.6195 3.25561 14.6115 3.2666 14.6035C3.27772 14.5956 3.27772 14.5879 3.28884 14.5803C3.28884 14.5727 3.29996 14.5653 3.31109 14.5581C3.31109 14.5508 3.32221 14.5438 3.33333 14.5369C3.33333 14.53 3.34445 14.5233 3.35557 14.5169C3.3667 14.5103 3.3667 14.5041 3.37782 14.498C3.38894 14.4919 3.38894 14.486 3.40006 14.4803C3.41105 14.4747 3.42217 14.4692 3.43329 14.4639C3.43329 14.4587 3.44441 14.4537 3.45554 14.4488C3.46666 14.444 3.47778 14.4393 3.47778 14.435C3.4889 14.4307 3.50002 14.4265 3.51115 14.4226C3.52227 14.4187 3.53339 14.415 3.54438 14.4116C3.54438 14.4081 3.5555 14.4049 3.56662 14.4019C3.57774 14.399 3.58886 14.3962 3.59999 14.3938C3.61111 14.3912 3.62223 14.389 3.63335 14.387C3.63335 14.385 3.64447 14.3832 3.6556 14.3818C3.66672 14.3802 3.67784 14.379 3.68883 14.378C3.69995 14.377 3.71107 14.3762 3.72219 14.3758C3.73331 14.3752 3.74444 14.375 3.75556 14.375L16.2444 14.375C16.2555 14.375 16.2667 14.3752 16.2778 14.3758C16.289 14.3762 16.3001 14.377 16.3112 14.378C16.3222 14.379 16.3333 14.3802 16.3444 14.3818C16.3555 14.3832 16.3666 14.385 16.3666 14.387C16.3777 14.389 16.3888 14.3912 16.4001 14.3938C16.4112 14.3962 16.4223 14.399 16.4334 14.4019C16.4445 14.4049 16.4556 14.4081 16.4556 14.4116C16.4666 14.415 16.4777 14.4187 16.4888 14.4226C16.5 14.4265 16.5111 14.4307 16.5222 14.435C16.5222 14.4393 16.5333 14.444 16.5445 14.4488C16.5556 14.4537 16.5667 14.4587 16.5667 14.4639C16.5778 14.4692 16.589 14.4747 16.6 14.4803C16.6111 14.486 16.6111 14.4919 16.6222 14.498C16.6333 14.5041 16.6333 14.5103 16.6444 14.5169C16.6555 14.5233 16.6666 14.53 16.6666 14.5369C16.6778 14.5438 16.689 14.5508 16.689 14.5581C16.7001 14.5653 16.7112 14.5727 16.7112 14.5803C16.7223 14.5879 16.7223 14.5956 16.7334 14.6035C16.7444 14.6115 16.7444 14.6195 16.7555 14.6277C16.7555 14.6359 16.7666 14.6442 16.7666 14.6528C16.7777 14.6613 16.7777 14.6699 16.7888 14.6787C16.7888 14.6875 16.8 14.6963 16.8 14.7053C16.8111 14.7145 16.8111 14.7236 16.8111 14.7328C16.8223 14.742 16.8223 14.7513 16.8223 14.7609C16.8334 14.7702 16.8334 14.7798 16.8334 14.7895C16.8445 14.7991 16.8445 14.8088 16.8445 14.8186C16.8556 14.8283 16.8556 14.8382 16.8556 14.8481C16.8556 14.8581 16.8556 14.868 16.8667 14.8781C16.8667 14.8881 16.8667 14.8982 16.8667 14.9083C16.8667 14.9185 16.8667 14.9286 16.8667 14.9388C16.8777 14.9489 16.8777 14.9591 16.8777 14.9693C16.8777 14.9796 16.8777 14.9898 16.8777 15C16.8777 15.0102 16.8777 15.0205 16.8777 15.0307C16.8777 15.0409 16.8777 15.0511 16.8667 15.0613C16.8667 15.0715 16.8667 15.0816 16.8667 15.0917C16.8667 15.1018 16.8667 15.1119 16.8667 15.1219C16.8556 15.132 16.8556 15.142 16.8556 15.1519C16.8556 15.1618 16.8556 15.1717 16.8445 15.1815C16.8445 15.1912 16.8445 15.2009 16.8334 15.2106C16.8334 15.2202 16.8334 15.2298 16.8223 15.2392C16.8223 15.2487 16.8223 15.258 16.8111 15.2672C16.8111 15.2765 16.8111 15.2856 16.8 15.2947C16.8 15.3037 16.7888 15.3126 16.7888 15.3213C16.7777 15.3301 16.7777 15.3388 16.7666 15.3472C16.7666 15.3558 16.7555 15.3641 16.7555 15.3723C16.7444 15.3806 16.7444 15.3886 16.7334 15.3966C16.7223 15.4045 16.7223 15.4121 16.7112 15.4197C16.7112 15.4273 16.7001 15.4348 16.689 15.442C16.689 15.4492 16.6778 15.4562 16.6666 15.4631C16.6666 15.47 16.6555 15.4766 16.6444 15.4831C16.6333 15.4896 16.6333 15.4959 16.6222 15.502C16.6111 15.5081 16.6111 15.514 16.6 15.5196C16.589 15.5253 16.5778 15.5307 16.5667 15.5361C16.5667 15.5413 16.5556 15.5463 16.5445 15.5512C16.5333 15.556 16.5222 15.5606 16.5222 15.565C16.5111 15.5693 16.5 15.5735 16.4888 15.5774C16.4777 15.5813 16.4666 15.585 16.4556 15.5884C16.4556 15.5919 16.4445 15.5951 16.4334 15.5981C16.4223 15.601 16.4112 15.6037 16.4001 15.6063C16.3888 15.6087 16.3777 15.611 16.3666 15.613C16.3666 15.615 16.3555 15.6167 16.3444 15.6182C16.3333 15.6197 16.3222 15.621 16.3112 15.622C16.3001 15.623 16.289 15.6237 16.2778 15.6242C16.2667 15.6247 16.2555 15.625 16.2444 15.625L3.75556 15.625ZM15.7334 4.65378C15.7334 4.64489 15.7445 4.63623 15.7445 4.62767C15.7556 4.61912 15.7556 4.61078 15.7666 4.60245C15.7666 4.59423 15.7777 4.58611 15.7888 4.57823C15.7888 4.57034 15.8 4.56256 15.8111 4.555C15.8111 4.54745 15.8222 4.54012 15.8333 4.53289C15.8333 4.52567 15.8445 4.51867 15.8556 4.51189C15.8556 4.505 15.8667 4.49845 15.8778 4.49201C15.889 4.48556 15.889 4.47945 15.9001 4.47345C15.9111 4.46745 15.9222 4.46167 15.9222 4.45612C15.9333 4.45056 15.9444 4.44523 15.9555 4.44012C15.9666 4.43501 15.9666 4.43011 15.9777 4.42545C15.989 4.42078 16.0001 4.41634 16.0112 4.41223C16.0223 4.40801 16.0334 4.40411 16.0334 4.40045C16.0444 4.39667 16.0555 4.39323 16.0666 4.39C16.0777 4.38689 16.0888 4.38389 16.1 4.38123C16.1111 4.37845 16.1223 4.376 16.1334 4.37378C16.1334 4.37167 16.1445 4.36967 16.1556 4.368C16.1667 4.36634 16.1778 4.36489 16.1888 4.36367C16.2 4.36256 16.2111 4.36167 16.2222 4.361C16.2333 4.36034 16.2444 4.35989 16.2555 4.35978C16.2667 4.35967 16.2778 4.35978 16.289 4.36022C16.289 4.36056 16.3001 4.36122 16.3112 4.36211C16.3222 4.363 16.3333 4.36423 16.3444 4.36567C16.3555 4.36712 16.3666 4.36878 16.3777 4.37067C16.3888 4.37267 16.4001 4.37478 16.4112 4.37723C16.4223 4.37978 16.4223 4.38245 16.4334 4.38534C16.4445 4.38834 16.4556 4.39156 16.4666 4.39501C16.4777 4.39845 16.4888 4.40211 16.5 4.40612C16.5111 4.41001 16.5111 4.41423 16.5222 4.41856C16.5333 4.42301 16.5445 4.42767 16.5556 4.43256C16.5667 4.43745 16.5667 4.44256 16.5778 4.44789C16.589 4.45323 16.6 4.45878 16.6111 4.46456C16.6111 4.47034 16.6222 4.47634 16.6333 4.48245C16.6444 4.48867 16.6444 4.49512 16.6555 4.50167C16.6666 4.50834 16.6778 4.51511 16.6778 4.52212C16.689 4.52911 16.7001 4.53634 16.7001 4.54367C16.7112 4.55112 16.7223 4.55867 16.7223 4.56645C16.7334 4.57411 16.7334 4.58212 16.7444 4.59011C16.7555 4.59823 16.7555 4.60645 16.7666 4.61489C16.7666 4.62323 16.7777 4.63178 16.7777 4.64045C16.7888 4.64923 16.7888 4.658 16.8 4.667C16.8 4.676 16.8111 4.68511 16.8111 4.69434C16.8223 4.70356 16.8223 4.71289 16.8223 4.72234C16.8334 4.73178 16.8334 4.74134 16.8445 4.75101C16.8445 4.76067 16.8445 4.77045 16.8556 4.78023C16.8556 4.79012 16.8556 4.8 16.8556 4.81C16.8667 4.82012 16.8667 4.83011 16.8667 4.84023C16.8667 4.85045 16.8777 4.86056 16.8777 4.87078C16.8777 4.88112 16.8777 4.89134 16.8777 4.90167C16.8777 4.912 16.8777 4.92234 16.8777 4.93278C16.8888 4.94311 16.8888 4.95356 16.8888 4.96401C16.8888 4.97434 16.8888 4.98478 16.8888 4.99523C16.8888 5.00567 16.8888 5.016 16.8888 5.02645C16.8777 5.03678 16.8777 5.04723 16.8777 5.05756C16.8777 5.06789 16.8777 5.07823 16.8777 5.08845C16.8777 5.09878 16.8777 5.109 16.8667 5.11923C16.8667 5.12934 16.8667 5.13945 16.8667 5.14945C16.8556 5.15956 16.8556 5.16956 16.8556 5.17945C16.8556 5.18934 16.8445 5.19911 16.8445 5.20889C16.8445 5.21856 16.8334 5.22822 16.8334 5.23778C16.8223 5.24723 16.8223 5.25667 16.8223 5.266C16.8111 5.27534 16.8111 5.28445 16.8 5.29356C16.8 5.30256 16.7888 5.31156 16.7888 5.32034C16.7777 5.32912 16.7777 5.33778 16.7666 5.34623L11.7666 12.8462C11.7666 12.8545 11.7555 12.8625 11.7555 12.8703C11.7444 12.8782 11.7444 12.886 11.7334 12.8937C11.7223 12.9012 11.7223 12.9087 11.7112 12.9159C11.7112 12.9232 11.7 12.9302 11.6889 12.9372C11.6889 12.9441 11.6778 12.9509 11.6667 12.9575C11.6667 12.964 11.6555 12.9703 11.6444 12.9766C11.6333 12.9828 11.6333 12.9888 11.6222 12.9946C11.6111 13.0003 11.5999 13.006 11.5999 13.0113C11.589 13.0168 11.5778 13.022 11.5667 13.027C11.5667 13.032 11.5556 13.0368 11.5445 13.0413C11.5333 13.0459 11.5222 13.0502 11.5222 13.0543C11.5111 13.0585 11.5 13.0625 11.4889 13.0661C11.4777 13.0698 11.4666 13.0732 11.4666 13.0765C11.4556 13.0797 11.4445 13.0827 11.4334 13.0855C11.4223 13.0882 11.4111 13.0908 11.4 13.0931C11.3889 13.0953 11.3889 13.0975 11.3778 13.0992C11.3666 13.1011 11.3555 13.1027 11.3444 13.104C11.3333 13.1055 11.3222 13.1066 11.3112 13.1075C11.3001 13.1082 11.2889 13.1089 11.2889 13.1093C11.2778 13.1097 11.2667 13.1098 11.2556 13.1097C11.2444 13.1097 11.2333 13.1093 11.2222 13.1088C11.2111 13.1081 11.2 13.1073 11.1888 13.1062C11.1888 13.1052 11.1778 13.1039 11.1667 13.1023C11.1556 13.1008 11.1445 13.099 11.1334 13.097C11.1222 13.095 11.1111 13.0928 11.1 13.0902C11.1 13.0878 11.0889 13.0851 11.0777 13.0821C11.0666 13.0792 11.0555 13.076 11.0444 13.0726C11.0334 13.0692 11.0334 13.0656 11.0223 13.0617C11.0112 13.0578 11 13.0538 10.9889 13.0495C10.9778 13.0451 10.9778 13.0407 10.9667 13.0359C10.9555 13.0311 10.9444 13.0262 10.9444 13.021C10.9333 13.0159 10.9222 13.0106 10.9111 13.005C10.9001 12.9995 10.9001 12.9937 10.8889 12.9877C10.8778 12.9817 10.8778 12.9756 10.8667 12.9692C10.8556 12.9629 10.8445 12.9563 10.8445 12.9497C10.8333 12.943 10.8222 12.9361 10.8222 12.929C10.8111 12.922 10.8111 12.9147 10.8 12.9073C10.7888 12.8999 10.7888 12.8923 10.7777 12.8847C10.7777 12.877 10.7666 12.8691 10.7666 12.8611C10.7556 12.853 10.7445 12.8449 10.7445 12.8367C10.7334 12.8283 10.7334 12.8199 10.7223 12.8113C10.7223 12.8028 10.7223 12.7941 10.7111 12.7853C10.7111 12.7765 10.7 12.7676 10.7 12.7586C10.6889 12.7496 10.6889 12.7403 10.6889 12.7311C10.6778 12.722 10.6778 12.7127 10.6778 12.7032C10.6666 12.6938 10.6666 12.6843 10.6666 12.6748C10.6666 12.6652 10.6555 12.6556 10.6555 12.6459C10.6555 12.6362 10.6555 12.6265 10.6444 12.6167C10.6444 12.6068 10.6444 12.597 10.6444 12.587C10.6444 12.5771 10.6444 12.5672 10.6444 12.5572C10.6333 12.5473 10.6333 12.5373 10.6333 12.5272C10.6333 12.5172 10.6333 12.5072 10.6333 12.4972C10.6333 12.4872 10.6333 12.4771 10.6333 12.4671C10.6333 12.4571 10.6333 12.447 10.6333 12.437C10.6333 12.427 10.6333 12.417 10.6444 12.4071C10.6444 12.3971 10.6444 12.3872 10.6444 12.3773C10.6444 12.3675 10.6444 12.3576 10.6555 12.3478C10.6555 12.338 10.6555 12.3282 10.6555 12.3186C10.6555 12.3089 10.6666 12.2993 10.6666 12.2898C10.6666 12.2802 10.6778 12.2708 10.6778 12.2615C10.6778 12.252 10.6889 12.2428 10.6889 12.2336C10.6889 12.2243 10.7 12.2152 10.7 12.2063C10.7 12.1973 10.7111 12.1885 10.7111 12.1797C10.7223 12.1709 10.7223 12.1623 10.7334 12.1538L15.7334 4.65378ZM3.75556 10.625C3.74444 10.625 3.73331 10.6248 3.72219 10.6242C3.71107 10.6238 3.69995 10.623 3.68883 10.622C3.67784 10.621 3.66672 10.6198 3.6556 10.6182C3.64447 10.6168 3.63335 10.615 3.63335 10.613C3.62223 10.611 3.61111 10.6088 3.59999 10.6063C3.58886 10.6038 3.57774 10.601 3.56662 10.5981C3.5555 10.5951 3.54438 10.5919 3.54438 10.5884C3.53339 10.585 3.52227 10.5813 3.51115 10.5775C3.50002 10.5736 3.4889 10.5693 3.47778 10.565C3.47778 10.5607 3.46666 10.556 3.45554 10.5512C3.44441 10.5463 3.43329 10.5413 3.43329 10.5361C3.42217 10.5308 3.41105 10.5253 3.40006 10.5197C3.38894 10.514 3.38894 10.5081 3.37782 10.502C3.3667 10.4959 3.3667 10.4897 3.35557 10.4831C3.34445 10.4767 3.33333 10.47 3.33333 10.4631C3.32221 10.4562 3.31109 10.4492 3.31109 10.442C3.29996 10.4348 3.28884 10.4273 3.28884 10.4198C3.27772 10.4121 3.27772 10.4045 3.2666 10.3966C3.25561 10.3886 3.25561 10.3806 3.24449 10.3723C3.24449 10.3641 3.23337 10.3558 3.23337 10.3472C3.22225 10.3388 3.22225 10.3301 3.21112 10.3213C3.21112 10.3126 3.2 10.3037 3.2 10.2947C3.18888 10.2856 3.18888 10.2765 3.18888 10.2672C3.17776 10.258 3.17776 10.2487 3.17776 10.2392C3.16664 10.2298 3.16664 10.2202 3.16664 10.2106C3.15551 10.2009 3.15551 10.1912 3.15551 10.1815C3.14439 10.1717 3.14439 10.1618 3.14439 10.1519C3.14439 10.142 3.14439 10.132 3.13327 10.1219C3.13327 10.1119 3.13327 10.1018 3.13327 10.0917C3.13327 10.0816 3.13327 10.0715 3.13327 10.0613C3.12228 10.0511 3.12228 10.0409 3.12228 10.0307C3.12228 10.0205 3.12228 10.0102 3.12228 10C3.12228 9.98979 3.12228 9.97956 3.12228 9.96934C3.12228 9.95912 3.12228 9.9489 3.13327 9.93879C3.13327 9.92856 3.13327 9.91845 3.13327 9.90834C3.13327 9.89823 3.13327 9.88812 3.13327 9.87812C3.14439 9.86801 3.14439 9.85812 3.14439 9.84812C3.14439 9.83823 3.14439 9.82834 3.15551 9.81856C3.15551 9.80879 3.15551 9.79912 3.16664 9.78945C3.16664 9.77979 3.16664 9.77034 3.17776 9.76079C3.17776 9.75134 3.17776 9.74201 3.18888 9.73279C3.18888 9.72356 3.18888 9.71445 3.2 9.70534C3.2 9.69634 3.21112 9.68745 3.21112 9.67867C3.22225 9.6699 3.22225 9.66134 3.23337 9.65279C3.23337 9.64422 3.24449 9.6359 3.24449 9.62767C3.25561 9.61945 3.25561 9.61145 3.2666 9.60345C3.27772 9.59556 3.27772 9.5879 3.28884 9.58034C3.28884 9.57267 3.29996 9.56534 3.31109 9.55812C3.31109 9.55079 3.32221 9.54379 3.33333 9.5369C3.33333 9.53001 3.34445 9.52334 3.35557 9.5169C3.3667 9.51034 3.3667 9.50412 3.37782 9.49801C3.38894 9.4919 3.38894 9.48601 3.40006 9.48034C3.41105 9.47467 3.42217 9.46923 3.43329 9.4639C3.43329 9.45868 3.44441 9.45367 3.45554 9.44879C3.46666 9.44401 3.47778 9.43934 3.47778 9.43501C3.4889 9.43067 3.50002 9.42645 3.51115 9.42256C3.52227 9.41867 3.53339 9.41501 3.54438 9.41156C3.54438 9.40812 3.5555 9.4049 3.56662 9.4019C3.57774 9.39901 3.58886 9.39623 3.59999 9.39379C3.61111 9.39123 3.62223 9.38901 3.63335 9.38701C3.63335 9.38501 3.64447 9.38323 3.6556 9.38179C3.66672 9.38023 3.67784 9.37901 3.68883 9.37801C3.69995 9.37701 3.71107 9.37623 3.72219 9.37579C3.73331 9.37523 3.74444 9.37501 3.75556 9.37501L8.75556 9.37501C8.75556 9.37501 8.76668 9.37523 8.77781 9.37579C8.78893 9.37623 8.80005 9.37701 8.81117 9.37801C8.82215 9.37901 8.83327 9.38023 8.84439 9.38179C8.85552 9.38323 8.86664 9.38501 8.86664 9.38701C8.87776 9.38901 8.88888 9.39123 8.90001 9.39379C8.91113 9.39623 8.92225 9.39901 8.93337 9.4019C8.9445 9.4049 8.95562 9.40812 8.95562 9.41156C8.96661 9.41501 8.97773 9.41867 8.98885 9.42256C8.99997 9.42645 9.0111 9.43067 9.02222 9.43501C9.02222 9.43934 9.03334 9.44401 9.04446 9.44879C9.05558 9.45367 9.06671 9.45868 9.06671 9.4639C9.07783 9.46923 9.08895 9.47467 9.09993 9.48034C9.11105 9.48601 9.11105 9.4919 9.12217 9.49801C9.1333 9.50412 9.1333 9.51034 9.14442 9.5169C9.15554 9.52334 9.16666 9.53001 9.16666 9.5369C9.17778 9.54379 9.18891 9.55079 9.18891 9.55812C9.20003 9.56534 9.21115 9.57267 9.21115 9.58034C9.22227 9.5879 9.22227 9.59556 9.2334 9.60345C9.24438 9.61145 9.24438 9.61945 9.25551 9.62767C9.25551 9.6359 9.26663 9.64422 9.26663 9.65279C9.27775 9.66134 9.27775 9.6699 9.28887 9.67867C9.28887 9.68745 9.3 9.69634 9.3 9.70534C9.31112 9.71445 9.31112 9.72356 9.31112 9.73279C9.32224 9.74201 9.32224 9.75134 9.32224 9.76079C9.33336 9.77034 9.33336 9.77979 9.33336 9.78945C9.34448 9.79912 9.34448 9.80879 9.34448 9.81856C9.35561 9.82834 9.35561 9.83823 9.35561 9.84812C9.35561 9.85812 9.35561 9.86801 9.36673 9.87812C9.36673 9.88812 9.36673 9.89823 9.36673 9.90834C9.36673 9.91845 9.36673 9.92856 9.36673 9.93879C9.37771 9.9489 9.37771 9.95912 9.37771 9.96934C9.37771 9.97956 9.37771 9.98979 9.37771 10C9.37771 10.0102 9.37771 10.0205 9.37771 10.0307C9.37771 10.0409 9.37771 10.0511 9.36673 10.0613C9.36673 10.0715 9.36673 10.0816 9.36673 10.0917C9.36673 10.1018 9.36673 10.1119 9.36673 10.1219C9.35561 10.132 9.35561 10.142 9.35561 10.1519C9.35561 10.1618 9.35561 10.1717 9.34448 10.1815C9.34448 10.1912 9.34448 10.2009 9.33336 10.2106C9.33336 10.2202 9.33336 10.2298 9.32224 10.2392C9.32224 10.2487 9.32224 10.258 9.31112 10.2672C9.31112 10.2765 9.31112 10.2856 9.3 10.2947C9.3 10.3037 9.28887 10.3126 9.28887 10.3213C9.27775 10.3301 9.27775 10.3388 9.26663 10.3472C9.26663 10.3558 9.25551 10.3641 9.25551 10.3723C9.24438 10.3806 9.24438 10.3886 9.2334 10.3966C9.22227 10.4045 9.22227 10.4121 9.21115 10.4198C9.21115 10.4273 9.20003 10.4348 9.18891 10.442C9.18891 10.4492 9.17778 10.4562 9.16666 10.4631C9.16666 10.47 9.15554 10.4767 9.14442 10.4831C9.1333 10.4897 9.1333 10.4959 9.12217 10.502C9.11105 10.5081 9.11105 10.514 9.09993 10.5197C9.08895 10.5253 9.07783 10.5308 9.06671 10.5361C9.06671 10.5413 9.05558 10.5463 9.04446 10.5512C9.03334 10.556 9.02222 10.5607 9.02222 10.565C9.0111 10.5693 8.99997 10.5736 8.98885 10.5775C8.97773 10.5813 8.96661 10.585 8.95562 10.5884C8.95562 10.5919 8.9445 10.5951 8.93337 10.5981C8.92225 10.601 8.91113 10.6038 8.90001 10.6063C8.88888 10.6088 8.87776 10.611 8.86664 10.613C8.86664 10.615 8.85552 10.6168 8.84439 10.6182C8.83327 10.6198 8.82215 10.621 8.81117 10.622C8.80005 10.623 8.78893 10.6238 8.77781 10.6242C8.76668 10.6248 8.75556 10.625 8.75556 10.625L3.75556 10.625Z"   fill="currentColor" >
</path>
</svg>
