<svg xmlns="http://www.w3.org/2000/svg" xmlns:xlink="http://www.w3.org/1999/xlink" width="20" height="20" viewBox="0 0 20 20" fill="none">
<path d="M16.6667 0L3.33334 0C1.46667 0 0 1.46667 0 3.33334L0 16.6667C0 18.5333 1.46667 20 3.33334 20L16.6667 20C18.5333 20 20 18.5333 20 16.6667L20 3.33334C20 1.46667 18.5333 0 16.6667 0ZM18.6667 16.6667C18.6667 17.7333 17.7333 18.6667 16.6667 18.6667L3.33334 18.6667C2.26666 18.6667 1.33333 17.7333 1.33333 16.6667L1.33333 3.33334C1.33333 2.26666 2.26666 1.33333 3.33334 1.33333L16.6667 1.33333C17.7333 1.33333 18.6667 2.26666 18.6667 3.33334L18.6667 16.6667Z"   fill="currentColor" >
</path>
<path d="M7.86669 11.2L4.00003 15.0667L4.00003 12.6667C4.00003 12.2667 3.73337 12 3.33337 12C2.93337 12 2.66669 12.2667 2.66669 12.6667L2.66669 16.6667C2.66669 17.0667 2.93337 17.3334 3.33337 17.3334L7.33337 17.3334C7.73337 17.3334 8.00003 17.0667 8.00003 16.6667C8.00003 16.2667 7.73337 16 7.33337 16L4.93337 16L8.80003 12.1334C9.06669 11.8667 9.06669 11.4667 8.80003 11.2C8.53337 10.9334 8.13337 10.9334 7.86669 11.2ZM16.6667 2.66667L12.6667 2.66667C12.2667 2.66667 12 2.93335 12 3.33335C12 3.73335 12.2667 4.00001 12.6667 4.00001L15.0667 4.00001L11.2 7.86667C10.9334 8.13335 10.9334 8.53335 11.2 8.80001C11.4667 9.06667 11.8667 9.06667 12.1334 8.80001L16 4.93335L16 7.33335C16 7.73335 16.2667 8.00001 16.6667 8.00001C17.0667 8.00001 17.3334 7.73335 17.3334 7.33335L17.3334 3.33335C17.3334 2.93335 17.0667 2.66667 16.6667 2.66667Z"   fill="currentColor" >
</path>
</svg>
