<svg xmlns="http://www.w3.org/2000/svg" xmlns:xlink="http://www.w3.org/1999/xlink" width="30" height="30" viewBox="0 0 30 30" fill="none">
<path d="M11.7793 23.1429L15 26.3636L18.2207 23.1429L27.4286 23.1429L27.4286 4.71429L21.4286 4.71429L21.4286 2.14286L30 2.14286L30 25.7143L19.2857 25.7143L15 30L10.7143 25.7143L0 25.7143L0 2.14286L8.57143 2.14286L8.57143 4.71429L2.57143 4.71429L2.57143 23.1429L11.7793 23.1429ZM13.7143 0L16.2857 0L16.2857 15L13.7143 15L13.7143 0ZM13.7143 17.1429L16.2857 17.1429L16.2857 19.7143L13.7143 19.7143L13.7143 17.1429Z"   fill="#000000" >
</path>
</svg>
