<svg xmlns="http://www.w3.org/2000/svg" xmlns:xlink="http://www.w3.org/1999/xlink" width="20" height="20" viewBox="0 0 20 20" fill="none">
<path d="M7.85286 15.4286L10 17.5757L12.1471 15.4286L18.2857 15.4286L18.2857 3.14286L14.2857 3.14286L14.2857 1.42857L20 1.42857L20 17.1429L12.8571 17.1429L10 20L7.14286 17.1429L0 17.1429L0 1.42857L5.71429 1.42857L5.71429 3.14286L1.71429 3.14286L1.71429 15.4286L7.85286 15.4286ZM9.14286 0L10.8571 0L10.8571 10L9.14286 10L9.14286 0ZM9.14286 11.4286L10.8571 11.4286L10.8571 13.1429L9.14286 13.1429L9.14286 11.4286Z"   fill="currentColor" >
</path>
</svg>
