<svg xmlns="http://www.w3.org/2000/svg" xmlns:xlink="http://www.w3.org/1999/xlink" width="20" height="20" viewBox="0 0 20 20" fill="none">
<path d="M9.0815 0.325683C9.09761 0.312422 9.11447 0.299892 9.13058 0.287366C9.14744 0.274841 9.16429 0.263053 9.18114 0.251264C9.19872 0.240206 9.21558 0.228418 9.23389 0.217366C9.25148 0.20705 9.26906 0.195998 9.28664 0.186419C9.30496 0.176103 9.32328 0.166524 9.34159 0.156944C9.35991 0.147365 9.37896 0.138529 9.39801 0.130422C9.41633 0.121579 9.43538 0.113472 9.45443 0.106102C9.47421 0.0980017 9.49326 0.0906318 9.51304 0.0839981C9.53209 0.0766282 9.55187 0.0700005 9.57165 0.0641035C9.59144 0.058212 9.61122 0.0523149 9.63173 0.0471599C9.65152 0.0419992 9.6713 0.0375806 9.69181 0.0331564C9.71233 0.0287378 9.73211 0.0243135 9.75263 0.0213678C9.77314 0.0176857 9.79366 0.0147343 9.81417 0.0117885C9.83468 0.00957927 9.8552 0.00736993 9.87571 0.00516065C9.89623 0.00368216 9.91674 0.0022093 9.93799 0.00147287C9.95851 0.000736434 9.97902 0 9.99954 0C10.0208 0 10.0413 0.000736434 10.0618 0.00147287C10.0823 0.0022093 10.1028 0.00368216 10.1241 0.00516065C10.1446 0.00736993 10.1651 0.00957927 10.1856 0.0117885C10.2062 0.0147343 10.2267 0.0176857 10.2472 0.0213678C10.267 0.0243135 10.2875 0.0287378 10.308 0.0331564C10.3278 0.0375806 10.3483 0.0419992 10.3681 0.0471599C10.3879 0.0523149 10.4084 0.058212 10.4282 0.0641035C10.4479 0.0700005 10.467 0.0766282 10.4868 0.0839981C10.5065 0.0906318 10.5256 0.0980017 10.5446 0.106102C10.5637 0.113472 10.5827 0.121579 10.6018 0.130422C10.6208 0.138529 10.6392 0.147365 10.6575 0.156944C10.6765 0.166524 10.6948 0.176103 10.7124 0.186419C10.7307 0.195998 10.7483 0.20705 10.7659 0.217366C10.7835 0.228418 10.8011 0.240206 10.8179 0.251264C10.8355 0.263053 10.8524 0.274841 10.8685 0.287366C10.8853 0.299892 10.9015 0.312422 10.9176 0.325683L19.4393 7.19965C20.0797 7.71617 20.1874 8.66301 19.6804 9.31585C19.6679 9.33206 19.6554 9.34827 19.6423 9.36374C19.6291 9.37921 19.6152 9.39469 19.6012 9.40942C19.588 9.4249 19.5734 9.43963 19.5595 9.45363C19.5448 9.46837 19.5302 9.48237 19.5148 9.49637C19.5001 9.51037 19.4847 9.52363 19.4693 9.5369C19.4532 9.55016 19.4378 9.56342 19.4217 9.57595C19.4056 9.58848 19.3895 9.601 19.3726 9.61279C19.3558 9.62458 19.3389 9.63637 19.3221 9.64742C19.3052 9.65848 19.2876 9.66953 19.2701 9.67984C19.2525 9.69016 19.2349 9.70048 19.2166 9.71005C19.199 9.71963 19.1807 9.72921 19.1624 9.73805C19.144 9.7469 19.1257 9.75574 19.1067 9.76384C19.0876 9.77195 19.0693 9.78005 19.0503 9.78742C19.0312 9.79479 19.0122 9.80216 18.9924 9.80879C18.9733 9.81542 18.9535 9.82132 18.9338 9.82721C18.9147 9.83311 18.8949 9.83826 18.8752 9.84342L18.796 9.86111L18.796 17.5633C18.796 18.8284 17.8487 19.8747 16.6119 19.9897L16.5108 19.9978L16.4053 20L3.59451 20C2.31965 20 1.27119 18.981 1.20598 17.6709L1.20379 17.5633L1.20305 9.86111L1.15103 9.85005C0.518001 9.70416 0.0395651 9.14564 0.0022024 8.46627L0 8.3808C0 7.92027 0.206613 7.48554 0.561233 7.19891L9.0815 0.325683ZM10.0772 1.39115C10.0743 1.38894 10.0721 1.38673 10.0691 1.38526C10.0662 1.38305 10.0633 1.38157 10.0603 1.37936C10.0567 1.37789 10.0538 1.37641 10.0508 1.37494C10.0472 1.37347 10.0442 1.37199 10.0413 1.37126C10.0376 1.36978 10.0347 1.36905 10.031 1.36831C10.0274 1.36683 10.0244 1.3661 10.0208 1.3661C10.0171 1.36536 10.0142 1.36462 10.0105 1.36462C10.0069 1.36389 10.0032 1.36389 10.0003 1.36389C9.99661 1.36389 9.99294 1.36389 9.98928 1.36462C9.98635 1.36462 9.98269 1.36536 9.97902 1.3661C9.97609 1.3661 9.97243 1.36683 9.96876 1.36831C9.96583 1.36905 9.96217 1.36978 9.95924 1.37126C9.95558 1.37199 9.95265 1.37347 9.94898 1.37494C9.94605 1.37641 9.94312 1.37789 9.94019 1.37936C9.93726 1.38157 9.93433 1.38305 9.9314 1.38526C9.92847 1.38673 9.92554 1.38894 9.92261 1.39115L1.4104 8.2769C1.40673 8.28059 1.40306 8.28354 1.40014 8.28722C1.39648 8.29017 1.39354 8.29385 1.39061 8.29753C1.38768 8.30122 1.38475 8.30564 1.38255 8.30932C1.37963 8.31375 1.37743 8.31743 1.37523 8.32185C1.37376 8.32627 1.37156 8.33069 1.3701 8.33511C1.36864 8.33953 1.36717 8.34396 1.36644 8.34911C1.36498 8.35353 1.36424 8.35796 1.36424 8.36311C1.3635 8.36753 1.3635 8.37269 1.3635 8.37711C1.3635 8.44785 1.41919 8.50532 1.48807 8.50532L1.88883 8.50532C2.2625 8.50459 2.5651 8.8148 2.5651 9.19574L2.5651 17.5596L2.56656 17.6318C2.5944 18.1933 3.04939 18.6361 3.60183 18.6361L16.3811 18.6361L16.4515 18.6346C17.001 18.6059 17.434 18.141 17.434 17.5773L17.434 9.19648C17.434 8.8148 17.7366 8.50532 18.1102 8.50532L18.5117 8.50532C18.5498 8.50532 18.5857 8.48764 18.6099 8.45743C18.6107 8.45522 18.6121 8.45374 18.6136 8.45227C18.6143 8.4508 18.6158 8.44859 18.6165 8.44711C18.618 8.4449 18.6187 8.44343 18.6202 8.44122C18.6209 8.43974 18.6216 8.43827 18.6231 8.43606C18.6238 8.43459 18.6246 8.43238 18.6253 8.43017C18.626 8.42869 18.6268 8.42648 18.6275 8.42501C18.6282 8.4228 18.629 8.42059 18.6297 8.41911C18.6304 8.4169 18.6312 8.41469 18.6319 8.41248C18.6326 8.41101 18.6326 8.4088 18.6334 8.40659C18.6334 8.40438 18.6341 8.4029 18.6348 8.40069C18.6348 8.39848 18.6348 8.39627 18.6356 8.3948C18.6356 8.39259 18.6356 8.39038 18.6363 8.38817C18.6363 8.38596 18.6363 8.38375 18.6363 8.38227C18.6363 8.38006 18.6363 8.37785 18.6363 8.37564C18.6363 8.37343 18.6363 8.37196 18.6363 8.36975C18.6363 8.36753 18.6356 8.36532 18.6356 8.36311C18.6356 8.3609 18.6348 8.35943 18.6348 8.35722C18.6341 8.35501 18.6341 8.3528 18.6334 8.35132C18.6334 8.34911 18.6326 8.3469 18.6319 8.34469C18.6319 8.34322 18.6312 8.34101 18.6304 8.3388C18.6297 8.33659 18.629 8.33511 18.6282 8.3329C18.6275 8.33143 18.6268 8.32922 18.626 8.32701C18.6253 8.32553 18.6246 8.32332 18.6238 8.32185C18.6224 8.31964 18.6216 8.31743 18.6209 8.31596C18.6194 8.31448 18.6187 8.31227 18.6172 8.3108C18.6165 8.30859 18.6151 8.30711 18.6143 8.30564C18.6129 8.30343 18.6121 8.30196 18.6107 8.30048C18.6092 8.29827 18.6077 8.2968 18.607 8.29532C18.6055 8.29385 18.6041 8.29238 18.6026 8.2909C18.6011 8.28869 18.5997 8.28722 18.5982 8.28575C18.5967 8.28427 18.5953 8.28354 18.5938 8.28206C18.5923 8.28059 18.5909 8.27911 18.5894 8.27764L10.0772 1.39115ZM13.0204 13.423C13.0277 13.4318 13.035 13.4407 13.0416 13.4495C13.0482 13.4584 13.0548 13.4672 13.0614 13.476C13.0672 13.4856 13.0738 13.4945 13.0797 13.504C13.0856 13.5136 13.0907 13.5232 13.0965 13.5328C13.1017 13.5431 13.1068 13.5527 13.1119 13.563C13.1171 13.5726 13.1215 13.5829 13.1259 13.5932C13.1303 13.6035 13.1346 13.6138 13.1383 13.6241C13.1427 13.6345 13.1464 13.6455 13.1493 13.6558C13.153 13.6661 13.1559 13.6772 13.1588 13.6882C13.1618 13.6986 13.164 13.7096 13.1669 13.7207C13.1691 13.7317 13.1713 13.742 13.1727 13.7531C13.1749 13.7641 13.1764 13.7752 13.1771 13.7862C13.1786 13.7973 13.1793 13.8083 13.1801 13.8201C13.1808 13.8312 13.1815 13.8422 13.1815 13.8533C13.1823 13.8643 13.1815 13.8754 13.1815 13.8865C13.1808 13.8975 13.1801 13.9093 13.1793 13.9203C13.1786 13.9314 13.1771 13.9425 13.1757 13.9535C13.1742 13.9646 13.1727 13.9756 13.1706 13.9867C13.1684 13.9977 13.1662 14.008 13.164 14.0191C13.161 14.0301 13.1588 14.0412 13.1552 14.0515C13.1522 14.0626 13.1493 14.0729 13.1456 14.0832C13.142 14.0942 13.1376 14.1046 13.1339 14.1149C13.1295 14.1252 13.1251 14.1355 13.1207 14.1458C13.1163 14.1561 13.1112 14.1657 13.1061 14.176C13.1009 14.1856 13.0958 14.1952 13.09 14.2055C13.0848 14.2151 13.079 14.2247 13.0724 14.2335C13.0665 14.2431 13.0599 14.2527 13.0541 14.2615C13.0475 14.2703 13.0401 14.2792 13.0335 14.288C13.0269 14.2969 13.0196 14.3057 13.0123 14.3138C13.005 14.3219 12.9969 14.33 12.9896 14.3381C12.9815 14.3462 12.9735 14.3543 12.9654 14.3617C12.9573 14.3691 12.9493 14.3765 12.9405 14.3838C12.1067 15.0897 11.1953 15.4544 10.2274 15.4544C9.2588 15.4544 8.34809 15.0897 7.51357 14.3838C7.50478 14.3765 7.49672 14.3691 7.48866 14.3617C7.4806 14.3543 7.47254 14.3462 7.46448 14.3381C7.45716 14.33 7.4491 14.3219 7.44177 14.3138C7.43444 14.305 7.42785 14.2969 7.42052 14.288C7.41393 14.2792 7.4066 14.2703 7.40074 14.2615C7.39415 14.2519 7.38755 14.2431 7.38169 14.2335C7.37583 14.2239 7.36997 14.2151 7.36411 14.2048C7.35825 14.1952 7.35312 14.1856 7.34799 14.176C7.34286 14.1657 7.33773 14.1554 7.33334 14.1458C7.32894 14.1355 7.32454 14.1252 7.32015 14.1149C7.31648 14.1046 7.31209 14.0942 7.30916 14.0832C7.30549 14.0729 7.30183 14.0618 7.29891 14.0515C7.29596 14.0405 7.29303 14.0301 7.29011 14.0191C7.28792 14.008 7.28571 13.997 7.28351 13.9859C7.28132 13.9749 7.27985 13.9638 7.27839 13.9528C7.27693 13.9417 7.27545 13.9307 7.27472 13.9196C7.27398 13.9086 7.27326 13.8975 7.27252 13.8865C7.27252 13.8754 7.27252 13.8643 7.27252 13.8526C7.27252 13.8415 7.27326 13.8305 7.27398 13.8194C7.27472 13.8083 7.27545 13.7973 7.27693 13.7862C7.27839 13.7752 7.27985 13.7641 7.28132 13.7531C7.28351 13.742 7.28571 13.731 7.28792 13.7199C7.29011 13.7089 7.29231 13.6986 7.29524 13.6875C7.29817 13.6765 7.30183 13.6661 7.30476 13.6551C7.30843 13.6448 7.31209 13.6345 7.31575 13.6234C7.32015 13.6131 7.32381 13.6028 7.32821 13.5925C7.3326 13.5821 7.33773 13.5726 7.34286 13.5622C7.34726 13.5527 7.35239 13.5423 7.35825 13.5328C7.36337 13.5232 7.36924 13.5136 7.3751 13.504C7.38096 13.4945 7.38682 13.4849 7.39341 13.476C7.40001 13.4665 7.4066 13.4576 7.4132 13.4488C7.41979 13.4399 7.42712 13.4311 7.43444 13.423C7.44104 13.4141 7.44837 13.406 7.45642 13.3979C7.46375 13.3898 7.47181 13.3817 7.47987 13.3736C7.48793 13.3662 7.49599 13.3581 7.50478 13.3508C7.51284 13.3434 7.52163 13.3368 7.53042 13.3294C7.53922 13.3228 7.54801 13.3161 7.5568 13.3095C7.56559 13.3029 7.57512 13.297 7.58464 13.2904C7.59417 13.2845 7.60369 13.2786 7.61322 13.2734C7.62274 13.2675 7.63227 13.2624 7.64252 13.2572C7.65205 13.252 7.66231 13.2469 7.67256 13.2425C7.68282 13.238 7.69308 13.2336 7.70334 13.2292C7.71359 13.2255 7.72458 13.2211 7.73484 13.2181C7.7451 13.2145 7.75609 13.2108 7.76708 13.2078C7.77734 13.2049 7.78833 13.2019 7.79932 13.1997C7.81031 13.1968 7.8213 13.1946 7.83229 13.1924C7.84328 13.1909 7.85427 13.1887 7.86526 13.1872C7.87625 13.1857 7.88724 13.185 7.89823 13.1835C7.90922 13.1828 7.92021 13.182 7.93193 13.182C7.94292 13.1813 7.95391 13.1813 7.9649 13.1813C7.97662 13.182 7.98761 13.182 7.9986 13.1828C8.00959 13.1835 8.02058 13.1842 8.03231 13.1857C8.0433 13.1872 8.05429 13.1887 8.06528 13.1901C8.07627 13.1924 8.08726 13.1946 8.09825 13.1968C8.10924 13.199 8.11949 13.2019 8.13048 13.2049C8.14147 13.2071 8.15246 13.2108 8.16272 13.2137C8.17371 13.2174 8.18397 13.2211 8.19423 13.2248C8.20448 13.2292 8.21548 13.2329 8.22573 13.2373C8.23599 13.2417 8.24551 13.2469 8.25577 13.2513C8.26603 13.2565 8.27555 13.2616 8.28508 13.2668C8.29534 13.2727 8.30486 13.2778 8.31439 13.2837C8.32391 13.2896 8.33344 13.2962 8.34223 13.3021C8.35175 13.3088 8.36054 13.3154 8.36934 13.322C8.37813 13.3287 8.38692 13.336 8.39571 13.3434C8.99211 13.8489 9.59657 14.0906 10.2274 14.0906C10.8575 14.0906 11.462 13.8489 12.0591 13.3434C12.0679 13.336 12.0767 13.3287 12.0855 13.322C12.0943 13.3154 12.103 13.3088 12.1126 13.3021C12.1214 13.2962 12.1309 13.2896 12.1404 13.2837C12.1499 13.2778 12.1595 13.2727 12.169 13.2668C12.1785 13.2616 12.1888 13.2565 12.199 13.2513C12.2085 13.2469 12.2188 13.2417 12.2291 13.2373C12.2393 13.2329 12.2496 13.2292 12.2606 13.2248C12.2708 13.2211 12.2811 13.2174 12.2921 13.2137C12.3023 13.2108 12.3133 13.2078 12.3243 13.2049C12.3346 13.2019 12.3456 13.199 12.3565 13.1968C12.3675 13.1946 12.3785 13.1924 12.3895 13.1909C12.4005 13.1887 12.4115 13.1872 12.4225 13.1857C12.4335 13.185 12.4452 13.1835 12.4562 13.1828C12.4672 13.182 12.4782 13.182 12.4892 13.1813C12.5009 13.1813 12.5119 13.1813 12.5229 13.182C12.5339 13.182 12.5456 13.1828 12.5566 13.1835C12.5676 13.185 12.5785 13.1857 12.5895 13.1872C12.6005 13.1887 12.6115 13.1909 12.6225 13.1924C12.6335 13.1946 12.6445 13.1968 12.6555 13.1997C12.6665 13.2019 12.6775 13.2049 12.6877 13.2078C12.6987 13.2108 12.709 13.2145 12.72 13.2181C12.7302 13.2218 12.7412 13.2255 12.7515 13.2299C12.7617 13.2336 12.772 13.238 12.7822 13.2425C12.7925 13.2476 12.802 13.252 12.8123 13.2572C12.8218 13.2624 12.8321 13.2675 12.8416 13.2734C12.8511 13.2793 12.8606 13.2845 12.8702 13.2911C12.8797 13.297 12.8885 13.3029 12.898 13.3095C12.9068 13.3161 12.9156 13.3228 12.9244 13.3301C12.9332 13.3368 12.942 13.3441 12.95 13.3515C12.9588 13.3589 12.9669 13.3662 12.9749 13.3744C12.983 13.3817 12.9903 13.3898 12.9984 13.3979C13.0057 13.406 13.013 13.4149 13.0204 13.423Z"   fill="currentColor" >
</path>
</svg>
