<svg xmlns="http://www.w3.org/2000/svg" xmlns:xlink="http://www.w3.org/1999/xlink" width="20" height="20" viewBox="0 0 20 20" fill="none">
<path d="M17.35 4.93C17.8175 4.93 18.1918 5.34119 18.15 5.81L18.14 5.82L16.92 17.35C16.7611 18.8439 15.5209 19.9809 14.04 20L13.99 20L6.29 19.98C4.81045 19.98 3.57104 18.8602 3.39 17.38L3.38 17.34L2.15 5.82C2.09956 5.34972 2.45432 4.93 2.92 4.93L2.94 4.93L17.35 4.93ZM7.93 8.4C7.49576 8.4 7.14 8.75258 7.14 9.19L7.14 9.2L7.14 14.7L7.14 14.72C7.14 15.1548 7.49765 15.51 7.93 15.51C8.36424 15.51 8.73 15.1574 8.73 14.72L8.73 14.7L8.73 9.2L8.73 9.19C8.73 8.75521 8.36235 8.4 7.93 8.4ZM12.08 8.4C11.6458 8.4 11.28 8.75258 11.28 9.19L11.28 9.2L11.28 14.7L11.28 14.72C11.28 15.1548 11.6476 15.51 12.08 15.51C12.5142 15.51 12.87 15.1574 12.87 14.72L12.87 14.7L12.87 9.2L12.87 9.19C12.87 8.75521 12.5124 8.4 12.08 8.4ZM19.21 2.76C19.6486 2.76 20 3.11646 20 3.56C20 3.99721 19.65 4.35993 19.22 4.37L19.21 4.37L0.79 4.37C0.351382 4.37 0 4.00354 0 3.56C0 3.12279 0.35004 2.77007 0.78 2.76L0.79 2.76L19.21 2.76ZM13.12 0C13.5586 0 13.92 0.356456 13.92 0.8C13.92 1.23721 13.57 1.59993 13.14 1.61L13.12 1.61L6.87 1.61C6.43138 1.61 6.08 1.24354 6.08 0.8C6.08 0.362791 6.42004 0.0100671 6.85 0L6.87 0L13.12 0Z"   fill="currentColor" >
</path>
</svg>
