<svg xmlns="http://www.w3.org/2000/svg" xmlns:xlink="http://www.w3.org/1999/xlink" width="20" height="20" viewBox="0 0 20 20" fill="none">
<g  clip-path="url(#clip-path-m9ksO7DFkZ4eQyBeinTRy)">
<path d="M9.95816 10.7275C8.3682 10.0243 7.23849 8.41119 7.23849 6.54988C7.23849 4.02676 9.2887 2 11.841 2C14.3933 2 16.4435 4.02676 16.4435 6.54988C16.4435 8.41119 15.3138 9.98297 13.7238 10.7275C17.3222 11.5547 20 14.781 20 18.5864C20 18.8345 19.8326 19 19.5816 19C19.3305 19 19.1632 18.8345 19.1632 18.5864C19.1632 14.5742 15.8996 11.3479 11.841 11.3479C7.78243 11.3479 4.51883 14.5742 4.51883 18.5864C4.51883 18.8345 4.35146 19 4.10042 19C3.84937 19 3.68201 18.8345 3.68201 18.5864C3.68201 14.7397 6.35983 11.5547 9.95816 10.7275ZM7.53138 10.6034L7.53138 10.6448C7.53138 10.8929 7.36402 11.0584 7.11297 11.0584C3.64017 11.0584 0.83682 13.8297 0.83682 17.2628C0.83682 17.5109 0.669456 17.6764 0.41841 17.6764C0.167364 17.6764 0 17.5109 0 17.2628C0 14.0365 2.21757 11.3066 5.18828 10.4793C3.84937 9.77616 2.92887 8.41119 2.92887 6.79805C2.92887 4.52311 4.81172 2.6618 7.11297 2.6618C7.36402 2.6618 7.53138 2.82725 7.53138 3.07543C7.53138 3.3236 7.36402 3.48905 7.11297 3.48905C5.27197 3.48905 3.76569 4.9781 3.76569 6.79805C3.76569 8.618 5.27197 10.1071 7.11297 10.1071C7.36402 10.1071 7.53138 10.2725 7.53138 10.5207L7.53138 10.6034ZM11.7992 10.2725C13.8912 10.2725 15.5649 8.618 15.5649 6.54988C15.5649 4.48175 13.8912 2.82725 11.7992 2.82725C9.70711 2.82725 8.03347 4.48175 8.03347 6.54988C8.03347 8.618 9.74895 10.2725 11.7992 10.2725Z" stroke="currentColor" stroke-width="0.3"      fill="currentColor" >
</path>
</g>
<defs>
<clipPath id="clip-path-m9ksO7DFkZ4eQyBeinTRy">
<path d="M0 20L20 20L20 0L0 0L0 20Z" fill="white"/>
</clipPath>
</defs>
</svg>
