<svg xmlns="http://www.w3.org/2000/svg" xmlns:xlink="http://www.w3.org/1999/xlink" width="20" height="20" viewBox="0 0 20 20" fill="none">
<path d="M20 17.1975C20 17.1956 19.9997 17.1939 19.9997 17.1921C19.9909 14.2425 18.1701 11.7064 15.5591 10.5718C16.7478 9.69072 17.5145 8.30242 17.5145 6.74057C17.5145 4.19707 15.4812 2.11394 12.9033 1.93228C12.8707 1.92807 12.8376 1.92511 12.8038 1.92511C12.3941 1.92511 12.062 2.24682 12.062 2.64364C12.062 3.04051 12.3941 3.36217 12.8038 3.36217C12.8078 3.36217 12.8117 3.36164 12.8157 3.36159C14.6201 3.50074 16.0399 4.96192 16.0399 6.74549C16.0399 7.92012 15.4239 8.95495 14.4881 9.56474C14.0503 9.73758 13.7412 10.1531 13.7412 10.6393C13.7412 11.1213 14.0446 11.534 14.4761 11.7096L14.4761 11.7124C16.8246 12.5068 18.5107 14.6689 18.5162 17.2136L18.5172 17.2136C18.526 17.603 18.8541 17.9161 19.2581 17.9161C19.6622 17.9161 19.9902 17.603 19.9991 17.2136L19.9999 17.2136L19.9997 17.2008C19.9998 17.1996 20 17.1985 20 17.1975Z"   fill="currentColor" >
</path>
<path d="M15.0232 17.6095C15.0141 14.5402 13.0432 11.9178 10.2612 10.8573C11.7466 9.99198 12.7405 8.41566 12.7405 6.61436C12.7405 3.88188 10.4537 1.66667 7.63281 1.66667C4.8119 1.66667 2.52511 3.88183 2.52511 6.61436C2.52511 8.37806 3.47805 9.92597 4.91213 10.802C2.04474 11.8267 0 14.4974 0 17.6307L0.00237574 17.6307C0.0112467 18.0202 0.339245 18.3333 0.743315 18.3333C1.14739 18.3333 1.47546 18.0202 1.48425 17.6307L1.48431 17.6307L1.48431 17.6292C1.48441 17.6243 1.48519 17.6194 1.48509 17.6146L1.48474 17.5956C1.50498 14.3876 4.19543 11.8043 7.51206 11.8043C10.8368 11.8043 13.5328 14.4118 13.5398 17.6307L13.5408 17.6307C13.5496 18.0202 13.8777 18.3333 14.2817 18.3333C14.6858 18.3333 15.0139 18.0202 15.0226 17.6307L15.0235 17.6307L15.0234 17.618L15.0235 17.6148C15.0234 17.613 15.0232 17.6113 15.0232 17.6095ZM7.6297 10.133C5.62641 10.133 4.00242 8.55986 4.00242 6.61933C4.00242 4.67883 5.62641 3.10577 7.6297 3.10577C9.63297 3.10577 11.2569 4.67883 11.2569 6.61933C11.2569 8.55986 9.63297 10.133 7.6297 10.133Z"   fill="currentColor" >
</path>
</svg>
