<svg xmlns="http://www.w3.org/2000/svg" xmlns:xlink="http://www.w3.org/1999/xlink" width="20" height="18.666717529296875" viewBox="0 0 20 18.666717529296875" fill="none">
<path d="M6.1771 9.33336C5.0521 9.36808 4.13196 9.81253 3.41668 10.6667L2.02084 10.6667C1.45139 10.6667 0.972224 10.5261 0.583335 10.2448C0.194446 9.96356 9.27187e-08 9.55211 0 9.01045C0 6.55904 0.430556 5.33334 1.29167 5.33334C1.33334 5.33334 1.48438 5.40626 1.7448 5.55209C2.00521 5.69792 2.34377 5.84549 2.76043 5.9948C3.1771 6.14412 3.59028 6.21877 4.00002 6.21877C4.46528 6.21877 4.9271 6.13891 5.38544 5.97918C5.35071 6.23612 5.33334 6.4653 5.33334 6.66668C5.33334 7.63197 5.6146 8.52086 6.1771 9.33336ZM17.3334 15.9688C17.3334 16.8021 17.0799 17.4601 16.573 17.9428C16.066 18.4254 15.3924 18.6667 14.5521 18.6667L5.44793 18.6667C4.60765 18.6667 3.93403 18.4254 3.42709 17.9428C2.92016 17.4601 2.66668 16.8021 2.66668 15.9688C2.66668 15.6007 2.67884 15.2414 2.70314 14.8907C2.72744 14.54 2.77605 14.1615 2.84897 13.7552C2.92189 13.349 3.01391 12.9723 3.12502 12.625C3.23612 12.2778 3.38542 11.9393 3.57293 11.6094C3.76043 11.2795 3.97572 10.9983 4.21877 10.7656C4.46182 10.533 4.7587 10.3472 5.10939 10.2084C5.46009 10.0695 5.84724 10 6.27085 10C6.34028 10 6.4896 10.0747 6.71878 10.224C6.94794 10.3733 7.20141 10.54 7.47919 10.724C7.75697 10.908 8.1285 11.0747 8.59378 11.224C9.05904 11.3733 9.52781 11.4479 10 11.4479C10.4723 11.4479 10.941 11.3733 11.4063 11.224C11.8716 11.0747 12.2431 10.908 12.5209 10.724C12.7986 10.54 13.0521 10.3733 13.2813 10.224C13.5105 10.0747 13.6598 10 13.7292 10C14.1528 10 14.54 10.0695 14.8907 10.2084C15.2414 10.3472 15.5382 10.533 15.7813 10.7656C16.0243 10.9983 16.2396 11.2795 16.4271 11.6094C16.6146 11.9393 16.7639 12.2778 16.875 12.625C16.9861 12.9723 17.0782 13.349 17.1511 13.7552C17.224 14.1615 17.2726 14.54 17.2969 14.8907C17.3212 15.2414 17.3334 15.6007 17.3334 15.9688ZM6.66668 2.66668C6.66668 3.40279 6.40626 4.03126 5.88543 4.55209C5.3646 5.07292 4.73613 5.33334 4.00002 5.33334C3.2639 5.33334 2.63542 5.07292 2.11459 4.55209C1.59375 4.03126 1.33334 3.40279 1.33334 2.66668C1.33334 1.93056 1.59375 1.30209 2.11459 0.781251C2.63542 0.260417 3.2639 -4.63593e-08 4.00002 0C4.73613 4.63593e-08 5.3646 0.260417 5.88543 0.781251C6.40626 1.30209 6.66668 1.93056 6.66668 2.66668ZM14 6.66668C14 7.77084 13.6094 8.71356 12.8282 9.49481C12.0469 10.2761 11.1042 10.6667 10 10.6667C8.89586 10.6667 7.95315 10.2761 7.1719 9.49481C6.39065 8.71356 6.00002 7.77086 6.00002 6.66668C6.00002 5.56252 6.39065 4.61979 7.1719 3.83854C7.95315 3.05729 8.89586 2.66668 10 2.66668C11.1042 2.66668 12.0469 3.05729 12.8282 3.83854C13.6094 4.61979 14 5.56252 14 6.66668ZM20 9.01045C20 9.55211 19.8055 9.96356 19.4167 10.2448C19.0278 10.5261 18.5486 10.6667 17.9792 10.6667L16.5834 10.6667C15.8681 9.81253 14.948 9.36808 13.823 9.33336C14.3855 8.52086 14.6667 7.63197 14.6667 6.66668C14.6667 6.4653 14.6493 6.23612 14.6146 5.97918C15.073 6.13891 15.5348 6.21877 16 6.21877C16.4098 6.21877 16.823 6.14412 17.2396 5.9948C17.6563 5.84549 17.9948 5.69792 18.2553 5.55209C18.5158 5.40626 18.6667 5.33334 18.7085 5.33334C19.5694 5.33334 20 6.55904 20 9.01045ZM18.6667 2.66668C18.6667 3.40279 18.4062 4.03126 17.8855 4.55209C17.3646 5.07292 16.7362 5.33334 16 5.33334C15.2639 5.33334 14.6355 5.07292 14.1146 4.55209C13.5938 4.03126 13.3334 3.40279 13.3334 2.66668C13.3334 1.93056 13.5938 1.30209 14.1146 0.781251C14.6355 0.260417 15.2639 -4.63593e-08 16 0C16.7362 4.63593e-08 17.3646 0.260417 17.8855 0.781251C18.4062 1.30209 18.6667 1.93056 18.6667 2.66668Z"   fill="currentColor" >
</path>
</svg>
