<svg xmlns="http://www.w3.org/2000/svg" xmlns:xlink="http://www.w3.org/1999/xlink" width="20" height="20.0028076171875" viewBox="0 0 20 20.0028076171875" fill="none">
<path d="M17.0742 2.93C17.0165 2.87196 16.958 2.81465 16.8989 2.75806C16.8398 2.70146 16.7799 2.64563 16.7194 2.59052C16.6589 2.53539 16.5977 2.48104 16.5359 2.42745C16.474 2.37383 16.4115 2.32102 16.3483 2.26898C16.2851 2.21692 16.2213 2.16563 16.1569 2.11516C16.0925 2.06468 16.0274 2.01501 15.9618 1.96614C15.8961 1.91726 15.8299 1.86921 15.763 1.82198C15.6962 1.77474 15.6287 1.72833 15.5607 1.68276C15.4927 1.6372 15.4242 1.59248 15.3551 1.54859C15.286 1.50472 15.2164 1.46171 15.1462 1.41956C15.076 1.3774 15.0054 1.33611 14.9342 1.29571C14.863 1.2553 14.7913 1.21577 14.7192 1.17712C14.647 1.13849 14.5744 1.10075 14.5013 1.06391C14.4282 1.02706 14.3547 0.991123 14.2807 0.956098C14.2067 0.92107 14.1323 0.886963 14.0575 0.853772C13.9827 0.820582 13.9075 0.788322 13.8318 0.75699C13.7562 0.725658 13.6802 0.695265 13.6039 0.665811C13.5275 0.636359 13.4508 0.607852 13.3737 0.580293C13.2966 0.552734 13.2192 0.526131 13.1415 0.500485C13.0638 0.47484 12.9857 0.450158 12.9074 0.426439C12.8291 0.40272 12.7504 0.379975 12.6715 0.358198C12.5926 0.336421 12.5135 0.315625 12.4341 0.295804C12.3546 0.275983 12.275 0.257146 12.1951 0.239294C12.1152 0.221441 12.0351 0.204579 11.9548 0.188704C11.8745 0.172831 11.7941 0.157951 11.7134 0.144066C11.6327 0.130181 11.5519 0.117294 11.4709 0.105406C11.3899 0.0935169 11.3088 0.0826304 11.2276 0.0727462C11.1463 0.0628606 11.0649 0.0539807 10.9835 0.0461067C10.902 0.0382327 10.8204 0.0313658 10.7388 0.0255065C10.6572 0.0196471 10.5755 0.0147971 10.4937 0.0109565C10.4119 0.00711442 10.3301 0.00428397 10.2483 0.00246511C10.1665 0.000644872 10.0846 -0.000164594 10.0028 3.68874e-05C9.92092 -0.000186166 9.83907 0.000602385 9.75722 0.00240254C9.67537 0.00420411 9.59355 0.00701587 9.51178 0.0108378C9.42998 0.014661 9.34826 0.0194938 9.26663 0.025336C9.18495 0.0311783 9.10339 0.0380292 9.0219 0.0458887C8.9404 0.0537467 8.85903 0.0626117 8.77776 0.0724829C8.69648 0.0823528 8.61534 0.0932255 8.53436 0.105101C8.45333 0.116977 8.37249 0.129852 8.29181 0.143727C8.21113 0.157601 8.13062 0.17247 8.05032 0.188333C7.96999 0.204198 7.88989 0.221051 7.81 0.238894C7.7301 0.256738 7.65043 0.275568 7.571 0.295381C7.49157 0.315193 7.41237 0.335985 7.33346 0.357756C7.25455 0.379526 7.1759 0.402267 7.09754 0.425982C7.01919 0.449694 6.94114 0.474372 6.8634 0.500016C6.78565 0.525661 6.70823 0.552259 6.63113 0.579816C6.55403 0.607373 6.47729 0.635877 6.40093 0.665332C6.32452 0.694786 6.24852 0.725179 6.17289 0.756511C6.09726 0.787843 6.02201 0.820105 5.94718 0.853295C5.87233 0.886488 5.79792 0.920598 5.72393 0.955623C5.64994 0.990661 5.57638 1.02661 5.50327 1.06346C5.43017 1.1003 5.35754 1.13804 5.28536 1.17669C5.21318 1.21534 5.1415 1.25487 5.07031 1.29528C4.99911 1.3357 4.92842 1.37699 4.85827 1.41915C4.78807 1.46131 4.71844 1.50434 4.64933 1.54822C4.58022 1.59211 4.51164 1.63684 4.44365 1.68241C4.37564 1.728 4.30821 1.77441 4.24136 1.82165C4.17449 1.86891 4.10823 1.91698 4.04257 1.96586C3.97689 2.01474 3.91183 2.06443 3.84738 2.11492C3.78293 2.16542 3.71913 2.2167 3.65597 2.26878C3.59277 2.32084 3.53026 2.37368 3.4684 2.4273C3.40652 2.48091 3.34533 2.53529 3.28481 2.59041C3.22428 2.64554 3.16445 2.7014 3.10531 2.75802C3.04617 2.81461 2.98772 2.87194 2.93 2.93C2.87194 2.98772 2.81461 3.04617 2.75802 3.10531C2.7014 3.16445 2.64554 3.22428 2.59041 3.28481C2.53529 3.34533 2.48091 3.40652 2.4273 3.4684C2.37368 3.53026 2.32084 3.59277 2.26878 3.65597C2.2167 3.71913 2.16542 3.78293 2.11492 3.84738C2.06443 3.91183 2.01474 3.97689 1.96586 4.04257C1.91698 4.10823 1.86891 4.17449 1.82165 4.24136C1.77442 4.30821 1.728 4.37564 1.68241 4.44365C1.63684 4.51164 1.59211 4.58022 1.54822 4.64933C1.50434 4.71844 1.46131 4.78807 1.41915 4.85827C1.37699 4.92842 1.3357 4.99911 1.29528 5.07031C1.25487 5.1415 1.21534 5.21318 1.17669 5.28536C1.13805 5.35754 1.1003 5.43017 1.06345 5.50327C1.0266 5.57638 0.990661 5.64994 0.955629 5.72393C0.920598 5.79792 0.886486 5.87233 0.853295 5.94718C0.820103 6.02201 0.78784 6.09726 0.756508 6.17289C0.725177 6.24852 0.694783 6.32452 0.665329 6.40093C0.635877 6.47729 0.607373 6.55403 0.579816 6.63113C0.552259 6.70823 0.525659 6.78565 0.500016 6.8634C0.474372 6.94114 0.449694 7.01919 0.42598 7.09754C0.402265 7.1759 0.379523 7.25455 0.357753 7.33346C0.335983 7.41237 0.315191 7.49157 0.295379 7.571C0.275566 7.65043 0.256738 7.7301 0.238894 7.81C0.221051 7.88989 0.204196 7.96999 0.188333 8.05032C0.172468 8.13062 0.1576 8.21113 0.143727 8.29181C0.129852 8.37249 0.116977 8.45335 0.105101 8.53436C0.0932255 8.61534 0.0823528 8.69648 0.0724829 8.77776C0.0626117 8.85903 0.053747 8.9404 0.0458887 9.0219C0.0380292 9.10339 0.0311783 9.18495 0.025336 9.26663C0.0194939 9.34826 0.0146611 9.42998 0.0108378 9.51178C0.00701587 9.59355 0.00420411 9.67537 0.00240254 9.75722C0.000602385 9.83907 -0.000186166 9.92092 3.68874e-05 10.0028C3.68874e-05 11.9492 0.559505 13.8362 1.61766 15.4593C1.62388 15.4689 1.63032 15.4782 1.637 15.4874C1.64368 15.4967 1.65058 15.5057 1.6577 15.5146C1.66482 15.5234 1.67215 15.5321 1.67969 15.5407C1.68725 15.5492 1.695 15.5575 1.70296 15.5656C1.71092 15.5738 1.71907 15.5817 1.72742 15.5894C1.73576 15.5971 1.7443 15.6047 1.75302 15.612C1.76172 15.6193 1.77061 15.6264 1.77967 15.6333C1.78874 15.6401 1.79797 15.6468 1.80737 15.6532C1.81675 15.6597 1.82629 15.6659 1.83599 15.6718C1.84568 15.6778 1.85552 15.6835 1.86549 15.6889C1.87546 15.6944 1.88557 15.6996 1.8958 15.7046C1.90603 15.7096 1.91637 15.7143 1.92684 15.7188C1.93731 15.7232 1.94788 15.7275 1.95854 15.7314C1.96922 15.7354 1.97998 15.739 1.99083 15.7425C2.00168 15.7459 2.01261 15.7491 2.02362 15.752C2.03461 15.7548 2.04568 15.7574 2.05682 15.7598C2.06796 15.7621 2.07914 15.7642 2.09038 15.766C2.10162 15.7678 2.11289 15.7693 2.1242 15.7705C2.13551 15.7718 2.14685 15.7727 2.1582 15.7734C2.16956 15.7741 2.18091 15.7745 2.19231 15.7746C2.20368 15.7747 2.21506 15.7746 2.22643 15.7742C2.23779 15.7737 2.24914 15.773 2.26047 15.772C2.2718 15.771 2.28311 15.7698 2.2944 15.7682C2.30567 15.7667 2.31689 15.7648 2.32808 15.7628C2.33926 15.7607 2.35037 15.7583 2.36144 15.7556C2.3725 15.753 2.3835 15.7501 2.39443 15.7469C2.40535 15.7437 2.4162 15.7403 2.42695 15.7366C2.4377 15.7329 2.44834 15.7289 2.45892 15.7246C2.46948 15.7204 2.47992 15.7159 2.49026 15.7111C2.5006 15.7064 2.51081 15.7014 2.52091 15.6961C2.53101 15.6909 2.54096 15.6854 2.55078 15.6796C2.5606 15.6739 2.57027 15.6679 2.57981 15.6617C2.58933 15.6555 2.5987 15.649 2.60792 15.6424C2.61713 15.6357 2.62618 15.6288 2.63505 15.6217C2.64392 15.6145 2.65262 15.6072 2.66114 15.5997C2.66965 15.5921 2.67796 15.5843 2.68612 15.5764C2.69423 15.5684 2.70218 15.5603 2.7099 15.552C2.71763 15.5436 2.72516 15.5351 2.73248 15.5264C2.73978 15.5176 2.74688 15.5088 2.75376 15.4997C2.76063 15.4906 2.7673 15.4814 2.77373 15.472C2.78014 15.4626 2.78633 15.4531 2.79229 15.4434C2.79825 15.4337 2.80395 15.4238 2.80943 15.4139C2.81491 15.4039 2.82014 15.3938 2.8251 15.3836C2.83006 15.3733 2.83479 15.363 2.83928 15.3525C2.84373 15.342 2.84794 15.3315 2.85191 15.3208C2.85586 15.3101 2.85955 15.2994 2.86296 15.2885C2.86637 15.2777 2.86954 15.2668 2.87243 15.2557C2.87531 15.2447 2.87792 15.2337 2.88027 15.2226C2.8826 15.2114 2.88467 15.2002 2.88646 15.189C2.88826 15.1777 2.88977 15.1665 2.89102 15.1552C2.89225 15.1439 2.89322 15.1325 2.89391 15.1212C2.89458 15.1098 2.89499 15.0984 2.89512 15.0871C2.89523 15.0757 2.89508 15.0643 2.89465 15.0529C2.89421 15.0416 2.8935 15.0302 2.89251 15.0189C2.89152 15.0075 2.89024 14.9963 2.88871 14.985C2.88716 14.9737 2.88534 14.9625 2.88325 14.9513C2.88113 14.9401 2.87876 14.929 2.87613 14.9179C2.87349 14.9069 2.87058 14.8959 2.86738 14.8849C2.86419 14.874 2.86076 14.8632 2.85705 14.8524C2.85333 14.8417 2.84934 14.831 2.84511 14.8205C2.84088 14.8099 2.83637 14.7994 2.83162 14.7891C2.82687 14.7788 2.82186 14.7685 2.81662 14.7585C2.81135 14.7484 2.80587 14.7384 2.80013 14.7286C2.79439 14.7187 2.78841 14.7091 2.78219 14.6996C2.75394 14.6562 2.72607 14.6126 2.69862 14.5687C2.67116 14.5249 2.64409 14.4808 2.61744 14.4364C2.59076 14.392 2.56449 14.3475 2.53863 14.3026C2.51277 14.2578 2.48733 14.2128 2.46229 14.1675C2.43723 14.1222 2.4126 14.0767 2.38838 14.031C2.36416 13.9852 2.34036 13.9393 2.31696 13.8931C2.29356 13.847 2.2706 13.8006 2.24806 13.754C2.22548 13.7074 2.20336 13.6607 2.18167 13.6137C2.15995 13.5667 2.13867 13.5195 2.11782 13.4722C2.09696 13.4248 2.07654 13.3773 2.05654 13.3295C2.03655 13.2818 2.01699 13.2339 1.99785 13.1858C1.97872 13.1377 1.96003 13.0895 1.94177 13.0411C1.92353 12.9926 1.90571 12.944 1.88833 12.8953C1.87095 12.8466 1.85401 12.7976 1.83752 12.7486C1.82103 12.6995 1.80499 12.6504 1.78939 12.601C1.77377 12.5517 1.75861 12.5022 1.74391 12.4526C1.7292 12.403 1.71494 12.3532 1.70113 12.3033C1.68731 12.2535 1.67395 12.2035 1.66105 12.1534C1.64815 12.1033 1.6357 12.053 1.6237 12.0027C1.6117 11.9523 1.60016 11.9019 1.58906 11.8514C1.57798 11.8008 1.56735 11.7502 1.55718 11.6994C1.54702 11.6487 1.53732 11.5978 1.52806 11.5469C1.51881 11.496 1.51002 11.445 1.50169 11.3939C1.49336 11.3429 1.48548 11.2917 1.47807 11.2405C1.47068 11.1893 1.46374 11.138 1.45727 11.0867C1.45078 11.0353 1.44476 10.9839 1.43922 10.9325C1.43367 10.881 1.42858 10.8295 1.42396 10.778C1.41936 10.7264 1.41521 10.6749 1.41151 10.6233C1.40782 10.5716 1.40461 10.52 1.40186 10.4683C1.39911 10.4166 1.39683 10.3649 1.39502 10.3132C1.3932 10.2615 1.39185 10.2098 1.39096 10.158C1.39008 10.1063 1.38967 10.0545 1.38973 10.0028C1.38992 9.86193 1.39355 9.72115 1.40063 9.58049C1.40771 9.4398 1.41823 9.29939 1.43219 9.15922C1.44616 9.01906 1.46355 8.87932 1.48435 8.74001C1.50518 8.60071 1.5294 8.46198 1.55701 8.32386C1.58462 8.18572 1.6156 8.04836 1.64995 7.91177C1.6843 7.77517 1.72197 7.63949 1.76297 7.50473C1.80398 7.36996 1.84825 7.23629 1.8958 7.10372C1.94335 6.97112 1.99413 6.83978 2.04812 6.70969C2.10211 6.57958 2.15926 6.4509 2.21957 6.32361C2.27988 6.19631 2.34325 6.07056 2.40973 5.94638C2.47619 5.82219 2.54565 5.69969 2.61813 5.57893C2.69059 5.45814 2.76596 5.33919 2.84427 5.22212C2.92258 5.10502 3.00369 4.98991 3.08763 4.87681C3.17157 4.76371 3.25823 4.65272 3.34764 4.54385C3.437 4.43498 3.52899 4.32837 3.62362 4.22403C3.71822 4.11967 3.81533 4.0177 3.91494 3.91811C4.01453 3.81852 4.11652 3.72142 4.2209 3.62683C4.32526 3.53223 4.43189 3.44026 4.54078 3.3509C4.64965 3.26154 4.76064 3.17488 4.87379 3.09096C4.98689 3.00704 5.102 2.92592 5.21912 2.84766C5.33621 2.76937 5.45516 2.694 5.57597 2.62156C5.69676 2.5491 5.81925 2.47964 5.94345 2.4132C6.06764 2.34677 6.19339 2.2834 6.32072 2.22313C6.44803 2.16285 6.57671 2.10572 6.70682 2.05174C6.83693 1.99777 6.96828 1.94702 7.10087 1.89949C7.23346 1.85196 7.36713 1.8077 7.50191 1.76672C7.63668 1.72574 7.77236 1.68809 7.90897 1.65377C8.04558 1.61944 8.18294 1.58847 8.32108 1.56087C8.4592 1.53329 8.59792 1.5091 8.73725 1.4883C8.87656 1.46751 9.01629 1.45014 9.15646 1.4362C9.29661 1.42226 9.43704 1.41176 9.57773 1.40471C9.71839 1.39764 9.85917 1.39403 10 1.39387C14.7479 1.39387 18.6089 5.25628 18.6089 10.0028C18.6089 14.7493 14.7465 18.6117 10 18.6117C9.95133 18.6117 9.90264 18.6114 9.85396 18.6106C9.80527 18.6098 9.7566 18.6086 9.70794 18.607C9.65927 18.6054 9.61062 18.6033 9.56201 18.6009C9.51336 18.5985 9.46475 18.5956 9.41619 18.5924C9.3676 18.5891 9.31906 18.5854 9.27054 18.5813C9.22201 18.5772 9.17354 18.5727 9.1251 18.5678C9.07666 18.5629 9.02825 18.5576 8.9799 18.5518C8.93155 18.5461 8.88325 18.5399 8.835 18.5334C8.78676 18.5268 8.73859 18.5199 8.69045 18.5125C8.64232 18.5051 8.59425 18.4973 8.54627 18.4891C8.49827 18.4809 8.45033 18.4723 8.4025 18.4633C8.35464 18.4543 8.30688 18.4449 8.2592 18.4351C8.2115 18.4252 8.16388 18.415 8.11637 18.4044C8.06884 18.3938 8.02142 18.3827 7.97411 18.3713C7.92677 18.3599 7.87955 18.348 7.83243 18.3358C7.78529 18.3235 7.73828 18.3109 7.69138 18.2979C7.64445 18.2848 7.59766 18.2714 7.55097 18.2576C7.50428 18.2437 7.45772 18.2295 7.4113 18.2149C7.36485 18.2002 7.31853 18.1852 7.27236 18.1698C7.22617 18.1544 7.1801 18.1386 7.13419 18.1224C7.08826 18.1062 7.04248 18.0896 6.99685 18.0726C6.95122 18.0557 6.90572 18.0383 6.8604 18.0205C6.81505 18.0028 6.76987 17.9847 6.72485 17.9661C6.6798 17.9476 6.63493 17.9287 6.59022 17.9094C6.5455 17.8902 6.50097 17.8705 6.45659 17.8505C6.41222 17.8304 6.36801 17.81 6.32398 17.7892C6.27995 17.7684 6.23609 17.7473 6.19242 17.7258C6.14876 17.7042 6.10529 17.6823 6.06199 17.6601C6.01869 17.6378 5.97559 17.6151 5.93268 17.5921C5.88974 17.5691 5.84703 17.5458 5.80453 17.522C5.76201 17.4983 5.71968 17.4742 5.67759 17.4498C5.63548 17.4253 5.59358 17.4005 5.5519 17.3753C5.54217 17.3697 5.53231 17.3644 5.52231 17.3593C5.5123 17.3541 5.5022 17.3493 5.49199 17.3447C5.48176 17.34 5.47142 17.3356 5.46097 17.3315C5.45052 17.3274 5.43999 17.3235 5.42937 17.3199C5.41873 17.3163 5.40802 17.3129 5.39723 17.3098C5.38644 17.3067 5.37558 17.3039 5.36466 17.3013C5.35372 17.2987 5.34273 17.2964 5.3317 17.2944C5.32065 17.2923 5.30958 17.2906 5.29846 17.2891C5.28732 17.2876 5.27616 17.2863 5.26498 17.2854C5.2538 17.2844 5.2426 17.2837 5.23138 17.2833C5.22015 17.2829 5.20893 17.2827 5.1977 17.2828C5.18648 17.2829 5.17526 17.2833 5.16405 17.284C5.15283 17.2846 5.14165 17.2856 5.13049 17.2868C5.11931 17.288 5.10819 17.2895 5.09712 17.2912C5.08603 17.2929 5.07498 17.2949 5.06399 17.2972C5.05298 17.2995 5.04206 17.302 5.03118 17.3048C5.0203 17.3076 5.00951 17.3107 4.99878 17.314C4.98805 17.3173 4.97741 17.3209 4.96688 17.3248C4.95633 17.3286 4.94588 17.3327 4.93552 17.337C4.92516 17.3414 4.91493 17.346 4.9048 17.3508C4.89466 17.3557 4.88467 17.3607 4.87478 17.3661C4.86489 17.3714 4.85514 17.377 4.84553 17.3828C4.83591 17.3886 4.82645 17.3946 4.81713 17.4009C4.8078 17.4071 4.79863 17.4136 4.78963 17.4203C4.78061 17.427 4.77178 17.4339 4.7631 17.441C4.75442 17.4481 4.74592 17.4555 4.73761 17.463C4.72928 17.4705 4.72114 17.4783 4.7132 17.4862C4.70526 17.4942 4.69751 17.5023 4.68995 17.5106C4.6824 17.5189 4.67504 17.5274 4.66789 17.536C4.66075 17.5447 4.65382 17.5535 4.64711 17.5625C4.64039 17.5715 4.6339 17.5807 4.62764 17.59C4.62136 17.5993 4.61531 17.6088 4.60949 17.6184C4.60366 17.628 4.59809 17.6377 4.59276 17.6476C4.5874 17.6574 4.58229 17.6674 4.57745 17.6776C4.57258 17.6877 4.56796 17.6979 4.5636 17.7083C4.55924 17.7186 4.55511 17.729 4.55127 17.7396C4.54739 17.7501 4.54378 17.7608 4.54046 17.7715C4.53709 17.7822 4.534 17.793 4.5312 17.8039C4.52837 17.8147 4.5258 17.8257 4.52351 17.8367C4.52123 17.8476 4.5192 17.8587 4.51743 17.8698C4.51566 17.8808 4.51417 17.892 4.51296 17.9031C4.51173 17.9143 4.51078 17.9255 4.51009 17.9367C4.5094 17.9479 4.50899 17.9591 4.50886 17.9703C4.50873 17.9816 4.50886 17.9928 4.50927 18.004C4.50966 18.0152 4.51033 18.0264 4.51128 18.0376C4.51223 18.0488 4.51343 18.06 4.51492 18.0711C4.51639 18.0822 4.51816 18.0933 4.52019 18.1044C4.5222 18.1154 4.52449 18.1264 4.52705 18.1373C4.5296 18.1483 4.53241 18.1591 4.53549 18.1699C4.53856 18.1807 4.5419 18.1914 4.54551 18.2021C4.54909 18.2127 4.55296 18.2233 4.55708 18.2337C4.56118 18.2442 4.56552 18.2545 4.57014 18.2647C4.57473 18.275 4.57959 18.2851 4.58471 18.2951C4.5898 18.3051 4.59513 18.315 4.6007 18.3247C4.60627 18.3345 4.6121 18.3441 4.61814 18.3535C4.62416 18.363 4.63042 18.3723 4.63692 18.3815C4.64339 18.3906 4.65011 18.3996 4.65706 18.4085C4.66396 18.4173 4.67111 18.426 4.67845 18.4345C4.68579 18.4429 4.69334 18.4513 4.70109 18.4594C4.70884 18.4675 4.71678 18.4755 4.72492 18.4832C4.73303 18.4909 4.74134 18.4985 4.74985 18.5058C4.75833 18.5132 4.76701 18.5203 4.77586 18.5272C4.78469 18.5341 4.79369 18.5408 4.80286 18.5473C4.81201 18.5538 4.82134 18.5601 4.83081 18.5661C4.87923 18.5953 4.9279 18.6242 4.97683 18.6526C5.02574 18.681 5.07489 18.709 5.12427 18.7366C5.17366 18.7642 5.22328 18.7913 5.27314 18.8181C5.323 18.8448 5.37308 18.8711 5.42337 18.897C5.47366 18.9229 5.52419 18.9483 5.57491 18.9734C5.62564 18.9984 5.6766 19.023 5.72775 19.0472C5.77891 19.0713 5.83026 19.095 5.8818 19.1183C5.93334 19.1416 5.9851 19.1645 6.03706 19.1869C6.08899 19.2093 6.14114 19.2312 6.19346 19.2528C6.24576 19.2743 6.29825 19.2953 6.35094 19.316C6.4036 19.3366 6.45647 19.3568 6.50948 19.3765C6.56249 19.3962 6.61567 19.4155 6.66903 19.4343C6.72236 19.4532 6.77587 19.4715 6.82955 19.4894C6.88321 19.5074 6.937 19.5248 6.99096 19.5418C7.04492 19.5588 7.09901 19.5753 7.15325 19.5914C7.20747 19.6075 7.26185 19.6231 7.31637 19.6383C7.37087 19.6534 7.4255 19.6681 7.48026 19.6823C7.535 19.6965 7.58986 19.7103 7.64486 19.7236C7.69984 19.7369 7.75494 19.7497 7.81015 19.7621C7.86535 19.7744 7.92065 19.7863 7.97607 19.7977C8.03146 19.8091 8.08698 19.82 8.14258 19.8305C8.19816 19.841 8.25382 19.851 8.3096 19.8605C8.36537 19.87 8.42121 19.879 8.47713 19.8876C8.53304 19.8962 8.58903 19.9043 8.64508 19.9119C8.70114 19.9195 8.75726 19.9267 8.81344 19.9333C8.86961 19.94 8.92583 19.9462 8.98212 19.9519C9.03839 19.9576 9.09473 19.9628 9.15111 19.9676C9.20747 19.9723 9.26387 19.9766 9.32031 19.9804C9.37675 19.9842 9.43322 19.9875 9.48973 19.9903C9.54623 19.9931 9.60274 19.9955 9.65929 19.9974C9.71582 19.9992 9.77237 20.0006 9.82895 20.0015C9.8855 20.0024 9.94207 20.0028 9.99864 20.0028C10.0805 20.003 10.1623 20.0022 10.2442 20.0004C10.326 19.9986 10.4078 19.9958 10.4895 19.992C10.5713 19.9882 10.653 19.9833 10.7346 19.9775C10.8163 19.9717 10.8978 19.9648 10.9793 19.957C11.0608 19.9491 11.1421 19.9403 11.2234 19.9304C11.3046 19.9206 11.3857 19.9097 11.4667 19.8978C11.5477 19.886 11.6285 19.8731 11.7092 19.8592C11.7899 19.8454 11.8704 19.8305 11.9507 19.8146C12.0309 19.7988 12.111 19.7819 12.1909 19.7641C12.2708 19.7463 12.3504 19.7275 12.4299 19.7077C12.5093 19.6879 12.5884 19.6671 12.6673 19.6453C12.7463 19.6236 12.8249 19.6008 12.9032 19.5771C12.9815 19.5534 13.0596 19.5288 13.1373 19.5031C13.215 19.4775 13.2924 19.4509 13.3695 19.4234C13.4466 19.3958 13.5233 19.3673 13.5997 19.3379C13.6761 19.3085 13.752 19.2781 13.8277 19.2468C13.9033 19.2155 13.9785 19.1832 14.0533 19.15C14.1282 19.1168 14.2026 19.0828 14.2765 19.0477C14.3505 19.0127 14.4241 18.9768 14.4972 18.94C14.5702 18.9031 14.6429 18.8654 14.715 18.8268C14.7872 18.7881 14.8589 18.7486 14.93 18.7082C15.0012 18.6678 15.0719 18.6266 15.1421 18.5844C15.2122 18.5423 15.2818 18.4993 15.351 18.4554C15.42 18.4115 15.4886 18.3668 15.5566 18.3213C15.6246 18.2757 15.692 18.2293 15.7589 18.1821C15.8257 18.1349 15.892 18.0868 15.9576 18.038C16.0233 17.9891 16.0883 17.9394 16.1528 17.8889C16.2172 17.8385 16.281 17.7872 16.3442 17.7352C16.4073 17.6831 16.4699 17.6303 16.5317 17.5767C16.5936 17.5231 16.6548 17.4687 16.7153 17.4137C16.7758 17.3585 16.8356 17.3027 16.8948 17.2461C16.9539 17.1895 17.0123 17.1322 17.07 17.0742C18.9584 15.1844 20 12.6717 20 10.0014C20 7.33115 18.964 4.81976 17.0742 2.93ZM9.61738 3.15655C9.60296 3.15655 9.58854 3.1569 9.57416 3.15761C9.55975 3.1583 9.54537 3.15938 9.53104 3.1608C9.51668 3.16221 9.50237 3.16398 9.48813 3.16609C9.47386 3.16821 9.45966 3.17067 9.44554 3.17349C9.43138 3.1763 9.41733 3.17947 9.40335 3.18297C9.38936 3.18647 9.37548 3.19033 9.36169 3.19452C9.34789 3.1987 9.33421 3.20322 9.32063 3.20809C9.30706 3.21295 9.29361 3.21813 9.28031 3.22366C9.267 3.22918 9.25383 3.23503 9.24079 3.2412C9.22776 3.24738 9.21489 3.25385 9.20218 3.26065C9.18946 3.26745 9.17692 3.27455 9.16458 3.28198C9.15221 3.2894 9.14004 3.29711 9.12806 3.30514C9.11608 3.31315 9.10431 3.32146 9.09274 3.33005C9.08115 3.33864 9.0698 3.34753 9.05866 3.35668C9.04753 3.36583 9.03662 3.37524 9.02596 3.38494C9.01528 3.39461 9.00485 3.40456 8.99467 3.41477C8.98448 3.42495 8.97455 3.4354 8.96488 3.44611C8.95521 3.45679 8.9458 3.46771 8.93667 3.47887C8.92752 3.49001 8.91867 3.50138 8.9101 3.51297C8.90151 3.52454 8.89322 3.53635 8.88523 3.54835C8.87725 3.56033 8.86954 3.5725 8.86214 3.58489C8.85473 3.59726 8.84765 3.6098 8.84088 3.62254C8.8341 3.63525 8.82762 3.64814 8.82147 3.66117C8.81532 3.67421 8.80949 3.68738 8.80401 3.70072C8.79851 3.71403 8.79333 3.72748 8.78849 3.74108C8.78366 3.75463 8.77914 3.76832 8.77498 3.78213C8.77081 3.79592 8.76699 3.80983 8.76352 3.82383C8.76002 3.83782 8.75687 3.85187 8.75408 3.86603C8.75128 3.88015 8.74884 3.89435 8.74677 3.90862C8.74465 3.92288 8.7429 3.93719 8.74152 3.95155C8.74014 3.96588 8.73911 3.98026 8.73841 3.99467C8.73772 4.00905 8.73738 4.02347 8.73742 4.03789L8.73742 10.373C8.73742 10.4034 8.74571 10.4338 8.74847 10.4628C8.74994 10.4761 8.75173 10.4894 8.75385 10.5026C8.75594 10.5158 8.75834 10.529 8.76106 10.5421C8.76375 10.5552 8.76676 10.5683 8.77008 10.5813C8.77338 10.5942 8.77699 10.6071 8.78089 10.6199C8.78478 10.6327 8.78899 10.6454 8.7935 10.658C8.79799 10.6707 8.80276 10.6832 8.80783 10.6956C8.81288 10.708 8.81823 10.7202 8.82389 10.7324C8.8295 10.7445 8.83541 10.7565 8.84161 10.7684C8.84778 10.7803 8.85426 10.792 8.86099 10.8036C8.86773 10.8152 8.87472 10.8266 8.88197 10.8378C8.88923 10.8491 8.89674 10.8602 8.90451 10.8711C8.91228 10.882 8.92029 10.8927 8.92855 10.9033C8.9368 10.9138 8.9453 10.9241 8.95406 10.9343C8.96278 10.9444 8.97176 10.9544 8.98098 10.9641C8.99018 10.9738 8.99959 10.9833 9.00923 10.9927C9.01886 11.0019 9.02873 11.011 9.03878 11.0198C9.04882 11.0287 9.05907 11.0373 9.06954 11.0457C9.07999 11.054 9.09063 11.0622 9.10147 11.07C9.1123 11.0779 9.12331 11.0855 9.13449 11.0929C9.14567 11.1002 9.157 11.1073 9.16853 11.1142C9.18001 11.1211 9.19167 11.1276 9.20349 11.1339C9.2153 11.1402 9.22726 11.1463 9.23937 11.1521C9.25146 11.1578 9.26367 11.1633 9.27602 11.1685C9.28834 11.1736 9.3008 11.1786 9.31338 11.1832C9.32594 11.1878 9.33861 11.1921 9.35139 11.1961C9.36417 11.2002 9.37701 11.2039 9.38996 11.2073C9.40289 11.2108 9.41591 11.2139 9.42901 11.2168C9.44209 11.2196 9.45523 11.2221 9.46844 11.2244C9.48165 11.2266 9.49488 11.2285 9.50818 11.2301C9.52148 11.2317 9.53479 11.2331 9.54815 11.2341C9.56149 11.2351 9.57488 11.2358 9.58826 11.2361C9.60164 11.2365 9.61504 11.2366 9.62843 11.2364L9.63119 11.217L14.6277 11.217C14.6425 11.2176 14.6573 11.2178 14.6721 11.2177C14.6868 11.2175 14.7016 11.217 14.7164 11.2161C14.7312 11.2152 14.7459 11.2139 14.7606 11.2123C14.7753 11.2106 14.7899 11.2086 14.8045 11.2062C14.8191 11.2039 14.8336 11.2011 14.8481 11.198C14.8625 11.1949 14.8769 11.1914 14.8912 11.1876C14.9055 11.1837 14.9197 11.1795 14.9337 11.175C14.9478 11.1704 14.9617 11.1655 14.9756 11.1603C14.9894 11.155 15.0031 11.1494 15.0166 11.1435C15.0301 11.1376 15.0435 11.1313 15.0568 11.1247C15.07 11.1181 15.083 11.1111 15.0959 11.1039C15.1088 11.0966 15.1215 11.089 15.134 11.0811C15.1465 11.0732 15.1587 11.065 15.1708 11.0564C15.1829 11.0479 15.1948 11.0391 15.2064 11.03C15.218 11.0208 15.2294 11.0114 15.2406 11.0017C15.2518 10.992 15.2627 10.9821 15.2734 10.9718C15.284 10.9615 15.2944 10.951 15.3046 10.9403C15.3147 10.9295 15.3245 10.9185 15.3341 10.9072C15.3437 10.896 15.353 10.8845 15.362 10.8727C15.371 10.861 15.3797 10.849 15.3881 10.8369C15.3965 10.8247 15.4046 10.8123 15.4123 10.7997C15.4201 10.7871 15.4276 10.7744 15.4347 10.7614C15.4418 10.7485 15.4486 10.7354 15.4551 10.7221C15.4616 10.7088 15.4677 10.6953 15.4735 10.6817C15.4793 10.6681 15.4847 10.6544 15.4898 10.6405C15.4949 10.6266 15.4997 10.6126 15.5041 10.5985C15.5085 10.5844 15.5125 10.5702 15.5162 10.5558C15.5199 10.5415 15.5232 10.5271 15.5262 10.5126C15.5291 10.4981 15.5317 10.4836 15.5339 10.4689C15.5362 10.4543 15.538 10.4397 15.5395 10.425C15.541 10.4102 15.5421 10.3955 15.5428 10.3807C15.5436 10.366 15.5439 10.3512 15.5439 10.3364C15.5439 10.3216 15.5436 10.3068 15.5428 10.2921C15.5421 10.2773 15.541 10.2626 15.5395 10.2478C15.538 10.2331 15.5362 10.2185 15.5339 10.2038C15.5317 10.1892 15.5291 10.1747 15.5262 10.1602C15.5232 10.1457 15.5199 10.1313 15.5162 10.117C15.5125 10.1026 15.5085 10.0884 15.5041 10.0743C15.4997 10.0602 15.4949 10.0462 15.4898 10.0323C15.4847 10.0184 15.4793 10.0047 15.4735 9.99109C15.4677 9.97747 15.4616 9.96402 15.4551 9.95073C15.4486 9.93743 15.4418 9.92431 15.4347 9.91136C15.4276 9.89841 15.4201 9.88563 15.4123 9.87304C15.4046 9.86046 15.3965 9.84809 15.3881 9.83592C15.3797 9.82374 15.371 9.81179 15.362 9.80007C15.353 9.78832 15.3437 9.77684 15.3341 9.76557C15.3245 9.75431 15.3147 9.74328 15.3046 9.73251C15.2944 9.72174 15.284 9.71122 15.2734 9.70097C15.2627 9.69072 15.2518 9.68075 15.2406 9.67106C15.2294 9.66134 15.218 9.65193 15.2064 9.64282C15.1948 9.63369 15.1829 9.62487 15.1708 9.61636C15.1587 9.60781 15.1465 9.59959 15.134 9.59169C15.1215 9.58379 15.1088 9.57619 15.0959 9.56894C15.083 9.56164 15.07 9.55472 15.0568 9.54811C15.0435 9.54148 15.0301 9.5352 15.0166 9.52927C15.0031 9.52333 14.9894 9.51774 14.9756 9.5125C14.9617 9.50723 14.9478 9.50233 14.9337 9.4978C14.9197 9.49324 14.9055 9.48906 14.8912 9.48521C14.8769 9.48137 14.8625 9.4779 14.8481 9.47479C14.8336 9.47168 14.8191 9.46894 14.8045 9.46657C14.7899 9.46417 14.7753 9.46216 14.7606 9.46052C14.7459 9.45888 14.7312 9.45761 14.7164 9.4567C14.7016 9.4558 14.6868 9.45526 14.6721 9.4551C14.6573 9.45493 14.6425 9.45515 14.6277 9.45575L10.4987 9.45575L10.4987 4.03789C10.4987 4.02347 10.4983 4.00905 10.4977 3.99463C10.4969 3.98021 10.4959 3.96584 10.4945 3.95151C10.493 3.93713 10.4913 3.92282 10.4892 3.90857C10.4871 3.89428 10.4846 3.88008 10.4818 3.86594C10.479 3.85179 10.4758 3.83773 10.4723 3.82375C10.4688 3.80974 10.465 3.79584 10.4608 3.78205C10.4566 3.76823 10.452 3.75455 10.4472 3.74097C10.4423 3.72737 10.4371 3.71393 10.4316 3.70061C10.4261 3.68727 10.4203 3.6741 10.4141 3.66107C10.4079 3.64803 10.4014 3.63514 10.3947 3.62243C10.3878 3.60969 10.3807 3.59715 10.3733 3.58479C10.3659 3.5724 10.3582 3.56022 10.3502 3.54824C10.3422 3.53624 10.3339 3.52446 10.3253 3.51287C10.3167 3.50128 10.3078 3.4899 10.2987 3.47876C10.2895 3.46763 10.2801 3.4567 10.2704 3.44602C10.2607 3.43531 10.2508 3.42487 10.2406 3.41468C10.2304 3.40449 10.2199 3.39454 10.2092 3.38485C10.1985 3.37516 10.1876 3.36575 10.1765 3.3566C10.1653 3.34744 10.154 3.33857 10.1424 3.32998C10.1308 3.32139 10.119 3.31308 10.107 3.30507C10.095 3.29707 10.0828 3.28936 10.0705 3.28193C10.0581 3.27451 10.0455 3.26741 10.0328 3.26061C10.0201 3.25381 10.0072 3.24733 9.9942 3.24116C9.98116 3.23499 9.96797 3.22916 9.95465 3.22364C9.94131 3.21811 9.92787 3.21293 9.91429 3.20807C9.90069 3.20319 9.88701 3.19868 9.87322 3.1945C9.8594 3.19031 9.8455 3.18647 9.83152 3.18297C9.81753 3.17945 9.80346 3.1763 9.78932 3.17349C9.77516 3.17067 9.76096 3.16821 9.74669 3.16609C9.73242 3.16398 9.71811 3.16221 9.70376 3.1608C9.6894 3.15938 9.67503 3.1583 9.66061 3.15761C9.64619 3.1569 9.63179 3.15655 9.61738 3.15655Z"   fill="currentColor" >
</path>
</svg>
