<svg xmlns="http://www.w3.org/2000/svg" xmlns:xlink="http://www.w3.org/1999/xlink" width="20" height="20" viewBox="0 0 20 20" fill="none">
<path d="M7.7051 12.0139L5.45511 12.0139C4.96011 12.0139 4.55511 12.4306 4.55511 12.9398C4.55511 13.4491 4.96011 13.8657 5.45511 13.8657L7.7051 13.8657C8.2001 13.8657 8.6051 13.4491 8.6051 12.9398C8.6051 12.4306 8.2001 12.0139 7.7051 12.0139ZM12.6551 8.14815L5.45511 8.14815C4.96011 8.14815 4.55511 8.56482 4.55511 9.07408C4.55511 9.58334 4.96011 10 5.45511 10L12.6551 10C13.1501 10 13.5551 9.58334 13.5551 9.07408C13.5551 8.56482 13.1501 8.14815 12.6551 8.14815ZM10.1801 4.25926L5.45511 4.25926C4.96011 4.25926 4.55511 4.67593 4.55511 5.18519C4.55511 5.69445 4.96011 6.11111 5.45511 6.11111L10.1801 6.11111C10.6751 6.11111 11.0801 5.69445 11.0801 5.18519C11.0801 4.67593 10.6751 4.25926 10.1801 4.25926ZM16.0976 10.9167L14.8871 13.1111L15.7848 13.1111C15.8433 13.1111 15.8906 13.1597 15.8906 13.2199L15.8906 13.9884C15.8906 14.0486 15.8433 14.0972 15.7848 14.0972L14.3853 14.0972L14.3853 14.662L15.7826 14.662C15.8411 14.662 15.8883 14.7107 15.8883 14.7708L15.8883 15.5394C15.8883 15.5995 15.8411 15.6482 15.7826 15.6482L14.3853 15.6482L14.3853 17.1296C14.3853 17.1898 14.3381 17.2384 14.2796 17.2384L13.1186 17.2384C13.0601 17.2384 13.0128 17.1898 13.0128 17.1296L13.0128 15.6528L11.6606 15.6528C11.6021 15.6528 11.5548 15.6042 11.5548 15.544L11.5548 14.7755C11.5548 14.7153 11.6021 14.6667 11.6606 14.6667L13.0128 14.6667L13.0128 14.1019L11.6606 14.1019C11.6021 14.1019 11.5548 14.0532 11.5548 13.9931L11.5548 13.2245C11.5548 13.162 11.6021 13.1134 11.6606 13.1134L12.4818 13.1134L11.2691 10.9167C11.2308 10.8449 11.2781 10.7546 11.3613 10.7546L12.7226 10.7546L13.7216 12.7315L14.7138 10.7546L16.0053 10.7546C16.0863 10.7546 16.1381 10.8426 16.0976 10.9167Z"   fill="currentColor" >
</path>
<path d="M17.51 0L2.44 0C1.648 0 1 0.665185 1 1.48L1 18.52C1 19.3348 1.648 20 2.44 20L14.54 20C16.9655 20 18.95 17.9554 18.95 15.46L18.95 1.48C18.95 0.665185 18.302 0 17.51 0ZM17.15 15.46C17.15 16.173 16.885 16.8484 16.39 17.36C15.895 17.8716 15.233 18.15 14.54 18.15L3.52 18.15C3.12175 18.15 2.8 17.8197 2.8 17.41L2.8 2.59C2.8 2.18028 3.12175 1.85 3.52 1.85L16.43 1.85C16.8282 1.85 17.15 2.18028 17.15 2.59L17.15 15.46Z"   fill="currentColor" >
</path>
</svg>
