<svg xmlns="http://www.w3.org/2000/svg" xmlns:xlink="http://www.w3.org/1999/xlink" width="20" height="20" viewBox="0 0 20 20" fill="none">
<path d="M9.42417 13.7193C9.26055 13.7193 9.09547 13.6709 8.95166 13.5706L5.66932 11.2793C5.29513 11.0181 5.20342 10.5028 5.46462 10.1286C5.72606 9.75446 6.24136 9.66275 6.61531 9.92394L9.24955 11.7626L13.2015 6.60447C13.4791 6.24202 13.9983 6.17379 14.3603 6.45112C14.7227 6.7287 14.7912 7.24743 14.5139 7.60987L10.0808 13.3955C9.91844 13.6071 9.67314 13.7193 9.42417 13.7193ZM10.0001 20C4.4861 20 0 15.514 0 10C0 4.48605 4.4861 0 10.0001 0C15.5141 0 20 4.48605 20 10C20 15.514 15.5141 20 10.0001 20ZM10.0001 1.65277C5.39736 1.65277 1.65279 5.39729 1.65279 9.99976C1.65279 14.6022 5.39736 18.3467 10.0001 18.3467C14.6026 18.3467 18.3472 14.6022 18.3472 9.99976C18.3472 5.39729 14.6026 1.65277 10.0001 1.65277Z"   fill="currentColor" >
</path>
</svg>
