<svg xmlns="http://www.w3.org/2000/svg" xmlns:xlink="http://www.w3.org/1999/xlink" width="20.300048828125" height="20.299999237060547" viewBox="0 0 20.300048828125 20.299999237060547" fill="none">
<path d="M5.79816 17.7971C7.08186 18.503 8.6224 18.9735 10.1499 18.9735C14.9766 18.9735 18.9689 14.9736 18.9689 10.1499C18.9689 5.32644 14.9766 1.32639 10.1499 1.32639C5.32321 1.32639 1.31808 5.32644 1.31808 10.1499C1.31808 11.7971 1.79304 13.2089 2.49914 14.5029L2.49914 17.7971L5.79816 17.7971ZM5.43886 18.9735L1.31808 18.9735L1.31808 14.8559C0.612136 13.4441 0.150024 11.7971 0.150024 10.1499C0.150024 4.62055 4.61726 0.15 10.1499 0.15C15.6828 0.15 20.15 4.62055 20.15 10.1499C20.15 15.6794 15.6828 20.15 10.1499 20.15C8.49405 20.15 6.85088 19.6794 5.43886 18.9735Z" stroke="currentColor" stroke-width="0.3"      fill="currentColor" >
</path>
</svg>
