<svg xmlns="http://www.w3.org/2000/svg" xmlns:xlink="http://www.w3.org/1999/xlink" width="20.000152587890625" height="20.00004768371582" viewBox="0 0 20.000152587890625 20.00004768371582" fill="none">
<path d="M8.64186 20C8.08762 20 7.52205 19.7886 7.09222 19.3615L0.644684 12.9055C0.226171 12.4909 0 11.9395 0 11.3548C0 10.7701 0.226171 10.2186 0.644684 9.80394L9.8408 0.611393C10.248 0.200897 10.8249 -0.0230055 11.4018 0.00187219L17.9963 0.279719C18.9238 0.317037 19.6817 1.07582 19.7268 2.00458L19.9985 8.59735C20.021 9.17791 19.8061 9.75012 19.3876 10.1606L10.1915 19.3573C10.1802 19.3701 10.1689 19.3826 10.1575 19.3949C10.1462 19.4073 10.1349 19.4196 10.1123 19.4316C10.1011 19.4437 10.0897 19.4555 10.0784 19.4672C10.0671 19.479 10.0445 19.4905 10.0331 19.5019C10.0218 19.5133 10.0105 19.5245 9.98785 19.5356C9.97653 19.5466 9.96521 19.5574 9.95402 19.5682C9.93138 19.5789 9.92005 19.5894 9.90873 19.5997C9.89741 19.61 9.87476 19.6202 9.86344 19.6302C9.85212 19.6402 9.82947 19.6499 9.81829 19.6596C9.80696 19.6692 9.78432 19.6786 9.77299 19.6878C9.76167 19.6971 9.73904 19.7061 9.72772 19.715C9.70507 19.7238 9.69375 19.7325 9.68243 19.7409C9.65992 19.7493 9.64859 19.7576 9.62595 19.7657C9.61462 19.7738 9.6033 19.7817 9.58066 19.7894C9.56933 19.7971 9.54669 19.8045 9.5355 19.8118C9.51286 19.819 9.50153 19.8261 9.47889 19.8329C9.46758 19.8398 9.44493 19.8465 9.43361 19.853C9.41096 19.8595 9.39964 19.8657 9.38846 19.8717C9.36581 19.8778 9.35449 19.8836 9.33184 19.8892C9.3092 19.8949 9.29787 19.9003 9.27523 19.9055C9.26391 19.9107 9.2414 19.9157 9.23007 19.9205C9.20743 19.9253 9.19611 19.9299 9.17347 19.9342C9.16215 19.9386 9.1395 19.9427 9.12818 19.9467C9.10567 19.9506 9.09435 19.9544 9.0717 19.9579C9.04906 19.9614 9.03774 19.9647 9.01509 19.9677C9.00377 19.9708 8.98112 19.9736 8.96994 19.9763C8.94729 19.9789 8.92465 19.9813 8.91332 19.9835C8.89069 19.9857 8.87937 19.9877 8.85672 19.9894C8.8454 19.9912 8.82289 19.9927 8.80024 19.9941C8.78892 19.9954 8.76628 19.9965 8.75495 19.9973C8.73231 19.9982 8.72099 19.9989 8.69834 19.9994C8.67583 19.9998 8.66451 20 8.64186 20ZM8.26851 18.1839C8.47217 18.3912 8.81157 18.3912 9.02641 18.1839L18.2225 8.98715C18.3018 8.90425 18.347 8.78392 18.347 8.6679L18.0642 2.07515C18.0642 2.0005 18.0076 1.93831 17.9284 1.93831L11.3339 1.66047C11.2209 1.66466 11.0963 1.70196 11.0172 1.78485L1.80979 10.9816C1.70802 11.0811 1.66273 11.2138 1.66273 11.3589C1.66273 11.5041 1.70802 11.6367 1.82111 11.7362L8.26851 18.1839Z"   fill="currentColor" >
</path>
<path d="M13.698 9.04515C12.9967 9.04515 12.2954 8.77985 11.7638 8.24497C10.6892 7.1752 10.6892 5.43779 11.7638 4.3722C12.827 3.30662 14.569 3.30662 15.6322 4.3722C16.6955 5.44197 16.6955 7.17927 15.6322 8.24497C15.6209 8.2608 15.5984 8.27641 15.587 8.2919C15.5644 8.30739 15.5531 8.32254 15.5304 8.3377C15.5191 8.35274 15.4965 8.36755 15.4851 8.38225C15.4626 8.39684 15.4513 8.41131 15.4287 8.42545C15.4173 8.4397 15.3947 8.45372 15.3834 8.46752C15.3607 8.48131 15.3494 8.49488 15.3269 8.50823C15.3043 8.52157 15.2929 8.53469 15.2703 8.54758C15.259 8.56047 15.2363 8.57314 15.2137 8.58558C15.2024 8.59801 15.1799 8.61023 15.1572 8.62221C15.1459 8.6342 15.1232 8.64596 15.1006 8.6575C15.0893 8.66903 15.0666 8.68023 15.0441 8.69131C15.0215 8.70228 15.0102 8.71313 14.9875 8.72365C14.9649 8.73428 14.9422 8.74457 14.9309 8.75463C14.9084 8.7647 14.8857 8.77442 14.8631 8.78404C14.8518 8.79365 14.8291 8.80292 14.8065 8.81197C14.7839 8.82101 14.7613 8.82984 14.7387 8.83843C14.7274 8.84691 14.7047 8.85528 14.6821 8.86331C14.6594 8.87134 14.6368 8.87914 14.6143 8.88672C14.5916 8.89418 14.5803 8.90142 14.5577 8.90843C14.535 8.91544 14.5124 8.92222 14.4897 8.92867C14.4672 8.93512 14.4446 8.94134 14.4219 8.94733C14.3993 8.95321 14.388 8.95898 14.3653 8.96441C14.3428 8.96972 14.3202 8.97492 14.2975 8.97978C14.2749 8.98465 14.2523 8.98928 14.2296 8.99358C14.207 8.99799 14.1845 9.00206 14.1618 9.00579C14.1392 9.00964 14.1165 9.01314 14.0939 9.01642C14.0712 9.01959 14.0487 9.02264 14.0261 9.02536C14.0034 9.02796 13.9808 9.03045 13.9581 9.03259C13.9468 9.03474 13.9242 9.03655 13.9017 9.03825C13.879 9.03983 13.8564 9.04107 13.8337 9.04221C13.8111 9.04322 13.7884 9.04402 13.7659 9.04447C13.7433 9.04503 13.7206 9.04526 13.698 9.04515ZM13.698 5.22632C13.4152 5.22632 13.1438 5.33002 12.9289 5.54148C12.9176 5.55392 12.9063 5.5667 12.8949 5.57982C12.8836 5.59282 12.8723 5.60617 12.861 5.61985C12.8497 5.63342 12.8383 5.64733 12.827 5.66158C12.8157 5.67571 12.8044 5.69007 12.793 5.70478C12.793 5.71948 12.7819 5.7344 12.7705 5.74944C12.7592 5.7646 12.7479 5.77998 12.7479 5.79558C12.7366 5.81107 12.7252 5.82691 12.7139 5.84285C12.7139 5.8588 12.7026 5.87497 12.7026 5.89125C12.6913 5.90765 12.68 5.92404 12.68 5.94067C12.6686 5.95729 12.6686 5.97414 12.6573 5.99099C12.6573 6.00795 12.6461 6.02491 12.6461 6.0421C12.6461 6.05918 12.6348 6.07648 12.6348 6.09378C12.6348 6.11108 12.6348 6.1285 12.6235 6.14603C12.6235 6.16344 12.6235 6.18097 12.6235 6.19861C12.6235 6.21614 12.6122 6.23378 12.6122 6.25142C12.6122 6.26906 12.6122 6.2867 12.6122 6.30446C12.6122 6.3221 12.6122 6.33974 12.6122 6.35738C12.6122 6.37502 12.6235 6.39266 12.6235 6.4103C12.6235 6.42783 12.6235 6.44536 12.6235 6.46289C12.6348 6.4803 12.6348 6.49772 12.6348 6.51502C12.6348 6.53243 12.6461 6.54962 12.6461 6.56681C12.6461 6.58389 12.6573 6.60096 12.6573 6.61781C12.6686 6.63477 12.6686 6.65151 12.68 6.66813C12.68 6.68476 12.6913 6.70127 12.7026 6.71755C12.7026 6.73383 12.7139 6.75001 12.7139 6.76595C12.7252 6.78189 12.7366 6.79773 12.7479 6.81322C12.7479 6.82882 12.7592 6.8442 12.7705 6.85936C12.7819 6.87451 12.793 6.88944 12.793 6.90403C12.8044 6.91873 12.8157 6.9332 12.827 6.94734C12.8383 6.96147 12.8497 6.97538 12.861 6.98906C12.8723 7.00263 12.8836 7.01598 12.8949 7.0291C12.9063 7.0421 12.9176 7.05488 12.9289 7.06732C12.9401 7.07987 12.9627 7.09208 12.9741 7.10407C12.9854 7.11594 12.9967 7.12748 13.008 7.13879C13.0194 7.14998 13.042 7.16084 13.0533 7.17147C13.0646 7.18198 13.0758 7.19216 13.0985 7.20211C13.1098 7.21195 13.1211 7.22134 13.1438 7.2305C13.1551 7.23966 13.1664 7.24836 13.189 7.25673C13.2004 7.2651 13.2229 7.27302 13.2342 7.28059C13.2455 7.28817 13.2682 7.29541 13.2795 7.30219C13.3021 7.30898 13.3135 7.31531 13.3361 7.3213C13.3474 7.3273 13.3699 7.33284 13.3813 7.33793C13.4039 7.34313 13.4152 7.34788 13.4379 7.35217C13.4492 7.35647 13.4718 7.36032 13.4832 7.36382C13.5057 7.36721 13.517 7.37027 13.5396 7.37287C13.551 7.37547 13.5736 7.37762 13.5962 7.37943C13.6076 7.38112 13.6302 7.38248 13.6414 7.38327C13.664 7.38418 13.6754 7.38463 13.698 7.38463C13.7206 7.38463 13.732 7.38418 13.7546 7.38327C13.7659 7.38248 13.7884 7.38112 13.7998 7.37943C13.8224 7.37762 13.8337 7.37547 13.8564 7.37287C13.879 7.37027 13.8903 7.36721 13.913 7.36382C13.9242 7.36032 13.9468 7.35647 13.9581 7.35217C13.9808 7.34788 13.9921 7.34313 14.0148 7.33793C14.0261 7.33284 14.0487 7.3273 14.06 7.3213C14.0826 7.31531 14.0939 7.30898 14.1165 7.30219C14.1278 7.29541 14.1392 7.28817 14.1618 7.28059C14.1731 7.27302 14.1958 7.2651 14.207 7.25673C14.2183 7.24836 14.2409 7.23966 14.2523 7.2305C14.2636 7.22134 14.2862 7.21195 14.2975 7.20211C14.3089 7.19216 14.3315 7.18198 14.3428 7.17147C14.354 7.16084 14.3653 7.14998 14.388 7.13879C14.3993 7.12748 14.4106 7.11594 14.4219 7.10407C14.4333 7.09208 14.4446 7.07987 14.4672 7.06732C14.4786 7.05477 14.4897 7.04187 14.5011 7.02876C14.5124 7.01552 14.5237 7.00207 14.535 6.98839C14.5464 6.9747 14.5577 6.96068 14.569 6.94643C14.5803 6.93218 14.5916 6.91771 14.5916 6.90289C14.603 6.88819 14.6143 6.87327 14.6256 6.858C14.6368 6.84285 14.6368 6.82747 14.6481 6.81186C14.6594 6.79614 14.6708 6.78031 14.6708 6.76437C14.6821 6.74831 14.6934 6.73214 14.6934 6.71585C14.7047 6.69946 14.7047 6.68295 14.7161 6.66632C14.7161 6.6497 14.7274 6.63285 14.7274 6.616C14.7387 6.59904 14.7387 6.58196 14.75 6.56477C14.75 6.5477 14.75 6.5304 14.7613 6.5131C14.7613 6.49568 14.7613 6.47827 14.7613 6.46085C14.7725 6.44332 14.7725 6.4258 14.7725 6.40827C14.7725 6.39063 14.7725 6.37298 14.7725 6.35534C14.7725 6.3377 14.7725 6.32006 14.7725 6.30231C14.7725 6.28467 14.7725 6.26703 14.7725 6.24938C14.7725 6.23174 14.7725 6.2141 14.7725 6.19646C14.7725 6.17893 14.7725 6.16141 14.7613 6.14388C14.7613 6.12635 14.7613 6.10894 14.7613 6.09163C14.75 6.07433 14.75 6.05703 14.75 6.03984C14.7387 6.02277 14.7387 6.00569 14.7274 5.98873C14.7274 5.97188 14.7161 5.95503 14.7161 5.93841C14.7047 5.92178 14.7047 5.90516 14.6934 5.88888C14.6934 5.87248 14.6821 5.85631 14.6708 5.84036C14.6708 5.8243 14.6594 5.80847 14.6481 5.79287C14.6368 5.77726 14.6368 5.76188 14.6256 5.74662C14.6143 5.73146 14.603 5.71654 14.5916 5.70172C14.5916 5.68702 14.5803 5.67255 14.569 5.6583C14.5577 5.64405 14.5464 5.63003 14.535 5.61634C14.5237 5.60255 14.5124 5.58909 14.5011 5.57597C14.4897 5.56274 14.4786 5.54996 14.4672 5.5373C14.2523 5.3342 13.9695 5.22632 13.698 5.22632Z"   fill="currentColor" >
</path>
</svg>
