<svg xmlns="http://www.w3.org/2000/svg" xmlns:xlink="http://www.w3.org/1999/xlink" width="20" height="19.0341796875" viewBox="0 0 20 19.0341796875" fill="none">
<path d="M6.75466 2.85662L19.0477 2.85662C19.5736 2.85662 19.9999 2.4303 19.9999 1.90441C19.9999 1.37853 19.5736 0.952209 19.0477 0.952209L6.75466 0.952209C6.22877 0.952209 5.80245 1.37853 5.80245 1.90441C5.80245 2.4303 6.22877 2.85662 6.75466 2.85662ZM6.75439 10.4509L19.0023 10.4509C19.5282 10.4509 19.9546 10.0246 19.9546 9.49874C19.9546 8.97286 19.5282 8.54654 19.0023 8.54654L6.75439 8.54654C6.2285 8.54654 5.80219 8.97286 5.80219 9.49874C5.80219 10.0246 6.2285 10.4509 6.75439 10.4509ZM19.0477 16.183L6.75466 16.183C6.22877 16.183 5.80245 16.6093 5.80245 17.1352C5.80245 17.6611 6.22877 18.0874 6.75466 18.0874L19.0477 18.0874C19.5736 18.0874 19.9999 17.6611 19.9999 17.1352C19.9999 16.6093 19.5736 16.183 19.0477 16.183Z"   fill="currentColor" >
</path>
<path d="M0 1.90441C0 1.93557 0.000763706 1.96672 0.00229112 1.99784C0.00381852 2.02899 0.00611011 2.06006 0.00916493 2.09107C0.0122197 2.1221 0.0160387 2.15302 0.020621 2.18385C0.0251837 2.21468 0.0305101 2.24537 0.0366003 2.27595C0.0426703 2.30651 0.0494947 2.33692 0.0570727 2.36715C0.0646508 2.39738 0.0729626 2.42741 0.0820085 2.45722C0.0910545 2.48706 0.100825 2.51664 0.111319 2.54598C0.121812 2.57532 0.133031 2.6044 0.144973 2.6332C0.156895 2.66198 0.169522 2.69046 0.182853 2.71863C0.196164 2.74682 0.210169 2.77465 0.224869 2.80213C0.239568 2.82962 0.254923 2.85674 0.270932 2.88348C0.28696 2.9102 0.303634 2.93652 0.320952 2.96242C0.33827 2.98834 0.356213 3.01384 0.374781 3.03887C0.393349 3.06389 0.412513 3.08847 0.432271 3.11255C0.45205 3.13665 0.472403 3.16025 0.493331 3.18334C0.514258 3.20643 0.535743 3.22898 0.557783 3.25103C0.579824 3.27308 0.602388 3.29457 0.625479 3.31548C0.64857 3.3364 0.672167 3.35676 0.696269 3.37654C0.720351 3.3963 0.744912 3.41547 0.769946 3.43403C0.79498 3.4526 0.820451 3.47054 0.84636 3.48786C0.872287 3.50518 0.898612 3.52184 0.925334 3.53788C0.952076 3.55389 0.979193 3.56925 1.00669 3.58395C1.03416 3.59865 1.06198 3.61266 1.09015 3.62596C1.11834 3.63929 1.14683 3.65191 1.17561 3.66384C1.20442 3.67577 1.23349 3.68699 1.26283 3.6975C1.29217 3.708 1.32176 3.71776 1.35159 3.72681C1.38141 3.73585 1.41143 3.74415 1.44167 3.75174C1.4719 3.75933 1.5023 3.76614 1.53287 3.77221C1.56344 3.77831 1.59414 3.78364 1.62497 3.78819C1.65579 3.79278 1.68672 3.79659 1.71775 3.79965C1.74875 3.80272 1.77983 3.80501 1.81097 3.80652C1.8421 3.80804 1.87324 3.80882 1.90441 3.80882C1.93557 3.80882 1.96672 3.80804 1.99784 3.80652C2.02899 3.80501 2.06006 3.80272 2.09107 3.79965C2.1221 3.79659 2.15302 3.79278 2.18385 3.78819C2.21468 3.78364 2.24538 3.77831 2.27595 3.77221C2.30651 3.76614 2.33692 3.75933 2.36715 3.75174C2.39738 3.74415 2.42741 3.73585 2.45722 3.72681C2.48706 3.71776 2.51664 3.708 2.54598 3.6975C2.57532 3.68699 2.6044 3.67577 2.6332 3.66384C2.66198 3.65191 2.69046 3.63929 2.71863 3.62596C2.74682 3.61266 2.77465 3.59865 2.80213 3.58395C2.82962 3.56925 2.85674 3.55389 2.88348 3.53788C2.9102 3.52184 2.93652 3.50518 2.96242 3.48786C2.98834 3.47054 3.01384 3.4526 3.03887 3.43403C3.06389 3.41547 3.08847 3.3963 3.11255 3.37654C3.13665 3.35676 3.16025 3.3364 3.18334 3.31548C3.20643 3.29457 3.22898 3.27308 3.25103 3.25103C3.27308 3.22898 3.29457 3.20643 3.31548 3.18334C3.3364 3.16025 3.35676 3.13665 3.37654 3.11255C3.3963 3.08847 3.41547 3.06389 3.43403 3.03887C3.4526 3.01384 3.47054 2.98834 3.48786 2.96242C3.50518 2.93652 3.52184 2.9102 3.53788 2.88348C3.55389 2.85674 3.56925 2.82962 3.58395 2.80213C3.59865 2.77465 3.61266 2.74682 3.62596 2.71863C3.63929 2.69046 3.65191 2.66198 3.66384 2.6332C3.67577 2.6044 3.68699 2.57532 3.6975 2.54598C3.708 2.51664 3.71776 2.48706 3.72681 2.45722C3.73585 2.42741 3.74415 2.39738 3.75174 2.36715C3.75933 2.33692 3.76614 2.30651 3.77221 2.27595C3.77831 2.24537 3.78364 2.21468 3.78819 2.18385C3.79278 2.15302 3.79659 2.1221 3.79965 2.09107C3.80271 2.06006 3.80501 2.02899 3.80652 1.99784C3.80804 1.96672 3.80882 1.93557 3.80882 1.90441C3.80882 1.87324 3.80804 1.8421 3.80652 1.81097C3.80501 1.77983 3.80271 1.74875 3.79965 1.71775C3.79659 1.68672 3.79278 1.65579 3.78819 1.62497C3.78364 1.59414 3.77831 1.56344 3.77221 1.53287C3.76614 1.5023 3.75933 1.4719 3.75174 1.44167C3.74415 1.41143 3.73585 1.38141 3.72681 1.35159C3.71776 1.32176 3.708 1.29217 3.6975 1.26283C3.68699 1.23349 3.67577 1.20442 3.66384 1.17561C3.65191 1.14683 3.63929 1.11834 3.62596 1.09015C3.61266 1.06198 3.59865 1.03416 3.58395 1.00669C3.56925 0.979193 3.55389 0.952076 3.53788 0.925334C3.52184 0.898613 3.50518 0.872287 3.48786 0.84636C3.47054 0.820451 3.4526 0.79498 3.43403 0.769946C3.41547 0.744912 3.3963 0.720351 3.37654 0.696269C3.35676 0.672167 3.3364 0.64857 3.31548 0.625479C3.29457 0.602388 3.27308 0.579824 3.25103 0.557783C3.22898 0.535743 3.20643 0.514258 3.18334 0.493331C3.16025 0.472403 3.13665 0.45205 3.11255 0.432271C3.08847 0.412513 3.06389 0.393349 3.03887 0.374781C3.01384 0.356213 2.98834 0.33827 2.96242 0.320952C2.93652 0.303634 2.9102 0.28696 2.88348 0.270932C2.85674 0.254923 2.82962 0.239568 2.80213 0.224869C2.77465 0.210169 2.74682 0.196164 2.71863 0.182853C2.69046 0.169522 2.66198 0.156895 2.6332 0.144973C2.6044 0.133031 2.57532 0.121812 2.54598 0.111319C2.51664 0.100825 2.48706 0.0910545 2.45722 0.0820085C2.42741 0.0729626 2.39738 0.0646508 2.36715 0.0570727C2.33692 0.0494947 2.30651 0.0426703 2.27595 0.0366003C2.24538 0.0305101 2.21468 0.0251837 2.18385 0.020621C2.15302 0.0160387 2.1221 0.0122197 2.09107 0.00916493C2.06006 0.00611011 2.02899 0.00381852 1.99784 0.00229112C1.96672 0.000763706 1.93557 0 1.90441 0C1.87324 0 1.8421 0.000763706 1.81097 0.00229112C1.77983 0.00381852 1.74875 0.00611011 1.71775 0.00916493C1.68672 0.0122197 1.65579 0.0160387 1.62497 0.020621C1.59414 0.0251837 1.56344 0.0305101 1.53287 0.0366003C1.5023 0.0426703 1.4719 0.0494947 1.44167 0.0570727C1.41143 0.0646508 1.38141 0.0729626 1.35159 0.0820085C1.32176 0.0910545 1.29217 0.100825 1.26283 0.111319C1.23349 0.121812 1.20442 0.133031 1.17561 0.144973C1.14683 0.156895 1.11834 0.169522 1.09015 0.182853C1.06198 0.196164 1.03416 0.210169 1.00669 0.224869C0.979193 0.239568 0.952076 0.254923 0.925334 0.270932C0.898612 0.28696 0.872287 0.303634 0.84636 0.320952C0.820451 0.33827 0.79498 0.356213 0.769946 0.374781C0.744912 0.393349 0.720351 0.412513 0.696269 0.432271C0.672167 0.45205 0.64857 0.472403 0.625479 0.493331C0.602388 0.514258 0.579824 0.535743 0.557783 0.557783C0.535743 0.579824 0.514258 0.602388 0.493331 0.625479C0.472403 0.64857 0.45205 0.672167 0.432271 0.696269C0.412513 0.720351 0.393349 0.744912 0.374781 0.769946C0.356213 0.79498 0.33827 0.820451 0.320952 0.84636C0.303634 0.872287 0.28696 0.898613 0.270932 0.925334C0.254923 0.952076 0.239568 0.979193 0.224869 1.00669C0.210169 1.03416 0.196164 1.06198 0.182853 1.09015C0.169522 1.11834 0.156895 1.14683 0.144973 1.17561C0.133031 1.20442 0.121812 1.23349 0.111319 1.26283C0.100825 1.29217 0.0910545 1.32176 0.0820085 1.35159C0.0729626 1.38141 0.0646508 1.41143 0.0570727 1.44167C0.0494947 1.4719 0.0426703 1.5023 0.0366003 1.53287C0.0305101 1.56344 0.0251837 1.59414 0.020621 1.62497C0.0160387 1.65579 0.0122197 1.68672 0.00916493 1.71775C0.00611011 1.74875 0.00381852 1.77983 0.00229112 1.81097C0.000763706 1.8421 0 1.87324 0 1.90441Z"   fill="currentColor" >
</path>
<path d="M0 9.48735C0 9.51852 0.000763706 9.54966 0.00229112 9.58079C0.00381852 9.61194 0.00611011 9.64301 0.00916493 9.67402C0.0122197 9.70504 0.0160387 9.73597 0.020621 9.7668C0.0251837 9.79762 0.0305101 9.82832 0.0366003 9.85889C0.0426703 9.88946 0.0494947 9.91986 0.0570727 9.9501C0.0646508 9.98033 0.0729626 10.0104 0.0820085 10.0402C0.0910545 10.07 0.100825 10.0996 0.111319 10.1289C0.121812 10.1583 0.133031 10.1873 0.144973 10.2161C0.156895 10.2449 0.169522 10.2734 0.182853 10.3016C0.196164 10.3298 0.210169 10.3576 0.224869 10.3851C0.239568 10.4126 0.254923 10.4397 0.270932 10.4664C0.28696 10.4931 0.303634 10.5195 0.320952 10.5454C0.33827 10.5713 0.356213 10.5968 0.374781 10.6218C0.393349 10.6468 0.412513 10.6714 0.432271 10.6955C0.45205 10.7196 0.472403 10.7432 0.493331 10.7663C0.514258 10.7894 0.535743 10.8119 0.557783 10.834C0.579824 10.856 0.602388 10.8775 0.625479 10.8984C0.64857 10.9193 0.672167 10.9397 0.696269 10.9595C0.720351 10.9792 0.744912 10.9984 0.769946 11.017C0.79498 11.0355 0.820451 11.0535 0.84636 11.0708C0.872287 11.0881 0.898612 11.1048 0.925334 11.1208C0.952076 11.1368 0.979193 11.1522 1.00669 11.1669C1.03416 11.1816 1.06198 11.1956 1.09015 11.2089C1.11834 11.2222 1.14683 11.2349 1.17561 11.2468C1.20442 11.2587 1.23349 11.2699 1.26283 11.2804C1.29217 11.2909 1.32176 11.3007 1.35159 11.3098C1.38141 11.3188 1.41143 11.3271 1.44167 11.3347C1.4719 11.3423 1.5023 11.3491 1.53287 11.3552C1.56344 11.3613 1.59414 11.3666 1.62497 11.3711C1.65579 11.3757 1.68672 11.3795 1.71775 11.3826C1.74875 11.3857 1.77983 11.388 1.81097 11.3895C1.8421 11.391 1.87324 11.3918 1.90441 11.3918C1.93557 11.3918 1.96672 11.391 1.99784 11.3895C2.02899 11.388 2.06006 11.3857 2.09107 11.3826C2.1221 11.3795 2.15302 11.3757 2.18385 11.3711C2.21468 11.3666 2.24538 11.3613 2.27595 11.3552C2.30651 11.3491 2.33692 11.3423 2.36715 11.3347C2.39738 11.3271 2.42741 11.3188 2.45722 11.3098C2.48706 11.3007 2.51664 11.2909 2.54598 11.2804C2.57532 11.2699 2.6044 11.2587 2.6332 11.2468C2.66198 11.2349 2.69046 11.2222 2.71863 11.2089C2.74682 11.1956 2.77465 11.1816 2.80213 11.1669C2.82962 11.1522 2.85674 11.1368 2.88348 11.1208C2.9102 11.1048 2.93652 11.0881 2.96242 11.0708C2.98834 11.0535 3.01384 11.0355 3.03887 11.017C3.06389 10.9984 3.08847 10.9792 3.11255 10.9595C3.13665 10.9397 3.16025 10.9193 3.18334 10.8984C3.20643 10.8775 3.22898 10.856 3.25103 10.834C3.27308 10.8119 3.29457 10.7894 3.31548 10.7663C3.3364 10.7432 3.35676 10.7196 3.37654 10.6955C3.3963 10.6714 3.41547 10.6468 3.43403 10.6218C3.4526 10.5968 3.47054 10.5713 3.48786 10.5454C3.50518 10.5195 3.52184 10.4931 3.53788 10.4664C3.55389 10.4397 3.56925 10.4126 3.58395 10.3851C3.59865 10.3576 3.61266 10.3298 3.62596 10.3016C3.63929 10.2734 3.65191 10.2449 3.66384 10.2161C3.67577 10.1873 3.68699 10.1583 3.6975 10.1289C3.708 10.0996 3.71776 10.07 3.72681 10.0402C3.73585 10.0104 3.74415 9.98033 3.75174 9.9501C3.75933 9.91986 3.76614 9.88946 3.77221 9.85889C3.77831 9.82832 3.78364 9.79762 3.78819 9.7668C3.79278 9.73597 3.79659 9.70504 3.79965 9.67402C3.80271 9.64301 3.80501 9.61194 3.80652 9.58079C3.80804 9.54966 3.80882 9.51852 3.80882 9.48735C3.80882 9.45619 3.80804 9.42504 3.80652 9.39392C3.80501 9.36278 3.80271 9.3317 3.79965 9.30069C3.79659 9.26967 3.79278 9.23874 3.78819 9.20791C3.78364 9.17708 3.77831 9.14639 3.77221 9.11582C3.76614 9.08525 3.75933 9.05485 3.75174 9.02461C3.74415 8.99438 3.73585 8.96436 3.72681 8.93454C3.71776 8.9047 3.708 8.87512 3.6975 8.84578C3.68699 8.81644 3.67577 8.78737 3.66384 8.75856C3.65191 8.72978 3.63929 8.70129 3.62596 8.6731C3.61266 8.64493 3.59865 8.61711 3.58395 8.58963C3.56925 8.56214 3.55389 8.53502 3.53788 8.50828C3.52184 8.48156 3.50518 8.45523 3.48786 8.42931C3.47054 8.4034 3.4526 8.37793 3.43403 8.35289C3.41547 8.32786 3.3963 8.3033 3.37654 8.27922C3.35676 8.25511 3.3364 8.23152 3.31548 8.20843C3.29457 8.18534 3.27308 8.16277 3.25103 8.14073C3.22898 8.11869 3.20643 8.09721 3.18334 8.07628C3.16025 8.05535 3.13665 8.035 3.11255 8.01522C3.08847 7.99546 3.06389 7.9763 3.03887 7.95773C3.01384 7.93916 2.98834 7.92122 2.96242 7.9039C2.93652 7.88658 2.9102 7.86991 2.88348 7.85388C2.85674 7.83787 2.82962 7.82252 2.80213 7.80782C2.77465 7.79312 2.74682 7.77911 2.71863 7.7658C2.69046 7.75247 2.66198 7.73984 2.6332 7.72792C2.6044 7.71598 2.57532 7.70476 2.54598 7.69427C2.51664 7.68377 2.48706 7.674 2.45722 7.66496C2.42741 7.65591 2.39738 7.6476 2.36715 7.64002C2.33692 7.63244 2.30651 7.62562 2.27595 7.61955C2.24538 7.61346 2.21468 7.60813 2.18385 7.60357C2.15302 7.59899 2.1221 7.59517 2.09107 7.59211C2.06006 7.58906 2.02899 7.58677 1.99784 7.58524C1.96672 7.58371 1.93557 7.58295 1.90441 7.58295C1.87324 7.58295 1.8421 7.58371 1.81097 7.58524C1.77983 7.58677 1.74875 7.58906 1.71775 7.59211C1.68672 7.59517 1.65579 7.59899 1.62497 7.60357C1.59414 7.60813 1.56344 7.61346 1.53287 7.61955C1.5023 7.62562 1.4719 7.63244 1.44167 7.64002C1.41143 7.6476 1.38141 7.65591 1.35159 7.66496C1.32176 7.674 1.29217 7.68377 1.26283 7.69427C1.23349 7.70476 1.20442 7.71598 1.17561 7.72792C1.14683 7.73984 1.11834 7.75247 1.09015 7.7658C1.06198 7.77911 1.03416 7.79312 1.00669 7.80782C0.979193 7.82252 0.952076 7.83787 0.925334 7.85388C0.898612 7.86991 0.872287 7.88658 0.84636 7.9039C0.820451 7.92122 0.79498 7.93916 0.769946 7.95773C0.744912 7.9763 0.720351 7.99546 0.696269 8.01522C0.672167 8.035 0.64857 8.05535 0.625479 8.07628C0.602388 8.09721 0.579824 8.11869 0.557783 8.14073C0.535743 8.16277 0.514258 8.18534 0.493331 8.20843C0.472403 8.23152 0.45205 8.25511 0.432271 8.27922C0.412513 8.3033 0.393349 8.32786 0.374781 8.35289C0.356213 8.37793 0.33827 8.4034 0.320952 8.42931C0.303634 8.45523 0.28696 8.48156 0.270932 8.50828C0.254923 8.53502 0.239568 8.56214 0.224869 8.58963C0.210169 8.61711 0.196164 8.64493 0.182853 8.6731C0.169522 8.70129 0.156895 8.72978 0.144973 8.75856C0.133031 8.78737 0.121812 8.81644 0.111319 8.84578C0.100825 8.87512 0.0910545 8.9047 0.0820085 8.93454C0.0729626 8.96436 0.0646508 8.99438 0.0570727 9.02461C0.0494947 9.05485 0.0426703 9.08525 0.0366003 9.11582C0.0305101 9.14639 0.0251837 9.17708 0.020621 9.20791C0.0160387 9.23874 0.0122197 9.26967 0.00916493 9.30069C0.00611011 9.3317 0.00381852 9.36278 0.00229112 9.39392C0.000763706 9.42504 0 9.45619 0 9.48735Z"   fill="currentColor" >
</path>
<path d="M0 17.1297C0 17.1609 0.000763706 17.1921 0.00229112 17.2232C0.00381852 17.2543 0.00611011 17.2854 0.00916493 17.3164C0.0122197 17.3474 0.0160387 17.3784 0.020621 17.4092C0.0251837 17.44 0.0305101 17.4707 0.0366003 17.5013C0.0426703 17.5319 0.0494947 17.5623 0.0570727 17.5925C0.0646508 17.6227 0.0729626 17.6527 0.0820085 17.6826C0.0910545 17.7124 0.100825 17.742 0.111319 17.7713C0.121812 17.8007 0.133031 17.8297 0.144973 17.8585C0.156895 17.8873 0.169522 17.9158 0.182853 17.944C0.196164 17.9722 0.210169 18 0.224869 18.0275C0.239568 18.055 0.254923 18.0821 0.270932 18.1088C0.28696 18.1355 0.303634 18.1619 0.320952 18.1878C0.33827 18.2137 0.356213 18.2392 0.374781 18.2642C0.393349 18.2892 0.412513 18.3138 0.432271 18.3379C0.45205 18.362 0.472403 18.3856 0.493331 18.4087C0.514258 18.4318 0.535743 18.4543 0.557783 18.4764C0.579824 18.4984 0.602388 18.5199 0.625479 18.5408C0.64857 18.5617 0.672167 18.5821 0.696269 18.6019C0.720351 18.6216 0.744912 18.6408 0.769946 18.6594C0.79498 18.6779 0.820451 18.6959 0.84636 18.7132C0.872287 18.7305 0.898612 18.7472 0.925334 18.7632C0.952076 18.7792 0.979193 18.7946 1.00669 18.8093C1.03416 18.824 1.06198 18.838 1.09015 18.8513C1.11834 18.8646 1.14683 18.8773 1.17561 18.8892C1.20442 18.9011 1.23349 18.9123 1.26283 18.9228C1.29217 18.9333 1.32176 18.9431 1.35159 18.9521C1.38141 18.9612 1.41143 18.9695 1.44167 18.9771C1.4719 18.9847 1.5023 18.9915 1.53287 18.9976C1.56344 19.0037 1.59414 19.009 1.62497 19.0135C1.65579 19.0181 1.68672 19.0219 1.71775 19.025C1.74875 19.0281 1.77983 19.0303 1.81097 19.0319C1.8421 19.0334 1.87324 19.0342 1.90441 19.0342C1.93557 19.0342 1.96672 19.0334 1.99784 19.0319C2.02899 19.0303 2.06006 19.0281 2.09107 19.025C2.1221 19.0219 2.15302 19.0181 2.18385 19.0135C2.21468 19.009 2.24538 19.0037 2.27595 18.9976C2.30651 18.9915 2.33692 18.9847 2.36715 18.9771C2.39738 18.9695 2.42741 18.9612 2.45722 18.9521C2.48706 18.9431 2.51664 18.9333 2.54598 18.9228C2.57532 18.9123 2.6044 18.9011 2.6332 18.8892C2.66198 18.8773 2.69046 18.8646 2.71863 18.8513C2.74682 18.838 2.77465 18.824 2.80213 18.8093C2.82962 18.7946 2.85674 18.7792 2.88348 18.7632C2.9102 18.7472 2.93652 18.7305 2.96242 18.7132C2.98834 18.6959 3.01384 18.6779 3.03887 18.6594C3.06389 18.6408 3.08847 18.6216 3.11255 18.6019C3.13665 18.5821 3.16025 18.5617 3.18334 18.5408C3.20643 18.5199 3.22898 18.4984 3.25103 18.4764C3.27308 18.4543 3.29457 18.4318 3.31548 18.4087C3.3364 18.3856 3.35676 18.362 3.37654 18.3379C3.3963 18.3138 3.41547 18.2892 3.43403 18.2642C3.4526 18.2392 3.47054 18.2137 3.48786 18.1878C3.50518 18.1619 3.52184 18.1355 3.53788 18.1088C3.55389 18.0821 3.56925 18.055 3.58395 18.0275C3.59865 18 3.61266 17.9722 3.62596 17.944C3.63929 17.9158 3.65191 17.8873 3.66384 17.8585C3.67577 17.8297 3.68699 17.8007 3.6975 17.7713C3.708 17.742 3.71776 17.7124 3.72681 17.6826C3.73585 17.6527 3.74415 17.6227 3.75174 17.5925C3.75933 17.5623 3.76614 17.5319 3.77221 17.5013C3.77831 17.4707 3.78364 17.44 3.78819 17.4092C3.79278 17.3784 3.79659 17.3474 3.79965 17.3164C3.80271 17.2854 3.80501 17.2543 3.80652 17.2232C3.80804 17.1921 3.80882 17.1609 3.80882 17.1297C3.80882 17.0986 3.80804 17.0674 3.80652 17.0363C3.80501 17.0052 3.80271 16.9741 3.79965 16.9431C3.79659 16.9121 3.79278 16.8811 3.78819 16.8503C3.78364 16.8195 3.77831 16.7888 3.77221 16.7582C3.76614 16.7276 3.75933 16.6972 3.75174 16.667C3.74415 16.6368 3.73585 16.6068 3.72681 16.5769C3.71776 16.5471 3.708 16.5175 3.6975 16.4882C3.68699 16.4588 3.67577 16.4298 3.66384 16.401C3.65191 16.3722 3.63929 16.3437 3.62596 16.3155C3.61266 16.2873 3.59865 16.2595 3.58395 16.232C3.56925 16.2045 3.55389 16.1774 3.53788 16.1507C3.52184 16.124 3.50518 16.0976 3.48786 16.0717C3.47054 16.0458 3.4526 16.0203 3.43403 15.9953C3.41547 15.9703 3.3963 15.9457 3.37654 15.9216C3.35676 15.8975 3.3364 15.8739 3.31548 15.8508C3.29457 15.8277 3.27308 15.8052 3.25103 15.7831C3.22898 15.7611 3.20643 15.7396 3.18334 15.7187C3.16025 15.6977 3.13665 15.6774 3.11255 15.6576C3.08847 15.6379 3.06389 15.6187 3.03887 15.6001C3.01384 15.5816 2.98834 15.5636 2.96242 15.5463C2.93652 15.529 2.9102 15.5123 2.88348 15.4963C2.85674 15.4803 2.82962 15.4649 2.80213 15.4502C2.77465 15.4355 2.74682 15.4215 2.71863 15.4082C2.69046 15.3949 2.66198 15.3822 2.6332 15.3703C2.6044 15.3584 2.57532 15.3472 2.54598 15.3367C2.51664 15.3262 2.48706 15.3164 2.45722 15.3074C2.42741 15.2983 2.39738 15.29 2.36715 15.2824C2.33692 15.2748 2.30651 15.268 2.27595 15.2619C2.24538 15.2559 2.21468 15.2505 2.18385 15.246C2.15302 15.2414 2.1221 15.2376 2.09107 15.2345C2.06006 15.2315 2.02899 15.2292 1.99784 15.2276C1.96672 15.2261 1.93557 15.2253 1.90441 15.2253C1.87324 15.2253 1.8421 15.2261 1.81097 15.2276C1.77983 15.2292 1.74875 15.2315 1.71775 15.2345C1.68672 15.2376 1.65579 15.2414 1.62497 15.246C1.59414 15.2505 1.56344 15.2559 1.53287 15.2619C1.5023 15.268 1.4719 15.2748 1.44167 15.2824C1.41143 15.29 1.38141 15.2983 1.35159 15.3074C1.32176 15.3164 1.29217 15.3262 1.26283 15.3367C1.23349 15.3472 1.20442 15.3584 1.17561 15.3703C1.14683 15.3822 1.11834 15.3949 1.09015 15.4082C1.06198 15.4215 1.03416 15.4355 1.00669 15.4502C0.979193 15.4649 0.952076 15.4803 0.925334 15.4963C0.898612 15.5123 0.872287 15.529 0.84636 15.5463C0.820451 15.5636 0.79498 15.5816 0.769946 15.6001C0.744912 15.6187 0.720351 15.6378 0.696269 15.6576C0.672167 15.6774 0.64857 15.6977 0.625479 15.7187C0.602388 15.7396 0.579824 15.7611 0.557783 15.7831C0.535743 15.8052 0.514258 15.8277 0.493331 15.8508C0.472403 15.8739 0.45205 15.8975 0.432271 15.9216C0.412513 15.9457 0.393349 15.9703 0.374781 15.9953C0.356213 16.0203 0.33827 16.0458 0.320952 16.0717C0.303634 16.0976 0.28696 16.124 0.270932 16.1507C0.254923 16.1774 0.239568 16.2045 0.224869 16.232C0.210169 16.2595 0.196164 16.2873 0.182853 16.3155C0.169522 16.3437 0.156895 16.3722 0.144973 16.401C0.133031 16.4298 0.121812 16.4588 0.111319 16.4882C0.100825 16.5175 0.0910545 16.5471 0.0820085 16.5769C0.0729626 16.6068 0.0646508 16.6368 0.0570727 16.667C0.0494947 16.6972 0.0426703 16.7276 0.0366003 16.7582C0.0305101 16.7888 0.0251837 16.8195 0.020621 16.8503C0.0160387 16.8811 0.0122197 16.9121 0.00916493 16.9431C0.00611011 16.9741 0.00381852 17.0052 0.00229112 17.0363C0.000763706 17.0674 0 17.0986 0 17.1297Z"   fill="currentColor" >
</path>
</svg>
