<svg xmlns="http://www.w3.org/2000/svg" xmlns:xlink="http://www.w3.org/1999/xlink" width="20" height="20" viewBox="0 0 20 20" fill="none">
<g  clip-path="url(#clip-path-nPRqHQ6zvVRXsfxhZjL2b)">
<path d="M10.4241 1.98929C10.6828 1.84898 11.0225 1.96685 11.1791 2.2514L12.6068 4.84636C12.7642 5.13072 12.6798 5.47824 12.421 5.61853C12.1622 5.75885 11.8224 5.64097 11.6659 5.35642L10.2381 2.76146C10.0817 2.4771 10.1653 2.12958 10.4241 1.98929Z"   fill="#333333" >
</path>
<path d="M13.6787 0.2029C13.5037 -0.0332383 13.1462 -0.0682654 12.8842 0.124187L10.4847 1.88185C10.2228 2.07371 10.1517 2.4234 10.3273 2.65895C10.5028 2.89449 10.8599 2.9301 11.1219 2.73766L13.5208 0.979994C13.7828 0.788131 13.8538 0.438449 13.6787 0.2029ZM9.48839 18.0107C9.22962 18.151 8.88977 18.0331 8.73333 17.7486L7.30548 15.1536C7.14903 14.8693 7.23267 14.5218 7.49143 14.3815C7.7502 14.2412 8.09005 14.359 8.24649 14.6436L9.67434 17.2385C9.83079 17.5229 9.74716 17.8704 9.48839 18.0107Z"   fill="#333333" >
</path>
<path d="M6.2336 19.7971C6.40874 20.0332 6.7663 20.0684 7.02821 19.8758L9.42779 18.1184C9.68971 17.9265 9.76074 17.5768 9.58521 17.3413C9.40969 17.1057 9.05252 17.0701 8.7906 17.2625L6.39161 19.02C6.1297 19.2119 6.05925 19.5615 6.2336 19.7971Z"   fill="#333333" >
</path>
<path d="M9.03263 18.1345C9.0063 18.1345 8.98005 18.1329 8.95392 18.1296C8.89257 18.1219 8.83132 18.1135 8.77017 18.1044C8.70902 18.0954 8.64798 18.0856 8.58704 18.0752C8.52611 18.0648 8.46531 18.0536 8.40462 18.0418C8.34392 18.03 8.28337 18.0176 8.22296 18.0044C8.16257 17.9913 8.10232 17.9774 8.04222 17.9629C7.98212 17.9484 7.9222 17.9333 7.86245 17.9174C7.80269 17.9016 7.7431 17.8851 7.68372 17.8679C7.62433 17.8507 7.56513 17.8329 7.50616 17.8144C7.44718 17.7959 7.38839 17.7767 7.32982 17.7569C7.27128 17.7371 7.21294 17.7166 7.15486 17.6955C7.09675 17.6744 7.03888 17.6526 6.98128 17.6302C6.92366 17.6078 6.8663 17.5847 6.80921 17.561C6.7521 17.5373 6.69529 17.513 6.63874 17.488C6.58216 17.463 6.52591 17.4374 6.46993 17.4112C6.41396 17.385 6.35827 17.3581 6.3029 17.3306C6.24751 17.3032 6.19245 17.275 6.13771 17.2463C6.08294 17.2176 6.02853 17.1883 5.97443 17.1584C5.92034 17.1284 5.86657 17.0979 5.8132 17.0668C5.75978 17.0357 5.70671 17.0039 5.654 16.9716C5.6013 16.9393 5.54898 16.9064 5.497 16.8729C5.44505 16.8394 5.39347 16.8053 5.34226 16.7707C5.29107 16.736 5.24027 16.7008 5.18988 16.665C5.13945 16.6292 5.08945 16.5929 5.03986 16.556C4.99025 16.5191 4.94107 16.4816 4.8923 16.4436C4.84355 16.4056 4.79523 16.3671 4.74734 16.328C4.69943 16.2889 4.65197 16.2493 4.60497 16.2091C4.55796 16.169 4.5114 16.1283 4.46531 16.0871C4.41921 16.0459 4.37357 16.0042 4.32841 15.962C4.28325 15.9198 4.23857 15.8771 4.19435 15.8339C4.15013 15.7907 4.10642 15.7469 4.0632 15.7027C4.01995 15.6586 3.97722 15.6139 3.93499 15.5687C3.89277 15.5236 3.85105 15.478 3.80984 15.4319C3.73554 15.349 3.66298 15.2646 3.59213 15.1787C3.5213 15.0928 3.45224 15.0055 3.38496 14.9168C3.31768 14.8281 3.25224 14.7381 3.18864 14.6467C3.12503 14.5554 3.06332 14.4627 3.0035 14.3688C2.94368 14.275 2.8858 14.1799 2.82985 14.0836C2.77391 13.9874 2.71996 13.89 2.66799 13.7916C2.61602 13.6931 2.56609 13.5937 2.51819 13.4932C2.47028 13.3927 2.42445 13.2912 2.38069 13.1889C2.33692 13.0865 2.29526 12.9833 2.25571 12.8792C2.21615 12.7752 2.17874 12.6703 2.14348 12.5647C2.10821 12.4591 2.0751 12.3529 2.04416 12.2459C2.01323 12.139 1.98449 12.0315 1.95795 11.9233C1.9314 11.8152 1.90707 11.7066 1.88496 11.5975C1.86285 11.4884 1.84298 11.3789 1.82534 11.269C1.8077 11.1591 1.79231 11.0488 1.77917 10.9383C1.76603 10.8277 1.75515 10.7169 1.74653 10.6059C1.73791 10.495 1.73157 10.3838 1.72748 10.2726C1.7234 10.1613 1.72159 10.05 1.72206 9.93872C1.72252 9.82739 1.72525 9.71612 1.73025 9.60491C1.73526 9.4937 1.74253 9.38263 1.75207 9.27171C1.76161 9.16079 1.7734 9.05011 1.78746 8.93968C1.80152 8.82925 1.81782 8.71913 1.83637 8.60936C1.85492 8.4996 1.87571 8.39026 1.89872 8.28132C1.92173 8.17241 1.94696 8.06399 1.9744 7.9561C2.00184 7.84821 2.03148 7.74093 2.0633 7.63425C2.09511 7.52757 2.12909 7.42159 2.16524 7.31628C2.2014 7.21099 2.23968 7.10647 2.28008 7.00274C2.3205 6.89901 2.36301 6.79614 2.40762 6.69415C2.45224 6.59216 2.49892 6.4911 2.54766 6.391C2.5964 6.29093 2.64715 6.19186 2.69992 6.09384C2.75271 5.99583 2.80747 5.89891 2.8642 5.80313C2.92095 5.70735 2.97962 5.61278 3.04022 5.51938C3.06627 5.47931 3.09266 5.43944 3.1194 5.39979C3.14614 5.36018 3.17322 5.32079 3.20065 5.28161C3.22807 5.24245 3.25583 5.20352 3.28393 5.16485C3.31203 5.12618 3.34047 5.08774 3.36924 5.04954C3.398 5.01138 3.42709 4.97345 3.45651 4.93575C3.48593 4.89806 3.51568 4.86063 3.54574 4.82347C3.57582 4.78632 3.60621 4.7494 3.63692 4.71276C3.66763 4.67612 3.69866 4.63974 3.73001 4.60364C3.76134 4.56755 3.793 4.53171 3.82497 4.49614C3.85693 4.46059 3.88919 4.42532 3.92177 4.39032C3.95433 4.35534 3.9872 4.32063 4.02038 4.2862C4.05355 4.25179 4.08702 4.21765 4.12079 4.18378C4.15454 4.14995 4.18861 4.11639 4.22294 4.08313C4.2573 4.04989 4.29195 4.01692 4.32687 3.98427C4.36179 3.95161 4.39699 3.91927 4.43245 3.88722C4.46792 3.85518 4.50368 3.82345 4.53972 3.792C4.57574 3.76059 4.61204 3.72948 4.64863 3.69869C4.68519 3.66788 4.722 3.6374 4.75911 3.60724C4.7962 3.57708 4.83355 3.54725 4.87118 3.51775C4.9088 3.48823 4.94665 3.45904 4.98478 3.43019C5.0229 3.40133 5.06126 3.37281 5.09988 3.34462C5.13849 3.31643 5.17734 3.28858 5.21642 3.26107C5.25554 3.23356 5.29486 3.20638 5.33443 3.17955C5.374 3.15271 5.4138 3.12622 5.45382 3.10007C5.49386 3.07393 5.53411 3.04813 5.57458 3.02267C5.61503 2.99723 5.65574 2.97214 5.69665 2.9474C5.73755 2.92265 5.77868 2.89826 5.82001 2.87423C5.86134 2.8502 5.90286 2.82652 5.94462 2.80322C5.98636 2.77991 6.02829 2.75697 6.07044 2.73439C6.11257 2.7118 6.15489 2.68958 6.19743 2.66773C6.23995 2.64588 6.28267 2.6244 6.32556 2.6033C6.36845 2.58219 6.41154 2.56145 6.45478 2.54109C6.46409 2.5367 6.47353 2.53255 6.48306 2.52863C6.49257 2.52471 6.50218 2.52102 6.51189 2.51757C6.52159 2.51412 6.53138 2.51091 6.54124 2.50794C6.55111 2.50498 6.56103 2.50225 6.57105 2.49976C6.58103 2.49729 6.59107 2.49505 6.60118 2.49306C6.61128 2.49107 6.62144 2.48933 6.63163 2.48785C6.64183 2.48635 6.65204 2.4851 6.6623 2.48412C6.67255 2.48313 6.68282 2.48239 6.69312 2.48191C6.70339 2.48143 6.71368 2.48119 6.724 2.48121C6.73429 2.48123 6.74458 2.4815 6.75488 2.48203C6.76515 2.48255 6.77542 2.48332 6.78566 2.48435C6.79591 2.48538 6.80613 2.48666 6.8163 2.4882C6.8265 2.48972 6.83663 2.4915 6.84675 2.49353C6.85683 2.49556 6.86687 2.49783 6.87687 2.50035C6.88685 2.50287 6.89677 2.50564 6.90661 2.50865C6.91646 2.51166 6.92624 2.5149 6.93593 2.51839C6.94564 2.52187 6.95523 2.52559 6.96472 2.52955C6.97425 2.5335 6.98364 2.5377 6.99296 2.54212C7.00226 2.54654 7.01146 2.55118 7.02052 2.55605C7.0296 2.56092 7.03855 2.56601 7.04738 2.57132C7.0562 2.57664 7.06488 2.58216 7.07345 2.58789C7.08198 2.59363 7.0904 2.59957 7.09866 2.60572C7.10693 2.61186 7.11503 2.61821 7.12298 2.62476C7.13095 2.63131 7.13872 2.63805 7.14636 2.64498C7.15396 2.6519 7.16142 2.65901 7.16868 2.6663C7.17595 2.67359 7.18306 2.68106 7.18997 2.68871C7.19687 2.69635 7.20359 2.70415 7.21011 2.71212C7.21663 2.72009 7.22294 2.72822 7.22905 2.7365C7.23519 2.74478 7.24111 2.7532 7.24681 2.76177C7.25253 2.77035 7.25804 2.77906 7.26331 2.7879C7.26861 2.79675 7.27366 2.80571 7.27849 2.8148C7.28335 2.82389 7.28796 2.83309 7.29236 2.8424C7.29675 2.85172 7.30091 2.86114 7.30484 2.87066C7.30876 2.88018 7.31245 2.88979 7.31593 2.89949C7.31939 2.90919 7.32259 2.91897 7.32558 2.92884C7.32855 2.9387 7.33128 2.94862 7.33378 2.95861C7.33628 2.96861 7.33851 2.97866 7.34052 2.98876C7.34251 2.99887 7.34425 3.00901 7.34577 3.01919C7.34726 3.02939 7.34851 3.03961 7.34952 3.04986C7.3505 3.0601 7.35124 3.07038 7.35173 3.08068C7.35224 3.09096 7.35247 3.10126 7.35247 3.11156C7.35247 3.12186 7.3522 3.13215 7.35169 3.14244C7.35116 3.15272 7.35038 3.16299 7.34937 3.17324C7.34835 3.18348 7.34708 3.1937 7.34556 3.20388C7.34405 3.21408 7.34228 3.22422 7.34027 3.23431C7.33823 3.24441 7.33597 3.25446 7.33345 3.26445C7.33097 3.27443 7.32822 3.28436 7.32519 3.29421C7.3222 3.30407 7.31896 3.31384 7.3155 3.32353C7.31202 3.33323 7.30831 3.34283 7.30437 3.35234C7.3004 3.36186 7.29622 3.37127 7.29183 3.38058C7.2874 3.38989 7.28277 3.39908 7.27788 3.40816C7.27304 3.41723 7.26796 3.42619 7.26265 3.43501C7.25736 3.44385 7.25185 3.45255 7.24613 3.46111C7.24038 3.46966 7.23445 3.47807 7.22829 3.48634C7.22216 3.49461 7.21583 3.50273 7.20931 3.5107C7.20275 3.51865 7.19603 3.52645 7.18911 3.53408C7.18218 3.54169 7.17507 3.54914 7.1678 3.55642C7.1605 3.5637 7.15304 3.5708 7.14542 3.57771C7.13777 3.58462 7.12997 3.59135 7.12202 3.59789C7.11406 3.60441 7.10593 3.61074 7.09763 3.61687C7.08937 3.623 7.08095 3.62893 7.07238 3.63464C7.06382 3.64036 7.05511 3.64587 7.04628 3.65117C7.03743 3.65645 7.02849 3.66152 7.01941 3.66638C7.0103 3.67123 7.00111 3.67585 6.99181 3.68025C6.95511 3.69751 6.91859 3.7151 6.88222 3.733C6.84585 3.75091 6.80964 3.76913 6.77359 3.78765C6.73751 3.80618 6.70161 3.82503 6.66589 3.84417C6.63015 3.86331 6.59458 3.88276 6.55917 3.90253C6.5238 3.92231 6.48857 3.94239 6.45353 3.96274C6.41849 3.98313 6.38363 4.00382 6.34894 4.02479C6.31425 4.04577 6.27974 4.06706 6.24542 4.08862C6.21109 4.11022 6.17697 4.1321 6.14302 4.15425C6.10907 4.17643 6.07534 4.1989 6.04177 4.22165C6.00823 4.2444 5.97488 4.26745 5.94173 4.29077C5.90857 4.31411 5.87562 4.33772 5.84288 4.36163C5.81015 4.38554 5.77761 4.40974 5.74527 4.43419C5.71296 4.45866 5.68085 4.48341 5.64896 4.50843C5.61706 4.53347 5.58538 4.55876 5.55392 4.58432C5.52247 4.60991 5.49124 4.63575 5.46021 4.66186C5.42921 4.68798 5.39843 4.71436 5.3679 4.741C5.33734 4.76766 5.307 4.79458 5.27693 4.82173C5.24685 4.84892 5.21698 4.87634 5.18738 4.90403C5.15779 4.93173 5.12841 4.95968 5.09929 4.98786C5.07015 5.01606 5.04128 5.04452 5.01265 5.07321C4.98402 5.10192 4.95562 5.13087 4.92749 5.16005C4.89937 5.18925 4.8715 5.21868 4.84388 5.24835C4.81626 5.27804 4.7889 5.30794 4.76179 5.33809C4.73468 5.36825 4.70784 5.39862 4.68128 5.42925C4.6547 5.45987 4.62839 5.49071 4.60236 5.52177C4.5763 5.55284 4.55054 5.58413 4.52503 5.61565C4.49952 5.64718 4.47431 5.67889 4.44937 5.71085C4.42441 5.7428 4.39974 5.77497 4.37536 5.80735C4.35095 5.83974 4.32683 5.87233 4.303 5.90513C4.27917 5.93794 4.25564 5.97093 4.2324 6.00413C4.20913 6.03735 4.18616 6.07075 4.16351 6.10434C4.14081 6.13796 4.11843 6.17177 4.09636 6.20575C4.04507 6.28477 3.99544 6.36479 3.94745 6.44585C3.89945 6.5269 3.85314 6.60888 3.80849 6.69181C3.76382 6.77473 3.72087 6.85854 3.67966 6.94323C3.63843 7.02792 3.59894 7.11343 3.56119 7.19972C3.52346 7.28602 3.4875 7.37306 3.4533 7.46081C3.41912 7.54858 3.38675 7.63702 3.35617 7.7261C3.32559 7.8152 3.29684 7.90487 3.26992 7.99513C3.24301 8.0854 3.21795 8.17616 3.19475 8.26745C3.17155 8.35874 3.15021 8.45048 3.13074 8.54263C3.11128 8.63477 3.0937 8.72729 3.07801 8.82016C3.06232 8.91306 3.04854 9.0062 3.03666 9.09964C3.02477 9.19308 3.0148 9.28673 3.00674 9.38056C2.99868 9.47442 2.99254 9.56839 2.98832 9.66247C2.98409 9.75657 2.98179 9.85071 2.98141 9.94489C2.98103 10.0391 2.98257 10.1333 2.98604 10.2274C2.9895 10.3215 2.99489 10.4155 3.00219 10.5094C3.00949 10.6033 3.01871 10.6971 3.02983 10.7906C3.04096 10.8841 3.05399 10.9774 3.06893 11.0704C3.08386 11.1634 3.10069 11.256 3.11942 11.3483C3.13813 11.4407 3.15872 11.5325 3.18119 11.624C3.20367 11.7155 3.228 11.8065 3.25418 11.8969C3.28037 11.9874 3.30839 12.0773 3.33824 12.1666C3.3681 12.256 3.39977 12.3447 3.43324 12.4327C3.46672 12.5208 3.50198 12.6081 3.53901 12.6947C3.57605 12.7813 3.61485 12.8671 3.65539 12.9521C3.69595 13.0371 3.7382 13.1213 3.78218 13.2046C3.82616 13.2879 3.87183 13.3702 3.91917 13.4516C3.96652 13.5331 4.0155 13.6135 4.06613 13.6929C4.11675 13.7724 4.16898 13.8507 4.22281 13.928C4.27663 14.0053 4.332 14.0815 4.38894 14.1565C4.44587 14.2316 4.50431 14.3054 4.56427 14.378C4.62421 14.4507 4.68562 14.5221 4.74849 14.5922C4.78341 14.6313 4.81878 14.67 4.85458 14.7082C4.8904 14.7465 4.92663 14.7844 4.96327 14.8219C4.99991 14.8593 5.03698 14.8964 5.07447 14.933C5.11195 14.9697 5.14984 15.0059 5.18812 15.0416C5.22642 15.0774 5.26509 15.1128 5.30419 15.1477C5.34325 15.1826 5.38273 15.2171 5.42257 15.2512C5.46243 15.2852 5.50267 15.3188 5.54327 15.3519C5.58386 15.3851 5.62484 15.4178 5.66618 15.45C5.70751 15.4822 5.74921 15.514 5.79124 15.5453C5.83329 15.5766 5.87568 15.6074 5.91843 15.6377C5.96116 15.6681 6.00423 15.6979 6.04765 15.7273C6.09103 15.7567 6.13476 15.7856 6.17882 15.814C6.22286 15.8424 6.26722 15.8703 6.31191 15.8977C6.35657 15.9251 6.40156 15.952 6.44685 15.9784C6.4921 16.0048 6.53769 16.0307 6.58353 16.0561C6.62939 16.0815 6.67552 16.1063 6.72193 16.1307C6.76835 16.155 6.81503 16.1789 6.86198 16.2022C6.90894 16.2255 6.95613 16.2482 7.00359 16.2705C7.05105 16.2927 7.09874 16.3144 7.14669 16.3356C7.19462 16.3568 7.24279 16.3774 7.29118 16.3975C7.33958 16.4177 7.38822 16.4372 7.43708 16.4562C7.48591 16.4752 7.53495 16.4937 7.58421 16.5116C7.63347 16.5296 7.6829 16.5469 7.73257 16.5637C7.7822 16.5805 7.83202 16.5968 7.88204 16.6125C7.93202 16.6282 7.9822 16.6433 8.03257 16.6579C8.0829 16.6725 8.13339 16.6865 8.18406 16.6999C8.23474 16.7133 8.28552 16.7262 8.33646 16.7385C8.38741 16.7508 8.43849 16.7626 8.48972 16.7737C8.54093 16.7849 8.59226 16.7955 8.6437 16.8055C8.69515 16.8155 8.74669 16.825 8.79837 16.8338C8.85001 16.8427 8.90175 16.8509 8.95361 16.8586C9.00544 16.8664 9.05737 16.8735 9.10937 16.88C9.11919 16.8813 9.12896 16.8827 9.13872 16.8844C9.14845 16.8861 9.15816 16.888 9.16779 16.8902C9.17745 16.8923 9.18706 16.8947 9.19657 16.8973C9.20613 16.8999 9.2156 16.9027 9.22503 16.9058C9.23443 16.9088 9.24376 16.9121 9.25302 16.9156C9.26226 16.9191 9.27144 16.9228 9.2805 16.9267C9.28958 16.9306 9.29857 16.9348 9.30743 16.9391C9.31634 16.9434 9.32513 16.948 9.3338 16.9528C9.34245 16.9575 9.35099 16.9625 9.35945 16.9676C9.36788 16.9728 9.37618 16.9782 9.38439 16.9837C9.39255 16.9893 9.4006 16.995 9.40853 17.0009C9.41644 17.0069 9.42421 17.013 9.43181 17.0193C9.43945 17.0256 9.44693 17.0321 9.45425 17.0387C9.46156 17.0454 9.46872 17.0522 9.47573 17.0592C9.48273 17.0662 9.48954 17.0733 9.4962 17.0806C9.50288 17.0879 9.50937 17.0954 9.51566 17.103C9.52198 17.1106 9.52812 17.1184 9.53407 17.1263C9.54001 17.1342 9.54575 17.1422 9.55134 17.1504C9.55689 17.1586 9.56226 17.1669 9.56745 17.1753C9.57261 17.1837 9.57759 17.1923 9.58236 17.2009C9.58712 17.2096 9.59169 17.2184 9.59605 17.2272C9.60042 17.2361 9.60456 17.2451 9.60849 17.2542C9.61243 17.2632 9.61614 17.2724 9.61966 17.2817C9.62316 17.2909 9.62646 17.3002 9.62952 17.3096C9.63257 17.319 9.63542 17.3285 9.63804 17.338C9.64066 17.3476 9.64306 17.3572 9.64521 17.3668C9.64739 17.3765 9.64933 17.3862 9.65103 17.3959C9.65275 17.4056 9.65421 17.4154 9.65546 17.4252C9.65673 17.435 9.65775 17.4449 9.65855 17.4547C9.65933 17.4646 9.65987 17.4745 9.66019 17.4843C9.66052 17.4942 9.6606 17.5041 9.66044 17.514C9.66031 17.5239 9.65993 17.5338 9.65933 17.5436C9.6587 17.5535 9.65786 17.5634 9.65681 17.5732C9.65571 17.583 9.65441 17.5928 9.65286 17.6026C9.65134 17.6124 9.64958 17.6221 9.64757 17.6318C9.6456 17.6415 9.64337 17.6511 9.64091 17.6607C9.63847 17.6703 9.63581 17.6798 9.6329 17.6892C9.63001 17.6987 9.62689 17.7081 9.62357 17.7174C9.62021 17.7267 9.61665 17.7359 9.61286 17.7451C9.60911 17.7542 9.60513 17.7633 9.60091 17.7722C9.59673 17.7812 9.59232 17.79 9.58771 17.7988C9.58308 17.8075 9.57825 17.8161 9.57323 17.8247C9.56821 17.8332 9.563 17.8416 9.55757 17.8498C9.55216 17.8581 9.54654 17.8663 9.54073 17.8743C9.53493 17.8823 9.52894 17.8901 9.52279 17.8979C9.51661 17.9056 9.51025 17.9132 9.5037 17.9206C9.4972 17.928 9.49048 17.9353 9.48363 17.9424C9.47675 17.9495 9.4697 17.9565 9.46251 17.9632C9.45531 17.97 9.44794 17.9766 9.44044 17.9831C9.43294 17.9895 9.42529 17.9958 9.41747 18.0018C9.40966 18.0079 9.40173 18.0138 9.39364 18.0195C9.38556 18.0252 9.37734 18.0307 9.36898 18.036C9.36066 18.0413 9.3522 18.0464 9.34361 18.0513C9.33501 18.0562 9.32632 18.0609 9.31753 18.0654C9.30872 18.07 9.29982 18.0742 9.29079 18.0783C9.28179 18.0824 9.27269 18.0863 9.26349 18.0899C9.25431 18.0936 9.24503 18.097 9.23569 18.1002C9.22634 18.1035 9.21693 18.1065 9.20743 18.1092C9.19792 18.112 9.18839 18.1146 9.17878 18.1169C9.16915 18.1192 9.15948 18.1213 9.14976 18.1232C9.14007 18.125 9.13032 18.1267 9.12054 18.1281C9.11073 18.1295 9.10093 18.1307 9.09109 18.1316C9.08124 18.1326 9.07138 18.1333 9.0615 18.1338C9.05161 18.1342 9.04173 18.1345 9.03183 18.1345L9.03263 18.1345ZM12.9073 17.6272C12.8982 17.6272 12.8892 17.627 12.8802 17.6266C12.8711 17.6263 12.8621 17.6257 12.8531 17.6249C12.8441 17.6242 12.8351 17.6232 12.8261 17.622C12.8172 17.6209 12.8082 17.6195 12.7993 17.618C12.7904 17.6165 12.7815 17.6147 12.7727 17.6128C12.7639 17.6109 12.7551 17.6088 12.7463 17.6065C12.7376 17.6042 12.7289 17.6017 12.7203 17.599C12.7116 17.5964 12.7031 17.5935 12.6945 17.5904C12.686 17.5874 12.6776 17.5842 12.6692 17.5808C12.6608 17.5774 12.6525 17.5738 12.6443 17.57C12.6361 17.5663 12.628 17.5623 12.6199 17.5582C12.6118 17.5541 12.6039 17.5498 12.596 17.5453C12.5882 17.5409 12.5804 17.5363 12.5727 17.5315C12.5651 17.5267 12.5575 17.5217 12.5501 17.5166C12.5426 17.5115 12.5353 17.5062 12.528 17.5008C12.5208 17.4953 12.5137 17.4897 12.5067 17.484C12.4997 17.4783 12.4929 17.4724 12.4861 17.4663C12.4794 17.4603 12.4728 17.4541 12.4663 17.4478C12.4599 17.4415 12.4535 17.435 12.4474 17.4284C12.4412 17.4218 12.4351 17.4151 12.4292 17.4083C12.4233 17.4014 12.4176 17.3944 12.412 17.3873C12.4064 17.3802 12.4009 17.373 12.3957 17.3657C12.3904 17.3583 12.3852 17.3509 12.3803 17.3433C12.3753 17.3358 12.3705 17.3281 12.3659 17.3204C12.3612 17.3126 12.3568 17.3048 12.3525 17.2968C12.3482 17.2888 12.3441 17.2808 12.3401 17.2727C12.3362 17.2645 12.3324 17.2563 12.3288 17.248C12.3252 17.2397 12.3218 17.2314 12.3185 17.2229C12.3153 17.2145 12.3122 17.206 12.3094 17.1974C12.3065 17.1888 12.3038 17.1802 12.3013 17.1715C12.2988 17.1628 12.2965 17.1541 12.2944 17.1453C12.2923 17.1365 12.2903 17.1277 12.2886 17.1188C12.2868 17.1099 12.2853 17.101 12.284 17.0921C12.2826 17.0831 12.2814 17.0742 12.2805 17.0652C12.2795 17.0562 12.2787 17.0472 12.2781 17.0382C12.2775 17.0291 12.2772 17.0201 12.277 17.0111C12.2768 17.002 12.2768 16.993 12.277 16.984C12.2771 16.9749 12.2775 16.9659 12.2781 16.9569C12.2787 16.9478 12.2795 16.9388 12.2805 16.9298C12.2814 16.9208 12.2826 16.9119 12.284 16.9029C12.2853 16.894 12.2868 16.8851 12.2886 16.8762C12.2903 16.8674 12.2923 16.8585 12.2944 16.8497C12.2965 16.8409 12.2988 16.8322 12.3013 16.8235C12.3038 16.8148 12.3065 16.8062 12.3094 16.7976C12.3122 16.7891 12.3153 16.7806 12.3185 16.7721C12.3218 16.7637 12.3252 16.7553 12.3288 16.747C12.3324 16.7387 12.3361 16.7305 12.3401 16.7224C12.344 16.7142 12.3482 16.7062 12.3525 16.6982C12.3568 16.6903 12.3612 16.6824 12.3659 16.6746C12.3705 16.6669 12.3753 16.6592 12.3803 16.6517C12.3852 16.6441 12.3904 16.6367 12.3957 16.6293C12.4009 16.622 12.4064 16.6148 12.412 16.6077C12.4176 16.6006 12.4233 16.5936 12.4292 16.5867C12.4351 16.5799 12.4411 16.5732 12.4473 16.5666C12.4535 16.56 12.4598 16.5535 12.4663 16.5472C12.4728 16.5409 12.4794 16.5347 12.4861 16.5287C12.4928 16.5226 12.4997 16.5167 12.5067 16.511C12.5137 16.5053 12.5208 16.4997 12.528 16.4942C12.5352 16.4888 12.5426 16.4835 12.55 16.4784C12.5575 16.4733 12.565 16.4683 12.5727 16.4635C12.5804 16.4588 12.5881 16.4541 12.596 16.4497C12.6039 16.4452 12.6118 16.4409 12.6199 16.4368C12.6279 16.4327 12.636 16.4288 12.6443 16.425C12.6525 16.4212 12.6608 16.4176 12.6692 16.4142C12.7085 16.3982 12.7477 16.3818 12.7868 16.3651C12.8259 16.3483 12.8648 16.3312 12.9035 16.3138C12.9423 16.2963 12.9809 16.2785 13.0193 16.2604C13.0577 16.2422 13.096 16.2237 13.1341 16.2049C13.1722 16.186 13.2101 16.1668 13.2478 16.1473C13.2856 16.1278 13.3231 16.1079 13.3605 16.0876C13.3979 16.0674 13.4351 16.0469 13.4721 16.026C13.5091 16.0051 13.5459 15.9838 13.5825 15.9623C13.6191 15.9407 13.6555 15.9188 13.6918 15.8966C13.728 15.8743 13.764 15.8517 13.7998 15.8289C13.8356 15.806 13.8712 15.7828 13.9066 15.7592C13.942 15.7357 13.9772 15.7118 14.0121 15.6877C14.0471 15.6635 14.0818 15.639 14.1163 15.6142C14.1508 15.5894 14.1851 15.5643 14.2192 15.5388C14.2532 15.5134 14.287 15.4877 14.3206 15.4616C14.3542 15.4356 14.3875 15.4092 14.4206 15.3825C14.4537 15.3559 14.4866 15.329 14.5192 15.3017C14.5518 15.2744 14.5842 15.2469 14.6163 15.2191C14.6484 15.1912 14.6802 15.1631 14.7118 15.1347C14.7434 15.1062 14.7748 15.0775 14.8058 15.0485C14.8369 15.0196 14.8677 14.9903 14.8983 14.9607C14.9288 14.9312 14.9591 14.9014 14.9891 14.8712C15.0191 14.8411 15.0488 14.8108 15.0783 14.7801C15.1077 14.7495 15.1368 14.7186 15.1658 14.6874C15.1946 14.6562 15.2232 14.6248 15.2516 14.5931C15.2799 14.5614 15.3079 14.5294 15.3356 14.4972C15.3633 14.465 15.3908 14.4326 15.4179 14.3999C15.4451 14.3672 15.4719 14.3342 15.4984 14.301C15.525 14.2678 15.5512 14.2344 15.5771 14.2007C15.6031 14.1671 15.6287 14.1332 15.654 14.099C15.6793 14.0649 15.7043 14.0305 15.729 13.9959C15.7537 13.9613 15.7781 13.9265 15.8021 13.8915C15.8571 13.8115 15.9103 13.7304 15.9619 13.6482C16.0134 13.566 16.0632 13.4827 16.1112 13.3984C16.1592 13.3141 16.2055 13.2288 16.2499 13.1425C16.2944 13.0563 16.337 12.9691 16.3778 12.8811C16.4185 12.793 16.4574 12.7041 16.4945 12.6144C16.5315 12.5248 16.5667 12.4343 16.5999 12.3432C16.6331 12.252 16.6644 12.1602 16.6938 12.0677C16.7232 11.9752 16.7506 11.8822 16.7761 11.7885C16.8016 11.6949 16.825 11.6008 16.8465 11.5061C16.868 11.4115 16.8875 11.3165 16.9051 11.221C16.9226 11.1256 16.938 11.0298 16.9515 10.9337C16.965 10.8376 16.9765 10.7413 16.9859 10.6447C16.9953 10.5482 17.0027 10.4514 17.0081 10.3545C17.0134 10.2577 17.0167 10.1607 17.018 10.0637C17.0193 9.96665 17.0185 9.86964 17.0157 9.77265C17.0129 9.67565 17.0081 9.57876 17.0012 9.48196C16.9943 9.38516 16.9854 9.28856 16.9745 9.19216C16.9636 9.09575 16.9506 8.9996 16.9356 8.90372C16.9206 8.80786 16.9036 8.71233 16.8847 8.61718C16.8657 8.52202 16.8447 8.42731 16.8217 8.33304C16.7987 8.23876 16.7737 8.14501 16.7468 8.05179C16.7199 7.95856 16.691 7.86595 16.6602 7.77393C16.6294 7.68192 16.5966 7.59059 16.562 7.49997C16.5273 7.40934 16.4908 7.31946 16.4523 7.23036C16.4139 7.14128 16.3736 7.05304 16.3314 6.96561C16.2893 6.87823 16.2453 6.79175 16.1995 6.7062C16.1537 6.62065 16.1062 6.5361 16.0568 6.45255C16.0075 6.36899 15.9564 6.28651 15.9036 6.20511C15.8508 6.1237 15.7963 6.04345 15.7401 5.96434C15.6839 5.88524 15.626 5.80733 15.5666 5.73065C15.5071 5.65397 15.4461 5.57858 15.3834 5.50448C15.3208 5.43038 15.2566 5.35761 15.1909 5.28618C15.1548 5.24679 15.1182 5.2078 15.0812 5.16923C15.0442 5.13065 15.0067 5.09251 14.9688 5.05479C14.9309 5.01708 14.8926 4.97979 14.8538 4.94296C14.8151 4.90612 14.7759 4.86973 14.7363 4.83378C14.6967 4.79784 14.6567 4.76235 14.6163 4.72731C14.5759 4.69229 14.5351 4.65772 14.494 4.62362C14.4528 4.58954 14.4112 4.55593 14.3693 4.52276C14.3273 4.48962 14.285 4.45696 14.2423 4.42477C14.1996 4.39259 14.1565 4.36091 14.1131 4.3297C14.0696 4.2985 14.0259 4.2678 13.9817 4.23761C13.9376 4.20741 13.8932 4.17772 13.8484 4.14854C13.8035 4.11936 13.7584 4.09071 13.713 4.06255C13.6675 4.03442 13.6217 4.00679 13.5756 3.97968C13.5295 3.95259 13.4831 3.92602 13.4364 3.89997C13.3897 3.87393 13.3427 3.84843 13.2955 3.82345C13.2482 3.79849 13.2006 3.77407 13.1528 3.75016C13.1049 3.72629 13.0568 3.70296 13.0085 3.68019C12.9601 3.6574 12.9115 3.63518 12.8626 3.61351C12.8137 3.59184 12.7646 3.57073 12.7152 3.55017C12.6659 3.52962 12.6163 3.50964 12.5665 3.49023C12.5166 3.47082 12.4666 3.45197 12.4163 3.43371C12.3661 3.41544 12.3156 3.39774 12.265 3.38062C12.2143 3.36351 12.1635 3.34697 12.1125 3.33101C12.0614 3.31506 12.0102 3.29969 11.9588 3.2849C11.9074 3.27012 11.8559 3.25592 11.8042 3.24232C11.7525 3.22871 11.7006 3.2157 11.6486 3.20328C11.5966 3.19085 11.5444 3.17902 11.4922 3.16779C11.4399 3.15656 11.3875 3.14593 11.335 3.13589C11.2825 3.12585 11.2299 3.11642 11.1771 3.10759C11.1244 3.09876 11.0715 3.09054 11.0186 3.08292C10.9657 3.07529 10.9127 3.06828 10.8596 3.06187C10.8065 3.05545 10.7534 3.04964 10.7002 3.04445C10.6899 3.04342 10.6797 3.04214 10.6695 3.04062C10.6593 3.0391 10.6492 3.03732 10.6391 3.03531C10.629 3.03328 10.619 3.031 10.609 3.02849C10.599 3.02598 10.5891 3.02322 10.5793 3.02023C10.5694 3.01722 10.5596 3.01398 10.55 3.0105C10.5403 3.00703 10.5307 3.00331 10.5212 2.99935C10.5117 2.99541 10.5023 2.99123 10.493 2.98681C10.4837 2.9824 10.4745 2.97776 10.4654 2.97291C10.4563 2.96803 10.4474 2.96295 10.4385 2.95765C10.4297 2.95235 10.421 2.94684 10.4125 2.94111C10.4039 2.93538 10.3955 2.92945 10.3873 2.92332C10.379 2.91717 10.3709 2.91083 10.3629 2.90429C10.355 2.89775 10.3472 2.89103 10.3396 2.88412C10.3319 2.8772 10.3245 2.8701 10.3172 2.86281C10.31 2.85553 10.3029 2.84807 10.296 2.84044C10.2891 2.83281 10.2823 2.82501 10.2758 2.81705C10.2693 2.80909 10.263 2.80097 10.2568 2.79269C10.2507 2.78442 10.2448 2.77601 10.2391 2.76746C10.2334 2.75889 10.2278 2.75019 10.2226 2.74136C10.2173 2.73253 10.2122 2.72357 10.2074 2.71449C10.2025 2.70541 10.1979 2.69622 10.1935 2.68691C10.1891 2.6776 10.1849 2.66819 10.181 2.65869C10.177 2.64917 10.1734 2.63957 10.1699 2.62988C10.1664 2.62019 10.1632 2.61042 10.1602 2.60056C10.1572 2.59072 10.1545 2.5808 10.152 2.57082C10.1495 2.56083 10.1472 2.55078 10.1452 2.54068C10.1432 2.53059 10.1414 2.52045 10.1399 2.51027C10.1384 2.50008 10.1371 2.48987 10.1361 2.47962C10.1351 2.46938 10.1344 2.45912 10.1339 2.44884C10.1334 2.43856 10.1331 2.42827 10.1331 2.41798C10.1331 2.40768 10.1334 2.39739 10.1339 2.3871C10.1343 2.37683 10.1351 2.36657 10.1361 2.35632C10.1371 2.34608 10.1384 2.33586 10.1399 2.32568C10.1414 2.3155 10.1431 2.30536 10.1451 2.29527C10.1471 2.28516 10.1494 2.27512 10.1519 2.26513C10.1544 2.25514 10.1571 2.24523 10.1601 2.23539C10.1631 2.22553 10.1663 2.21575 10.1698 2.20605C10.1732 2.19636 10.1769 2.18676 10.1809 2.17724C10.1848 2.16774 10.189 2.15833 10.1933 2.14902C10.1977 2.13971 10.2024 2.13051 10.2072 2.12142C10.212 2.11234 10.2171 2.10339 10.2224 2.09455C10.2277 2.08572 10.2332 2.07702 10.2389 2.06845C10.2446 2.05988 10.2505 2.05147 10.2567 2.0432C10.2628 2.03492 10.2691 2.0268 10.2756 2.01884C10.2821 2.01087 10.2888 2.00307 10.2958 1.99542C10.3026 1.98779 10.3098 1.98033 10.317 1.97304C10.3243 1.96576 10.3317 1.95866 10.3393 1.95173C10.3469 1.94481 10.3547 1.93808 10.3627 1.93154C10.3706 1.925 10.3787 1.91866 10.387 1.91251C10.3953 1.90637 10.4037 1.90043 10.4122 1.8947C10.4208 1.88897 10.4294 1.88345 10.4383 1.87814C10.4471 1.87284 10.456 1.86775 10.4651 1.86289C10.4742 1.85802 10.4834 1.85338 10.4927 1.84896C10.502 1.84454 10.5114 1.84036 10.5209 1.8364C10.5304 1.83245 10.54 1.82873 10.5497 1.82524C10.5593 1.82176 10.5691 1.81851 10.579 1.81551C10.5888 1.8125 10.5987 1.80974 10.6087 1.80722C10.6187 1.8047 10.6287 1.80242 10.6388 1.80039C10.6489 1.79837 10.659 1.79659 10.6692 1.79506C10.6794 1.79353 10.6896 1.79225 10.6998 1.79122C10.7101 1.79019 10.7204 1.78941 10.7306 1.78888C10.7409 1.78835 10.7512 1.78808 10.7615 1.78806C10.7718 1.78803 10.7821 1.78826 10.7923 1.78875C10.8026 1.78923 10.8129 1.78996 10.8232 1.79095C10.8859 1.79708 10.9486 1.80393 11.0112 1.8115C11.0738 1.81906 11.1363 1.82734 11.1987 1.83634C11.2611 1.84533 11.3234 1.85504 11.3856 1.86545C11.4478 1.87587 11.5098 1.887 11.5718 1.89883C11.6337 1.91067 11.6955 1.92321 11.7571 1.93646C11.8188 1.94972 11.8803 1.96367 11.9416 1.97831C12.0029 1.99296 12.0641 2.00832 12.1251 2.02437C12.186 2.04042 12.2468 2.05717 12.3074 2.0746C12.368 2.09205 12.4284 2.11018 12.4886 2.129C12.5488 2.14781 12.6087 2.16732 12.6684 2.18751C12.7282 2.20771 12.7877 2.22858 12.8469 2.25013C12.9062 2.27168 12.9652 2.2939 13.024 2.31679C13.0827 2.33969 13.1412 2.36326 13.1994 2.38749C13.2576 2.41174 13.3155 2.43664 13.3732 2.46218C13.4308 2.48774 13.4882 2.51396 13.5452 2.54083C13.6022 2.56771 13.659 2.59523 13.7154 2.62339C13.7718 2.65156 13.8279 2.68036 13.8836 2.7098C13.9394 2.73925 13.9948 2.76934 14.0499 2.80005C14.1049 2.83077 14.1596 2.86211 14.214 2.89408C14.2683 2.92603 14.3223 2.95861 14.3759 2.99181C14.4295 3.02501 14.4827 3.05882 14.5356 3.09324C14.5884 3.12765 14.6409 3.16266 14.6929 3.19828C14.7449 3.23389 14.7966 3.27009 14.8478 3.30687C14.899 3.34367 14.9498 3.38104 15.0001 3.419C15.0505 3.45695 15.1004 3.49548 15.1498 3.53457C15.1993 3.57365 15.2483 3.61331 15.2969 3.65353C15.3455 3.69374 15.3935 3.7345 15.4412 3.77581C15.4888 3.81714 15.536 3.85899 15.5827 3.90138C15.6293 3.94376 15.6755 3.98669 15.7212 4.03013C15.7669 4.07358 15.8121 4.11755 15.8568 4.16202C15.9015 4.20651 15.9457 4.25149 15.9893 4.29696C16.033 4.34247 16.0761 4.38845 16.1188 4.43491C16.1964 4.51933 16.2722 4.60534 16.3462 4.69294C16.4202 4.78056 16.4923 4.86966 16.5626 4.96028C16.6329 5.05093 16.7012 5.143 16.7676 5.23651C16.834 5.33003 16.8984 5.42489 16.9608 5.5211C17.0232 5.61731 17.0835 5.71479 17.1418 5.81354C17.2001 5.91231 17.2563 6.01225 17.3104 6.11335C17.3645 6.21448 17.4164 6.31669 17.4662 6.41999C17.516 6.52331 17.5636 6.62761 17.6091 6.7329C17.6545 6.83821 17.6976 6.94442 17.7386 7.05153C17.7795 7.15866 17.8182 7.26659 17.8546 7.37534C17.891 7.48409 17.9251 7.59354 17.9569 7.70372C17.9887 7.81391 18.0182 7.92472 18.0454 8.03612C18.0725 8.14755 18.0973 8.25948 18.1197 8.37194C18.1422 8.48442 18.1622 8.59731 18.1799 8.71061C18.1976 8.82393 18.2129 8.93755 18.2258 9.05149C18.2387 9.16544 18.2492 9.27962 18.2574 9.39401C18.2655 9.50841 18.2712 9.62292 18.2745 9.73753C18.2777 9.85218 18.2786 9.96682 18.2771 10.0815C18.2756 10.1962 18.2716 10.3108 18.2653 10.4252C18.259 10.5398 18.2502 10.6541 18.2391 10.7682C18.2279 10.8824 18.2143 10.9962 18.1984 11.1098C18.1825 11.2233 18.1642 11.3365 18.1434 11.4493C18.1227 11.5621 18.0997 11.6744 18.0743 11.7862C18.0488 11.8981 18.0211 12.0093 17.991 12.12C17.9609 12.2306 17.9285 12.3406 17.8937 12.4499C17.859 12.5592 17.822 12.6677 17.7827 12.7754C17.7434 12.8832 17.7019 12.99 17.6581 13.096C17.6143 13.202 17.5683 13.307 17.5201 13.4111C17.4719 13.5152 17.4216 13.6182 17.369 13.7201C17.3165 13.822 17.2618 13.9228 17.2051 14.0225C17.1483 14.1221 17.0894 14.2205 17.0285 14.3177C16.9676 14.4149 16.9047 14.5107 16.8398 14.6052C16.8114 14.6465 16.7826 14.6876 16.7535 14.7284C16.7244 14.7692 16.6949 14.8097 16.6651 14.8499C16.6352 14.8902 16.605 14.9302 16.5744 14.9699C16.5438 15.0096 16.5129 15.049 16.4816 15.0882C16.4503 15.1273 16.4186 15.1662 16.3867 15.2047C16.3546 15.2433 16.3223 15.2816 16.2896 15.3195C16.2569 15.3575 16.2238 15.3952 16.1905 15.4325C16.1571 15.4699 16.1233 15.507 16.0893 15.5438C16.0552 15.5805 16.0208 15.617 15.9861 15.6531C15.9514 15.6892 15.9163 15.7251 15.8809 15.7606C15.8455 15.7961 15.8099 15.8312 15.7738 15.8661C15.7378 15.9009 15.7015 15.9355 15.6648 15.9696C15.6282 16.0038 15.5912 16.0377 15.554 16.0712C15.5167 16.1047 15.4791 16.1379 15.4413 16.1707C15.4034 16.2036 15.3652 16.236 15.3268 16.2682C15.2883 16.3003 15.2496 16.3321 15.2106 16.3635C15.1715 16.395 15.1322 16.426 15.0926 16.4567C15.053 16.4875 15.0131 16.5178 14.973 16.5478C14.9328 16.5778 14.8924 16.6074 14.8517 16.6367C14.811 16.6659 14.7701 16.6948 14.7288 16.7233C14.6876 16.7518 14.6461 16.78 14.6044 16.8077C14.5627 16.8355 14.5207 16.8629 14.4785 16.8898C14.4363 16.9168 14.3938 16.9434 14.3511 16.9697C14.3084 16.9959 14.2654 17.0217 14.2222 17.0471C14.179 17.0726 14.1356 17.0976 14.092 17.1223C14.0484 17.1469 14.0045 17.1712 13.9604 17.195C13.9163 17.2189 13.872 17.2423 13.8276 17.2653C13.783 17.2884 13.7383 17.311 13.6934 17.3333C13.6485 17.3555 13.6034 17.3773 13.5581 17.3987C13.5127 17.4201 13.4672 17.4411 13.4216 17.4617C13.3759 17.4823 13.33 17.5024 13.2839 17.5222C13.2378 17.5419 13.1916 17.5613 13.1452 17.5802C13.1264 17.5879 13.1072 17.5947 13.0877 17.6006C13.0682 17.6064 13.0485 17.6113 13.0285 17.6153C13.0086 17.6192 12.9884 17.6222 12.9682 17.6242C12.9479 17.6262 12.9276 17.6272 12.9073 17.6272Z"   fill="#333333" >
</path>
</g>
<defs>
<clipPath id="clip-path-nPRqHQ6zvVRXsfxhZjL2b">
<path d="M0 20L20 20L20 0L0 0L0 20Z" fill="white"/>
</clipPath>
</defs>
</svg>
