<svg xmlns="http://www.w3.org/2000/svg" xmlns:xlink="http://www.w3.org/1999/xlink" width="25" height="25" viewBox="0 0 25 25" fill="none">
<path d="M17.9167 20.1042L7.08333 20.1042C6.25 20.1042 5.52083 19.5833 5.3125 18.8542L2.1875 7.29168C1.97917 6.66668 2.1875 5.9375 2.70833 5.52083C3.33333 5.10418 4.16667 5 4.89583 5.41668L8.75 7.8125L11.0417 5.52083C11.4583 5.10418 11.9792 4.89583 12.5 4.89583C13.0208 4.89583 13.5417 5.10418 13.9583 5.41668L16.25 7.70833L20.1042 5.3125C20.7292 4.89583 21.6667 5 22.2917 5.41668C22.8125 5.83333 23.125 6.45833 22.9167 7.1875L19.7917 18.75C19.4792 19.5833 18.75 20.1042 17.9167 20.1042ZM12.5 18.5417L17.9167 18.5417C18.125 18.5417 18.2292 18.4375 18.2292 18.3333L21.3542 6.77083C21.3542 6.77083 21.3542 6.66668 21.25 6.66668C21.1458 6.5625 20.9375 6.5625 20.8333 6.66668L15.9375 9.6875L12.8125 6.45833C12.7083 6.35418 12.6042 6.35418 12.5 6.35418C12.3958 6.35418 12.2917 6.35418 12.1875 6.45833L9.0625 9.6875L4.16667 6.66668C3.95833 6.5625 3.75 6.66668 3.75 6.66668C3.54167 6.77083 3.54167 6.875 3.64583 6.875L6.77083 18.4375C6.77083 18.5417 6.875 18.6458 7.08333 18.6458L12.5 18.5417Z"   fill="currentColor" >
</path>
<path d="M15.4167 15.8333L9.58331 15.8333C9.16666 15.8333 8.85416 15.5208 8.85416 15.1042C8.85416 14.6875 9.16666 14.375 9.58331 14.375L15.3125 14.375C15.7292 14.375 16.0417 14.6875 16.0417 15.1042C16.1458 15.5208 15.8333 15.8333 15.4167 15.8333Z"   fill="currentColor" >
</path>
</svg>
