<svg xmlns="http://www.w3.org/2000/svg" xmlns:xlink="http://www.w3.org/1999/xlink" width="20" height="20" viewBox="0 0 20 20" fill="none">
<path d="M0.936162 2.22276L19.0923 2.22276C19.5938 2.22276 20 1.72524 20 1.11143C20 0.497618 19.5938 0 19.0923 0L0.936162 0C0.434617 0 0.0284518 0.497618 0.0284518 1.11143C0.0284518 1.72524 0.434617 2.22276 0.936162 2.22276ZM19.0923 8.864L7.92846 8.864C7.42692 8.864 7.02078 9.36162 7.02078 9.97543C7.02078 10.5892 7.42692 11.0868 7.92846 11.0868L19.0923 11.0868C19.5938 11.0868 20 10.5892 20 9.97543C20 9.36162 19.5938 8.864 19.0923 8.864ZM19.0923 17.7772L0.936162 17.7772C0.434617 17.7772 0.0284518 18.2748 0.0284518 18.8886C0.0284518 19.5024 0.434617 20 0.936162 20L19.0923 20C19.5938 20 20 19.5024 20 18.8886C20 18.2748 19.5938 17.7772 19.0923 17.7772ZM4.53845 4.43314L0 9.99019L4.53845 15.5471L4.53845 4.43314Z"   fill="currentColor" >
</path>
</svg>
