<svg xmlns="http://www.w3.org/2000/svg" xmlns:xlink="http://www.w3.org/1999/xlink" width="20.000389099121094" height="20.000396728515625" viewBox="0 0 20.000389099121094 20.000396728515625" fill="none">
<path d="M10.0002 17.5003L8.33766 17.5003L3.75007 20.0004L3.75007 15.4128C1.4654 13.809 0 11.5119 0 8.75017C0 3.91789 4.47745 0 10.0002 0C15.5229 0 20.0004 3.91789 20.0004 8.75017C20.0004 13.5833 15.5233 17.5003 10.0002 17.5003ZM10.0002 1.25002C5.16791 1.25002 1.25002 4.60792 1.25002 8.75017C1.25002 11.2919 2.74376 13.644 5.0001 15.0003L5.0001 17.7753L8.33766 16.2503L10.0002 16.2503C14.8325 16.2503 18.7504 12.8924 18.7504 8.75017C18.7504 4.60751 14.8325 1.25002 10.0002 1.25002ZM15.0003 10.0002C14.3094 10.0002 13.7503 9.44102 13.7503 8.75017C13.7503 8.05932 14.3094 7.50015 15.0003 7.50015C15.6903 7.50015 16.2503 8.0593 16.2503 8.75017C16.2503 9.44104 15.6903 10.0002 15.0003 10.0002ZM10.0002 10.0002C9.30934 10.0002 8.75017 9.44102 8.75017 8.75017C8.75017 8.05932 9.30932 7.50015 10.0002 7.50015C10.6911 7.50015 11.2502 8.0593 11.2502 8.75017C11.2502 9.44104 10.6911 10.0002 10.0002 10.0002ZM5.0001 10.0002C4.31006 10.0002 3.75007 9.44061 3.75007 8.75017C3.75007 8.05973 4.31006 7.50015 5.0001 7.50015C5.69095 7.50015 6.25012 8.05932 6.25012 8.75017C6.25012 9.44102 5.69054 10.0002 5.0001 10.0002Z"   fill="#000000" >
</path>
</svg>
