<svg xmlns="http://www.w3.org/2000/svg" xmlns:xlink="http://www.w3.org/1999/xlink" width="20" height="20" viewBox="0 0 20 20" fill="none">
<g  clip-path="url(#clip-path-s1zzeS7b3B0mtkBmTDhWE)">
<path d="M9.99997 0C15.5229 0 20 4.47705 20 10C20 15.5229 15.5229 20 9.99997 20C4.47702 20 -3.05176e-05 15.5229 -3.05176e-05 10C-3.05176e-05 4.47705 4.47702 0 9.99997 0ZM9.99997 1.76471C5.45172 1.76471 1.76468 5.45175 1.76468 10C1.76468 14.5482 5.45172 18.2353 9.99997 18.2353C14.5482 18.2353 18.2353 14.5482 18.2353 10C18.2353 5.45175 14.5482 1.76471 9.99997 1.76471ZM12.3176 4.6706L13.5647 5.91764L11.2482 8.23529L14.4117 8.23529L14.4117 10L10.8823 10L10.8823 11.4706L14.4117 11.4706L14.4117 13.2353L10.8823 13.2353L10.8823 15.5882L9.11762 15.5882L9.11762 13.2353L5.5882 13.2353L5.5882 11.4706L9.11762 11.4706L9.11762 10L5.5882 10L5.5882 8.23529L8.75232 8.23529L6.43467 5.91764L7.6829 4.6706L9.99997 6.98706L12.3176 4.66941L12.3176 4.6706Z"   fill="currentColor" >
</path>
</g>
<defs>
<clipPath id="clip-path-s1zzeS7b3B0mtkBmTDhWE">
<path d="M0 20L20 20L20 0L0 0L0 20Z" fill="white"/>
</clipPath>
</defs>
</svg>
