<svg xmlns="http://www.w3.org/2000/svg" xmlns:xlink="http://www.w3.org/1999/xlink" width="20" height="20" viewBox="0 0 20 20" fill="none">
<g  clip-path="url(#clip-path-SdmRkgiINcnJW5fw1_voI)">
<path d="M9.85911 0.323975C4.42397 0.323975 0.0179367 4.73001 0.0179367 10.1652C0.0179367 15.6003 4.42397 20.0062 9.85911 20.0062C15.2943 20.0062 19.7004 15.6003 19.7004 10.1652C19.7004 4.73001 15.2942 0.323975 9.85911 0.323975ZM9.85911 19.2191C4.85878 19.2191 0.805232 15.1655 0.805232 10.1652C0.805232 5.16483 4.85878 1.11127 9.85911 1.11127C14.8594 1.11127 18.913 5.16483 18.913 10.1652C18.913 15.1655 14.8594 19.2191 9.85911 19.2191Z"   fill="#221714" >
</path>
<path d="M15.8853 5.98467C15.8853 5.73125 15.6799 5.52582 15.4265 5.52582C15.3491 5.52582 15.2764 5.54504 15.2124 5.57881L15.2124 5.57873L15.2093 5.58043C15.2082 5.58097 15.2072 5.58154 15.2062 5.58211L12.3601 7.13195C12.3407 7.14086 12.3219 7.15103 12.304 7.16248C12.1766 7.244 12.0919 7.38642 12.0919 7.5489C12.0919 7.70869 12.1737 7.84927 12.2976 7.93142C12.3195 7.94601 12.3428 7.95867 12.3672 7.96933L15.1535 9.48502C15.2298 9.54156 15.3242 9.57502 15.4265 9.57502C15.6799 9.57502 15.8853 9.36959 15.8853 9.11619C15.8853 8.93609 15.7815 8.78033 15.6305 8.70521L15.6306 8.70513L13.469 7.5489L15.6428 6.38931C15.644 6.38867 15.6452 6.38804 15.6464 6.3874L15.6476 6.38678L15.6475 6.38674C15.7893 6.30867 15.8853 6.15791 15.8853 5.98467Z"   fill="currentColor" >
</path>
<path d="M7.351 7.96933C7.37539 7.95867 7.39871 7.94599 7.42068 7.93142C7.54453 7.84927 7.62631 7.70871 7.62631 7.54892C7.62631 7.38642 7.5416 7.244 7.4142 7.16248C7.39629 7.15103 7.3776 7.14086 7.35813 7.13195L4.51238 5.58228C4.51115 5.58162 4.50992 5.58095 4.50869 5.58029L4.50584 5.57873L4.5058 5.57881C4.4419 5.54504 4.36908 5.52582 4.29178 5.52582C4.03836 5.52582 3.83293 5.73125 3.83293 5.98467C3.83293 6.15791 3.92899 6.30867 4.07072 6.38676L4.0707 6.38679L4.07182 6.3874C4.07305 6.38806 4.07428 6.38869 4.07551 6.38935L6.24928 7.54894L4.0877 8.70515L4.08774 8.70523C3.93676 8.78035 3.83295 8.93611 3.83295 9.11621C3.83295 9.36961 4.03838 9.57504 4.2918 9.57504C4.39404 9.57504 4.48846 9.54156 4.56475 9.48502L7.351 7.96933Z"   fill="currentColor" >
</path>
<path d="M14.3571 14.5293C14.305 12.0897 12.3113 10.1279 9.85913 10.1279C7.40016 10.1279 5.40227 12.1006 5.36094 14.5497C5.36036 14.5598 5.35995 14.5699 5.35995 14.5802C5.35995 14.5855 5.3602 14.5906 5.36036 14.5959C5.3603 14.6063 5.35995 14.6166 5.35995 14.6271L5.36217 14.6271C5.38587 14.889 5.60592 15.0943 5.87403 15.0943C6.15794 15.0943 6.38811 14.8641 6.38811 14.5802C6.38811 14.5715 6.38788 14.5628 6.38743 14.5542C6.42626 12.6698 7.96547 11.1541 9.85911 11.1541C11.7543 11.1541 13.2945 12.6723 13.3309 14.5588C13.3309 14.5603 13.3308 14.5618 13.3308 14.5633C13.3308 14.5723 13.3311 14.5813 13.3315 14.5902C13.3315 14.595 13.3317 14.5998 13.3318 14.6047C13.3321 14.6057 13.3325 14.6067 13.3329 14.6077C13.3554 14.8706 13.5758 15.077 13.8446 15.077C14.1067 15.077 14.3228 14.8806 14.3542 14.6271L14.3583 14.6271C14.3583 14.6128 14.3579 14.5987 14.3578 14.5845C14.3581 14.5775 14.3583 14.5704 14.3583 14.5633C14.3583 14.5518 14.3578 14.5405 14.3571 14.5293Z"   fill="currentColor" >
</path>
<path d="M9.85911 0.321503C4.42978 0.321503 0.02845 4.72285 0.02845 10.1522C0.02845 15.5815 4.42978 19.9828 9.85911 19.9828C15.2884 19.9828 19.6898 15.5815 19.6898 10.1522C19.6898 4.72283 15.2884 0.321503 9.85911 0.321503ZM9.85911 18.9565C4.99661 18.9565 1.05479 15.0147 1.05479 10.1522C1.05479 5.28967 4.99661 1.34782 9.85911 1.34782C14.7217 1.34782 18.6634 5.28967 18.6634 10.1522C18.6634 15.0147 14.7217 18.9565 9.85911 18.9565Z"   fill="currentColor" >
</path>
</g>
<defs>
<clipPath id="clip-path-SdmRkgiINcnJW5fw1_voI">
<path d="M0 20L20 20L20 0L0 0L0 20Z" fill="white"/>
</clipPath>
</defs>
</svg>
