<svg xmlns="http://www.w3.org/2000/svg" xmlns:xlink="http://www.w3.org/1999/xlink" width="20" height="20" viewBox="0 0 20 20" fill="none">
<path d="M11 0.37392L5.71377 4.10364L5.71377 15.9711L11 19.7009C11.9996 20.3791 12.8573 19.8704 12.8573 18.5141L12.8573 1.56064C12.8573 0.204343 11.9996 -0.473854 11 0.37392ZM0 6.64674L0 13.428C0 14.7843 0.999577 15.9711 2.14292 15.9711L4.28578 15.9711L4.28578 4.10364L2.14292 4.10364C0.999577 4.10364 0 5.29046 0 6.64674ZM19.2851 9.18975L16.4282 9.18975C15.9998 9.18975 15.7142 9.52879 15.7142 10.0374C15.7142 10.5459 15.9998 10.885 16.4282 10.885L19.2851 10.885C19.7144 10.885 20 10.5459 20 10.0374C20 9.52879 19.7144 9.18975 19.2851 9.18975ZM18.8567 17.8361L16.4282 16.1406C16.1426 15.9711 15.7142 15.9711 15.4286 16.4797C15.2858 16.8188 15.2858 17.3273 15.7142 17.6665L18.1427 19.3618C18.4283 19.5314 18.8567 19.5314 19.1423 19.0228C19.2851 18.6836 19.1423 18.0055 18.8567 17.8361ZM16.2854 3.93406L18.7139 2.23873C18.9995 2.06925 19.1423 1.56064 18.9995 1.05202C18.8567 0.712967 18.4283 0.54339 18.1427 0.712967L15.7142 2.4083C15.4286 2.57777 15.2858 3.0864 15.4286 3.59501C15.5714 3.93406 15.9998 4.10364 16.2854 3.93406Z"   fill="currentColor" >
</path>
</svg>
