<svg xmlns="http://www.w3.org/2000/svg" xmlns:xlink="http://www.w3.org/1999/xlink" width="20" height="20" viewBox="0 0 20 20" fill="none">
<g  clip-path="url(#clip-path-LWc8dOGBvWbtm2xrDoht2)">
<path d="M18.1912 0.219994L0.88125 10.365C0.32 10.695 0.03125 11.135 0 11.5612L0 11.72C0.04 12.23 0.45 12.6962 1.20375 12.9L4.5625 13.81C4.57318 13.8125 4.58391 13.8148 4.59471 13.8168C4.60549 13.8188 4.61633 13.8205 4.62721 13.822C4.63809 13.8234 4.64898 13.8246 4.65992 13.8255C4.67084 13.8265 4.6818 13.8271 4.69275 13.8275C4.70373 13.8279 4.71471 13.828 4.72566 13.8279C4.73664 13.8277 4.7476 13.8273 4.75855 13.8266C4.76951 13.8259 4.78043 13.825 4.79133 13.8237C4.80225 13.8225 4.81311 13.821 4.82395 13.8193C4.83477 13.8175 4.84555 13.8155 4.85629 13.8132C4.86701 13.8109 4.87768 13.8084 4.88828 13.8055C4.89889 13.8027 4.90943 13.7996 4.91988 13.7963C4.93033 13.793 4.9407 13.7894 4.95098 13.7856C4.96127 13.7817 4.97145 13.7777 4.98152 13.7733C4.9916 13.769 5.00156 13.7644 5.01141 13.7596C5.02127 13.7547 5.031 13.7497 5.04061 13.7444C5.0502 13.739 5.05967 13.7335 5.069 13.7277C5.07832 13.722 5.0875 13.716 5.09654 13.7097C5.10559 13.7035 5.11447 13.6971 5.12318 13.6904C5.13191 13.6837 5.14047 13.6769 5.14885 13.6698C5.15723 13.6627 5.16543 13.6554 5.17346 13.6479C5.18148 13.6405 5.18932 13.6328 5.19697 13.6249C5.20461 13.6171 5.21207 13.609 5.21932 13.6008C5.22656 13.5925 5.23361 13.5841 5.24045 13.5755C5.24729 13.567 5.25391 13.5582 5.26033 13.5493C5.26674 13.5404 5.27293 13.5314 5.27889 13.5221C5.28484 13.5129 5.29059 13.5036 5.29609 13.4941C5.3016 13.4846 5.30688 13.475 5.31189 13.4652C5.31693 13.4555 5.32172 13.4456 5.32627 13.4356C5.33082 13.4256 5.33512 13.4155 5.33918 13.4054C5.34322 13.3952 5.34703 13.3849 5.35057 13.3745C5.3541 13.3641 5.3574 13.3536 5.36043 13.3431C5.36346 13.3325 5.36623 13.3219 5.36875 13.3112C5.3716 13.3005 5.3742 13.2898 5.37652 13.279C5.37887 13.2681 5.38094 13.2572 5.38275 13.2463C5.38457 13.2354 5.38613 13.2244 5.38742 13.2135C5.38871 13.2024 5.38975 13.1914 5.39051 13.1804C5.39127 13.1693 5.39178 13.1583 5.39201 13.1472C5.39225 13.1361 5.39223 13.1251 5.39193 13.114C5.39164 13.1029 5.39107 13.0919 5.39025 13.0808C5.38943 13.0698 5.38836 13.0587 5.38701 13.0478C5.38566 13.0368 5.38404 13.0258 5.38219 13.0149C5.38031 13.004 5.37818 12.9931 5.37578 12.9823C5.3734 12.9715 5.37076 12.9607 5.36785 12.9501C5.36494 12.9394 5.3618 12.9288 5.35838 12.9182C5.35496 12.9077 5.35131 12.8972 5.34738 12.8869C5.34348 12.8765 5.33932 12.8663 5.33492 12.8561C5.33053 12.8459 5.32588 12.8359 5.321 12.826C5.31611 12.816 5.311 12.8062 5.30564 12.7965C5.30029 12.7868 5.29471 12.7772 5.28891 12.7678C5.28311 12.7584 5.27707 12.7491 5.27082 12.74C5.26457 12.7308 5.25811 12.7218 5.25143 12.713C5.24473 12.7042 5.23783 12.6955 5.23074 12.687C5.22365 12.6785 5.21635 12.6702 5.20887 12.662C5.20137 12.6539 5.19369 12.6459 5.18582 12.6381C5.17795 12.6303 5.16988 12.6227 5.16164 12.6153C5.1534 12.6079 5.14498 12.6007 5.13641 12.5937C5.12783 12.5867 5.11908 12.5799 5.11018 12.5734C5.10127 12.5668 5.09221 12.5604 5.08301 12.5543C5.07379 12.5481 5.06443 12.5422 5.05494 12.5365C5.04545 12.5308 5.03582 12.5253 5.02607 12.5201C5.01633 12.5148 5.00645 12.5098 4.99645 12.5051C4.98646 12.5003 4.97635 12.4958 4.96613 12.4915C4.95592 12.4872 4.94562 12.4832 4.93521 12.4794C4.9248 12.4756 4.91432 12.472 4.90375 12.4687L1.55625 11.5625L18.615 1.56499L16.755 15.305C16.7275 15.5087 16.5763 15.6112 16.3888 15.5587L9.2475 13.6L15.035 7.62625C15.0428 7.61809 15.0504 7.60973 15.0578 7.60121C15.0651 7.59268 15.0723 7.58396 15.0793 7.5751C15.0863 7.56623 15.093 7.55719 15.0996 7.54801C15.1061 7.53881 15.1124 7.52947 15.1185 7.51998C15.1246 7.51049 15.1305 7.50086 15.1361 7.49109C15.1418 7.48131 15.1471 7.47141 15.1523 7.46139C15.1575 7.45135 15.1624 7.44121 15.1671 7.43096C15.1718 7.42068 15.1762 7.41031 15.1804 7.39984C15.1846 7.38937 15.1885 7.37881 15.1922 7.36814C15.1959 7.35748 15.1994 7.34674 15.2025 7.33592C15.2057 7.32508 15.2086 7.31418 15.2113 7.30322C15.2139 7.29225 15.2163 7.28123 15.2185 7.27016C15.2206 7.25908 15.2225 7.24797 15.2241 7.2368C15.2257 7.22562 15.227 7.21441 15.2281 7.2032C15.2292 7.19195 15.23 7.1807 15.2305 7.16945C15.231 7.15816 15.2313 7.14689 15.2313 7.13562C15.2313 7.12434 15.231 7.11307 15.2305 7.1018C15.23 7.09053 15.2292 7.07928 15.2281 7.06805C15.227 7.05682 15.2257 7.04562 15.2241 7.03445C15.2225 7.02328 15.2206 7.01215 15.2185 7.00109C15.2163 6.99 15.2139 6.97898 15.2113 6.96803C15.2086 6.95705 15.2057 6.94615 15.2025 6.93533C15.1993 6.92451 15.1959 6.91377 15.1922 6.9031C15.1885 6.89244 15.1846 6.88187 15.1804 6.87141C15.1762 6.86094 15.1718 6.85057 15.1671 6.84029C15.1624 6.83002 15.1575 6.81988 15.1523 6.80986C15.1471 6.79982 15.1418 6.78992 15.1361 6.78016C15.1305 6.77039 15.1246 6.76076 15.1185 6.75127C15.1124 6.74178 15.1061 6.73242 15.0996 6.72324C15.093 6.71404 15.0863 6.70502 15.0793 6.69615C15.0723 6.68726 15.0651 6.67855 15.0578 6.67004C15.0504 6.6615 15.0428 6.65316 15.035 6.645C15.0273 6.63699 15.0195 6.6292 15.0114 6.6216C15.0034 6.614 14.9951 6.60662 14.9867 6.59943C14.9783 6.59225 14.9697 6.58527 14.9609 6.57853C14.9521 6.57178 14.9432 6.56525 14.9341 6.55896C14.9249 6.55266 14.9157 6.54658 14.9063 6.54076C14.8969 6.53492 14.8873 6.52934 14.8776 6.524C14.8679 6.51865 14.8581 6.51353 14.8481 6.50869C14.8382 6.50383 14.8281 6.49922 14.8179 6.49488C14.8078 6.49055 14.7975 6.48646 14.7871 6.48264C14.7767 6.47881 14.7662 6.47523 14.7556 6.47193C14.7451 6.46863 14.7344 6.4656 14.7237 6.46285C14.713 6.46008 14.7022 6.4576 14.6913 6.45537C14.6805 6.45314 14.6696 6.45121 14.6586 6.44955C14.6477 6.44787 14.6367 6.44648 14.6257 6.44537C14.6147 6.44424 14.6036 6.44342 14.5926 6.44287C14.5815 6.4423 14.5704 6.44203 14.5594 6.44203C14.5483 6.44203 14.5372 6.4423 14.5262 6.44287C14.5151 6.44342 14.5041 6.44424 14.4931 6.44537C14.482 6.44648 14.4711 6.44787 14.4601 6.44955C14.4492 6.45121 14.4383 6.45314 14.4274 6.45537C14.4166 6.4576 14.4058 6.46008 14.3951 6.46285C14.3843 6.4656 14.3737 6.46863 14.3631 6.47193C14.3526 6.47523 14.3421 6.47881 14.3317 6.48264C14.3213 6.48646 14.311 6.49055 14.3008 6.49488C14.2906 6.49922 14.2805 6.50383 14.2706 6.50869C14.2607 6.51353 14.2508 6.51865 14.2411 6.524C14.2314 6.52934 14.2219 6.53492 14.2125 6.54076C14.203 6.54658 14.1938 6.55266 14.1847 6.55896C14.1756 6.56525 14.1666 6.57178 14.1579 6.57853C14.1491 6.58527 14.1405 6.59225 14.1321 6.59943C14.1236 6.60662 14.1154 6.614 14.1073 6.6216C14.0993 6.6292 14.0914 6.63699 14.0837 6.645L7.74 13.195C7.68553 13.2514 7.63428 13.3105 7.58625 13.3725C7.58006 13.3765 7.57393 13.3807 7.56787 13.3849C7.56182 13.3891 7.55582 13.3934 7.5499 13.3979C7.54398 13.4023 7.53813 13.4068 7.53234 13.4114C7.52656 13.416 7.52086 13.4207 7.51523 13.4255C7.50961 13.4303 7.50406 13.4351 7.49859 13.4401C7.49311 13.4451 7.48771 13.4501 7.4824 13.4553C7.47711 13.4604 7.47188 13.4656 7.46674 13.4709C7.46158 13.4762 7.45652 13.4816 7.45156 13.4871C7.44658 13.4925 7.4417 13.4981 7.43689 13.5037C7.43211 13.5093 7.4274 13.515 7.42279 13.5208C7.41818 13.5266 7.41367 13.5324 7.40924 13.5383C7.4048 13.5442 7.40049 13.5502 7.39625 13.5563C7.39201 13.5623 7.38787 13.5684 7.38383 13.5746C7.37979 13.5808 7.37586 13.5871 7.37201 13.5934C7.36816 13.5997 7.36443 13.6061 7.3608 13.6125C7.35715 13.6189 7.35361 13.6254 7.3502 13.632C7.34678 13.6385 7.34346 13.6451 7.34023 13.6518C7.33701 13.6584 7.33389 13.6651 7.3309 13.6719C7.32789 13.6786 7.325 13.6854 7.32221 13.6923C7.31941 13.6991 7.31674 13.706 7.31418 13.7129C7.31162 13.7198 7.30916 13.7268 7.30682 13.7338C7.30447 13.7408 7.30225 13.7479 7.30012 13.7549C7.29799 13.762 7.296 13.7691 7.2941 13.7763C7.29221 13.7834 7.29043 13.7906 7.28877 13.7978C7.28711 13.805 7.28555 13.8122 7.28412 13.8195C7.2827 13.8267 7.28137 13.834 7.28018 13.8413C7.27898 13.8486 7.27789 13.8559 7.27693 13.8632C7.27596 13.8705 7.2751 13.8779 7.27437 13.8852C7.27365 13.8926 7.27303 13.8999 7.27254 13.9073C7.27205 13.9147 7.27166 13.9221 7.27141 13.9294C7.27115 13.9368 7.271 13.9442 7.27098 13.9516C7.27096 13.959 7.27104 13.9664 7.27125 13.9737C7.2543 14.0251 7.23941 14.077 7.2266 14.1295C7.21379 14.1821 7.20309 14.235 7.19451 14.2884C7.18594 14.3418 7.17949 14.3954 7.17518 14.4493C7.17088 14.5032 7.16873 14.5572 7.16875 14.6112L7.16875 18.6425C7.16875 19.6125 8.215 20.1886 8.99625 19.6525L12.2437 17.4187C12.4438 17.2825 12.5562 17.045 12.5413 16.7962C12.5408 16.7888 12.5402 16.7813 12.5395 16.7738C12.5388 16.7664 12.538 16.7589 12.5371 16.7515C12.5361 16.7441 12.535 16.7367 12.5339 16.7293C12.5327 16.7219 12.5314 16.7145 12.53 16.7071C12.5286 16.6998 12.527 16.6925 12.5254 16.6852C12.5237 16.6779 12.5219 16.6706 12.52 16.6633C12.5181 16.6561 12.5162 16.6489 12.514 16.6417C12.5119 16.6345 12.5097 16.6274 12.5073 16.6203C12.505 16.6131 12.5025 16.6061 12.4999 16.599C12.4974 16.592 12.4947 16.585 12.4919 16.5781C12.4891 16.5711 12.4862 16.5642 12.4831 16.5574C12.4801 16.5505 12.477 16.5437 12.4737 16.537C12.4705 16.5302 12.4671 16.5235 12.4637 16.5169C12.4602 16.5103 12.4566 16.5037 12.453 16.4971C12.4493 16.4906 12.4455 16.4841 12.4416 16.4777C12.4378 16.4713 12.4338 16.465 12.4297 16.4587C12.4256 16.4524 12.4214 16.4462 12.4171 16.4401C12.4129 16.4339 12.4085 16.4279 12.404 16.4219C12.3995 16.4159 12.3949 16.4099 12.3903 16.4041C12.3856 16.3982 12.3808 16.3924 12.376 16.3868C12.3711 16.3811 12.3662 16.3754 12.3611 16.3699C12.3561 16.3643 12.3509 16.3589 12.3457 16.3535C12.3405 16.3481 12.3352 16.3428 12.3298 16.3376C12.3245 16.3324 12.319 16.3273 12.3134 16.3223C12.3079 16.3172 12.3022 16.3123 12.2965 16.3075C12.2908 16.3026 12.285 16.2979 12.2792 16.2932C12.2733 16.2885 12.2674 16.284 12.2614 16.2795C12.2554 16.275 12.2493 16.2707 12.2431 16.2664C12.237 16.2621 12.2308 16.2579 12.2245 16.2539C12.2182 16.2498 12.2119 16.2458 12.2054 16.242C12.199 16.2381 12.1926 16.2343 12.186 16.2307C12.1795 16.227 12.1729 16.2234 12.1663 16.22C12.1597 16.2166 12.1531 16.2134 12.1465 16.2103C12.1399 16.2071 12.1332 16.2041 12.1264 16.2012C12.1197 16.1983 12.1129 16.1955 12.1061 16.1929C12.0993 16.1902 12.0924 16.1876 12.0855 16.1852C12.0786 16.1828 12.0716 16.1804 12.0646 16.1782C12.0576 16.176 12.0506 16.1739 12.0435 16.172C12.0364 16.17 12.0293 16.1682 12.0222 16.1664C12.0151 16.1647 12.0079 16.1631 12.0007 16.1616C11.9936 16.1601 11.9863 16.1588 11.9791 16.1575C11.9719 16.1563 11.9646 16.1552 11.9574 16.1542C11.9501 16.1532 11.9428 16.1523 11.9355 16.1516C11.9282 16.1508 11.9209 16.1502 11.9136 16.1497C11.9063 16.1492 11.8989 16.1488 11.8916 16.1486C11.8843 16.1483 11.8769 16.1482 11.8696 16.1482C11.8623 16.1482 11.8549 16.1483 11.8476 16.1486C11.8403 16.1488 11.8329 16.1491 11.8256 16.1496C11.8183 16.1501 11.811 16.1508 11.8037 16.1515C11.7964 16.1522 11.7891 16.1531 11.7819 16.1541C11.7746 16.1551 11.7673 16.1562 11.7601 16.1574C11.7529 16.1587 11.7457 16.16 11.7385 16.1615C11.7313 16.1629 11.7241 16.1646 11.717 16.1663C11.7099 16.168 11.7028 16.1698 11.6957 16.1718C11.6886 16.1737 11.6816 16.1758 11.6746 16.178C11.6676 16.1802 11.6606 16.1825 11.6537 16.185C11.6468 16.1874 11.6399 16.1899 11.6331 16.1926C11.6263 16.1953 11.6195 16.1981 11.6127 16.201C11.606 16.2038 11.5993 16.2069 11.5926 16.21C11.586 16.2131 11.5794 16.2163 11.5729 16.2197C11.5664 16.223 11.5599 16.2265 11.5535 16.2301C11.5471 16.2336 11.5407 16.2373 11.5344 16.2411C11.5281 16.2448 11.5219 16.2487 11.5158 16.2527C11.5096 16.2567 11.5035 16.2608 11.4975 16.265L8.5125 18.3175L8.5125 14.8325L16.0413 16.895C17.01 17.1612 17.945 16.5225 18.0837 15.4925L19.9813 1.47749C20.1463 0.296244 19.2 -0.372506 18.1912 0.219994Z" stroke="currentColor" stroke-width="0.2"      fill="currentColor" >
</path>
</g>
<defs>
<clipPath id="clip-path-LWc8dOGBvWbtm2xrDoht2">
<path d="M0 20L20 20L20 0L0 0L0 20Z" fill="white"/>
</clipPath>
</defs>
</svg>
