<svg xmlns="http://www.w3.org/2000/svg" xmlns:xlink="http://www.w3.org/1999/xlink" width="20" height="20" viewBox="0 0 20 20" fill="none">
<path d="M8.75 18.418L8.75 19.9805L4.08203 19.9805C2.78762 19.9805 1.73828 18.9311 1.73828 17.6367L1.73828 2.36328C1.73828 1.06887 2.78762 0.0195312 4.08203 0.0195312L15.5469 0.0195312C16.8413 0.0195312 17.8906 1.06887 17.8906 2.36328L17.8906 10.9375L16.3281 10.9375L16.3281 2.36328C16.3281 1.93182 15.9783 1.58203 15.5469 1.58203L4.08203 1.58203C3.65057 1.58203 3.30078 1.93182 3.30078 2.36328L3.30078 17.6367C3.30078 18.0682 3.65057 18.418 4.08203 18.418L8.75 18.418ZM6.36719 5.69336C5.93572 5.69336 5.58594 5.34357 5.58594 4.91211C5.58594 4.48064 5.93572 4.13086 6.36719 4.13086L13.6083 4.13086C14.0397 4.13086 14.3895 4.48064 14.3895 4.91211C14.3895 5.34357 14.0397 5.69336 13.6083 5.69336L6.36719 5.69336ZM6.36719 9.15039C5.93572 9.15039 5.58594 8.80061 5.58594 8.36914C5.58594 7.93768 5.93572 7.58789 6.36719 7.58789L13.6083 7.58789C14.0397 7.58789 14.3895 7.93768 14.3895 8.36914C14.3895 8.80061 14.0397 9.15039 13.6083 9.15039L6.36719 9.15039ZM6.36719 12.6172C5.93572 12.6172 5.58594 12.2674 5.58594 11.8359C5.58594 11.4045 5.93572 11.0547 6.36719 11.0547L10.2734 11.0547C10.7049 11.0547 11.0547 11.4045 11.0547 11.8359C11.0547 12.2674 10.7049 12.6172 10.2734 12.6172L6.36719 12.6172ZM14.3292 12.9278C14.6439 12.6178 15.2085 12.6178 15.521 12.9278C15.646 13.0527 15.771 13.3003 15.771 13.4854C15.771 13.733 15.7085 13.9203 15.521 14.043L14.0146 15.5328L19.1832 15.5328C19.6229 15.5328 20 15.9053 20 16.3401C20 16.775 19.6229 17.1474 19.1832 17.1474L14.0146 17.1474L15.521 18.6372C15.646 18.7621 15.771 19.0097 15.771 19.1948C15.771 19.4424 15.7085 19.6297 15.521 19.7523C15.396 19.9375 15.1438 20 14.9564 20C14.7689 20 14.5167 19.9375 14.3917 19.7523L11.5039 16.8977C11.4414 16.8353 11.3789 16.7126 11.3164 16.6501C11.2539 16.465 11.2539 16.2153 11.3164 16.0301C11.3164 15.9677 11.3789 15.845 11.4414 15.7825L14.3292 12.9278Z"   fill="currentColor" >
</path>
</svg>
