<svg xmlns="http://www.w3.org/2000/svg" xmlns:xlink="http://www.w3.org/1999/xlink" width="24" height="24" viewBox="0 0 24 24" fill="none">
<path d="M11.625 16.5L8.625 16.5C8.2125 16.5 7.875 16.8375 7.875 17.25C7.875 17.6625 8.2125 18 8.625 18L11.625 18C12.0375 18 12.375 17.6625 12.375 17.25C12.375 16.8375 12.0375 16.5 11.625 16.5ZM15.375 12.75L8.625 12.75C8.2125 12.75 7.875 13.0875 7.875 13.5C7.875 13.9125 8.2125 14.25 8.625 14.25L15.375 14.25C15.7875 14.25 16.125 13.9125 16.125 13.5C16.125 13.0875 15.7875 12.75 15.375 12.75ZM15.375 9L8.625 9C8.2125 9 7.875 9.3375 7.875 9.75C7.875 10.1625 8.2125 10.5 8.625 10.5L15.375 10.5C15.7875 10.5 16.125 10.1625 16.125 9.75C16.125 9.3375 15.7875 9 15.375 9Z"   fill="currentColor" >
</path>
<path d="M16.875 3.375L16.35 3.375C16.05 2.5125 15.225 1.875 14.25 1.875L9.75 1.875C8.775 1.875 7.95 2.5125 7.65 3.375L7.125 3.375C5.0625 3.375 3.375 5.0625 3.375 7.125L3.375 18.375C3.375 20.4375 5.0625 22.125 7.125 22.125L16.875 22.125C18.9375 22.125 20.625 20.4375 20.625 18.375L20.625 7.125C20.625 5.0625 18.9375 3.375 16.875 3.375ZM9.75 3.375L14.25 3.375C14.6625 3.375 15 3.7125 15 4.125C15 4.5375 14.6625 4.875 14.25 4.875L9.75 4.875C9.3375 4.875 9 4.5375 9 4.125C9 3.7125 9.3375 3.375 9.75 3.375ZM19.125 18.375C19.125 19.6125 18.1125 20.625 16.875 20.625L7.125 20.625C5.8875 20.625 4.875 19.6125 4.875 18.375L4.875 7.125C4.875 5.8875 5.8875 4.875 7.125 4.875L7.65 4.875C7.95 5.7375 8.775 6.375 9.75 6.375L14.25 6.375C15.225 6.375 16.05 5.7375 16.35 4.875L16.875 4.875C18.1125 4.875 19.125 5.8875 19.125 7.125L19.125 18.375Z"   fill="currentColor" >
</path>
</svg>
