<svg xmlns="http://www.w3.org/2000/svg" xmlns:xlink="http://www.w3.org/1999/xlink" width="20" height="20" viewBox="0 0 20 20" fill="none">
<path d="M19.2679 4.26321L17.4066 6.12274L13.8166 2.64593L15.7329 0.73145C15.7618 0.702551 15.7914 0.674378 15.8217 0.64693C15.852 0.619482 15.883 0.592795 15.9146 0.566867C15.9462 0.54094 15.9785 0.515802 16.0113 0.491454C16.0442 0.467107 16.0776 0.443582 16.1116 0.420875C16.1456 0.398169 16.1802 0.37631 16.2153 0.355298C16.2504 0.334288 16.286 0.314148 16.322 0.29488C16.3581 0.275614 16.3947 0.257244 16.4316 0.239769C16.4686 0.222295 16.506 0.205737 16.5438 0.190098C16.5816 0.174457 16.6198 0.159753 16.6583 0.145984C16.6968 0.132215 16.7356 0.119398 16.7748 0.107534C16.8139 0.0956699 16.8533 0.0847725 16.893 0.0748418C16.9327 0.064911 16.9726 0.0559588 17.0127 0.0479853C17.0528 0.0400121 17.0932 0.0330267 17.1336 0.0270297C17.1741 0.0210327 17.2147 0.0160313 17.2554 0.0120253C17.2961 0.00801923 17.3369 0.00501353 17.3777 0.00300819C17.4186 0.00100273 17.4595 0 17.5004 0C17.5413 0 17.5822 0.00100273 17.6231 0.00300819C17.6639 0.00501353 17.7047 0.00801923 17.7454 0.0120253C17.7861 0.0160313 17.8267 0.0210327 17.8672 0.0270297C17.9076 0.0330267 17.9479 0.0400119 17.9881 0.0479853C18.0282 0.0559588 18.0681 0.064911 18.1078 0.0748418C18.1474 0.0847725 18.1868 0.0956699 18.226 0.107534C18.2651 0.119398 18.304 0.132215 18.3425 0.145984C18.381 0.159753 18.4192 0.174457 18.457 0.190098C18.4948 0.205737 18.5322 0.222295 18.5691 0.239769C18.6061 0.257244 18.6427 0.275614 18.6787 0.29488C18.7148 0.314148 18.7504 0.334288 18.7855 0.355298C18.8206 0.37631 18.8551 0.398169 18.8891 0.420875C18.9232 0.443582 18.9566 0.467107 18.9895 0.491454C19.0223 0.515802 19.0546 0.54094 19.0862 0.566867C19.1178 0.592795 19.1488 0.619482 19.1791 0.64693C19.2094 0.674378 19.239 0.702551 19.2679 0.73145C19.2969 0.760351 19.3251 0.789942 19.3525 0.820225C19.38 0.850508 19.4067 0.881445 19.4327 0.913038C19.4586 0.944632 19.4838 0.976843 19.5082 1.00967C19.5325 1.0425 19.556 1.0759 19.5788 1.10989C19.6015 1.14387 19.6234 1.17839 19.6443 1.21344C19.6655 1.2485 19.6856 1.28405 19.7048 1.3201C19.7242 1.35614 19.7426 1.39264 19.76 1.42958C19.7774 1.46653 19.7941 1.50388 19.8097 1.54164C19.8254 1.5794 19.8401 1.61752 19.854 1.656C19.8677 1.69449 19.8804 1.73328 19.8923 1.77239C19.9043 1.8115 19.9152 1.85088 19.9252 1.89053C19.9352 1.93018 19.944 1.97004 19.952 2.01011C19.9601 2.0502 19.9669 2.09046 19.973 2.13088C19.9791 2.17132 19.9839 2.21186 19.9881 2.25253C19.9922 2.29321 19.9951 2.33396 19.9971 2.37477C19.999 2.41561 20 2.45646 20 2.49733C20 2.5382 19.999 2.57905 19.9971 2.61986C19.9951 2.66069 19.9922 2.70143 19.9881 2.7421C19.9839 2.78278 19.9791 2.82333 19.973 2.86375C19.9669 2.90419 19.9601 2.94444 19.952 2.98453C19.944 3.02462 19.9352 3.06449 19.9252 3.10413C19.9152 3.14379 19.9043 3.18315 19.8923 3.22226C19.8804 3.26137 19.8677 3.30017 19.854 3.33865C19.8401 3.37714 19.8254 3.41525 19.8097 3.45301C19.7941 3.49077 19.7774 3.52813 19.76 3.56507C19.7426 3.60202 19.7242 3.63851 19.7048 3.67456C19.6856 3.71062 19.6655 3.74617 19.6443 3.78121C19.6234 3.81627 19.6015 3.85079 19.5788 3.88476C19.556 3.91874 19.5325 3.95216 19.5082 3.98498C19.4838 4.01781 19.4586 4.05002 19.4327 4.08162C19.4067 4.11322 19.38 4.14416 19.3525 4.17443C19.3251 4.20472 19.2969 4.23431 19.2679 4.26321ZM16.3166 7.21048L4.87261 18.6437L0 20L1.33628 15.1132L12.7378 3.72245L16.3166 7.21048Z"   fill="currentColor" >
</path>
</svg>
