<svg xmlns="http://www.w3.org/2000/svg" xmlns:xlink="http://www.w3.org/1999/xlink" width="20" height="20" viewBox="0 0 20 20" fill="none">
<path d="M9.77423 8.68182C9.3177 8.68182 8.86366 8.58999 8.50942 8.45559L1.52177 5.36454C1.06524 5.13831 0.763378 4.81801 0.763378 4.45515C0.763378 4.09228 1.01784 3.72718 1.52177 3.50095L8.55931 0.273267C8.96345 0.0918356 9.41998 0 9.92641 0C10.3829 0 10.837 0.0918356 11.1912 0.226229L18.1789 3.31728C18.6354 3.54351 18.9373 3.86381 18.9373 4.22668C18.9373 4.58954 18.6853 4.95464 18.1789 5.18087L11.1413 8.40856C10.7347 8.58999 10.2807 8.68182 9.77423 8.68182ZM2.02819 4.40811L9.01584 7.49916C9.21791 7.591 9.47237 7.63579 9.77423 7.63579C10.0786 7.63579 10.3829 7.591 10.585 7.49916L17.6724 4.27147L10.6848 1.18042C10.4827 1.08859 10.2283 1.04379 9.92641 1.04379C9.62205 1.04379 9.3177 1.08859 9.11563 1.18042L2.02819 4.40811ZM8.35475 20C8.10278 20 7.84832 19.9552 7.59636 19.8186L1.3172 16.8642C0.558812 16.5461 0 15.8181 0 15.2268L0 7.31773C0 6.77119 0.45653 6.36353 1.11264 6.36353C1.3646 6.36353 1.61906 6.40833 1.87102 6.54497L8.10278 9.49938C8.86117 9.81745 9.41998 10.5454 9.41998 11.1367L9.41998 19.0458C9.41998 19.5923 8.96345 20 8.35475 20ZM8.10278 18.9092C8.15268 18.954 8.20506 18.954 8.25496 18.954L8.25496 11.1367C8.25496 10.9553 8.00299 10.5902 7.59636 10.4088L1.3172 7.45436C1.26731 7.40956 1.21492 7.40956 1.16502 7.40956L1.16502 15.229C1.16502 15.4105 1.41948 15.7756 1.82362 15.957L8.10278 18.9092ZM11.6976 20C11.0889 20 10.6349 19.5901 10.6349 19.0458L10.6349 11.1367C10.6349 10.5454 11.1912 9.81745 11.9521 9.49938L18.1789 6.54497C18.4308 6.45313 18.6853 6.36353 18.9373 6.36353C19.546 6.36353 20 6.77343 20 7.31773L20 15.2268C20 15.8181 19.4437 16.5461 18.6828 16.8642L12.456 19.8186C12.1517 19.9552 11.9496 20 11.6976 20ZM18.6828 7.45436L12.456 10.4088C12.0519 10.5902 11.7974 10.9553 11.7974 11.1367L11.7974 18.9562C11.8473 18.9562 11.8997 18.9114 11.9496 18.9114L18.1764 15.957C18.5805 15.7756 18.835 15.4105 18.835 15.229L18.835 7.40956C18.7851 7.40956 18.7352 7.45436 18.6828 7.45436Z"   fill="currentColor" >
</path>
</svg>
