<svg xmlns="http://www.w3.org/2000/svg" xmlns:xlink="http://www.w3.org/1999/xlink" width="20" height="20" viewBox="0 0 20 20" fill="none">
<path d="M16.4263 17.395C16.4333 17.395 16.404 17.421 16.404 17.4985L16.404 17.395L16.4263 17.395ZM3.596 17.4985C3.596 17.421 3.56672 17.395 3.57367 17.395L3.596 17.395L3.596 17.4985ZM16.404 17.395L16.404 13.6325L17.4974 13.6325L17.4974 17.4985C17.4974 18.0232 17.0178 18.4485 16.4263 18.4485L3.57367 18.4485C2.98217 18.4485 2.50262 18.0232 2.50262 17.4985L2.50262 13.6325L3.596 13.6325L3.596 17.395L16.404 17.395L16.404 17.395ZM3.596 17.4985C3.596 17.421 3.56672 17.395 3.57367 17.395L3.596 17.395L3.596 17.4985ZM16.4263 17.395C16.4333 17.395 16.404 17.421 16.404 17.4985L16.404 17.395L16.4263 17.395ZM3.596 17.395L16.404 17.395L16.404 13.6325L17.4974 13.6325L17.4974 17.4985C17.4974 18.0232 17.0178 18.4485 16.4263 18.4485L3.57367 18.4485C2.98217 18.4485 2.50262 18.0232 2.50262 17.4985L2.50262 13.6325L3.596 13.6325L3.596 17.395L3.596 17.395ZM17.3991 10.8225C18.227 10.3587 18.7421 9.47521 18.75 8.51536C18.75 8.22898 18.7024 7.94259 18.6074 7.66027C18.5984 7.63236 18.5905 7.60415 18.5836 7.57566L16.8721 3.23165C16.7294 2.80425 16.3253 2.76384 16.0915 2.74767L3.96002 2.74767C3.38963 2.74767 3.27469 3.09062 3.23895 3.20345L1.4086 7.60786C1.40466 7.62804 1.40056 7.65234 1.39264 7.67251C1.29764 7.9547 1.25 8.24523 1.25 8.53148C1.25 9.50357 1.77304 10.395 2.61693 10.8507C2.94574 11.0283 3.35387 11.1209 3.82924 11.1209C4.7208 11.1169 5.54084 10.6531 6.01621 9.87472C6.05199 9.78995 6.11137 9.66488 6.22234 9.53999C6.52342 9.17284 7.29994 9.15273 7.64471 9.57222C7.73189 9.66894 7.78732 9.78593 7.81898 9.85443C8.29449 10.6369 9.10664 11.1047 9.99803 11.1089C10.8776 11.1047 11.6898 10.6368 12.1612 9.85845C12.201 9.77386 12.2564 9.66085 12.3555 9.54788C12.506 9.35837 12.7715 9.23736 13.0647 9.23736C13.4293 9.23736 13.6471 9.40269 13.7699 9.53986C13.8769 9.65685 13.9323 9.78187 13.968 9.85445C14.4473 10.6409 15.2636 11.1049 16.1629 11.1049C16.6503 11.1049 17.0663 11.008 17.3991 10.8225L17.3991 10.8225ZM0.1862 7.35986C0.198365 7.32093 0.211018 7.28218 0.22416 7.24357L0.2129 7.27597C0.19598 7.32486 0.19116 7.3397 0.1862 7.35986C0.18526 7.36367 0.206061 7.29636 0.248619 7.15788L2.04365 2.84999C2.27715 2.113 2.87691 1.53999 3.96002 1.53999L16.1806 1.54307C17.0556 1.60351 17.7438 1.90811 18.0403 2.802L19.752 7.14601L19.7998 7.29628C19.9312 7.68851 20 8.10083 20 8.52501C19.9887 9.908 19.2405 11.187 18.0259 11.8673C17.4873 12.1676 16.8558 12.3125 16.1629 12.3125C14.9458 12.3125 13.8319 11.7462 13.0729 10.7218C12.3633 11.7114 11.2317 12.3107 9.99197 12.3165C8.76338 12.3108 7.63898 11.7216 6.92453 10.7413C6.21002 11.7292 5.07174 12.3231 3.82924 12.3286C3.1534 12.3286 2.53527 12.1902 2.00705 11.9049C0.763439 11.2333 0 9.93642 0 8.53148C0 8.15195 0.05764 7.77116 0.1862 7.35986ZM5.01512 5.17826C5.01447 5.17826 5.01383 5.17831 5.0132 5.17845C5.01256 5.17857 5.01195 5.17874 5.01135 5.179C5.01074 5.17925 5.01018 5.17954 5.00965 5.17991C5.00912 5.18029 5.00861 5.1807 5.00816 5.18115C5.00769 5.18159 5.00728 5.1821 5.00693 5.18263C5.00656 5.18318 5.00627 5.18374 5.00602 5.18435C5.00576 5.18495 5.00559 5.18556 5.00547 5.18618C5.00533 5.18683 5.00527 5.18747 5.00527 5.18812L5.00527 6.3882C5.00527 6.39363 5.00969 6.39804 5.01512 6.39804L15.0059 6.39804C15.0114 6.39804 15.0158 6.39363 15.0158 6.3882L15.0158 5.18812C15.0158 5.18747 15.0157 5.18683 15.0156 5.18618C15.0155 5.18556 15.0153 5.18495 15.0151 5.18435C15.0148 5.18374 15.0145 5.18318 15.0141 5.18265C15.0138 5.1821 15.0134 5.18159 15.0129 5.18115C15.0125 5.1807 15.012 5.18029 15.0114 5.17991C15.0109 5.17956 15.0103 5.17927 15.0097 5.17902C15.0091 5.17876 15.0085 5.17859 15.0079 5.17845C15.0072 5.17833 15.0066 5.17827 15.0059 5.17827L5.01514 5.17827L5.01512 5.17826Z"   fill="currentColor" >
</path>
</svg>
