<svg xmlns="http://www.w3.org/2000/svg" xmlns:xlink="http://www.w3.org/1999/xlink" width="22" height="22" viewBox="0 0 22 22" fill="none">
<path d="M10.9074 2.29166L10.6443 2.29166L10.527 2.29303C8.22708 2.36636 6.43317 4.26386 6.43317 6.56378L6.43317 8.56073L6.435 8.70328L6.44325 8.85956C6.51842 9.95041 6.97033 10.9551 7.72017 11.7095L8.58138 12.5776L8.5942 12.5918C8.5965 12.5962 8.59822 12.6008 8.59938 12.6056C8.60054 12.6104 8.6011 12.6152 8.60108 12.6202L8.60017 12.7417L2.6258 15.6282L2.52908 15.6777C1.79942 16.0861 1.375 16.8208 1.375 17.6124L1.375 17.8154L1.37867 17.9547C1.44008 18.9337 2.24583 19.7083 3.23492 19.7083L18.3067 19.7083C19.3417 19.7083 20.1667 18.8632 20.1667 17.8365L20.1667 17.6124L20.1644 17.5079C20.1633 17.4834 20.1617 17.459 20.1598 17.4346C20.1579 17.4102 20.1555 17.3858 20.1528 17.3615C20.15 17.3372 20.1469 17.3129 20.1433 17.2887C20.1398 17.2645 20.1358 17.2403 20.1314 17.2162C20.1271 17.1921 20.1223 17.1681 20.1171 17.1442C20.1119 17.1203 20.1063 17.0965 20.1004 17.0727C20.0944 17.049 20.088 17.0253 20.0813 17.0018C20.0745 16.9783 20.0673 16.9549 20.0598 16.9316C20.0522 16.9083 20.0443 16.8852 20.036 16.8621C20.0276 16.8391 20.0189 16.8163 20.0098 16.7935C20.0007 16.7708 19.9913 16.7482 19.9814 16.7258C19.9716 16.7034 19.9613 16.6812 19.9507 16.6591C19.9401 16.637 19.9292 16.6152 19.9178 16.5935C19.9065 16.5718 19.8948 16.5503 19.8828 16.5289C19.8707 16.5077 19.8583 16.4866 19.8456 16.4657C19.8328 16.4447 19.8197 16.4241 19.8063 16.4036C19.7928 16.3832 19.779 16.363 19.7649 16.343C19.7508 16.323 19.7363 16.3032 19.7215 16.2837C19.7067 16.2642 19.6916 16.245 19.6762 16.226C19.6607 16.207 19.645 16.1882 19.6289 16.1698C19.6129 16.1513 19.5965 16.1331 19.5798 16.1152C19.5631 16.0973 19.5462 16.0796 19.5289 16.0623C19.5116 16.0449 19.4941 16.0279 19.4762 16.0111C19.4584 15.9943 19.4403 15.9779 19.4219 15.9617C19.4035 15.9456 19.3849 15.9297 19.3659 15.9142C19.347 15.8986 19.3279 15.8834 19.3084 15.8685C19.289 15.8536 19.2693 15.8391 19.2494 15.8249C19.2295 15.8106 19.2093 15.7967 19.1889 15.7832C19.1686 15.7696 19.1479 15.7564 19.1271 15.7436C19.1063 15.7307 19.0853 15.7182 19.064 15.706C19.0428 15.6939 19.0213 15.6821 18.9997 15.6706C18.9781 15.6592 18.9562 15.6481 18.9342 15.6374L12.9401 12.7417L12.9401 12.6202C12.9401 12.6042 12.9461 12.5904 12.953 12.5835L13.822 11.709C13.8474 11.6833 13.8726 11.6572 13.8974 11.6308C13.9223 11.6045 13.9468 11.5778 13.9709 11.5509C13.9951 11.5239 14.019 11.4967 14.0425 11.4691C14.066 11.4416 14.0892 11.4137 14.1121 11.3856C14.1349 11.3575 14.1574 11.3291 14.1795 11.3005C14.2017 11.2718 14.2235 11.2429 14.2449 11.2137C14.2664 11.1845 14.2874 11.1551 14.3082 11.1254C14.3289 11.0957 14.3492 11.0657 14.3692 11.0355C14.3892 11.0053 14.4088 10.9748 14.4281 10.9442C14.4473 10.9135 14.4662 10.8826 14.4847 10.8514C14.5032 10.8203 14.5213 10.7889 14.539 10.7573C14.5568 10.7258 14.5741 10.694 14.591 10.6619C14.608 10.6299 14.6245 10.5977 14.6407 10.5653C14.6569 10.5329 14.6726 10.5003 14.688 10.4675C14.7034 10.4347 14.7183 10.4017 14.7329 10.3686C14.7475 10.3354 14.7616 10.3021 14.7754 10.2685C14.7891 10.2351 14.8025 10.2014 14.8154 10.1675C14.8283 10.1337 14.8408 10.0997 14.8529 10.0656C14.865 10.0314 14.8767 9.99716 14.888 9.96274C14.8992 9.9283 14.9101 9.89375 14.9205 9.85908C14.9309 9.82438 14.9409 9.78957 14.9505 9.75464C14.96 9.71971 14.9692 9.68467 14.9779 9.6495C14.9866 9.61433 14.9949 9.57907 15.0027 9.54373C15.0106 9.50837 15.018 9.47292 15.025 9.43738C15.032 9.40185 15.0385 9.36622 15.0446 9.33052C15.0507 9.29483 15.0564 9.25906 15.0616 9.2232C15.0669 9.18737 15.0717 9.15147 15.0761 9.11552C15.0804 9.07958 15.0844 9.04357 15.0878 9.00752C15.0913 8.97147 15.0944 8.93538 15.097 8.89924C15.0996 8.86312 15.1018 8.82697 15.1035 8.79079C15.1052 8.75461 15.1065 8.71841 15.1073 8.68221C15.1082 8.646 15.1085 8.60978 15.1085 8.57356L15.1085 6.56331C15.1085 4.21206 13.2353 2.29166 10.9074 2.29166ZM10.9074 3.66666C12.468 3.66666 13.7335 4.96373 13.7335 6.56331L13.7335 8.57311C13.7335 8.59814 13.7333 8.62314 13.7327 8.64817C13.7322 8.6732 13.7313 8.69821 13.7301 8.7232C13.7289 8.74818 13.7275 8.77317 13.7257 8.79813C13.7239 8.8231 13.7218 8.84804 13.7194 8.87294C13.717 8.89784 13.7143 8.92272 13.7113 8.94758C13.7083 8.97242 13.705 8.99721 13.7014 9.02198C13.6978 9.04675 13.6939 9.07146 13.6897 9.09612C13.6855 9.12081 13.681 9.14541 13.6762 9.16996C13.6714 9.19452 13.6663 9.21904 13.6609 9.24346C13.6555 9.26789 13.6498 9.29225 13.6438 9.31655C13.6378 9.34085 13.6314 9.36506 13.6249 9.38919C13.6183 9.41334 13.6114 9.4374 13.6042 9.46138C13.597 9.48533 13.5895 9.50922 13.5818 9.53301C13.574 9.55679 13.566 9.58049 13.5576 9.60408C13.5493 9.62769 13.5407 9.65117 13.5317 9.67455C13.5228 9.69794 13.5136 9.72121 13.5042 9.74437C13.4947 9.76753 13.4849 9.79056 13.4748 9.81349C13.4648 9.83641 13.4545 9.85921 13.4439 9.88187C13.4333 9.90454 13.4224 9.92705 13.4113 9.94946C13.4001 9.97187 13.3887 9.99413 13.377 10.0163C13.3653 10.0384 13.3533 10.0604 13.3411 10.0822C13.3289 10.104 13.3164 10.1257 13.3036 10.1472C13.2909 10.1688 13.2778 10.1901 13.2645 10.2113C13.2513 10.2325 13.2377 10.2536 13.2239 10.2745C13.2101 10.2953 13.1961 10.316 13.1818 10.3366C13.1675 10.3571 13.1529 10.3775 13.1381 10.3976C13.1233 10.4178 13.1083 10.4378 13.093 10.4577C13.0777 10.4775 13.0622 10.4971 13.0464 10.5165C13.0307 10.536 13.0147 10.5552 12.9984 10.5742C12.9822 10.5933 12.9657 10.6121 12.949 10.6308C12.9323 10.6494 12.9154 10.6678 12.8983 10.6861C12.8811 10.7043 12.8637 10.7223 12.8462 10.7401L11.9767 11.6155C11.9604 11.6321 11.9445 11.6489 11.929 11.6662C11.9136 11.6835 11.8985 11.7012 11.8839 11.7192C11.8693 11.7372 11.8552 11.7556 11.8414 11.7743C11.8277 11.7931 11.8145 11.8121 11.8017 11.8315C11.7889 11.8508 11.7766 11.8705 11.7648 11.8904C11.7529 11.9104 11.7416 11.9307 11.7308 11.9512C11.7199 11.9717 11.7096 11.9925 11.6998 12.0135C11.69 12.0345 11.6806 12.0558 11.6719 12.0772C11.6631 12.0987 11.6548 12.1204 11.6471 12.1423C11.6394 12.1641 11.6322 12.1862 11.6255 12.2084C11.6189 12.2307 11.6128 12.253 11.6072 12.2756C11.6016 12.2981 11.5966 12.3207 11.5922 12.3435C11.5877 12.3663 11.5838 12.3891 11.5805 12.4121C11.5771 12.4351 11.5743 12.4581 11.5721 12.4812C11.5699 12.5043 11.5682 12.5274 11.5671 12.5506C11.566 12.5738 11.5655 12.597 11.5656 12.6202L11.5656 12.7453C11.5656 13.2701 11.8608 13.7477 12.3237 13.9709L18.3356 16.8749C18.6138 17.0097 18.7917 17.2966 18.7917 17.6128L18.7917 17.8365C18.7917 18.1115 18.5744 18.3333 18.3067 18.3333L3.23492 18.3333C3.22722 18.3332 3.21953 18.333 3.21185 18.3325C3.20416 18.3321 3.19649 18.3314 3.18884 18.3306C3.18118 18.3298 3.17354 18.3288 3.16594 18.3276C3.15833 18.3264 3.15075 18.3251 3.14321 18.3236C3.13566 18.3221 3.12815 18.3203 3.12069 18.3184C3.11323 18.3166 3.10581 18.3145 3.09843 18.3123C3.09107 18.31 3.08376 18.3076 3.0765 18.3051C3.06925 18.3025 3.06206 18.2997 3.05493 18.2968C3.04781 18.2939 3.04075 18.2908 3.03377 18.2876C3.02679 18.2843 3.01989 18.2809 3.01308 18.2773C3.00626 18.2738 2.99953 18.27 2.99288 18.2661C2.98624 18.2623 2.97968 18.2582 2.97322 18.254C2.96678 18.2498 2.96043 18.2455 2.95419 18.241C2.94793 18.2365 2.94178 18.2318 2.93575 18.227C2.92972 18.2223 2.92382 18.2173 2.91803 18.2123C2.91223 18.2072 2.90655 18.202 2.90099 18.1967C2.89543 18.1913 2.89001 18.1859 2.88473 18.1803C2.87943 18.1747 2.87427 18.169 2.86924 18.1632C2.86421 18.1573 2.85932 18.1514 2.85456 18.1453C2.84982 18.1393 2.84523 18.1331 2.84077 18.1268C2.83632 18.1205 2.83201 18.1141 2.82784 18.1077C2.82368 18.1012 2.81969 18.0946 2.81585 18.088C2.812 18.0813 2.80831 18.0745 2.80479 18.0677C2.80125 18.0608 2.79788 18.0539 2.79469 18.0469C2.79148 18.0399 2.78844 18.0328 2.78558 18.0257C2.78271 18.0186 2.78001 18.0114 2.77748 18.0041C2.77494 17.9968 2.77259 17.9895 2.77041 17.9821C2.76822 17.9747 2.76621 17.9673 2.76437 17.9598C2.76254 17.9523 2.76089 17.9448 2.75941 17.9373C2.75792 17.9297 2.75662 17.9221 2.7555 17.9145C2.75437 17.9069 2.75342 17.8993 2.75266 17.8916C2.75191 17.8839 2.75133 17.8763 2.75092 17.8686L2.75 17.6124C2.75 17.3144 2.90858 17.0408 3.16295 16.8974L3.22392 16.8662L9.218 13.9709C9.231 13.9645 9.24387 13.9579 9.25663 13.9511C9.26941 13.9444 9.28207 13.9374 9.29461 13.9302C9.30716 13.923 9.3196 13.9156 9.33191 13.908C9.34422 13.9004 9.3564 13.8926 9.36845 13.8846C9.38053 13.8766 9.39245 13.8684 9.40425 13.8601C9.41604 13.8517 9.42771 13.8432 9.43925 13.8344C9.45078 13.8257 9.46215 13.8168 9.47338 13.8076C9.48462 13.7985 9.49573 13.7893 9.50666 13.7798C9.5176 13.7703 9.52839 13.7607 9.53902 13.7509C9.54965 13.7411 9.56014 13.7311 9.57045 13.721C9.58076 13.7108 9.5909 13.7005 9.60089 13.69C9.61088 13.6796 9.62068 13.6689 9.63033 13.6582C9.63997 13.6474 9.64943 13.6364 9.65873 13.6254C9.66803 13.6143 9.67714 13.603 9.68606 13.5917C9.695 13.5803 9.70374 13.5688 9.71231 13.5571C9.72086 13.5454 9.72924 13.5336 9.73743 13.5217C9.74561 13.5098 9.75361 13.4977 9.7614 13.4856C9.7692 13.4734 9.77679 13.4611 9.7842 13.4486C9.79161 13.4362 9.79881 13.4237 9.80581 13.411C9.81282 13.3983 9.81961 13.3856 9.8262 13.3727C9.8328 13.3598 9.83918 13.3468 9.84537 13.3338C9.85153 13.3207 9.8575 13.3075 9.86326 13.2943C9.869 13.281 9.87454 13.2676 9.87987 13.2542C9.8852 13.2407 9.89031 13.2272 9.89519 13.2136C9.90009 13.2 9.90477 13.1863 9.90922 13.1725C9.91366 13.1587 9.9179 13.1449 9.92191 13.131C9.92593 13.1171 9.92971 13.1032 9.93328 13.0891C9.93682 13.0751 9.94018 13.061 9.94329 13.0469C9.94641 13.0328 9.94929 13.0186 9.95193 13.0044C9.95459 12.9902 9.95702 12.9759 9.95923 12.9616C9.96142 12.9473 9.9634 12.933 9.96514 12.9186C9.96688 12.9043 9.96838 12.8899 9.96967 12.8755L9.97517 12.7774L9.97608 12.6202C9.97608 12.2902 9.86333 11.9721 9.658 11.7196L9.58788 11.6394L8.6955 10.7406C8.67872 10.7236 8.66213 10.7064 8.64576 10.689C8.62937 10.6717 8.61319 10.6541 8.59723 10.6364C8.58125 10.6186 8.56548 10.6007 8.54992 10.5826C8.53437 10.5645 8.51903 10.5462 8.5039 10.5277C8.48878 10.5093 8.47387 10.4906 8.45917 10.4718C8.44448 10.453 8.43 10.434 8.41575 10.4148C8.40151 10.3957 8.38748 10.3764 8.37369 10.3569C8.35987 10.3374 8.34629 10.3178 8.33295 10.298C8.31961 10.2782 8.3065 10.2582 8.29363 10.2381C8.28077 10.218 8.26811 10.1978 8.25569 10.1774C8.2433 10.157 8.23112 10.1364 8.21919 10.1158C8.20727 10.0951 8.1956 10.0742 8.18415 10.0533C8.1727 10.0323 8.16151 10.0112 8.15055 9.99005C8.13961 9.96884 8.12891 9.94748 8.11845 9.92602C8.10799 9.90456 8.09778 9.88297 8.08784 9.86127C8.07789 9.83957 8.0682 9.81776 8.05875 9.79583C8.04931 9.77389 8.04012 9.75187 8.0312 9.72972C8.02229 9.70757 8.01361 9.68533 8.00519 9.66299C7.99679 9.64064 7.98864 9.61822 7.98076 9.59568C7.97287 9.57314 7.96525 9.55052 7.95788 9.52781C7.95051 9.5051 7.94342 9.48231 7.93661 9.45942C7.92978 9.43654 7.92322 9.4136 7.91693 9.39057C7.91063 9.36753 7.9046 9.34444 7.89886 9.32126C7.8931 9.29808 7.88762 9.27485 7.8824 9.25156C7.87718 9.22825 7.87224 9.2049 7.86758 9.18148C7.86292 9.15808 7.85851 9.13462 7.85439 9.1111C7.85028 9.08757 7.84644 9.06403 7.84285 9.04041C7.83928 9.0168 7.836 8.99317 7.83297 8.96947C7.82994 8.9458 7.82721 8.92208 7.82474 8.89834C7.82227 8.8746 7.82008 8.85081 7.81816 8.82701C7.81625 8.80323 7.8146 8.7794 7.81324 8.75557C7.81189 8.73175 7.81079 8.7079 7.81 8.68403L7.80817 8.56073L7.80817 6.56331C7.80817 4.99903 9.02045 3.71706 10.5458 3.66803L10.6443 3.66666L10.9074 3.66666Z"   fill="currentColor" >
</path>
<path d="M20.3958 12.375L20.3958 12.8333C20.3958 12.8408 20.3956 12.8483 20.3953 12.8558C20.3949 12.8633 20.3944 12.8708 20.3936 12.8783C20.3929 12.8857 20.3919 12.8932 20.3909 12.9006C20.3898 12.908 20.3885 12.9154 20.387 12.9227C20.3855 12.9301 20.3839 12.9374 20.3821 12.9447C20.3803 12.952 20.3783 12.9592 20.3761 12.9664C20.3739 12.9736 20.3716 12.9807 20.369 12.9877C20.3665 12.9948 20.3638 13.0018 20.3609 13.0087C20.3581 13.0157 20.355 13.0225 20.3518 13.0293C20.3486 13.0361 20.3452 13.0428 20.3417 13.0494C20.3382 13.056 20.3345 13.0625 20.3306 13.069C20.3268 13.0754 20.3227 13.0817 20.3186 13.088C20.3144 13.0942 20.3101 13.1003 20.3056 13.1064C20.3012 13.1124 20.2965 13.1183 20.2918 13.1241C20.287 13.1299 20.2821 13.1356 20.2771 13.1411C20.272 13.1467 20.2669 13.1521 20.2616 13.1574C20.2563 13.1627 20.2508 13.1679 20.2453 13.1729C20.2397 13.178 20.234 13.1829 20.2283 13.1876C20.2225 13.1924 20.2165 13.197 20.2105 13.2015C20.2045 13.2059 20.1984 13.2102 20.1921 13.2144C20.1859 13.2186 20.1796 13.2226 20.1731 13.2264C20.1667 13.2303 20.1602 13.234 20.1535 13.2376C20.1469 13.2411 20.1402 13.2445 20.1334 13.2477C20.1267 13.2509 20.1198 13.2539 20.1129 13.2568C20.1059 13.2596 20.099 13.2623 20.0919 13.2649C20.0848 13.2674 20.0777 13.2698 20.0705 13.2719C20.0634 13.2741 20.0561 13.2761 20.0489 13.2779C20.0416 13.2797 20.0343 13.2814 20.0269 13.2829C20.0195 13.2843 20.0121 13.2856 20.0047 13.2867C19.9973 13.2878 19.9899 13.2887 19.9824 13.2895C19.975 13.2902 19.9675 13.2908 19.96 13.2911C19.9525 13.2915 19.945 13.2917 19.9375 13.2917L18.1042 13.2917C18.0967 13.2917 18.0892 13.2915 18.0817 13.2911C18.0742 13.2908 18.0667 13.2902 18.0592 13.2895C18.0518 13.2887 18.0443 13.2878 18.0369 13.2867C18.0295 13.2856 18.0221 13.2843 18.0147 13.2829C18.0074 13.2814 18.0001 13.2797 17.9928 13.2779C17.9855 13.2761 17.9783 13.2741 17.9711 13.2719C17.9639 13.2698 17.9568 13.2674 17.9498 13.2649C17.9427 13.2623 17.9357 13.2596 17.9288 13.2568C17.9218 13.2539 17.915 13.2509 17.9082 13.2477C17.9014 13.2445 17.8947 13.2411 17.8881 13.2376C17.8815 13.234 17.875 13.2303 17.8685 13.2264C17.8621 13.2226 17.8558 13.2186 17.8495 13.2144C17.8433 13.2102 17.8371 13.2059 17.8311 13.2015C17.8251 13.197 17.8192 13.1924 17.8134 13.1876C17.8076 13.1829 17.8019 13.178 17.7964 13.1729C17.7908 13.1679 17.7854 13.1627 17.7801 13.1574C17.7748 13.1521 17.7696 13.1467 17.7646 13.1411C17.7595 13.1356 17.7546 13.1299 17.7499 13.1241C17.7451 13.1183 17.7405 13.1124 17.736 13.1064C17.7316 13.1003 17.7272 13.0942 17.7231 13.088C17.7189 13.0817 17.7149 13.0754 17.711 13.069C17.7072 13.0625 17.7035 13.056 17.6999 13.0494C17.6964 13.0428 17.693 13.0361 17.6898 13.0293C17.6866 13.0225 17.6836 13.0157 17.6807 13.0087C17.6778 13.0018 17.6751 12.9948 17.6726 12.9877C17.6701 12.9807 17.6677 12.9736 17.6656 12.9664C17.6634 12.9592 17.6614 12.952 17.6596 12.9447C17.6577 12.9374 17.6561 12.9301 17.6546 12.9227C17.6532 12.9154 17.6519 12.908 17.6508 12.9006C17.6497 12.8932 17.6488 12.8857 17.648 12.8783C17.6473 12.8708 17.6467 12.8633 17.6464 12.8558C17.646 12.8483 17.6458 12.8408 17.6458 12.8333L17.6458 12.375C17.6458 12.3675 17.646 12.36 17.6464 12.3525C17.6467 12.345 17.6473 12.3375 17.648 12.3301C17.6488 12.3226 17.6497 12.3152 17.6508 12.3078C17.6519 12.3003 17.6532 12.293 17.6546 12.2856C17.6561 12.2782 17.6577 12.2709 17.6596 12.2636C17.6614 12.2563 17.6634 12.2491 17.6656 12.2419C17.6677 12.2348 17.6701 12.2277 17.6726 12.2206C17.6751 12.2135 17.6778 12.2065 17.6807 12.1996C17.6836 12.1927 17.6866 12.1858 17.6898 12.179C17.693 12.1723 17.6964 12.1656 17.6999 12.159C17.7035 12.1523 17.7072 12.1458 17.711 12.1394C17.7149 12.1329 17.7189 12.1266 17.7231 12.1204C17.7272 12.1141 17.7316 12.108 17.736 12.102C17.7405 12.0959 17.7451 12.09 17.7499 12.0842C17.7546 12.0784 17.7595 12.0728 17.7646 12.0672C17.7696 12.0616 17.7748 12.0562 17.7801 12.0509C17.7854 12.0456 17.7908 12.0404 17.7964 12.0354C17.8019 12.0303 17.8076 12.0254 17.8134 12.0207C17.8192 12.016 17.8251 12.0113 17.8311 12.0069C17.8371 12.0024 17.8433 11.9981 17.8495 11.9939C17.8558 11.9897 17.8621 11.9857 17.8685 11.9819C17.875 11.978 17.8815 11.9743 17.8881 11.9708C17.8947 11.9672 17.9014 11.9639 17.9082 11.9607C17.915 11.9575 17.9218 11.9544 17.9288 11.9516C17.9357 11.9487 17.9427 11.946 17.9498 11.9435C17.9568 11.9409 17.9639 11.9386 17.9711 11.9364C17.9783 11.9342 17.9855 11.9322 17.9928 11.9304C18.0001 11.9286 18.0074 11.9269 18.0147 11.9255C18.0221 11.924 18.0295 11.9227 18.0369 11.9216C18.0443 11.9205 18.0518 11.9196 18.0592 11.9189C18.0667 11.9181 18.0742 11.9176 18.0817 11.9172C18.0892 11.9168 18.0967 11.9167 18.1042 11.9167L19.9375 11.9167C19.945 11.9167 19.9525 11.9168 19.96 11.9172C19.9675 11.9176 19.975 11.9181 19.9824 11.9189C19.9899 11.9196 19.9973 11.9205 20.0047 11.9216C20.0121 11.9227 20.0195 11.924 20.0269 11.9255C20.0343 11.9269 20.0416 11.9286 20.0489 11.9304C20.0561 11.9322 20.0634 11.9342 20.0705 11.9364C20.0777 11.9386 20.0848 11.9409 20.0919 11.9435C20.099 11.946 20.1059 11.9487 20.1129 11.9516C20.1198 11.9544 20.1267 11.9575 20.1334 11.9607C20.1402 11.9639 20.1469 11.9672 20.1536 11.9708C20.1602 11.9743 20.1667 11.978 20.1731 11.9819C20.1796 11.9857 20.1859 11.9897 20.1921 11.9939C20.1984 11.9981 20.2045 12.0024 20.2105 12.0069C20.2165 12.0113 20.2225 12.016 20.2283 12.0207C20.2341 12.0254 20.2397 12.0303 20.2453 12.0354C20.2509 12.0404 20.2563 12.0456 20.2616 12.0509C20.2669 12.0562 20.272 12.0616 20.2771 12.0672C20.2821 12.0728 20.287 12.0784 20.2918 12.0842C20.2965 12.09 20.3012 12.0959 20.3056 12.102C20.3101 12.108 20.3144 12.1141 20.3186 12.1204C20.3227 12.1266 20.3268 12.1329 20.3306 12.1394C20.3345 12.1458 20.3382 12.1523 20.3417 12.159C20.3452 12.1656 20.3486 12.1723 20.3518 12.179C20.355 12.1858 20.3581 12.1927 20.3609 12.1996C20.3638 12.2065 20.3665 12.2135 20.369 12.2206C20.3716 12.2277 20.3739 12.2348 20.3761 12.2419C20.3783 12.2491 20.3803 12.2564 20.3821 12.2636C20.3839 12.2709 20.3855 12.2782 20.387 12.2856C20.3885 12.293 20.3898 12.3003 20.3909 12.3078C20.3919 12.3152 20.3929 12.3226 20.3936 12.3301C20.3944 12.3375 20.3949 12.345 20.3953 12.3525C20.3956 12.36 20.3958 12.3675 20.3958 12.375ZM20.3958 9.85417L20.3958 10.3125C20.3958 10.32 20.3956 10.3275 20.3953 10.335C20.3949 10.3425 20.3944 10.35 20.3936 10.3574C20.3929 10.3649 20.3919 10.3723 20.3909 10.3797C20.3898 10.3872 20.3885 10.3945 20.387 10.4019C20.3855 10.4093 20.3839 10.4166 20.3821 10.4239C20.3803 10.4312 20.3783 10.4384 20.3761 10.4456C20.3739 10.4527 20.3716 10.4598 20.369 10.4669C20.3665 10.474 20.3638 10.481 20.3609 10.4879C20.3581 10.4948 20.355 10.5017 20.3518 10.5085C20.3486 10.5152 20.3452 10.522 20.3417 10.5285C20.3382 10.5352 20.3345 10.5417 20.3306 10.5481C20.3268 10.5546 20.3227 10.5609 20.3186 10.5671C20.3144 10.5734 20.3101 10.5795 20.3056 10.5855C20.3012 10.5916 20.2965 10.5975 20.2918 10.6033C20.287 10.6091 20.2821 10.6147 20.2771 10.6203C20.272 10.6259 20.2669 10.6313 20.2616 10.6366C20.2563 10.6419 20.2509 10.6471 20.2453 10.6521C20.2397 10.6572 20.2341 10.6621 20.2283 10.6668C20.2225 10.6715 20.2165 10.6762 20.2105 10.6806C20.2045 10.6851 20.1984 10.6894 20.1921 10.6936C20.1859 10.6978 20.1796 10.7018 20.1731 10.7056C20.1667 10.7095 20.1602 10.7132 20.1536 10.7167C20.1469 10.7203 20.1402 10.7236 20.1334 10.7268C20.1267 10.73 20.1198 10.7331 20.1129 10.7359C20.1059 10.7388 20.099 10.7415 20.0919 10.744C20.0848 10.7466 20.0777 10.7489 20.0705 10.7511C20.0634 10.7533 20.0561 10.7553 20.0489 10.7571C20.0416 10.7589 20.0343 10.7606 20.0269 10.762C20.0195 10.7635 20.0121 10.7648 20.0047 10.7659C19.9973 10.767 19.9899 10.7679 19.9824 10.7686C19.975 10.7694 19.9675 10.7699 19.96 10.7703C19.9525 10.7707 19.945 10.7708 19.9375 10.7708L16.7292 10.7708C16.7217 10.7708 16.7142 10.7707 16.7067 10.7703C16.6992 10.7699 16.6917 10.7694 16.6842 10.7686C16.6768 10.7679 16.6693 10.767 16.6619 10.7659C16.6545 10.7648 16.6471 10.7635 16.6397 10.762C16.6324 10.7606 16.6251 10.7589 16.6178 10.7571C16.6105 10.7553 16.6033 10.7533 16.5961 10.7511C16.5889 10.7489 16.5818 10.7466 16.5748 10.744C16.5677 10.7415 16.5607 10.7388 16.5538 10.7359C16.5468 10.7331 16.54 10.73 16.5332 10.7268C16.5264 10.7236 16.5197 10.7203 16.5131 10.7167C16.5065 10.7132 16.5 10.7095 16.4935 10.7056C16.4871 10.7018 16.4808 10.6978 16.4745 10.6936C16.4683 10.6894 16.4621 10.6851 16.4561 10.6806C16.4501 10.6762 16.4442 10.6715 16.4384 10.6668C16.4326 10.6621 16.4269 10.6572 16.4214 10.6521C16.4158 10.6471 16.4104 10.6419 16.4051 10.6366C16.3998 10.6313 16.3946 10.6259 16.3896 10.6203C16.3845 10.6147 16.3796 10.6091 16.3749 10.6033C16.3701 10.5975 16.3655 10.5916 16.361 10.5855C16.3566 10.5795 16.3522 10.5734 16.3481 10.5671C16.3439 10.5609 16.3399 10.5546 16.336 10.5481C16.3322 10.5417 16.3285 10.5352 16.3249 10.5285C16.3214 10.522 16.318 10.5152 16.3148 10.5085C16.3116 10.5017 16.3086 10.4948 16.3057 10.4879C16.3028 10.481 16.3001 10.474 16.2976 10.4669C16.2951 10.4598 16.2927 10.4527 16.2906 10.4456C16.2884 10.4384 16.2864 10.4312 16.2846 10.4239C16.2827 10.4166 16.2811 10.4093 16.2796 10.4019C16.2782 10.3945 16.2769 10.3872 16.2758 10.3797C16.2747 10.3723 16.2738 10.3649 16.273 10.3574C16.2723 10.35 16.2717 10.3425 16.2714 10.335C16.271 10.3275 16.2708 10.32 16.2708 10.3125L16.2708 9.85417C16.2708 9.84668 16.271 9.83918 16.2714 9.83168C16.2717 9.82418 16.2723 9.8167 16.273 9.80925C16.2738 9.80177 16.2747 9.79432 16.2758 9.78691C16.2769 9.77949 16.2782 9.7721 16.2796 9.76476C16.2811 9.75739 16.2827 9.75008 16.2846 9.7428C16.2864 9.73552 16.2884 9.7283 16.2906 9.72112C16.2927 9.71395 16.2951 9.70683 16.2976 9.69977C16.3001 9.6927 16.3028 9.68571 16.3057 9.67878C16.3086 9.67184 16.3116 9.66498 16.3148 9.65819C16.318 9.65143 16.3214 9.64472 16.3249 9.63811C16.3285 9.63149 16.3322 9.62496 16.336 9.61853C16.3399 9.61211 16.3439 9.60577 16.348 9.59952C16.3522 9.59329 16.3565 9.58717 16.361 9.58113C16.3655 9.57511 16.3701 9.56921 16.3749 9.5634C16.3796 9.5576 16.3845 9.55193 16.3896 9.54637C16.3946 9.5408 16.3998 9.53539 16.4051 9.53008C16.4104 9.52478 16.4158 9.5196 16.4214 9.51457C16.4269 9.50952 16.4326 9.50462 16.4384 9.49988C16.4442 9.49511 16.4501 9.49049 16.4561 9.48604C16.4621 9.48157 16.4683 9.47725 16.4745 9.47308C16.4808 9.46892 16.4871 9.4649 16.4935 9.46103C16.5 9.45719 16.5065 9.45349 16.5131 9.44995C16.5197 9.4464 16.5264 9.44305 16.5332 9.43985C16.54 9.43665 16.5468 9.4336 16.5538 9.43072C16.5607 9.42786 16.5677 9.42515 16.5748 9.42262C16.5818 9.4201 16.5889 9.41774 16.5961 9.41557C16.6033 9.4134 16.6105 9.4114 16.6178 9.40958C16.6251 9.40775 16.6324 9.4061 16.6397 9.40463C16.6471 9.40317 16.6545 9.40189 16.6619 9.40079C16.6693 9.39969 16.6768 9.39877 16.6842 9.39804C16.6917 9.39731 16.6992 9.39675 16.7067 9.39639C16.7142 9.39602 16.7217 9.39583 16.7292 9.39583L19.9375 9.39583C19.945 9.39583 19.9525 9.39602 19.96 9.39639C19.9675 9.39675 19.975 9.39731 19.9824 9.39804C19.9899 9.39877 19.9973 9.39969 20.0047 9.40079C20.0121 9.40189 20.0195 9.40317 20.0269 9.40463C20.0343 9.4061 20.0416 9.40775 20.0489 9.40958C20.0561 9.4114 20.0634 9.4134 20.0705 9.41557C20.0777 9.41774 20.0848 9.4201 20.0919 9.42262C20.099 9.42515 20.1059 9.42786 20.1129 9.43072C20.1198 9.4336 20.1267 9.43662 20.1334 9.43983C20.1402 9.44303 20.1469 9.4464 20.1535 9.44995C20.1602 9.45349 20.1667 9.45719 20.1731 9.46103C20.1796 9.4649 20.1859 9.46892 20.1921 9.47308C20.1984 9.47725 20.2045 9.48157 20.2105 9.48602C20.2165 9.49049 20.2225 9.49511 20.2283 9.49988C20.234 9.50462 20.2397 9.50952 20.2453 9.51457C20.2508 9.5196 20.2563 9.52478 20.2616 9.53008C20.2669 9.53539 20.272 9.5408 20.2771 9.54637C20.2821 9.55193 20.287 9.5576 20.2918 9.5634C20.2965 9.56921 20.3012 9.57511 20.3056 9.58113C20.3101 9.58717 20.3144 9.59329 20.3186 9.59952C20.3227 9.60577 20.3268 9.61211 20.3306 9.61853C20.3345 9.62496 20.3382 9.63149 20.3417 9.63811C20.3452 9.64472 20.3486 9.65143 20.3518 9.65819C20.355 9.66498 20.3581 9.67184 20.3609 9.67878C20.3638 9.68571 20.3665 9.6927 20.369 9.69977C20.3716 9.70683 20.3739 9.71395 20.3761 9.72112C20.3783 9.7283 20.3803 9.73552 20.3821 9.7428C20.3839 9.75008 20.3855 9.75739 20.387 9.76476C20.3885 9.7721 20.3898 9.77949 20.3909 9.78691C20.3919 9.79432 20.3929 9.80177 20.3936 9.80925C20.3944 9.8167 20.3949 9.82418 20.3953 9.83168C20.3956 9.83918 20.3958 9.84668 20.3958 9.85417ZM20.3958 7.33333L20.3958 7.79167C20.3958 7.79917 20.3956 7.80665 20.3953 7.81415C20.3949 7.82165 20.3944 7.82914 20.3936 7.8366C20.3929 7.84406 20.3919 7.8515 20.3909 7.85892C20.3898 7.86634 20.3885 7.87373 20.387 7.88109C20.3855 7.88844 20.3839 7.89575 20.3821 7.90303C20.3803 7.9103 20.3783 7.91753 20.3761 7.92471C20.3739 7.9319 20.3716 7.93902 20.369 7.94608C20.3665 7.95314 20.3638 7.96014 20.3609 7.96707C20.3581 7.97399 20.355 7.98084 20.3518 7.98763C20.3486 7.99441 20.3452 8.0011 20.3417 8.00772C20.3382 8.01434 20.3345 8.02086 20.3306 8.02729C20.3268 8.03372 20.3227 8.04006 20.3186 8.04631C20.3144 8.05254 20.3101 8.05867 20.3056 8.0647C20.3012 8.07073 20.2965 8.07664 20.2918 8.08242C20.287 8.08822 20.2821 8.0939 20.2771 8.09946C20.272 8.10502 20.2669 8.11045 20.2616 8.11577C20.2563 8.12107 20.2509 8.12624 20.2453 8.13128C20.2397 8.1363 20.234 8.1412 20.2283 8.14597C20.2225 8.15073 20.2165 8.15534 20.2105 8.15981C20.2045 8.16428 20.1984 8.1686 20.1921 8.17276C20.1859 8.17693 20.1796 8.18094 20.1731 8.1848C20.1667 8.18865 20.1602 8.19234 20.1535 8.19588C20.1469 8.19942 20.1402 8.20279 20.1334 8.206C20.1267 8.20921 20.1198 8.21225 20.1129 8.21511C20.1059 8.21799 20.099 8.22069 20.0919 8.22321C20.0848 8.22573 20.0777 8.22808 20.0705 8.23026C20.0634 8.23243 20.0561 8.23444 20.0489 8.23627C20.0416 8.23809 20.0343 8.23973 20.0269 8.24119C20.0195 8.24265 20.0121 8.24393 20.0047 8.24504C19.9973 8.24614 19.9899 8.24706 19.9824 8.24779C19.975 8.24853 19.9675 8.24908 19.96 8.24944C19.9525 8.24981 19.945 8.25 19.9375 8.25L16.7292 8.25C16.7217 8.25 16.7142 8.24981 16.7067 8.24944C16.6992 8.24908 16.6917 8.24853 16.6842 8.24779C16.6768 8.24706 16.6693 8.24614 16.6619 8.24504C16.6545 8.24393 16.6471 8.24265 16.6397 8.24119C16.6324 8.23973 16.6251 8.23809 16.6178 8.23627C16.6105 8.23444 16.6033 8.23243 16.5961 8.23026C16.5889 8.22808 16.5818 8.22573 16.5748 8.22321C16.5677 8.22069 16.5607 8.21799 16.5538 8.21511C16.5468 8.21225 16.54 8.20921 16.5332 8.206C16.5264 8.20279 16.5197 8.19942 16.5131 8.19588C16.5065 8.19234 16.5 8.18865 16.4935 8.1848C16.4871 8.18094 16.4808 8.17693 16.4745 8.17276C16.4683 8.1686 16.4621 8.16428 16.4561 8.15981C16.4501 8.15534 16.4442 8.15073 16.4384 8.14597C16.4326 8.1412 16.4269 8.1363 16.4214 8.13128C16.4158 8.12624 16.4104 8.12107 16.4051 8.11577C16.3998 8.11045 16.3946 8.10502 16.3896 8.09946C16.3845 8.0939 16.3796 8.08822 16.3749 8.08242C16.3701 8.07664 16.3655 8.07073 16.361 8.0647C16.3566 8.05867 16.3522 8.05254 16.3481 8.04631C16.3439 8.04006 16.3399 8.03372 16.336 8.02729C16.3322 8.02086 16.3285 8.01434 16.3249 8.00772C16.3214 8.0011 16.318 7.99441 16.3148 7.98763C16.3116 7.98084 16.3086 7.97399 16.3057 7.96707C16.3028 7.96014 16.3001 7.95314 16.2976 7.94608C16.2951 7.93902 16.2927 7.9319 16.2906 7.92471C16.2884 7.91753 16.2864 7.9103 16.2846 7.90303C16.2827 7.89575 16.2811 7.88844 16.2796 7.88109C16.2782 7.87373 16.2769 7.86634 16.2758 7.85892C16.2747 7.8515 16.2738 7.84406 16.273 7.8366C16.2723 7.82914 16.2717 7.82165 16.2714 7.81415C16.271 7.80665 16.2708 7.79917 16.2708 7.79167L16.2708 7.33333C16.2708 7.32583 16.271 7.31835 16.2714 7.31085C16.2717 7.30336 16.2723 7.29588 16.273 7.2884C16.2738 7.28094 16.2747 7.2735 16.2758 7.26608C16.2769 7.25866 16.2782 7.25127 16.2796 7.24391C16.2811 7.23656 16.2827 7.22925 16.2846 7.22197C16.2864 7.2147 16.2884 7.20747 16.2906 7.20029C16.2927 7.1931 16.2951 7.18598 16.2976 7.17892C16.3001 7.17186 16.3028 7.16486 16.3057 7.15793C16.3086 7.15101 16.3116 7.14416 16.3148 7.13737C16.318 7.13059 16.3214 7.1239 16.3249 7.11728C16.3285 7.11066 16.3322 7.10414 16.336 7.09771C16.3399 7.09128 16.3439 7.08494 16.3481 7.07869C16.3522 7.07246 16.3566 7.06633 16.361 7.0603C16.3655 7.05427 16.3701 7.04836 16.3749 7.04258C16.3796 7.03678 16.3845 7.0311 16.3896 7.02554C16.3946 7.01998 16.3998 7.01455 16.4051 7.00923C16.4104 7.00393 16.4158 6.99876 16.4214 6.99372C16.4269 6.9887 16.4326 6.9838 16.4384 6.97903C16.4442 6.97427 16.4501 6.96966 16.4561 6.96519C16.4621 6.96072 16.4683 6.9564 16.4745 6.95224C16.4808 6.94807 16.4871 6.94406 16.4935 6.94021C16.5 6.93635 16.5065 6.93266 16.5131 6.92912C16.5197 6.92558 16.5264 6.92221 16.5332 6.919C16.54 6.91579 16.5468 6.91276 16.5538 6.90989C16.5607 6.90701 16.5677 6.90431 16.5748 6.90179C16.5818 6.89927 16.5889 6.89692 16.5961 6.89474C16.6033 6.89257 16.6105 6.89056 16.6178 6.88873C16.6251 6.88691 16.6324 6.88527 16.6397 6.88381C16.6471 6.88235 16.6545 6.88107 16.6619 6.87996C16.6693 6.87886 16.6768 6.87794 16.6842 6.87721C16.6917 6.87647 16.6992 6.87592 16.7067 6.87556C16.7142 6.87519 16.7217 6.875 16.7292 6.875L19.9375 6.875C19.945 6.875 19.9525 6.87519 19.96 6.87556C19.9675 6.87592 19.975 6.87647 19.9824 6.87721C19.9899 6.87794 19.9973 6.87886 20.0047 6.87996C20.0121 6.88107 20.0195 6.88235 20.0269 6.88381C20.0343 6.88527 20.0416 6.88691 20.0489 6.88873C20.0561 6.89056 20.0634 6.89257 20.0705 6.89474C20.0777 6.89692 20.0848 6.89927 20.0919 6.90179C20.099 6.90431 20.1059 6.90701 20.1129 6.90989C20.1198 6.91276 20.1267 6.91579 20.1334 6.919C20.1402 6.92221 20.1469 6.92558 20.1535 6.92912C20.1602 6.93266 20.1667 6.93635 20.1731 6.94021C20.1796 6.94406 20.1859 6.94807 20.1921 6.95224C20.1984 6.9564 20.2045 6.96072 20.2105 6.96519C20.2165 6.96966 20.2225 6.97427 20.2283 6.97903C20.2341 6.9838 20.2397 6.9887 20.2453 6.99372C20.2509 6.99876 20.2563 7.00393 20.2616 7.00923C20.2669 7.01455 20.272 7.01998 20.2771 7.02554C20.2821 7.0311 20.287 7.03678 20.2918 7.04258C20.2965 7.04836 20.3012 7.05427 20.3056 7.0603C20.3101 7.06633 20.3144 7.07246 20.3186 7.07869C20.3227 7.08494 20.3268 7.09128 20.3306 7.09771C20.3345 7.10414 20.3382 7.11066 20.3417 7.11728C20.3452 7.1239 20.3486 7.13059 20.3518 7.13737C20.355 7.14416 20.3581 7.15101 20.3609 7.15793C20.3638 7.16486 20.3665 7.17186 20.369 7.17892C20.3716 7.18598 20.3739 7.1931 20.3761 7.20029C20.3783 7.20747 20.3803 7.2147 20.3821 7.22197C20.3839 7.22925 20.3855 7.23656 20.387 7.24391C20.3885 7.25127 20.3898 7.25866 20.3909 7.26608C20.3919 7.2735 20.3929 7.28094 20.3936 7.2884C20.3944 7.29586 20.3949 7.30335 20.3953 7.31085C20.3956 7.31835 20.3958 7.32583 20.3958 7.33333Z"   fill="currentColor" >
</path>
</svg>
