<svg xmlns="http://www.w3.org/2000/svg" xmlns:xlink="http://www.w3.org/1999/xlink" width="20" height="20" viewBox="0 0 20 20" fill="none">
<path d="M18.8392 18.4795C18.8392 18.4875 18.8392 18.4955 18.8392 18.5036C18.8392 18.5103 18.8392 18.5183 18.8392 18.5264C18.8392 18.5331 18.8392 18.5411 18.8392 18.5491C18.8392 18.5558 18.8392 18.5639 18.8392 18.5719C18.8259 18.5786 18.8259 18.5866 18.8259 18.5933C18.8259 18.6014 18.8259 18.6081 18.8259 18.6161C18.8259 18.6228 18.8125 18.6309 18.8125 18.6376C18.8125 18.6456 18.8125 18.6523 18.7992 18.659C18.7992 18.6657 18.7992 18.6737 18.7992 18.6804C18.7992 18.6871 18.7859 18.6938 18.7859 18.7005C18.7859 18.7072 18.7724 18.7139 18.7724 18.7206C18.7724 18.7273 18.7724 18.734 18.759 18.7394C18.759 18.7461 18.759 18.7528 18.7457 18.7581C18.7457 18.7648 18.7457 18.7715 18.7324 18.7769C18.7324 18.7822 18.719 18.7889 18.719 18.7943C18.719 18.7997 18.7057 18.805 18.7057 18.8104C18.6925 18.8157 18.6925 18.8211 18.6925 18.8264C18.6791 18.8318 18.6791 18.8372 18.6658 18.8412C18.6658 18.8465 18.6524 18.8506 18.6524 18.8559C18.6391 18.8599 18.6391 18.864 18.6391 18.868C18.6257 18.8733 18.6257 18.8774 18.6124 18.8814C18.6124 18.8854 18.5989 18.8881 18.5989 18.8921C18.5856 18.8961 18.5856 18.8988 18.5722 18.9028C18.5722 18.9055 18.5589 18.9082 18.5456 18.9122C18.5456 18.9149 18.5322 18.9175 18.5322 18.9202C18.519 18.9229 18.519 18.9242 18.5057 18.9269C18.5057 18.9296 18.4923 18.9309 18.4923 18.9336C18.479 18.935 18.4656 18.9363 18.4656 18.9376C18.4523 18.939 18.4523 18.9403 18.4388 18.9417C18.4388 18.943 18.4255 18.9443 18.4121 18.9443C18.4121 18.9457 18.3988 18.9457 18.3988 18.9457C18.3855 18.947 18.3855 18.947 18.3721 18.947L1.50767 18.947C1.50767 18.947 1.49433 18.947 1.49433 18.9457C1.48097 18.9457 1.46762 18.9457 1.46762 18.9443C1.45426 18.943 1.45426 18.943 1.44091 18.9417C1.42755 18.9403 1.42755 18.939 1.4142 18.9376C1.4142 18.9363 1.40084 18.9336 1.40084 18.9323C1.38749 18.9309 1.38749 18.9283 1.37413 18.9256C1.36077 18.9242 1.36077 18.9216 1.34758 18.9189C1.34758 18.9162 1.33422 18.9135 1.33422 18.9108C1.32087 18.9068 1.32087 18.9041 1.30751 18.9015C1.30751 18.8974 1.29416 18.8948 1.29416 18.8907C1.2808 18.8867 1.2808 18.8827 1.26745 18.8787C1.26745 18.8747 1.25409 18.8707 1.25409 18.8666C1.24074 18.8626 1.24074 18.8586 1.22738 18.8532C1.22738 18.8492 1.21403 18.8439 1.21403 18.8385C1.20067 18.8345 1.20067 18.8291 1.20067 18.8238C1.18732 18.8184 1.18732 18.813 1.17412 18.8077C1.17412 18.8023 1.17412 18.797 1.16077 18.7916C1.16077 18.7849 1.14741 18.7796 1.14741 18.7742C1.14741 18.7675 1.13406 18.7621 1.13406 18.7554C1.13406 18.7487 1.1207 18.7434 1.1207 18.7367C1.1207 18.73 1.10735 18.7233 1.10735 18.7166C1.10735 18.7099 1.09399 18.7032 1.09399 18.6965C1.09399 18.6898 1.09399 18.6831 1.08064 18.6764C1.08064 18.6697 1.08064 18.6617 1.08064 18.655C1.08064 18.6483 1.06728 18.6402 1.06728 18.6335C1.06728 18.6268 1.06728 18.6188 1.06728 18.6121C1.05393 18.6041 1.05393 18.5974 1.05393 18.5893C1.05393 18.5813 1.05393 18.5746 1.05393 18.5665C1.05393 18.5585 1.05393 18.5518 1.04057 18.5438C1.04057 18.5357 1.04057 18.529 1.04057 18.521C1.04057 18.513 1.04057 18.5049 1.04057 18.4982C1.04057 18.4902 1.04057 18.4821 1.04057 18.4741L1.04057 1.52455C1.04057 1.51651 1.04057 1.50981 1.04057 1.50178C1.04057 1.49375 1.04057 1.48569 1.04057 1.479C1.04057 1.47098 1.04057 1.46292 1.04057 1.45489C1.05393 1.44817 1.05393 1.44015 1.05393 1.43211C1.05393 1.42541 1.05393 1.41738 1.05393 1.41066C1.05393 1.40264 1.05393 1.3946 1.06728 1.3879C1.06728 1.37986 1.06728 1.37315 1.06728 1.36647C1.06728 1.35844 1.08064 1.35173 1.08064 1.34371C1.08064 1.337 1.08064 1.33029 1.08064 1.32361C1.09399 1.31555 1.09399 1.30887 1.09399 1.30216C1.09399 1.29546 1.10735 1.28877 1.10735 1.28207C1.10735 1.27536 1.1207 1.26868 1.1207 1.2633C1.1207 1.25662 1.13406 1.24991 1.13406 1.24321C1.13406 1.23785 1.14741 1.23117 1.14741 1.22579C1.14741 1.21911 1.16077 1.21375 1.16077 1.20838C1.17412 1.20302 1.17412 1.19634 1.17412 1.19098C1.18732 1.18561 1.18732 1.18025 1.20067 1.17489C1.20067 1.16954 1.20067 1.16551 1.21403 1.16015C1.21403 1.1548 1.22738 1.15077 1.22738 1.14542C1.24074 1.14141 1.24074 1.13738 1.25409 1.13203C1.25409 1.128 1.26745 1.12399 1.26745 1.11997C1.2808 1.11594 1.2808 1.11193 1.29416 1.10925C1.29416 1.10523 1.30751 1.10122 1.30751 1.09854C1.32087 1.09452 1.32087 1.09184 1.33422 1.08916C1.33422 1.08648 1.34758 1.0838 1.34758 1.08113C1.36077 1.07843 1.36077 1.07575 1.37413 1.07307C1.38749 1.07039 1.38749 1.06907 1.40084 1.06639C1.40084 1.06504 1.4142 1.06371 1.4142 1.06236C1.42755 1.06103 1.42755 1.05968 1.44091 1.05833C1.45426 1.057 1.45426 1.05566 1.46762 1.05566C1.46762 1.05433 1.48097 1.05298 1.49433 1.05298L1.50767 1.05298L18.3721 1.05298C18.6391 1.05298 18.8392 1.2633 18.8392 1.51919L18.8392 5.26358L19.8931 5.26358L19.8931 1.51919C19.8931 1.49508 19.8931 1.46962 19.8931 1.44417C19.8931 1.42005 19.8798 1.3946 19.8798 1.37047C19.8798 1.34503 19.8798 1.32091 19.8664 1.29681C19.8664 1.27136 19.8664 1.24724 19.8664 1.22311C19.8532 1.19766 19.8532 1.17356 19.8399 1.14944C19.8399 1.12532 19.8266 1.10122 19.8266 1.07843C19.8132 1.05433 19.8132 1.03021 19.7999 1.00743C19.7865 0.983313 19.7865 0.96054 19.773 0.937768C19.7597 0.913667 19.7597 0.890874 19.7464 0.869451C19.733 0.84668 19.7197 0.823906 19.7063 0.802464C19.6931 0.781021 19.6798 0.758248 19.6664 0.736825C19.6664 0.716731 19.6531 0.695287 19.6398 0.673864C19.6131 0.653771 19.5996 0.633675 19.5863 0.613562C19.5729 0.593466 19.5596 0.573373 19.5462 0.554627C19.5329 0.535862 19.5063 0.517117 19.493 0.498351C19.4797 0.479606 19.4663 0.462189 19.4395 0.443424C19.4262 0.426007 19.4128 0.40994 19.3861 0.392523C19.3728 0.376457 19.3596 0.360368 19.3329 0.344302C19.3195 0.328214 19.2929 0.313476 19.2795 0.298757C19.2527 0.28267 19.2394 0.26928 19.2127 0.25587C19.1993 0.241132 19.1728 0.227742 19.1461 0.215681C19.1328 0.202292 19.1059 0.190231 19.0926 0.178171C19.0659 0.167459 19.0392 0.155398 19.026 0.144688C18.9993 0.133975 18.9726 0.124593 18.9593 0.11521C18.9325 0.105827 18.9058 0.0964649 18.8791 0.0884109C18.8658 0.0803773 18.8392 0.0723436 18.8125 0.06431C18.7859 0.0576051 18.759 0.0509001 18.7457 0.0455444C18.719 0.0388599 18.6925 0.0334837 18.6658 0.0294771C18.6391 0.0241214 18.6257 0.0200943 18.5989 0.0160673C18.5722 0.0120607 18.5456 0.00938279 18.519 0.00670491C18.4923 0.00535575 18.4656 0.00267788 18.4523 0.00134916C18.4255 0 18.3988 0 18.3721 0L1.50767 0C1.48097 0 1.46762 0 1.44091 0.00134916C1.4142 0.00267788 1.38749 0.00535575 1.36077 0.00803363C1.33422 0.00938279 1.30751 0.0133894 1.29416 0.0160673C1.26745 0.0200943 1.24074 0.0241214 1.21403 0.0294771C1.18732 0.0348329 1.16077 0.0401886 1.14741 0.0455444C1.1207 0.0522493 1.09399 0.0589541 1.06728 0.0656387C1.04057 0.0736723 1.02721 0.0817263 1.00067 0.0897599C0.973956 0.0977936 0.947246 0.107176 0.933891 0.116559C0.907181 0.125921 0.88047 0.136653 0.867114 0.147366C0.840567 0.158076 0.813856 0.168808 0.800502 0.180849C0.773791 0.192909 0.747081 0.20497 0.733725 0.217031C0.707014 0.23042 0.693658 0.24383 0.667111 0.257219C0.653756 0.271958 0.627046 0.285347 0.61369 0.300086C0.586979 0.314825 0.573625 0.330892 0.546914 0.34698C0.533558 0.363046 0.507011 0.379135 0.493656 0.395201C0.4803 0.412618 0.45359 0.430034 0.440235 0.447451C0.426879 0.464867 0.400169 0.482284 0.386814 0.501029C0.373458 0.519794 0.360103 0.53854 0.333556 0.557305C0.3202 0.5774 0.306845 0.596165 0.29349 0.61626C0.280135 0.636353 0.266779 0.657776 0.253424 0.677871C0.240069 0.699314 0.226714 0.719409 0.213358 0.740832C0.200003 0.762275 0.186648 0.783719 0.173456 0.806491C0.1601 0.827913 0.146744 0.850687 0.13339 0.873458C0.13339 0.89625 0.120034 0.919023 0.106679 0.941795C0.106679 0.964567 0.0933239 0.98734 0.0799686 1.01146C0.0799686 1.03423 0.0666135 1.05833 0.0532582 1.08246C0.0532582 1.10658 0.0399029 1.13068 0.0399029 1.1548C0.0399029 1.17892 0.0265477 1.20302 0.0265477 1.22714C0.0133553 1.25126 0.0133553 1.27671 0.0133553 1.30081C0.0133553 1.32628 0 1.35039 0 1.37583C0 1.39996 0 1.42541 0 1.44953C0 1.47498 0 1.4991 0 1.52455L0 18.4741C0 18.4996 0 18.525 0 18.5491C0 18.5746 0 18.5987 0 18.6242C0 18.6483 0.0133553 18.6737 0.0133553 18.6978C0.0133553 18.7233 0.0133553 18.7474 0.0265477 18.7715C0.0265477 18.797 0.0399029 18.8211 0.0399029 18.8452C0.0399029 18.8693 0.0532582 18.8934 0.0532582 18.9175C0.0666135 18.9403 0.0799686 18.9644 0.0799686 18.9885C0.0933239 19.0113 0.106679 19.0354 0.106679 19.0582C0.120034 19.081 0.13339 19.1038 0.13339 19.1265C0.146744 19.1493 0.1601 19.1707 0.173456 19.1935C0.186648 19.215 0.200003 19.2364 0.213358 19.2578C0.226714 19.2793 0.240069 19.3007 0.253424 19.3208C0.266779 19.3422 0.280135 19.3623 0.29349 19.3824C0.306845 19.4025 0.3202 19.4226 0.333556 19.4414C0.360103 19.4615 0.373458 19.4802 0.386814 19.4976C0.400169 19.5164 0.426879 19.5351 0.440235 19.5525C0.45359 19.57 0.4803 19.5874 0.493656 19.6035C0.507011 19.6209 0.533558 19.6369 0.546914 19.653C0.573625 19.6691 0.586979 19.6838 0.61369 19.6986C0.627046 19.7133 0.653756 19.728 0.667111 19.7414C0.693658 19.7562 0.707014 19.7696 0.733725 19.7816C0.747081 19.795 0.773791 19.8071 0.800502 19.8191C0.813856 19.8312 0.840567 19.8419 0.867114 19.8526C0.88047 19.8634 0.907181 19.8727 0.933891 19.8834C0.947246 19.8928 0.973956 19.9009 1.00067 19.9102C1.02721 19.9183 1.04057 19.9263 1.06728 19.933C1.09399 19.9411 1.1207 19.9478 1.14741 19.9531C1.16077 19.9598 1.18732 19.9652 1.21403 19.9692C1.24074 19.9745 1.26745 19.9786 1.29416 19.9826C1.30751 19.9866 1.33422 19.9893 1.36077 19.992C1.38749 19.9946 1.4142 19.996 1.44091 19.9973C1.46762 19.9987 1.48097 20 1.50767 20L18.3721 20C18.3988 20 18.4255 19.9987 18.4523 19.9973C18.4656 19.996 18.4923 19.9946 18.519 19.992C18.5456 19.9893 18.5722 19.9866 18.5989 19.9826C18.6257 19.9799 18.6391 19.9759 18.6658 19.9705C18.6925 19.9652 18.719 19.9598 18.7457 19.9545C18.759 19.9478 18.7859 19.9411 18.8125 19.9344C18.8392 19.9277 18.8658 19.9196 18.8791 19.9102C18.9058 19.9022 18.9325 19.8942 18.946 19.8834C18.9726 19.8741 18.9993 19.8647 19.026 19.854C19.0392 19.8433 19.0659 19.8325 19.0926 19.8205C19.1059 19.8084 19.1328 19.7964 19.1461 19.7843C19.1728 19.7709 19.1993 19.7575 19.2127 19.7441C19.2394 19.7294 19.2527 19.716 19.2795 19.7013C19.2929 19.6865 19.3195 19.6704 19.3329 19.6557C19.3596 19.6396 19.3728 19.6236 19.3861 19.6061C19.4128 19.5901 19.4262 19.5726 19.4395 19.5552C19.4663 19.5378 19.4797 19.5191 19.493 19.5016C19.5063 19.4829 19.5329 19.4641 19.5462 19.444C19.5596 19.4253 19.5729 19.4052 19.5863 19.3851C19.5996 19.3663 19.6131 19.3449 19.6264 19.3248C19.6531 19.3047 19.6664 19.2833 19.6664 19.2618C19.6798 19.2404 19.6931 19.219 19.7063 19.1962C19.7197 19.1748 19.733 19.1533 19.7464 19.1306C19.7597 19.1078 19.7597 19.085 19.773 19.0622C19.7865 19.0395 19.7865 19.0153 19.7999 18.9926C19.8132 18.9685 19.8132 18.9457 19.8266 18.9216C19.8266 18.8974 19.8399 18.8733 19.8399 18.8492C19.8532 18.8251 19.8532 18.801 19.8664 18.7769C19.8664 18.7528 19.8664 18.7273 19.8664 18.7032C19.8798 18.6791 19.8798 18.6536 19.8798 18.6295C19.8798 18.6041 19.8798 18.5799 19.8931 18.5545C19.8931 18.5304 19.8931 18.5049 19.8931 18.4795L19.8931 14.7364L18.8392 14.7364L18.8392 18.4795ZM18.2789 10.5258L15.0499 13.7759C15.0366 13.7826 15.0366 13.7893 15.0366 13.7946C15.0233 13.8013 15.0233 13.808 15.01 13.8147C15.01 13.8214 14.9967 13.8281 14.9967 13.8348C14.9967 13.8415 14.9833 13.8482 14.9833 13.8563C14.9833 13.863 14.97 13.871 14.97 13.8777C14.97 13.8857 14.9566 13.8924 14.9566 13.9005C14.9566 13.9072 14.9433 13.9152 14.9433 13.9232C14.9433 13.9313 14.9433 13.9393 14.9298 13.9474C14.9298 13.954 14.9298 13.9621 14.9298 13.9701C14.9298 13.9782 14.9165 13.9875 14.9165 13.9956C14.9165 14.0036 14.9165 14.0117 14.9165 14.0197C14.9165 14.0277 14.9031 14.0371 14.9031 14.0451C14.9031 14.0532 14.9031 14.0626 14.9031 14.0706C14.9031 14.0786 14.9031 14.088 14.9031 14.0961C14.9031 14.1041 14.9031 14.1135 14.9031 14.1215C14.9031 14.1295 14.9031 14.1389 14.9031 14.147C14.9031 14.1563 14.9031 14.1644 14.9031 14.1724C14.9031 14.1818 14.9031 14.1898 14.9031 14.1979C14.9031 14.2072 14.9031 14.2153 14.9031 14.2233C14.9031 14.2327 14.9031 14.2407 14.9031 14.2488C14.9165 14.2582 14.9165 14.2662 14.9165 14.2742C14.9165 14.2823 14.9165 14.2903 14.9165 14.2983C14.9298 14.3077 14.9298 14.3158 14.9298 14.3238C14.9298 14.3318 14.9298 14.3399 14.9433 14.3466C14.9433 14.3546 14.9433 14.3626 14.9433 14.3707C14.9566 14.3787 14.9566 14.3854 14.9566 14.3935C14.97 14.4015 14.97 14.4082 14.97 14.4162C14.9833 14.4229 14.9833 14.4296 14.9833 14.4377C14.9967 14.4444 14.9967 14.4511 14.9967 14.4578C15.01 14.4645 15.01 14.4712 15.0233 14.4779C15.0233 14.4846 15.0233 14.4913 15.0366 14.498C15.0366 14.5033 15.0499 14.51 15.0499 14.5154C15.0632 14.5221 15.0632 14.5274 15.0766 14.5341C15.0766 14.5395 15.0899 14.5448 15.0899 14.5502C15.1033 14.5556 15.1033 14.5609 15.1167 14.5663C15.1167 14.5716 15.1301 14.577 15.1301 14.581C15.1434 14.5864 15.1434 14.5917 15.1568 14.5958C15.1568 14.5998 15.1701 14.6038 15.1701 14.6078C15.1835 14.6118 15.1835 14.6158 15.1967 14.6199C15.21 14.6239 15.21 14.6279 15.2233 14.6306C15.2233 14.6346 15.2367 14.6373 15.25 14.64C15.25 14.6426 15.2634 14.6453 15.2634 14.648C15.2769 14.6507 15.2902 14.6534 15.2902 14.656C15.3035 14.6574 15.3035 14.6601 15.3169 14.6614C15.3302 14.6627 15.3302 14.6641 15.3436 14.6654C15.3569 14.6668 15.3569 14.6681 15.3701 14.6694C15.3835 14.6694 15.3835 14.6708 15.3968 14.6708C15.3968 14.6721 15.4101 14.6721 15.4235 14.6721C15.4235 14.6721 15.4368 14.6721 15.4503 14.6721C15.4503 14.6708 15.4636 14.6708 15.477 14.6694C15.477 14.6694 15.4903 14.6681 15.4903 14.6668C15.5037 14.6654 15.517 14.6641 15.517 14.6627C15.5302 14.6614 15.5436 14.6587 15.5436 14.6574C15.5569 14.6547 15.5569 14.6534 15.5702 14.6507C15.5836 14.648 15.5836 14.6453 15.5969 14.6426C15.5969 14.64 15.6104 14.6359 15.6237 14.6333C15.6237 14.6306 15.6371 14.6266 15.6371 14.6225C15.6504 14.6199 15.6638 14.6158 15.6638 14.6118C15.6771 14.6078 15.6771 14.6038 15.6905 14.5984C15.6905 14.5944 15.7037 14.5904 15.7037 14.585C15.717 14.581 15.717 14.5757 15.7304 14.5703C15.7437 14.5649 15.7437 14.5609 15.757 14.5556C15.757 14.5502 15.757 14.5435 15.7704 14.5381C15.7704 14.5328 15.7839 14.5261 15.7839 14.5207L19.8532 10.4361C19.8532 10.4294 19.8664 10.4227 19.8664 10.4173C19.8798 10.4106 19.8798 10.4039 19.8931 10.3972C19.8931 10.3905 19.8931 10.3838 19.9065 10.3771C19.9065 10.3704 19.9065 10.3637 19.9198 10.357C19.9198 10.349 19.9198 10.3423 19.9332 10.3342C19.9332 10.3275 19.9332 10.3195 19.9466 10.3128C19.9466 10.3048 19.9466 10.2967 19.96 10.29C19.96 10.282 19.96 10.274 19.96 10.2659C19.9733 10.2579 19.9733 10.2498 19.9733 10.2418C19.9733 10.2338 19.9733 10.2257 19.9867 10.2177C19.9867 10.2097 19.9867 10.2016 19.9867 10.1936C19.9867 10.1842 19.9867 10.1762 20 10.1681C20 10.1601 20 10.1507 20 10.1427C20 10.1346 20 10.1253 20 10.1172C20 10.1092 20 10.0998 20 10.0918C20 10.0837 20 10.0744 20 10.0663C20 10.0569 20 10.0489 20 10.0409C20 10.0315 20 10.0234 20 10.0141C20 10.006 20 9.99799 20 9.9886C20 9.98057 20 9.97254 19.9867 9.96316C19.9867 9.95512 19.9867 9.94708 19.9867 9.93906C19.9867 9.93099 19.9867 9.92164 19.9733 9.91358C19.9733 9.90555 19.9733 9.89752 19.9733 9.88948C19.9733 9.88145 19.96 9.8734 19.96 9.86536C19.96 9.85732 19.96 9.8493 19.9466 9.84259C19.9466 9.83455 19.9466 9.82653 19.9332 9.81981C19.9332 9.81179 19.9332 9.80372 19.9332 9.79704C19.9198 9.78901 19.9198 9.7823 19.9065 9.7756C19.9065 9.76757 19.9065 9.76087 19.8931 9.75418C19.8931 9.74747 19.8931 9.74077 19.8798 9.73409C19.8798 9.72738 19.8664 9.72068 19.8664 9.71399C19.8664 9.70861 19.8532 9.70192 19.8532 9.69658L15.717 5.53821C15.7037 5.53152 15.7037 5.52616 15.6905 5.5208C15.6905 5.5141 15.6771 5.50874 15.6771 5.50338C15.6638 5.49802 15.6638 5.49268 15.6504 5.48729C15.6504 5.48195 15.6371 5.47793 15.6371 5.47258C15.6237 5.4672 15.6237 5.46319 15.6104 5.45917C15.6104 5.45381 15.5969 5.44978 15.5836 5.44578C15.5836 5.44176 15.5702 5.43775 15.5702 5.43372C15.5569 5.42969 15.5569 5.42701 15.5436 5.423C15.5302 5.42034 15.5302 5.41766 15.517 5.41362C15.517 5.41094 15.5037 5.40827 15.4903 5.40559C15.4903 5.40291 15.477 5.40157 15.477 5.39889C15.4636 5.39621 15.4503 5.39486 15.4503 5.39353C15.4368 5.39085 15.4235 5.3895 15.4235 5.38817C15.4101 5.38683 15.4101 5.38549 15.3968 5.38549C15.3835 5.38415 15.3835 5.38283 15.3701 5.38283C15.3569 5.38283 15.3569 5.38283 15.3436 5.38283C15.3302 5.38147 15.3302 5.38283 15.3169 5.38283C15.3169 5.38283 15.3035 5.38415 15.2902 5.38415C15.2902 5.38549 15.2769 5.38549 15.2634 5.38683C15.2634 5.38817 15.25 5.3895 15.25 5.39218C15.2367 5.39353 15.2233 5.39486 15.2233 5.39756C15.21 5.39889 15.1967 5.40157 15.1967 5.40425C15.1835 5.40559 15.1835 5.40827 15.1701 5.41094C15.1568 5.41498 15.1568 5.41766 15.1434 5.42034C15.1434 5.42434 15.1301 5.42701 15.1167 5.43104C15.1167 5.43507 15.1033 5.43775 15.1033 5.44176C15.0899 5.44578 15.0899 5.44978 15.0766 5.45517C15.0766 5.45917 15.0632 5.46319 15.0499 5.46855C15.0499 5.47258 15.0366 5.47793 15.0366 5.48329C15.0233 5.48865 15.0233 5.49268 15.01 5.49936C15.01 5.50471 14.9967 5.51009 14.9967 5.51544C14.9833 5.5208 14.9833 5.52751 14.9833 5.53286C14.97 5.53954 14.97 5.54493 14.9566 5.55161C14.9566 5.55831 14.9433 5.56502 14.9433 5.57171C14.9433 5.5784 14.9298 5.58512 14.9298 5.5918C14.9165 5.5985 14.9165 5.60521 14.9165 5.61324C14.9031 5.61995 14.9031 5.62663 14.9031 5.63466C14.8898 5.64137 14.8898 5.64941 14.8898 5.65746C14.8765 5.66414 14.8765 5.67217 14.8765 5.68023C14.8765 5.68692 14.8631 5.69497 14.8631 5.70299C14.8631 5.71103 14.8631 5.71907 14.8499 5.7271C14.8499 5.73516 14.8499 5.74318 14.8499 5.75122C14.8499 5.7606 14.8366 5.76864 14.8366 5.77668C14.8366 5.7847 14.8366 5.79277 14.8366 5.80212C14.8366 5.81018 14.8366 5.81821 14.8366 5.8276C14.8366 5.83562 14.8232 5.84366 14.8232 5.85304C14.8232 5.86108 14.8232 5.86911 14.8232 5.87849C14.8232 5.88653 14.8232 5.89455 14.8232 5.90395C14.8232 5.91197 14.8232 5.92136 14.8232 5.92939C14.8232 5.93745 14.8232 5.94682 14.8232 5.95487C14.8366 5.96423 14.8366 5.97226 14.8366 5.98031C14.8366 5.98834 14.8366 5.99774 14.8366 6.00576C14.8366 6.0138 14.8366 6.02184 14.8366 6.03121C14.8499 6.03925 14.8499 6.0473 14.8499 6.05533C14.8499 6.06337 14.8499 6.0714 14.8631 6.07943C14.8631 6.08749 14.8631 6.09552 14.8631 6.10356C14.8765 6.11159 14.8765 6.11962 14.8765 6.12768C14.8765 6.13436 14.8898 6.14242 14.8898 6.15045C14.8898 6.15713 14.9031 6.1652 14.9031 6.17187C14.9031 6.17993 14.9165 6.18662 14.9165 6.19332C14.9165 6.20135 14.9298 6.20805 14.9298 6.21476C14.9298 6.22145 14.9433 6.22815 14.9433 6.23486C14.9566 6.24154 14.9566 6.24824 14.97 6.2536C14.97 6.2603 14.97 6.26698 14.9833 6.27237L18.1721 9.47284L8.89916 9.47284L8.89916 10.5258L18.2789 10.5258Z"   fill="currentColor" >
</path>
</svg>
