<svg xmlns="http://www.w3.org/2000/svg" xmlns:xlink="http://www.w3.org/1999/xlink" width="20" height="20" viewBox="0 0 20 20" fill="none">
<path d="M14 11.6667C14 11.6848 14.0004 11.703 14.0012 11.7212C14.002 11.7394 14.0032 11.7575 14.0048 11.7756C14.0064 11.7937 14.0084 11.8117 14.0108 11.8297C14.0132 11.8477 14.016 11.8656 14.0192 11.8834C14.0224 11.9013 14.026 11.919 14.03 11.9366C14.034 11.9543 14.0383 11.9718 14.0431 11.9892C14.0478 12.0066 14.0529 12.0239 14.0585 12.041C14.064 12.0581 14.0698 12.0751 14.0761 12.0919C14.0824 12.1087 14.089 12.1253 14.096 12.1417C14.103 12.1582 14.1104 12.1744 14.1181 12.1904C14.1258 12.2065 14.1339 12.2223 14.1423 12.2379C14.1507 12.2535 14.1594 12.2688 14.1685 12.284C14.1776 12.2991 14.187 12.3139 14.1968 12.3285C14.2065 12.3432 14.2166 12.3575 14.227 12.3716C14.2374 12.3856 14.2481 12.3994 14.259 12.4128C14.27 12.4263 14.2813 12.4395 14.2929 12.4523C14.3045 12.4652 14.3163 12.4777 14.3284 12.49C14.3406 12.5022 14.3529 12.514 14.3656 12.5256C14.3783 12.5371 14.3912 12.5483 14.4043 12.5591C14.4175 12.57 14.4308 12.5804 14.4444 12.5905C14.458 12.6006 14.4719 12.6103 14.4859 12.6197C14.4999 12.629 14.5142 12.638 14.5286 12.6466C14.543 12.6551 14.5576 12.6633 14.5724 12.6711C14.5872 12.6789 14.6022 12.6862 14.6173 12.6932C14.6324 12.7002 14.6477 12.7067 14.6631 12.7128C14.6785 12.7189 14.6941 12.7247 14.7097 12.7299C14.7254 12.7352 14.7411 12.7401 14.757 12.7445C14.7729 12.7489 14.7889 12.7529 14.8049 12.7564C14.821 12.76 14.8371 12.7631 14.8533 12.7657C14.8694 12.7684 14.8857 12.7707 14.902 12.7724C14.9183 12.7742 14.9346 12.7755 14.9509 12.7764C14.9673 12.7773 14.9836 12.7778 15 12.7778C15.0164 12.7778 15.0327 12.7773 15.0491 12.7764C15.0654 12.7755 15.0817 12.7742 15.098 12.7724C15.1143 12.7707 15.1305 12.7684 15.1467 12.7657C15.1629 12.7631 15.179 12.76 15.1951 12.7564C15.2111 12.7529 15.2271 12.7489 15.243 12.7445C15.2588 12.7401 15.2746 12.7352 15.2903 12.7299C15.3059 12.7247 15.3215 12.7189 15.3369 12.7128C15.3523 12.7067 15.3676 12.7002 15.3827 12.6932C15.3978 12.6862 15.4127 12.6789 15.4275 12.6711C15.4423 12.6633 15.457 12.6552 15.4714 12.6466C15.4858 12.638 15.5001 12.629 15.5141 12.6197C15.5281 12.6103 15.542 12.6006 15.5556 12.5905C15.5692 12.5804 15.5825 12.57 15.5957 12.5591C15.6088 12.5483 15.6217 12.5371 15.6344 12.5256C15.6471 12.514 15.6594 12.5022 15.6716 12.49C15.6837 12.4777 15.6955 12.4652 15.7071 12.4523C15.7187 12.4395 15.73 12.4263 15.741 12.4128C15.7519 12.3994 15.7626 12.3856 15.773 12.3716C15.7834 12.3575 15.7935 12.3432 15.8032 12.3285C15.813 12.3139 15.8224 12.2991 15.8315 12.284C15.8406 12.2688 15.8493 12.2535 15.8577 12.2379C15.8661 12.2223 15.8742 12.2065 15.8819 12.1905C15.8896 12.1744 15.897 12.1582 15.904 12.1417C15.911 12.1253 15.9176 12.1087 15.9239 12.0919C15.9302 12.0751 15.936 12.0581 15.9415 12.041C15.9471 12.0239 15.9522 12.0066 15.9569 11.9892C15.9617 11.9718 15.966 11.9543 15.97 11.9366C15.974 11.919 15.9776 11.9013 15.9808 11.8834C15.984 11.8656 15.9868 11.8477 15.9892 11.8297C15.9916 11.8117 15.9936 11.7937 15.9952 11.7756C15.9968 11.7575 15.998 11.7394 15.9988 11.7212C15.9996 11.703 16 11.6848 16 11.6667C16 11.6485 15.9996 11.6303 15.9988 11.6122C15.998 11.594 15.9968 11.5758 15.9952 11.5578C15.9936 11.5397 15.9916 11.5216 15.9892 11.5036C15.9868 11.4856 15.984 11.4677 15.9808 11.4499C15.9776 11.4321 15.974 11.4143 15.97 11.3967C15.966 11.3791 15.9617 11.3615 15.9569 11.3441C15.9522 11.3267 15.9471 11.3095 15.9415 11.2923C15.936 11.2752 15.9302 11.2583 15.9239 11.2415C15.9176 11.2247 15.911 11.2081 15.904 11.1916C15.897 11.1752 15.8896 11.1589 15.8819 11.1429C15.8742 11.1269 15.8661 11.111 15.8577 11.0954C15.8493 11.0798 15.8406 11.0645 15.8315 11.0494C15.8224 11.0343 15.813 11.0194 15.8032 11.0048C15.7935 10.9902 15.7834 10.9758 15.773 10.9618C15.7626 10.9477 15.7519 10.934 15.741 10.9205C15.73 10.907 15.7187 10.8938 15.7071 10.881C15.6955 10.8681 15.6837 10.8556 15.6716 10.8434C15.6594 10.8312 15.6471 10.8193 15.6344 10.8078C15.6217 10.7962 15.6088 10.785 15.5957 10.7742C15.5825 10.7634 15.5692 10.7529 15.5556 10.7428C15.542 10.7327 15.5281 10.723 15.5141 10.7136C15.5001 10.7043 15.4858 10.6953 15.4714 10.6868C15.457 10.6782 15.4423 10.67 15.4275 10.6622C15.4127 10.6545 15.3978 10.6471 15.3827 10.6401C15.3676 10.6332 15.3523 10.6266 15.3369 10.6205C15.3215 10.6144 15.3059 10.6087 15.2903 10.6034C15.2746 10.5981 15.2588 10.5933 15.243 10.5889C15.2271 10.5844 15.2111 10.5805 15.1951 10.5769C15.179 10.5734 15.1629 10.5702 15.1467 10.5676C15.1306 10.5649 15.1143 10.5627 15.098 10.5609C15.0817 10.5591 15.0654 10.5578 15.0491 10.5569C15.0327 10.556 15.0164 10.5556 15 10.5556C14.9836 10.5556 14.9673 10.556 14.9509 10.5569C14.9346 10.5578 14.9183 10.5591 14.902 10.5609C14.8857 10.5627 14.8694 10.5649 14.8533 10.5676C14.8371 10.5702 14.821 10.5734 14.8049 10.5769C14.7889 10.5805 14.7729 10.5844 14.757 10.5889C14.7411 10.5933 14.7254 10.5981 14.7097 10.6034C14.6941 10.6087 14.6785 10.6144 14.6631 10.6205C14.6477 10.6266 14.6324 10.6332 14.6173 10.6401C14.6022 10.6471 14.5872 10.6545 14.5724 10.6622C14.5576 10.67 14.543 10.6782 14.5286 10.6868C14.5142 10.6953 14.4999 10.7043 14.4859 10.7136C14.4719 10.723 14.458 10.7327 14.4444 10.7428C14.4308 10.7529 14.4175 10.7634 14.4043 10.7742C14.3912 10.785 14.3783 10.7962 14.3656 10.8078C14.3529 10.8193 14.3406 10.8312 14.3284 10.8434C14.3163 10.8556 14.3045 10.8681 14.2929 10.881C14.2813 10.8938 14.27 10.907 14.259 10.9205C14.2481 10.934 14.2374 10.9477 14.227 10.9618C14.2166 10.9758 14.2065 10.9902 14.1968 11.0048C14.187 11.0194 14.1776 11.0343 14.1685 11.0494C14.1594 11.0645 14.1507 11.0798 14.1423 11.0954C14.1339 11.111 14.1258 11.1269 14.1181 11.1429C14.1104 11.1589 14.103 11.1752 14.096 11.1916C14.089 11.2081 14.0824 11.2247 14.0761 11.2415C14.0698 11.2583 14.064 11.2752 14.0585 11.2923C14.0529 11.3095 14.0478 11.3267 14.0431 11.3441C14.0383 11.3615 14.034 11.3791 14.03 11.3967C14.026 11.4143 14.0224 11.4321 14.0192 11.4499C14.016 11.4677 14.0132 11.4856 14.0108 11.5036C14.0084 11.5216 14.0064 11.5397 14.0048 11.5578C14.0032 11.5758 14.002 11.594 14.0012 11.6122C14.0004 11.6303 14 11.6485 14 11.6667ZM18 8.88889L14.5 8.88889C13.1183 8.88889 12 10.1314 12 11.6667C12 13.2019 13.1183 14.4444 14.5 14.4444L18 14.4444C19.1049 14.4444 20 13.4499 20 12.2222L20 11.1111C20 9.88343 19.1049 8.88889 18 8.88889ZM19 12.2222C19 12.8348 18.5513 13.3333 18 13.3333L14.5 13.3333C13.6719 13.3333 13 12.5868 13 11.6667C13 10.7465 13.6719 10 14.5 10L18 10C18.5513 10 19 10.4985 19 11.1111L19 12.2222ZM18 15C17.7232 15 17.5 15.248 17.5 15.5556L17.5 16.6667C17.5 17.8943 16.6049 18.8889 15.5 18.8889L3 18.8889C1.89509 18.8889 1 17.8943 1 16.6667L1 6.66667C1 5.43899 1.89509 4.44444 3 4.44444L15.5 4.44444C16.6049 4.44444 17.5 5.43899 17.5 6.66667L17.5 7.77778C17.5 8.08532 17.7232 8.33333 18 8.33333C18.2768 8.33333 18.5 8.08532 18.5 7.77778L18.5 6.66667C18.5 4.83383 17.1496 3.33333 15.5 3.33333L13.0804 3.33333L12.1451 1.66419C11.5915 0.597718 10.5781 0 9.53795 0C9.02902 0 8.51562 0.143849 8.04688 0.443948L2.83929 3.34325C1.26339 3.43502 0 4.89335 0 6.66667L0 16.6667C0 18.4995 1.35045 20 3 20L15.5 20C17.1496 20 18.5 18.4995 18.5 16.6667L18.5 15.5556C18.5 15.248 18.2768 15 18 15ZM8.52009 1.42361C8.52902 1.41865 8.53795 1.41369 8.54688 1.40625C8.84821 1.2128 9.18973 1.11111 9.53795 1.11111C10.2567 1.11111 10.9241 1.53522 11.279 2.21974C11.2924 2.24702 11.308 2.27431 11.3259 2.29911L11.8772 3.33333L4.9933 3.33333L8.52009 1.42361Z"   fill="currentColor" >
</path>
</svg>
