<svg xmlns="http://www.w3.org/2000/svg" xmlns:xlink="http://www.w3.org/1999/xlink" width="20" height="15.68109130859375" viewBox="0 0 20 15.68109130859375" fill="none">
<path d="M0.66 3.76C1.02035 3.76 1.32 4.05144 1.32 4.41L1.32 4.42L1.32 13.42L1.34 13.4C4.35973 11.5653 7.31252 11.7727 10.05 14.02L10.1 14.07L10.12 14.05C12.3736 11.5632 15.2613 11.285 18.6 13.17L18.64 13.2L18.68 4.64C18.68 4.27942 18.9716 3.98 19.33 3.98L19.34 3.98C19.7003 3.98 20 4.2714 20 4.63L20 4.64L19.96 14.39C19.96 14.921 19.3684 15.2393 18.93 14.94C15.4323 12.5521 12.7828 12.7265 10.7 15.42C10.4612 15.7288 10.0047 15.767 9.72 15.5C6.97546 12.9256 4.16529 12.826 1.06 15.2C0.628771 15.5297 0.0125582 15.2283 0 14.69L0 4.42C0 4.05422 0.294463 3.76 0.66 3.76ZM10 1.22C12.4188 -0.491539 14.9433 -0.397497 17.4 1.5L17.43 1.52L17.45 1.55L17.48 1.57L17.51 1.6C17.51 1.6 17.53 1.6198 17.53 1.63C17.53 1.6402 17.55 1.6494 17.55 1.66C17.55 1.67062 17.57 1.68903 17.57 1.7C17.57 1.71099 17.59 1.71869 17.59 1.73C17.59 1.74131 17.6 1.74838 17.6 1.76C17.6 1.77161 17.62 1.78813 17.62 1.8C17.62 1.81188 17.63 1.82791 17.63 1.84C17.63 1.85209 17.64 1.85773 17.64 1.87C17.64 1.88228 17.65 1.89758 17.65 1.91C17.65 1.92242 17.65 1.93746 17.65 1.95C17.65 1.96252 17.65 1.96742 17.65 1.98C17.65 1.99258 17.66 2.00739 17.66 2.02L17.66 10.96C17.66 11.4703 17.1012 11.7857 16.66 11.53C14.4666 10.2588 12.408 10.2686 10.37 11.53L10.35 11.53C10.2355 11.5974 10.1186 11.62 10 11.62C9.88357 11.62 9.763 11.5955 9.65 11.53C7.45656 10.2588 5.38803 10.2686 3.35 11.53L3.34 11.53C2.90013 11.789 2.34 11.4746 2.34 10.96C2.3575 5.82622 2.36 2.87263 2.36 2.13L2.36 2.03C2.36 2.0173 2.36 2.0127 2.36 2C2.36 1.9873 2.36 1.97264 2.36 1.96C2.36 1.94734 2.36 1.93255 2.36 1.92C2.36 1.90745 2.37 1.89243 2.37 1.88C2.37 1.86758 2.38 1.86224 2.38 1.85C2.38 1.83774 2.39 1.82203 2.39 1.81C2.39 1.79796 2.4 1.78177 2.4 1.77C2.4 1.75822 2.42 1.75149 2.42 1.74C2.42 1.72851 2.44 1.71115 2.44 1.7C2.44 1.68885 2.46 1.68079 2.46 1.67C2.46 1.65922 2.48 1.65038 2.48 1.64C2.48 1.62962 2.5 1.61 2.5 1.61L2.52 1.58L2.55 1.55L2.58 1.53L2.61 1.5C5.01959 -0.403189 7.53511 -0.492027 10 1.22ZM9.26 2.31C7.37378 0.991442 5.57388 0.995074 3.73 2.31L3.68 2.35L3.68 2.38C3.68 2.99274 3.68 4.21133 3.68 6.03L3.67 9.86L3.7 9.85C5.51982 9.0498 7.39078 9.06317 9.29 9.88L9.32 9.89L9.32 2.35L9.26 2.31ZM16.27 2.31C14.3838 0.991442 12.5939 0.995074 10.75 2.31L10.7 2.35L10.7 2.54C10.7 3.30441 10.69 4.76968 10.69 6.94L10.68 9.86L10.71 9.85C12.5298 9.0498 14.4108 9.06317 16.31 9.88L16.33 9.89L16.33 2.35L16.27 2.31Z"   fill="currentColor" >
</path>
</svg>
