<svg xmlns="http://www.w3.org/2000/svg" xmlns:xlink="http://www.w3.org/1999/xlink" width="23.508560180664062" height="20" viewBox="0 0 23.508560180664062 20" fill="none">
<path d="M0.719105 12.6541C0.598752 12.6541 0.475595 12.6227 0.364726 12.5602C0.0188501 12.3629 -0.101473 11.925 0.092762 11.5786L1.75763 8.64587C1.86659 8.45579 2.05611 8.32351 2.27308 8.28978C2.48914 8.25367 2.71085 8.32105 2.87194 8.47019L5.47772 10.8569C5.77146 11.1263 5.7904 11.581 5.52035 11.8745C5.25124 12.1681 4.79643 12.1873 4.50269 11.9178L2.56398 10.1399L1.34449 12.2883C1.21182 12.5217 0.969267 12.6541 0.719105 12.6541ZM21.2024 11.2947C21.0242 11.2947 20.8508 11.2297 20.7191 11.107L18.2147 8.83111C17.921 8.56409 17.8992 8.1069 18.1664 7.81345C18.4336 7.5199 18.8875 7.49829 19.1841 7.76531L21.0195 9.43261L22.1603 7.40685C22.3546 7.06034 22.7923 6.93526 23.142 7.13254C23.4879 7.32745 23.611 7.76768 23.4158 8.1142L21.8325 10.9266C21.7245 11.1191 21.5368 11.249 21.3198 11.2851C21.2791 11.2923 21.2412 11.2947 21.2024 11.2947Z"   fill="currentColor" >
</path>
<path d="M11.8936 20C6.38164 20 1.89499 15.5155 1.89499 10.0012C1.89499 9.60421 2.21715 9.28186 2.61418 9.28186C3.01121 9.28186 3.33338 9.60421 3.33338 10.0012C3.33338 14.7215 7.17381 18.5613 11.8936 18.5613C14.7429 18.5613 17.396 17.1515 18.9917 14.7865C19.2153 14.4569 19.6626 14.3703 19.9923 14.5916C20.3221 14.8153 20.4083 15.2628 20.1866 15.5924C18.3227 18.3544 15.2214 20 11.8936 20ZM21.1758 10.7205C20.7788 10.7205 20.4566 10.3982 20.4566 10.0012C20.4566 5.28085 16.6171 1.44112 11.8964 1.44112C9.15324 1.44112 6.55788 2.7691 4.95085 4.99697C4.7168 5.31942 4.26956 5.39399 3.94453 5.15814C3.62237 4.92477 3.55037 4.47487 3.78347 4.15252C5.66056 1.55416 8.69178 0 11.8936 0C17.4083 0 21.895 4.48691 21.895 10.0012C21.895 10.3982 21.5728 10.7205 21.1758 10.7205Z"   fill="currentColor" >
</path>
</svg>
