<svg xmlns="http://www.w3.org/2000/svg" xmlns:xlink="http://www.w3.org/1999/xlink" width="20" height="20" viewBox="0 0 20 20" fill="none">
<path d="M13.0234 13.3653L13.0156 13.3653C12.9375 13.3633 12.8613 13.3301 12.8086 13.2735L11.043 11.4102C10.9297 11.291 10.9355 11.1035 11.0547 10.9902L15.9043 6.39259C15.9609 6.33791 16.0488 6.31642 16.1172 6.31056C16.1953 6.31252 16.2715 6.34572 16.3242 6.40236L18.0898 8.26564C18.1445 8.32228 18.1738 8.39845 18.1719 8.47853C18.1699 8.55666 18.1367 8.63283 18.0801 8.68556L13.2285 13.2832C13.1738 13.336 13.0996 13.3653 13.0234 13.3653ZM11.6777 11.2168L13.0352 12.6485L17.4551 8.459L16.0977 7.02736L11.6777 11.2168Z" stroke="currentColor" stroke-width="0.3"      fill="currentColor" >
</path>
<path d="M17.8965 8.74609C17.8184 8.74609 17.7383 8.71484 17.6797 8.65234L15.9141 6.78906C15.8594 6.73242 15.8301 6.65625 15.8321 6.57617C15.834 6.49805 15.8672 6.42188 15.9238 6.36914L16.6172 5.71289C16.7969 5.54297 17.0391 5.45898 17.2793 5.45898C17.5274 5.46484 17.7559 5.56836 17.9258 5.74805L18.8281 6.69922C19.1797 7.07031 19.1641 7.65625 18.793 8.00781L18.0996 8.66406C18.043 8.71875 17.9707 8.74609 17.8965 8.74609ZM16.5508 6.5957L17.9082 8.02734L18.3848 7.57617C18.5176 7.45117 18.5235 7.24023 18.3965 7.10742L17.4961 6.15625C17.4356 6.0918 17.3535 6.05469 17.2637 6.05273C17.1836 6.05469 17.0899 6.08203 17.0274 6.14453L16.5508 6.5957ZM10.5684 14.1035C10.4395 14.1035 10.3145 14.0508 10.2227 13.9551C10.0977 13.8223 10.0586 13.6348 10.1211 13.4629L10.9785 11.1035C11.0137 11.0059 11.0957 10.9355 11.1973 10.9141C11.2969 10.8945 11.4024 10.9258 11.4727 11L13.2383 12.8633C13.3086 12.9375 13.336 13.0449 13.3106 13.1426C13.2852 13.2422 13.209 13.3203 13.1094 13.3516L10.709 14.082C10.6621 14.0957 10.6153 14.1035 10.5684 14.1035ZM11.3731 11.7578L10.7598 13.4453L12.4766 12.9238L11.3731 11.7578Z" stroke="currentColor" stroke-width="0.3"      fill="currentColor" >
</path>
<path d="M11.9297 18.4258L2.50781 18.4258C1.63867 18.4258 0.929688 17.7188 0.929688 16.8477L0.929688 4.17775C0.929688 3.30861 1.63672 2.59962 2.50781 2.59962L11.9297 2.59962C12.7988 2.59962 13.5078 3.30666 13.5078 4.17775L13.5078 7.87892C13.5078 8.04298 13.375 8.17579 13.2109 8.17579C13.0469 8.17579 12.9141 8.04298 12.9141 7.87892L12.9141 4.17775C12.9141 3.63478 12.4727 3.19533 11.9316 3.19533L2.50781 3.19533C1.96484 3.19533 1.52539 3.63673 1.52539 4.17775L1.52539 16.8477C1.52539 17.3906 1.9668 17.832 2.50781 17.832L11.9297 17.832C12.4727 17.832 12.9121 17.3906 12.9121 16.8477L12.9121 14.0508C12.9121 13.8867 13.0449 13.7539 13.209 13.7539C13.373 13.7539 13.5059 13.8867 13.5059 14.0508L13.5059 16.8477C13.5059 17.7188 12.7988 18.4258 11.9297 18.4258Z" stroke="currentColor" stroke-width="0.3"      fill="currentColor" >
</path>
<path d="M11.248 7.99806L3.1875 7.99806C3.02344 7.99806 2.89062 7.86525 2.89062 7.70119C2.89062 7.53712 3.02344 7.40431 3.1875 7.40431L11.248 7.40431C11.4121 7.40431 11.5449 7.53712 11.5449 7.70119C11.5449 7.86525 11.4121 7.99806 11.248 7.99806ZM10.9629 10.8106L3.1875 10.8106C3.02344 10.8106 2.89062 10.6777 2.89062 10.5137C2.89062 10.3496 3.02344 10.2168 3.1875 10.2168L10.9629 10.2168C11.127 10.2168 11.2598 10.3496 11.2598 10.5137C11.2598 10.6777 11.127 10.8106 10.9629 10.8106ZM8.375 13.6231L3.1875 13.6231C3.02344 13.6231 2.89062 13.4903 2.89062 13.3262C2.89062 13.1621 3.02344 13.0293 3.1875 13.0293L8.375 13.0293C8.53906 13.0293 8.67187 13.1621 8.67187 13.3262C8.67187 13.4903 8.53906 13.6231 8.375 13.6231Z" stroke="currentColor" stroke-width="0.3"      fill="currentColor" >
</path>
</svg>
