<svg xmlns="http://www.w3.org/2000/svg" xmlns:xlink="http://www.w3.org/1999/xlink" width="20" height="20" viewBox="0 0 20 20" fill="none">
<path d="M17.9439 20L2.05611 20C2.02441 20 1.99258 19.9992 1.95015 19.9978C1.91845 19.9962 1.88662 19.9939 1.8548 19.9909C1.82297 19.9879 1.79114 19.9842 1.75944 19.9796C1.71701 19.975 1.68518 19.9698 1.65348 19.9639C1.62165 19.9579 1.58983 19.9511 1.558 19.9436C1.52617 19.9362 1.49447 19.9279 1.46264 19.9189C1.43082 19.9101 1.39899 19.9004 1.36729 19.8899C1.33546 19.8796 1.30364 19.8685 1.27181 19.8567C1.24011 19.845 1.20828 19.8325 1.17646 19.8194C1.14463 19.8062 1.11293 19.7923 1.0811 19.7779C1.05988 19.7633 1.02806 19.7481 0.996228 19.7321C0.96453 19.7165 0.943312 19.7 0.911484 19.6828C0.879657 19.6658 0.858568 19.6481 0.82674 19.6297C0.805522 19.6113 0.773694 19.5924 0.752476 19.5729C0.720778 19.5533 0.699559 19.5332 0.678341 19.5125C0.646513 19.4918 0.625295 19.4706 0.604076 19.4488C0.572378 19.4271 0.551161 19.4048 0.529942 19.3819C0.508723 19.3591 0.487505 19.3358 0.466286 19.312C0.445198 19.2882 0.423979 19.264 0.402761 19.2392C0.381542 19.2145 0.360324 19.1893 0.339106 19.1637C0.328626 19.1381 0.307408 19.1121 0.28619 19.0856C0.27558 19.0593 0.254361 19.0324 0.243752 19.0053C0.222534 18.9782 0.211925 18.9506 0.190836 18.9228C0.180227 18.895 0.169617 18.8668 0.159008 18.8384C0.13779 18.8099 0.127181 18.7811 0.116571 18.7522C0.105962 18.7232 0.0953533 18.694 0.0847442 18.6645C0.0741349 18.6351 0.0636551 18.6053 0.0636551 18.5755C0.0530459 18.5455 0.0424368 18.5155 0.0318276 18.4854C0.0318276 18.4552 0.0212183 18.4247 0.0212183 18.3943C0.0106092 18.3639 0.0106092 18.3333 0.0106092 18.3027C0 18.272 0 18.2414 0 18.2106C0 18.1798 0 18.149 0 18.1182L0 3.59825C0 3.56745 0 3.53664 0 3.50584C0 3.47513 0 3.44442 0.0106092 3.41381C0.0106092 3.3831 0.0106092 3.35258 0.0212183 3.32207C0.0212183 3.29165 0.0318276 3.26133 0.0318276 3.2311C0.0424368 3.20088 0.0530459 3.17085 0.0636551 3.14101C0.0636551 3.11108 0.0741349 3.08143 0.0847442 3.05199C0.0953533 3.02254 0.105962 2.99328 0.116571 2.96422C0.127181 2.93525 0.13779 2.90658 0.159008 2.8781C0.169617 2.84962 0.180227 2.82152 0.190836 2.79363C0.211925 2.76582 0.222534 2.73831 0.243752 2.71119C0.254361 2.68396 0.27558 2.65723 0.28619 2.63078C0.307408 2.60434 0.328626 2.57837 0.339106 2.5527C0.360324 2.52713 0.381542 2.50194 0.402761 2.47724C0.423979 2.45254 0.445198 2.42822 0.466286 2.40439C0.487505 2.38065 0.508723 2.35731 0.529942 2.33444C0.551161 2.31168 0.572378 2.2894 0.604076 2.2676C0.625295 2.24581 0.646513 2.22459 0.678341 2.20396C0.699559 2.18323 0.720778 2.16308 0.752476 2.14361C0.773694 2.12404 0.805522 2.10515 0.82674 2.08674C0.858568 2.06843 0.879657 2.0507 0.911484 2.03356C0.943312 2.01651 0.96453 2.00004 0.996228 1.98415C1.02806 1.96836 1.05988 1.95315 1.0811 1.93862C1.11293 1.92409 1.14463 1.91024 1.17646 1.89706C1.20828 1.88399 1.24011 1.87149 1.27181 1.85967C1.30364 1.84785 1.33546 1.83681 1.36729 1.82645C1.39899 1.81608 1.43082 1.80639 1.46264 1.79748C1.49447 1.78857 1.52617 1.78033 1.558 1.77287C1.58983 1.76532 1.62165 1.75863 1.65348 1.75263C1.68518 1.74662 1.71701 1.74129 1.75944 1.73684C1.79114 1.73228 1.82297 1.72851 1.8548 1.7255C1.88662 1.7225 1.91845 1.72027 1.95015 1.71872C1.99258 1.71717 2.02441 1.7165 2.05611 1.7165L17.9439 1.7165C17.9756 1.71669 18.0074 1.71756 18.0392 1.7193C18.0817 1.72105 18.1134 1.72347 18.1452 1.72667C18.177 1.72986 18.2089 1.73374 18.2406 1.73848C18.2724 1.74314 18.3148 1.74856 18.3467 1.75466C18.3784 1.76086 18.4102 1.76774 18.442 1.7753C18.4739 1.78295 18.5056 1.79128 18.5374 1.80029C18.5692 1.8093 18.601 1.81908 18.6328 1.82955C18.6646 1.84001 18.6963 1.85115 18.7281 1.86306C18.7599 1.87488 18.7917 1.88747 18.8235 1.90065C18.8553 1.91392 18.8766 1.92777 18.9083 1.9423C18.9401 1.95693 18.9719 1.97214 18.9931 1.98803C19.0249 2.00382 19.0567 2.02029 19.0779 2.03743C19.1097 2.05458 19.1416 2.07231 19.1627 2.09062C19.1945 2.10902 19.2157 2.12791 19.2475 2.14738C19.2688 2.16695 19.3005 2.18701 19.3217 2.20774C19.3429 2.22837 19.3747 2.24958 19.3959 2.27128C19.417 2.29298 19.4383 2.31527 19.4595 2.33803C19.4913 2.3608 19.5125 2.38404 19.5338 2.40778C19.5549 2.43151 19.576 2.45573 19.5866 2.48043C19.6078 2.50514 19.629 2.53023 19.6502 2.5557C19.6715 2.58128 19.6819 2.60724 19.7032 2.63349C19.7244 2.65984 19.735 2.68658 19.7562 2.71361C19.7668 2.74073 19.788 2.76815 19.7987 2.79585C19.8091 2.82366 19.8304 2.85165 19.841 2.88004C19.8516 2.90842 19.8622 2.937 19.8728 2.96596C19.894 2.99483 19.9046 3.02399 19.9046 3.05334C19.9152 3.08269 19.9258 3.11234 19.9365 3.14208C19.9469 3.17191 19.9576 3.20185 19.9576 3.23198C19.9682 3.2621 19.9682 3.29233 19.9788 3.32275C19.9788 3.35307 19.9894 3.38358 19.9894 3.41419C19.9894 3.44471 20 3.47532 20 3.50603C20 3.53674 20 3.56745 20 3.59825L20 18.1182C20 18.149 20 18.1798 20 18.2106C20 18.2414 20 18.272 19.9894 18.3027C19.9894 18.3333 19.9788 18.3639 19.9788 18.3943C19.9788 18.4247 19.9682 18.4552 19.9576 18.4854C19.9576 18.5155 19.9469 18.5455 19.9365 18.5755C19.9365 18.6053 19.9258 18.6351 19.9152 18.6645C19.9046 18.694 19.894 18.7232 19.8834 18.7522C19.8728 18.7811 19.8622 18.8099 19.841 18.8384C19.8304 18.8668 19.8198 18.895 19.7987 18.9228C19.788 18.9506 19.7774 18.9782 19.7562 19.0053C19.7456 19.0324 19.7244 19.0593 19.7032 19.0856C19.6926 19.1121 19.6715 19.1381 19.6502 19.1637C19.6396 19.1893 19.6184 19.2145 19.5972 19.2392C19.576 19.264 19.5549 19.2882 19.5338 19.312C19.5125 19.3358 19.4913 19.3591 19.4701 19.3819C19.4489 19.4048 19.417 19.4271 19.3959 19.4488C19.3747 19.4706 19.3535 19.4918 19.3217 19.5125C19.3005 19.5332 19.2792 19.5533 19.2475 19.5729C19.2263 19.5924 19.1945 19.6113 19.1733 19.6297C19.1416 19.6481 19.1097 19.6658 19.0885 19.6828C19.0567 19.7 19.0249 19.7165 19.0038 19.7321C18.9719 19.7481 18.9401 19.7633 18.9083 19.7779C18.887 19.7923 18.8553 19.8062 18.8235 19.8194C18.7917 19.8325 18.7599 19.845 18.7281 19.8567C18.6963 19.8685 18.6646 19.8796 18.6328 19.8899C18.601 19.9004 18.5692 19.9101 18.5374 19.9189C18.5056 19.9279 18.4739 19.9362 18.442 19.9436C18.4102 19.9511 18.3784 19.9579 18.3467 19.9639C18.3148 19.9698 18.283 19.975 18.2406 19.9796C18.2089 19.9842 18.177 19.9879 18.1452 19.9909C18.1134 19.9939 18.0817 19.9962 18.0392 19.9978C18.0074 19.9992 17.9756 20 17.9439 20ZM2.05611 2.97517C2.04563 2.97497 2.03502 2.97507 2.02441 2.97536C2.0138 2.97565 2.00319 2.97623 1.99258 2.97701C1.98198 2.97778 1.96076 2.97885 1.95015 2.9802C1.93954 2.98156 1.92894 2.98311 1.91845 2.98495C1.90784 2.98679 1.89723 2.98892 1.88662 2.99125C1.87602 2.99357 1.86541 2.99609 1.8548 2.999C1.84419 3.00181 1.83358 3.00491 1.82297 3.0082C1.81236 3.01149 1.80175 3.01508 1.79114 3.01895C1.78066 3.02273 1.77005 3.0268 1.75944 3.03106C1.74883 3.03532 1.73822 3.03988 1.72761 3.04462C1.71701 3.04937 1.7064 3.05431 1.69579 3.05944C1.68518 3.06468 1.68518 3.0701 1.67457 3.07572C1.66396 3.08134 1.65348 3.08715 1.64287 3.09325C1.63226 3.09926 1.62165 3.10556 1.61104 3.11205C1.61104 3.11844 1.60043 3.12512 1.58983 3.132C1.57922 3.13888 1.56861 3.14586 1.56861 3.15312C1.558 3.16039 1.54739 3.16775 1.53678 3.1753C1.53678 3.18296 1.52617 3.19071 1.51569 3.19865C1.51569 3.2065 1.50508 3.21463 1.49447 3.22287C1.49447 3.2311 1.48386 3.23953 1.47325 3.24806C1.47325 3.25658 1.46264 3.2653 1.46264 3.27412C1.45204 3.28293 1.45204 3.29184 1.44143 3.30095C1.44143 3.31006 1.43082 3.31926 1.43082 3.32856C1.42021 3.33786 1.42021 3.34725 1.4096 3.35684C1.4096 3.36634 1.4096 3.37593 1.39899 3.38571C1.39899 3.3954 1.39899 3.40518 1.38851 3.41507C1.38851 3.42495 1.38851 3.43483 1.3779 3.4449C1.3779 3.45488 1.3779 3.46495 1.3779 3.47513C1.36729 3.4852 1.36729 3.49537 1.36729 3.50564C1.36729 3.51581 1.36729 3.52608 1.36729 3.53635C1.36729 3.54662 1.36729 3.55689 1.35668 3.56725C1.35668 3.57752 1.35668 3.58789 1.35668 3.59825L1.35668 18.1182C1.35668 18.1286 1.35668 18.1391 1.35668 18.1494C1.36729 18.1598 1.36729 18.1702 1.36729 18.1805C1.36729 18.1909 1.36729 18.2013 1.36729 18.2115C1.36729 18.2218 1.36729 18.2321 1.3779 18.2422C1.3779 18.2524 1.3779 18.2626 1.3779 18.2727C1.38851 18.2828 1.38851 18.2928 1.38851 18.3028C1.39899 18.3128 1.39899 18.3226 1.39899 18.3324C1.4096 18.3422 1.4096 18.3519 1.4096 18.3615C1.42021 18.3712 1.42021 18.3807 1.43082 18.3901C1.43082 18.3995 1.44143 18.4088 1.44143 18.418C1.45204 18.4271 1.45204 18.4362 1.46264 18.4451C1.46264 18.454 1.47325 18.4628 1.47325 18.4714C1.48386 18.4801 1.49447 18.4886 1.49447 18.4969C1.50508 18.5052 1.51569 18.5135 1.51569 18.5215C1.52617 18.5296 1.53678 18.5375 1.53678 18.5452C1.54739 18.5529 1.558 18.5604 1.56861 18.5677C1.56861 18.5751 1.57922 18.5823 1.58983 18.5892C1.60043 18.5963 1.61104 18.6031 1.61104 18.6097C1.62165 18.6163 1.63226 18.6227 1.64287 18.6289C1.65348 18.6351 1.66396 18.6411 1.67457 18.6468C1.67457 18.6526 1.68518 18.6582 1.69579 18.6635C1.7064 18.6689 1.71701 18.674 1.72761 18.6788C1.73822 18.6838 1.74883 18.6884 1.75944 18.6929C1.77005 18.6973 1.78066 18.7016 1.79114 18.7056C1.80175 18.7096 1.81236 18.7133 1.82297 18.7168C1.83358 18.7203 1.84419 18.7236 1.8548 18.7266C1.86541 18.7296 1.87602 18.7324 1.88662 18.7349C1.89723 18.7375 1.90784 18.7397 1.91845 18.7417C1.92894 18.7437 1.93954 18.7456 1.95015 18.7471C1.96076 18.7486 1.97137 18.7499 1.99258 18.7509C2.00319 18.7519 2.0138 18.7527 2.02441 18.7531C2.03502 18.7537 2.04563 18.7539 2.05611 18.7539L17.9439 18.7539C17.9543 18.7537 17.965 18.7533 17.9756 18.7526C17.9862 18.7519 17.9968 18.7509 18.0074 18.7498C18.018 18.7485 18.0286 18.7471 18.0392 18.7454C18.0498 18.7437 18.0604 18.7418 18.071 18.7396C18.0921 18.7375 18.1028 18.735 18.1134 18.7323C18.124 18.7297 18.1346 18.7268 18.1452 18.7236C18.1558 18.7205 18.1664 18.7171 18.177 18.7135C18.1876 18.7098 18.1982 18.7061 18.2089 18.702C18.2193 18.6979 18.23 18.6936 18.23 18.6891C18.2406 18.6846 18.2512 18.6798 18.2618 18.6749C18.2724 18.6698 18.283 18.6647 18.2936 18.6593C18.3042 18.6539 18.3148 18.6483 18.3254 18.6425C18.336 18.6366 18.336 18.6306 18.3467 18.6244C18.3571 18.6182 18.3678 18.6118 18.3784 18.6052C18.389 18.5985 18.389 18.5918 18.3996 18.5848C18.4102 18.5778 18.4208 18.5706 18.4208 18.5634C18.4314 18.556 18.442 18.5485 18.4526 18.5408C18.4526 18.5331 18.4632 18.5253 18.4739 18.5173C18.4739 18.5093 18.4843 18.5012 18.495 18.4928C18.495 18.4845 18.5056 18.4761 18.5056 18.4675C18.5162 18.4589 18.5268 18.4502 18.5268 18.4414C18.5374 18.4325 18.5374 18.4236 18.548 18.4145C18.548 18.4054 18.5586 18.3962 18.5586 18.3869C18.5692 18.3776 18.5692 18.3682 18.5692 18.3586C18.5798 18.3491 18.5798 18.3395 18.5798 18.3298C18.5904 18.3201 18.5904 18.3103 18.5904 18.3006C18.601 18.2907 18.601 18.2808 18.601 18.2708C18.6117 18.2608 18.6117 18.2508 18.6117 18.2407C18.6117 18.2306 18.6117 18.2205 18.622 18.2104C18.622 18.2002 18.622 18.19 18.622 18.1798C18.622 18.1695 18.622 18.1593 18.622 18.149C18.622 18.1388 18.622 18.1285 18.622 18.1182L18.622 3.59825C18.622 3.58798 18.622 3.57781 18.622 3.56764C18.622 3.55747 18.622 3.5473 18.622 3.53713C18.622 3.52695 18.622 3.51688 18.6117 3.5068C18.6117 3.49673 18.6117 3.48665 18.6117 3.47668C18.6117 3.4667 18.6117 3.45672 18.601 3.44684C18.601 3.43696 18.601 3.42708 18.5904 3.41739C18.5904 3.40761 18.5904 3.39792 18.5798 3.38833C18.5798 3.37874 18.5798 3.36924 18.5692 3.35975C18.5692 3.35035 18.5586 3.34105 18.5586 3.33185C18.5586 3.32265 18.548 3.31354 18.548 3.30453C18.5374 3.29552 18.5374 3.28661 18.5268 3.27789C18.5162 3.26917 18.5162 3.26055 18.5056 3.25203C18.5056 3.2436 18.495 3.23527 18.495 3.22704C18.4843 3.2189 18.4739 3.21086 18.4739 3.20291C18.4632 3.19507 18.4526 3.18741 18.4526 3.17986C18.442 3.1722 18.4314 3.16484 18.4208 3.15767C18.4208 3.15051 18.4102 3.14343 18.3996 3.13656C18.389 3.12977 18.3784 3.12309 18.3784 3.1166C18.3678 3.11011 18.3571 3.10391 18.3467 3.09781C18.336 3.0917 18.3254 3.08589 18.3254 3.08018C18.3148 3.07456 18.3042 3.06904 18.2936 3.0638C18.283 3.05857 18.2724 3.05354 18.2618 3.04879C18.2512 3.04394 18.2406 3.03939 18.23 3.03503C18.2193 3.03067 18.2089 3.02651 18.1982 3.02263C18.1982 3.01876 18.1876 3.01508 18.177 3.01159C18.1664 3.0082 18.1558 3.005 18.1452 3.002C18.1346 2.99909 18.124 2.99638 18.1134 2.99386C18.0921 2.99134 18.0817 2.98911 18.071 2.98718C18.0604 2.98514 18.0498 2.9834 18.0392 2.98195C18.0286 2.9804 18.018 2.97914 18.0074 2.97817C17.9968 2.9772 17.9862 2.97642 17.9756 2.97594C17.965 2.97546 17.9543 2.97517 17.9439 2.97517L2.05611 2.97517Z"   fill="currentColor" >
</path>
<path d="M19.0673 7.79401L0.985753 7.79401C0.975144 7.79401 0.964535 7.79372 0.953926 7.79323C0.943316 7.79275 0.932707 7.79197 0.911489 7.79091C0.90088 7.78994 0.89027 7.78868 0.879662 7.78713C0.869053 7.78558 0.858572 7.78383 0.847963 7.7818C0.837355 7.77977 0.826745 7.77744 0.816136 7.77492C0.805526 7.7724 0.794917 7.76969 0.784308 7.76659C0.773699 7.76359 0.76309 7.76039 0.75248 7.75681C0.741872 7.75332 0.731262 7.74964 0.720782 7.74557C0.710173 7.7416 0.699564 7.73743 0.688955 7.73298C0.678346 7.72852 0.667736 7.72387 0.657128 7.71893C0.646518 7.71399 0.635909 7.70885 0.625299 7.70353C0.614691 7.6982 0.604082 7.69268 0.593601 7.68686C0.593601 7.68105 0.582992 7.67514 0.572384 7.66894C0.561774 7.66274 0.551165 7.65635 0.540555 7.64967C0.529946 7.64308 0.529946 7.6363 0.519338 7.62932C0.508728 7.62235 0.498119 7.61518 0.498119 7.60782C0.487509 7.60045 0.476901 7.5929 0.466291 7.58524C0.466291 7.5775 0.455811 7.56965 0.445202 7.56161C0.445202 7.55357 0.434593 7.54533 0.423984 7.537C0.423984 7.52857 0.413375 7.52015 0.402765 7.51143C0.402765 7.50281 0.392156 7.49399 0.392156 7.48508C0.381547 7.47617 0.381547 7.46716 0.370938 7.45795C0.370938 7.44875 0.360329 7.43945 0.360329 7.43005C0.34972 7.42066 0.34972 7.41116 0.33911 7.40157C0.33911 7.39198 0.33911 7.3822 0.328631 7.37242C0.328631 7.36263 0.318021 7.35275 0.318021 7.34277C0.318021 7.33289 0.318021 7.32282 0.307412 7.31274C0.307412 7.30267 0.307412 7.29249 0.307412 7.28232C0.296803 7.27205 0.296803 7.26188 0.296803 7.25152C0.296803 7.24125 0.296803 7.23098 0.296803 7.22062C0.296803 7.21025 0.286194 7.19988 0.286194 7.18942C0.286194 7.17906 0.286194 7.16869 0.286194 7.15833C0.286194 7.14786 0.286194 7.1375 0.286194 7.12713C0.286194 7.11667 0.296803 7.10631 0.296803 7.09594C0.296803 7.08557 0.296803 7.07531 0.296803 7.06504C0.296803 7.05467 0.296803 7.0445 0.307412 7.03423C0.307412 7.02406 0.307412 7.01389 0.307412 7.00381C0.318021 6.99374 0.318021 6.98366 0.318021 6.97378C0.318021 6.96381 0.328631 6.95392 0.328631 6.94414C0.33911 6.93426 0.33911 6.92457 0.33911 6.91498C0.34972 6.90539 0.34972 6.8959 0.360329 6.8865C0.360329 6.8771 0.370938 6.8678 0.370938 6.8586C0.381547 6.8494 0.381547 6.84039 0.392156 6.83148C0.392156 6.82256 0.402765 6.81375 0.402765 6.80513C0.413375 6.79641 0.423984 6.78798 0.423984 6.77955C0.434593 6.77122 0.445202 6.76299 0.445202 6.75495C0.455811 6.74691 0.466291 6.73906 0.466291 6.73131C0.476901 6.72366 0.487509 6.7161 0.498119 6.70874C0.498119 6.70138 0.508728 6.69421 0.519338 6.68723C0.529946 6.68026 0.529946 6.67348 0.540555 6.66689C0.551165 6.66021 0.561774 6.65381 0.572384 6.64761C0.582992 6.64141 0.593601 6.6355 0.593601 6.62969C0.604082 6.62388 0.614691 6.61836 0.625299 6.61303C0.635909 6.6077 0.646518 6.60247 0.657128 6.59763C0.667736 6.59269 0.678346 6.58804 0.688955 6.58358C0.699564 6.57912 0.710173 6.57496 0.720782 6.57099C0.731262 6.56692 0.741872 6.56324 0.75248 6.55975C0.76309 6.55616 0.773699 6.55297 0.784308 6.54996C0.794917 6.54686 0.805526 6.54415 0.816136 6.54163C0.826745 6.53911 0.837355 6.53679 0.847963 6.53476C0.858572 6.53272 0.869053 6.53098 0.879662 6.52943C0.89027 6.52788 0.90088 6.52662 0.911489 6.52565C0.932707 6.52458 0.943316 6.52381 0.953926 6.52332C0.964535 6.52284 0.975144 6.52255 0.985753 6.52255L19.0673 6.52255C19.0779 6.52255 19.0885 6.52284 19.0991 6.52332C19.1097 6.52381 19.1309 6.52458 19.1415 6.52565C19.152 6.52662 19.1626 6.52788 19.1732 6.52943C19.1839 6.53098 19.1945 6.53272 19.2051 6.53476C19.2157 6.53679 19.2263 6.53911 19.2369 6.54163C19.2475 6.54415 19.2581 6.54686 19.2687 6.54996C19.2792 6.55297 19.2898 6.55616 19.3004 6.55975C19.3111 6.56324 19.3217 6.56692 19.3323 6.57099C19.3429 6.57496 19.3535 6.57912 19.3641 6.58358C19.3747 6.58804 19.3853 6.59269 19.3959 6.59763C19.4065 6.60247 19.417 6.6077 19.4276 6.61303C19.4382 6.61836 19.4489 6.62388 19.4595 6.62969C19.4701 6.6355 19.4701 6.64141 19.4807 6.64761C19.4913 6.65381 19.5019 6.66021 19.5125 6.66689C19.5231 6.67348 19.5231 6.68026 19.5337 6.68723C19.5442 6.69421 19.5548 6.70138 19.5654 6.70874C19.5654 6.7161 19.5761 6.72366 19.5867 6.73131C19.5973 6.73906 19.5973 6.74691 19.6079 6.75495C19.6185 6.76299 19.6185 6.77122 19.6291 6.77955C19.6397 6.78798 19.6397 6.79641 19.6503 6.80513C19.6503 6.81375 19.6609 6.82256 19.6609 6.83148C19.6715 6.84039 19.682 6.8494 19.682 6.8586C19.6926 6.8678 19.6926 6.8771 19.7032 6.8865C19.7032 6.8959 19.7032 6.90539 19.7139 6.91498C19.7139 6.92457 19.7245 6.93426 19.7245 6.94414C19.7245 6.95392 19.7351 6.96381 19.7351 6.97378C19.7351 6.98366 19.7457 6.99374 19.7457 7.00381C19.7457 7.01389 19.7457 7.02406 19.7563 7.03423C19.7563 7.0445 19.7563 7.05467 19.7563 7.06504C19.7563 7.07531 19.7563 7.08557 19.7563 7.09594C19.7669 7.10631 19.7669 7.11667 19.7669 7.12713C19.7669 7.1375 19.7669 7.14786 19.7669 7.15833C19.7669 7.16869 19.7669 7.17906 19.7669 7.18942C19.7669 7.19988 19.7669 7.21025 19.7563 7.22062C19.7563 7.23098 19.7563 7.24125 19.7563 7.25152C19.7563 7.26188 19.7563 7.27205 19.7563 7.28232C19.7457 7.29249 19.7457 7.30267 19.7457 7.31274C19.7457 7.32282 19.7351 7.33289 19.7351 7.34277C19.7351 7.35275 19.7245 7.36263 19.7245 7.37242C19.7245 7.3822 19.7139 7.39198 19.7139 7.40157C19.7032 7.41116 19.7032 7.42066 19.7032 7.43005C19.6926 7.43945 19.6926 7.44875 19.682 7.45795C19.682 7.46716 19.6715 7.47617 19.6609 7.48508C19.6609 7.49399 19.6503 7.50281 19.6503 7.51143C19.6397 7.52015 19.6397 7.52857 19.6291 7.537C19.6185 7.54533 19.6185 7.55357 19.6079 7.56161C19.5973 7.56965 19.5973 7.5775 19.5867 7.58524C19.5761 7.5929 19.5654 7.60045 19.5654 7.60782C19.5548 7.61518 19.5442 7.62235 19.5337 7.62932C19.5231 7.6363 19.5231 7.64308 19.5125 7.64967C19.5019 7.65635 19.4913 7.66274 19.4807 7.66894C19.4701 7.67514 19.4701 7.68105 19.4595 7.68686C19.4489 7.69268 19.4382 7.6982 19.4276 7.70353C19.417 7.70885 19.4065 7.71399 19.3959 7.71893C19.3853 7.72387 19.3747 7.72852 19.3641 7.73298C19.3535 7.73743 19.3429 7.7416 19.3323 7.74557C19.3217 7.74964 19.3111 7.75332 19.3004 7.75681C19.2898 7.76039 19.2792 7.76359 19.2687 7.76659C19.2581 7.76969 19.2475 7.7724 19.2369 7.77492C19.2263 7.77744 19.2157 7.77977 19.2051 7.7818C19.1945 7.78383 19.1839 7.78558 19.1732 7.78713C19.1626 7.78868 19.152 7.78994 19.1415 7.79091C19.1309 7.79197 19.1097 7.79275 19.0991 7.79323C19.0885 7.79372 19.0779 7.79401 19.0673 7.79401ZM6.32748 5.28926C6.31687 5.28926 6.30626 5.28897 6.29565 5.28849C6.28517 5.288 6.27456 5.28723 6.26395 5.28616C6.24274 5.28519 6.23213 5.28384 6.22152 5.28238C6.21091 5.28083 6.2003 5.27899 6.18969 5.27696C6.17908 5.27492 6.16847 5.2727 6.15799 5.27008C6.14738 5.26756 6.13677 5.26475 6.12616 5.26175C6.11555 5.25875 6.10494 5.25545 6.09434 5.25187C6.08373 5.24838 6.07312 5.2446 6.06251 5.24063C6.0519 5.23666 6.04129 5.2324 6.03068 5.22794C6.0202 5.22348 6.00959 5.21874 5.99898 5.2138C5.98837 5.20886 5.97777 5.20372 5.96716 5.19839C5.96716 5.19297 5.95655 5.18745 5.94594 5.18163C5.93533 5.17582 5.92472 5.16982 5.91411 5.16362C5.9035 5.15732 5.9035 5.15093 5.89302 5.14434C5.88241 5.13765 5.8718 5.13087 5.86119 5.1239C5.86119 5.11683 5.85058 5.10966 5.83997 5.1023C5.82936 5.09493 5.82936 5.08738 5.81875 5.07963C5.80815 5.07188 5.79754 5.06403 5.79754 5.05599C5.78693 5.04785 5.77632 5.03972 5.77632 5.03129C5.76571 5.02296 5.76571 5.01443 5.75523 5.00581C5.74462 4.99709 5.74462 4.98828 5.73401 4.97936C5.73401 4.97045 5.7234 4.96135 5.7234 4.95224C5.7128 4.94304 5.7128 4.93374 5.70219 4.92434C5.70219 4.91494 5.70219 4.90545 5.69158 4.89586C5.69158 4.88627 5.68097 4.87658 5.68097 4.8668C5.68097 4.85701 5.67036 4.84713 5.67036 4.83715C5.67036 4.82727 5.67036 4.8173 5.65975 4.80722C5.65975 4.79715 5.65975 4.78697 5.65975 4.7769C5.64914 4.76673 5.64914 4.75646 5.64914 4.74629C5.64914 4.73602 5.64914 4.72575 5.64914 4.71548C5.64914 4.70512 5.64914 4.69485 5.64914 4.68448C5.64914 4.67421 5.64914 4.66385 5.64914 4.65348L5.64914 0.635677C5.64914 0.62541 5.64914 0.615045 5.64914 0.604776C5.64914 0.59441 5.64914 0.584045 5.64914 0.573775C5.64914 0.563509 5.64914 0.553239 5.64914 0.54297C5.64914 0.532704 5.64914 0.52253 5.65975 0.512361C5.65975 0.502187 5.65975 0.492113 5.65975 0.482037C5.67036 0.471963 5.67036 0.461985 5.67036 0.452008C5.67036 0.442126 5.68097 0.432245 5.68097 0.422463C5.68097 0.412678 5.69158 0.402988 5.69158 0.393398C5.70219 0.383808 5.70219 0.374315 5.70219 0.364918C5.7128 0.355425 5.7128 0.346223 5.7234 0.337018C5.7234 0.327816 5.73401 0.318807 5.73401 0.309798C5.74462 0.300887 5.74462 0.29207 5.75523 0.283449C5.76571 0.274827 5.76571 0.266303 5.77632 0.257873C5.77632 0.249544 5.78693 0.24131 5.79754 0.233269C5.79754 0.225228 5.80815 0.217283 5.81875 0.209633C5.82936 0.20188 5.82936 0.194327 5.83997 0.186962C5.85058 0.179505 5.86119 0.172335 5.86119 0.165362C5.8718 0.158289 5.88241 0.151508 5.89302 0.144919C5.9035 0.138238 5.9035 0.131841 5.91411 0.125644C5.92472 0.119443 5.93533 0.113438 5.94594 0.107625C5.95655 0.101812 5.96716 0.0961915 5.96716 0.0908664C5.97777 0.0854415 5.98837 0.0803049 5.99898 0.0753641C6.00959 0.0704234 6.0202 0.0657746 6.03068 0.0613179C6.04129 0.0568612 6.0519 0.0526004 6.06251 0.0486279C6.07312 0.0445592 6.08373 0.0407825 6.09434 0.037294C6.10494 0.0338056 6.11555 0.030513 6.12616 0.0275086C6.13677 0.0244119 6.14738 0.0215997 6.15799 0.0190831C6.16847 0.0165628 6.17908 0.0142384 6.18969 0.0122059C6.2003 0.0101697 6.21091 0.00842553 6.22152 0.00687715C6.23213 0.00532508 6.24274 0.00406864 6.26395 0.00300067C6.27456 0.00203247 6.28517 0.00125644 6.29565 0.000772341C6.30626 0.000192161 6.31687 0 6.32748 0C6.33809 0 6.3487 0.000192161 6.35931 0.000772341C6.36992 0.00125644 6.38053 0.00203247 6.39113 0.00300067C6.40174 0.00406864 6.41235 0.00532508 6.43344 0.00687715C6.44405 0.00842553 6.45466 0.0101697 6.46527 0.0122059C6.47588 0.0142384 6.48649 0.0164667 6.4971 0.018987C6.50771 0.0215997 6.51831 0.0243121 6.52892 0.0273164C6.53953 0.0304169 6.55014 0.0336134 6.56062 0.0371019C6.57123 0.0406864 6.58184 0.0443671 6.59245 0.0483397C6.60306 0.0523085 6.61367 0.056573 6.62428 0.0610296C6.63489 0.0654864 6.6455 0.0701351 6.65611 0.0750759C6.66671 0.0799168 6.67732 0.0850535 6.68793 0.0903823C6.69842 0.0958071 6.69842 0.101328 6.70903 0.107141C6.71964 0.112854 6.73024 0.118863 6.74085 0.12506C6.75146 0.131261 6.76207 0.137653 6.77268 0.144243C6.77268 0.150928 6.78328 0.157709 6.79389 0.164682C6.8045 0.171659 6.81511 0.178824 6.81511 0.18619C6.82559 0.193551 6.8362 0.201108 6.84681 0.208761C6.84681 0.21651 6.85742 0.224356 6.86803 0.232397C6.86803 0.240438 6.87864 0.248672 6.88925 0.257001C6.88925 0.265334 6.89986 0.27386 6.91047 0.28248C6.91047 0.291198 6.92108 0.299916 6.92108 0.308829C6.93169 0.317838 6.93169 0.326848 6.9423 0.336049C6.9423 0.345158 6.9529 0.354456 6.9529 0.363854C6.96339 0.373347 6.96339 0.382841 6.974 0.39243C6.974 0.40202 6.974 0.411709 6.98461 0.421491C6.98461 0.431372 6.98461 0.441254 6.99521 0.451135C6.99521 0.461113 6.99521 0.471187 7.00582 0.481264C7.00582 0.491337 7.00582 0.501511 7.00582 0.511681C7.00582 0.521854 7.01643 0.53212 7.01643 0.542389C7.01643 0.552756 7.01643 0.563025 7.01643 0.573391C7.01643 0.583756 7.01643 0.594121 7.01643 0.604484C7.02704 0.614949 7.02704 0.625315 7.02704 0.635677L7.02704 4.65348C7.02704 4.66395 7.02704 4.67431 7.01643 4.68468C7.01643 4.69514 7.01643 4.7055 7.01643 4.71587C7.01643 4.72614 7.01643 4.7365 7.01643 4.74677C7.01643 4.75704 7.00582 4.76731 7.00582 4.77758C7.00582 4.78775 7.00582 4.79792 7.00582 4.808C6.99521 4.81807 6.99521 4.82805 6.99521 4.83803C6.98461 4.848 6.98461 4.85788 6.98461 4.86767C6.974 4.87745 6.974 4.88714 6.974 4.89683C6.96339 4.90642 6.96339 4.91591 6.9529 4.92531C6.9529 4.93471 6.9423 4.94401 6.9423 4.95321C6.93169 4.96231 6.93169 4.97142 6.92108 4.98033C6.92108 4.98924 6.91047 4.99806 6.91047 5.00668C6.89986 5.0153 6.88925 5.02383 6.88925 5.03216C6.87864 5.04059 6.86803 5.04882 6.86803 5.05686C6.85742 5.0649 6.84681 5.07275 6.84681 5.0804C6.8362 5.08815 6.82559 5.09571 6.81511 5.10307C6.81511 5.11043 6.8045 5.1176 6.79389 5.12458C6.78328 5.13155 6.77268 5.13833 6.77268 5.14492C6.76207 5.15151 6.75146 5.1579 6.74085 5.1641C6.73024 5.1703 6.71964 5.17631 6.70903 5.18212C6.69842 5.18783 6.69842 5.19345 6.68793 5.19878C6.67732 5.20411 6.66671 5.20924 6.65611 5.21418C6.6455 5.21903 6.63489 5.22377 6.62428 5.22823C6.61367 5.23269 6.60306 5.23685 6.59245 5.24082C6.58184 5.2448 6.57123 5.24857 6.56062 5.25206C6.55014 5.25555 6.53953 5.25884 6.52892 5.26185C6.51831 5.26485 6.50771 5.26766 6.4971 5.27018C6.48649 5.2727 6.47588 5.27502 6.46527 5.27705C6.45466 5.27909 6.44405 5.28083 6.43344 5.28238C6.41235 5.28393 6.40174 5.28519 6.39113 5.28616C6.38053 5.28723 6.36992 5.288 6.35931 5.28849C6.3487 5.28897 6.33809 5.28926 6.32748 5.28926ZM13.6619 5.28926C13.6513 5.28926 13.6301 5.28897 13.6195 5.28849C13.6088 5.288 13.5982 5.28723 13.5876 5.28616C13.5771 5.28519 13.5665 5.28384 13.5559 5.28238C13.5453 5.28083 13.5347 5.27899 13.5241 5.27696C13.5135 5.27492 13.5029 5.2727 13.4923 5.27008C13.4817 5.26756 13.471 5.26475 13.4604 5.26175C13.4498 5.25875 13.4394 5.25545 13.4288 5.25187C13.4182 5.24838 13.4076 5.2446 13.397 5.24063C13.3864 5.23666 13.3758 5.2324 13.3652 5.22794C13.3546 5.22348 13.3439 5.21874 13.3333 5.2138C13.3227 5.20886 13.3122 5.20372 13.3016 5.19839C13.291 5.19297 13.2804 5.18745 13.2698 5.18163C13.2698 5.17582 13.2592 5.16982 13.2486 5.16362C13.238 5.15732 13.2274 5.15093 13.2168 5.14434C13.2168 5.13765 13.2061 5.13087 13.1955 5.1239C13.1849 5.11683 13.1744 5.10966 13.1744 5.1023C13.1638 5.09493 13.1532 5.08738 13.1426 5.07963C13.1426 5.07188 13.132 5.06403 13.1214 5.05599C13.1214 5.04785 13.1108 5.03972 13.1002 5.03129C13.1002 5.02296 13.0896 5.01443 13.0896 5.00581C13.0789 4.99709 13.0789 4.98828 13.0683 4.97936C13.0577 4.97045 13.0577 4.96135 13.0472 4.95224C13.0472 4.94304 13.0472 4.93374 13.0366 4.92434C13.0366 4.91494 13.026 4.90545 13.026 4.89586C13.0154 4.88627 13.0154 4.87658 13.0154 4.8668C13.0048 4.85701 13.0048 4.84713 13.0048 4.83715C12.9942 4.82727 12.9942 4.8173 12.9942 4.80722C12.9942 4.79715 12.9942 4.78697 12.9836 4.7769C12.9836 4.76673 12.9836 4.75646 12.9836 4.74629C12.9836 4.73602 12.9836 4.72575 12.973 4.71548C12.973 4.70512 12.973 4.69485 12.973 4.68448C12.973 4.67421 12.973 4.66385 12.973 4.65348L12.973 0.635677C12.973 0.625315 12.973 0.614949 12.973 0.604484C12.973 0.594121 12.9836 0.583756 12.9836 0.573391C12.9836 0.563025 12.9836 0.552756 12.9836 0.542389C12.9836 0.53212 12.9836 0.521854 12.9942 0.511681C12.9942 0.501511 12.9942 0.491337 12.9942 0.481264C13.0048 0.471187 13.0048 0.461113 13.0048 0.451135C13.0048 0.441254 13.0154 0.431372 13.0154 0.421491C13.026 0.411709 13.026 0.40202 13.026 0.39243C13.0366 0.382841 13.0366 0.373347 13.0472 0.363854C13.0472 0.354456 13.0577 0.345158 13.0577 0.336049C13.0683 0.326848 13.0683 0.317838 13.0789 0.308829C13.0789 0.299916 13.0896 0.291198 13.0896 0.28248C13.1002 0.27386 13.1108 0.265334 13.1108 0.257001C13.1214 0.248672 13.132 0.240438 13.132 0.232397C13.1426 0.224356 13.1532 0.21651 13.1532 0.208761C13.1638 0.201108 13.1744 0.193551 13.1849 0.18619C13.1849 0.178824 13.1955 0.171659 13.2061 0.164682C13.2168 0.157709 13.2168 0.150928 13.2274 0.144243C13.238 0.137653 13.2486 0.131261 13.2592 0.12506C13.2698 0.118863 13.2804 0.112854 13.2804 0.107141C13.291 0.101328 13.3016 0.0958071 13.3122 0.0903823C13.3227 0.0850535 13.3333 0.0799168 13.3439 0.0750759C13.3546 0.0701351 13.3652 0.0654864 13.3758 0.0610296C13.3864 0.056573 13.397 0.0523085 13.4076 0.0483397C13.4182 0.0443671 13.4288 0.0406864 13.4394 0.0371019C13.4498 0.0336134 13.4604 0.0304169 13.471 0.0273164C13.4817 0.0243121 13.4923 0.0215997 13.5029 0.018987C13.5135 0.0164667 13.5241 0.0142384 13.5347 0.0122059C13.5453 0.0101697 13.5559 0.00842553 13.5665 0.00687715C13.5771 0.00532508 13.5876 0.00406864 13.5982 0.00300067C13.6195 0.00203247 13.6301 0.00125644 13.6407 0.000772341C13.6513 0.000192161 13.6619 0 13.6725 0C13.6831 0 13.6937 0.000192161 13.7043 0.000772341C13.7148 0.00125644 13.7254 0.00203247 13.736 0.00300067C13.7467 0.00406864 13.7573 0.00532508 13.7785 0.00687715C13.7891 0.00842553 13.7997 0.0101697 13.8103 0.0122059C13.8209 0.0142384 13.8315 0.0164667 13.8421 0.018987C13.8526 0.0215997 13.8632 0.0243121 13.8738 0.0273164C13.8845 0.0304169 13.8951 0.0336134 13.9057 0.0371019C13.9163 0.0406864 13.9269 0.0443671 13.9375 0.0483397C13.9481 0.0523085 13.9587 0.056573 13.9693 0.0610296C13.9798 0.0654864 13.9904 0.0701351 14.001 0.0750759C14.0117 0.0799168 14.0223 0.0850535 14.0329 0.0903823C14.0435 0.0958071 14.0541 0.101328 14.0541 0.107141C14.0647 0.112854 14.0753 0.118863 14.0859 0.12506C14.0965 0.131261 14.1071 0.137653 14.1176 0.144243C14.1176 0.150928 14.1282 0.157709 14.1388 0.164682C14.1495 0.171659 14.1601 0.178824 14.1601 0.18619C14.1707 0.193551 14.1813 0.201108 14.1919 0.208761C14.1919 0.21651 14.2025 0.224356 14.2131 0.232397C14.2131 0.240438 14.2237 0.248672 14.2343 0.257001C14.2343 0.265334 14.2448 0.27386 14.2448 0.28248C14.2554 0.291198 14.266 0.299916 14.266 0.308829C14.2767 0.317838 14.2767 0.326848 14.2873 0.336049C14.2873 0.345158 14.2979 0.354456 14.2979 0.363854C14.3085 0.373347 14.3085 0.382841 14.3191 0.39243C14.3191 0.40202 14.3191 0.411709 14.3297 0.421491C14.3297 0.431372 14.3297 0.441254 14.3403 0.451135C14.3403 0.461113 14.3403 0.471187 14.3509 0.481264C14.3509 0.491337 14.3509 0.501511 14.3509 0.511681C14.3614 0.521854 14.3614 0.53212 14.3614 0.542389C14.3614 0.552756 14.3614 0.563025 14.3614 0.573391C14.3614 0.583756 14.3614 0.594121 14.3614 0.604484C14.372 0.614949 14.372 0.625315 14.372 0.635677L14.372 4.65348C14.372 4.66414 14.372 4.6747 14.372 4.68526C14.372 4.69591 14.3614 4.70647 14.3614 4.71703C14.3614 4.72759 14.3614 4.73815 14.3614 4.74861C14.3614 4.75917 14.3614 4.76963 14.3614 4.7801C14.3509 4.79046 14.3509 4.80083 14.3509 4.81119C14.3509 4.82146 14.3403 4.83173 14.3403 4.8419C14.3403 4.85207 14.3297 4.86215 14.3297 4.87213C14.3297 4.8822 14.3191 4.89208 14.3191 4.90187C14.3085 4.91175 14.3085 4.92143 14.2979 4.93102C14.2979 4.94061 14.2979 4.95011 14.2873 4.95941C14.2873 4.9688 14.2767 4.97801 14.266 4.98711C14.266 4.99622 14.2554 5.00513 14.2554 5.01395C14.2448 5.02276 14.2343 5.03138 14.2343 5.03991C14.2237 5.04843 14.2131 5.05677 14.2131 5.0649C14.2025 5.07304 14.1919 5.08098 14.1919 5.08883C14.1813 5.09658 14.1707 5.10423 14.1601 5.1116C14.1495 5.11905 14.1495 5.12622 14.1388 5.13329C14.1282 5.14027 14.1176 5.14715 14.1071 5.15374C14.1071 5.16032 14.0965 5.16672 14.0859 5.17292C14.0753 5.17912 14.0647 5.18512 14.0541 5.19084C14.0435 5.19655 14.0329 5.20207 14.0223 5.20731C14.0117 5.21254 14.001 5.21757 13.9904 5.22242C13.9798 5.22716 13.9693 5.23172 13.9587 5.23608C13.9481 5.24034 13.9375 5.24441 13.9269 5.24819C13.9163 5.25206 13.9057 5.25555 13.8951 5.25884C13.8845 5.26214 13.8738 5.26524 13.8632 5.26795C13.8526 5.27076 13.8421 5.27328 13.8315 5.2755C13.8209 5.27773 13.8103 5.27977 13.7997 5.28151C13.7891 5.28325 13.7785 5.28471 13.7573 5.28587C13.7467 5.28703 13.736 5.2879 13.7254 5.28858C13.7148 5.28926 13.7043 5.28965 13.6937 5.28974C13.6831 5.28984 13.6725 5.28965 13.6619 5.28926ZM8.59565 16.5798C8.58504 16.5796 8.57443 16.5791 8.56382 16.5784C8.55321 16.5778 8.53212 16.5768 8.52151 16.5756C8.5109 16.5745 8.50029 16.573 8.48968 16.5714C8.47907 16.5696 8.46846 16.5678 8.45785 16.5656C8.44725 16.5634 8.43664 16.561 8.42603 16.5583C8.41542 16.5557 8.40493 16.5528 8.39433 16.5497C8.37311 16.5466 8.36251 16.5432 8.3519 16.5396C8.34129 16.536 8.33068 16.5321 8.32007 16.5281C8.30946 16.524 8.29885 16.5196 8.28824 16.5152C8.27776 16.5106 8.26715 16.5059 8.25654 16.5009C8.24593 16.4959 8.24593 16.4908 8.23532 16.4853C8.22471 16.4799 8.2141 16.4743 8.20349 16.4685C8.19288 16.4627 8.18227 16.4567 8.17167 16.4504C8.16106 16.4442 8.15045 16.4377 8.15045 16.4311C8.13996 16.4245 8.12935 16.4176 8.11874 16.4107C8.10814 16.4037 8.09754 16.3964 8.09754 16.3891L5.31003 13.6427C5.29942 13.6356 5.28881 13.6284 5.2782 13.6208C5.2782 13.6133 5.26759 13.6055 5.25698 13.5975C5.24638 13.5895 5.23577 13.5814 5.22528 13.573C5.22528 13.5645 5.21467 13.5559 5.20406 13.5472C5.19346 13.5384 5.19346 13.5294 5.18286 13.5203C5.17225 13.5111 5.17225 13.5018 5.16164 13.4923C5.15103 13.4828 5.15103 13.4731 5.14042 13.4633C5.14042 13.4534 5.12981 13.4434 5.12981 13.4334C5.1192 13.4233 5.1192 13.413 5.10859 13.4027C5.10859 13.3923 5.09811 13.3818 5.09811 13.3713C5.0875 13.3606 5.0875 13.35 5.0875 13.3391C5.07689 13.3284 5.07689 13.3175 5.07689 13.3066C5.06628 13.2955 5.06628 13.2846 5.06628 13.2734C5.06628 13.2624 5.05567 13.2512 5.05567 13.24C5.05567 13.2288 5.05567 13.2175 5.05567 13.2063C5.05567 13.195 5.05567 13.1837 5.05567 13.1724C5.05567 13.1611 5.04506 13.1497 5.05567 13.1384C5.05567 13.1271 5.05567 13.1158 5.05567 13.1045C5.05567 13.0931 5.05567 13.0819 5.05567 13.0707C5.05567 13.0594 5.05567 13.0482 5.05567 13.0371C5.06628 13.0259 5.06628 13.0148 5.06628 13.0037C5.06628 12.9928 5.07689 12.9817 5.07689 12.9709C5.07689 12.96 5.0875 12.9492 5.0875 12.9385C5.0875 12.9278 5.09811 12.9172 5.09811 12.9068C5.10859 12.8962 5.10859 12.8858 5.1192 12.8757C5.1192 12.8654 5.12981 12.8552 5.12981 12.8452C5.14042 12.8353 5.14042 12.8255 5.15103 12.8158C5.16164 12.8061 5.16164 12.7966 5.17225 12.7873C5.18286 12.7779 5.18286 12.7688 5.19346 12.7598C5.20406 12.7508 5.20406 12.742 5.21467 12.7334C5.22528 12.7247 5.23577 12.7164 5.24638 12.7082C5.24638 12.6999 5.25698 12.692 5.26759 12.6841C5.2782 12.6764 5.28881 12.6688 5.29942 12.6616C5.31003 12.6542 5.31003 12.6471 5.32064 12.6403C5.33125 12.6334 5.34186 12.6268 5.35247 12.6204C5.36308 12.6141 5.37356 12.608 5.38417 12.6021C5.39478 12.5963 5.40539 12.5907 5.416 12.5853C5.42661 12.58 5.43722 12.575 5.44783 12.5701C5.45843 12.5654 5.47965 12.5609 5.49025 12.5567C5.50074 12.5524 5.51135 12.5484 5.52196 12.5448C5.53257 12.5412 5.54317 12.5378 5.55378 12.5347C5.56439 12.5316 5.58561 12.5288 5.59622 12.5263C5.60683 12.5238 5.61744 12.5216 5.62805 12.5198C5.63853 12.5178 5.64914 12.5162 5.67036 12.5149C5.68097 12.5136 5.69158 12.5126 5.70219 12.5119C5.7128 12.5111 5.7234 12.5107 5.74462 12.5107C5.75523 12.5106 5.76571 12.5107 5.77632 12.5112C5.78693 12.5118 5.79754 12.5126 5.81875 12.5137C5.82936 12.5148 5.83997 12.5162 5.85058 12.5179C5.86119 12.5197 5.8718 12.5216 5.88241 12.5239C5.9035 12.5262 5.91411 12.5289 5.92472 12.5318C5.93533 12.5347 5.94594 12.5378 5.95655 12.5413C5.96716 12.5447 5.97777 12.5485 5.99898 12.5526C6.00959 12.5566 6.0202 12.5609 6.03068 12.5656C6.04129 12.5701 6.0519 12.575 6.06251 12.5802C6.07312 12.5853 6.08373 12.5908 6.09434 12.5964C6.10494 12.6021 6.11555 12.608 6.12616 12.6142C6.13677 12.6204 6.14738 12.6269 6.15799 12.6336C6.16847 12.6403 6.17908 12.6472 6.18969 12.6544C6.2003 12.6616 6.2003 12.6689 6.21091 12.6766C6.22152 12.6842 6.23213 12.6921 6.24274 12.7001C6.25334 12.7082 6.25334 12.7165 6.26395 12.7249C6.27456 12.7335 6.28517 12.7421 6.29565 12.751C6.29565 12.7598 6.30626 12.7689 6.31687 12.7781L8.68039 15.1176L14.7747 9.56135C14.7747 9.5538 14.7853 9.54634 14.7959 9.53917C14.8066 9.53191 14.8066 9.52493 14.8172 9.51815C14.8278 9.51137 14.8384 9.50468 14.849 9.49829C14.8596 9.4919 14.8596 9.4857 14.8702 9.47969C14.8808 9.47378 14.8914 9.46807 14.902 9.46245C14.9125 9.45693 14.9231 9.4516 14.9337 9.44656C14.9444 9.44152 14.955 9.43658 14.9656 9.43203C14.9762 9.42738 14.9868 9.42302 14.9974 9.41895C15.008 9.41479 15.0186 9.41091 15.0292 9.40723C15.0397 9.40365 15.0503 9.40026 15.0609 9.39715C15.0716 9.39396 15.0822 9.39105 15.0928 9.38844C15.1034 9.38582 15.114 9.3835 15.1246 9.38136C15.1352 9.37923 15.1458 9.37739 15.1564 9.37584C15.167 9.37429 15.1775 9.37294 15.1881 9.37187C15.1987 9.37081 15.2094 9.37003 15.22 9.36945C15.2306 9.36897 15.2412 9.36867 15.2624 9.36867C15.2729 9.36867 15.2835 9.36897 15.2941 9.36945C15.3046 9.37003 15.3152 9.37081 15.3258 9.37187C15.3365 9.37294 15.3471 9.37429 15.3577 9.37584C15.3683 9.37739 15.3789 9.37923 15.3895 9.38136C15.4001 9.3835 15.4107 9.38582 15.4213 9.38844C15.4424 9.39105 15.453 9.39396 15.4636 9.39715C15.4743 9.40026 15.4849 9.40365 15.4955 9.40723C15.5061 9.41091 15.5167 9.41479 15.5273 9.41895C15.5379 9.42302 15.5485 9.42738 15.5591 9.43203C15.5591 9.43658 15.5696 9.44152 15.5802 9.44656C15.5908 9.4516 15.6015 9.45693 15.6121 9.46245C15.6227 9.46807 15.6333 9.47378 15.6439 9.47969C15.6545 9.4857 15.6651 9.4919 15.6651 9.49829C15.6757 9.50468 15.6863 9.51137 15.6969 9.51815C15.7074 9.52493 15.7074 9.53191 15.718 9.53917C15.7286 9.54634 15.7393 9.5538 15.7393 9.56135C15.7499 9.56852 15.7605 9.57589 15.7711 9.58344C15.7711 9.591 15.7817 9.59865 15.7923 9.60659C15.7923 9.61444 15.8029 9.62239 15.8135 9.63062C15.8135 9.63876 15.8241 9.64709 15.8241 9.65552C15.8346 9.66394 15.8452 9.67256 15.8452 9.68128C15.8558 9.69 15.8558 9.69882 15.8665 9.70773C15.8665 9.71674 15.8771 9.72575 15.8771 9.73495C15.8771 9.74415 15.8877 9.75345 15.8877 9.76275C15.8983 9.77215 15.8983 9.78164 15.8983 9.79123C15.9089 9.80073 15.9089 9.81042 15.9089 9.8201C15.9195 9.82979 15.9195 9.83957 15.9195 9.84945C15.9195 9.85924 15.9301 9.86912 15.9301 9.8791C15.9301 9.88908 15.9301 9.89905 15.9301 9.90903C15.9407 9.91911 15.9407 9.92918 15.9407 9.93926C15.9407 9.94933 15.9407 9.9595 15.9407 9.96958C15.9407 9.97975 15.9407 9.98982 15.9407 10C15.9407 10.0102 15.9407 10.0202 15.9407 10.0304C15.9407 10.0405 15.9407 10.0507 15.9407 10.0607C15.9407 10.0708 15.9407 10.0809 15.9301 10.091C15.9301 10.1009 15.9301 10.1109 15.9301 10.1209C15.9301 10.1309 15.9195 10.1408 15.9195 10.1505C15.9195 10.1604 15.9195 10.1702 15.9089 10.1799C15.9089 10.1896 15.9089 10.1993 15.8983 10.2088C15.8983 10.2183 15.8983 10.2278 15.8877 10.2371C15.8877 10.2465 15.8771 10.2558 15.8771 10.265C15.8771 10.2741 15.8665 10.2833 15.8665 10.2922C15.8558 10.3012 15.8558 10.31 15.8452 10.3187C15.8452 10.3274 15.8346 10.336 15.8241 10.3445C15.8241 10.3529 15.8135 10.3612 15.8135 10.3694C15.8029 10.3775 15.7923 10.3855 15.7923 10.3934C15.7817 10.4012 15.7711 10.409 15.7711 10.4165C15.7605 10.424 15.7499 10.4315 15.7393 10.4386L9.08315 16.3891C9.07267 16.3964 9.06206 16.4037 9.06206 16.4107C9.05145 16.4177 9.04084 16.4245 9.03023 16.4312C9.01962 16.4379 9.00902 16.4443 9.00902 16.4506C8.99841 16.4569 8.9878 16.4629 8.97719 16.4687C8.96658 16.4746 8.95597 16.4802 8.94536 16.4856C8.93488 16.4911 8.92427 16.4963 8.92427 16.5012C8.91366 16.5063 8.90305 16.511 8.89245 16.5155C8.88184 16.52 8.87123 16.5244 8.86062 16.5285C8.85001 16.5325 8.8394 16.5364 8.82879 16.54C8.81818 16.5436 8.8077 16.547 8.79709 16.5501C8.78648 16.5532 8.77587 16.5561 8.76526 16.5588C8.75465 16.5614 8.74404 16.5637 8.73343 16.5659C8.72283 16.5681 8.70161 16.57 8.691 16.5717C8.68039 16.5733 8.66991 16.5747 8.6593 16.5758C8.64869 16.577 8.63808 16.578 8.62748 16.5785C8.61687 16.5792 8.60626 16.5796 8.59565 16.5798Z"   fill="currentColor" >
</path>
</svg>
