<svg xmlns="http://www.w3.org/2000/svg" xmlns:xlink="http://www.w3.org/1999/xlink" width="20" height="20" viewBox="0 0 20 20" fill="none">
<path d="M2.56532 15.0826C3.36944 15.8938 4.30602 16.5307 5.34911 16.9757C6.42944 17.4367 7.57654 17.6704 8.75862 17.6704C9.94067 17.6704 11.0878 17.4366 12.1681 16.9757C12.779 16.7151 13.3531 16.3881 13.8857 15.9994L17.6095 19.7591C17.7686 19.9197 17.9771 20 18.1856 20C18.3939 20 18.6022 19.9199 18.7612 19.7596C19.0794 19.439 19.0796 18.9188 18.7617 18.5979L15.1137 14.9148C15.841 14.142 16.4175 13.255 16.8286 12.2745C17.2855 11.1847 17.5172 10.0276 17.5172 8.83521C17.5172 7.64282 17.2855 6.48566 16.8286 5.3959C16.3874 4.34373 15.756 3.39892 14.9519 2.58776C14.1478 1.77664 13.2112 1.13968 12.1681 0.694639C11.0878 0.233693 9.94067 0 8.75862 0C7.57654 0 6.42944 0.233717 5.34911 0.694639C4.30602 1.13968 3.36944 1.77664 2.56532 2.58776C1.76121 3.39892 1.12982 4.34373 0.688632 5.3959C0.231703 6.48566 0 7.64282 0 8.83521C0 10.0276 0.231703 11.1847 0.688632 12.2745C1.12979 13.3267 1.76121 14.2715 2.56532 15.0826ZM3.71702 3.74954C5.06368 2.3911 6.85414 1.64296 8.75862 1.64296C10.6631 1.64296 12.4535 2.3911 13.8002 3.74954C15.1469 5.10797 15.8885 6.91408 15.8885 8.83521C15.8885 10.7563 15.1468 12.5624 13.8002 13.9209C12.4536 15.2793 10.6631 16.0274 8.75862 16.0274C6.85414 16.0274 5.06368 15.2793 3.71702 13.9209C2.37034 12.5624 1.62874 10.7563 1.62874 8.83523C1.62874 6.91413 2.37034 5.10797 3.71702 3.74954Z"   fill="currentColor" >
</path>
</svg>
