<svg xmlns="http://www.w3.org/2000/svg" xmlns:xlink="http://www.w3.org/1999/xlink" width="20" height="19.99993896484375" viewBox="0 0 20 19.99993896484375" fill="none">
<path d="M15.9999 0L3.99999 0C1.79999 0 0 1.79999 0 3.99999L0 15.9999C0 18.1999 1.79999 19.9999 3.99999 19.9999L15.9999 19.9999C18.1999 19.9999 19.9999 18.1999 19.9999 15.9999L19.9999 3.99999C19.9999 1.79999 18.1999 0 15.9999 0ZM15.9999 1.07142C17.6142 1.07142 18.9285 2.38571 18.9285 3.99999L18.9285 15.9999C18.9285 17.6142 17.6142 18.9285 15.9999 18.9285L3.99999 18.9285C2.38571 18.9285 1.07142 17.6142 1.07142 15.9999L1.07142 3.99999C1.07142 2.38571 2.38571 1.07142 3.99999 1.07142L15.9999 1.07142Z"   fill="currentColor" >
</path>
</svg>
