<svg xmlns="http://www.w3.org/2000/svg" xmlns:xlink="http://www.w3.org/1999/xlink" width="20" height="22.454345703125" viewBox="0 0 20 22.454345703125" fill="none">
<path d="M8.9648 0.27738C8.98438 0.266086 9.0041 0.255117 9.02402 0.244471C9.04394 0.233823 9.06403 0.223504 9.08429 0.213514C9.10455 0.203525 9.12495 0.193869 9.14553 0.184547C9.1661 0.175226 9.18682 0.166244 9.20769 0.157601C9.22855 0.148957 9.24956 0.140657 9.2707 0.132701C9.29183 0.124745 9.31311 0.117137 9.33451 0.109877C9.35588 0.102616 9.37738 0.095708 9.399 0.0891523C9.42061 0.0825949 9.44233 0.0763934 9.46414 0.0705478C9.48595 0.0647023 9.50786 0.0592149 9.52987 0.0540858C9.55187 0.0489567 9.57393 0.0441892 9.59608 0.0397831C9.61823 0.035377 9.64046 0.0313342 9.66275 0.0276543C9.68503 0.0239745 9.70737 0.0206611 9.72976 0.017714C9.75216 0.0147653 9.77458 0.0121838 9.79707 0.00996943C9.81956 0.00775674 9.84205 0.00591113 9.86459 0.00443277C9.88713 0.00295599 9.90967 0.00184802 9.93226 0.0011088C9.95485 0.000369568 9.97741 0 10 0C10.0226 0 10.0452 0.000369568 10.0677 0.0011088C10.0903 0.00184802 10.1129 0.00295599 10.1354 0.00443277C10.1579 0.00591113 10.1804 0.00775674 10.2029 0.00996943C10.2254 0.0121838 10.2478 0.0147653 10.2702 0.017714C10.2926 0.0206611 10.315 0.0239745 10.3373 0.0276543C10.3595 0.0313342 10.3818 0.035377 10.4039 0.0397831C10.4261 0.0441892 10.4481 0.0489567 10.4701 0.0540858C10.4921 0.0592149 10.514 0.0647023 10.5359 0.0705478C10.5577 0.0763934 10.5794 0.0825949 10.601 0.0891523C10.6226 0.095708 10.6441 0.102616 10.6655 0.109877C10.6869 0.117137 10.7082 0.124745 10.7293 0.132701C10.7504 0.140657 10.7714 0.148957 10.7923 0.157601C10.8132 0.166244 10.8339 0.175226 10.8545 0.184547C10.875 0.193869 10.8955 0.203525 10.9157 0.213514C10.936 0.223504 10.9561 0.233823 10.976 0.244471C10.9959 0.255117 11.0156 0.266086 11.0352 0.27738L18.9648 4.85605C18.9844 4.86736 19.0037 4.87895 19.0229 4.89089C19.0421 4.90283 19.0611 4.91506 19.0798 4.9276C19.0986 4.94014 19.1172 4.953 19.1356 4.96615C19.1539 4.9793 19.172 4.99277 19.19 5.0065C19.2079 5.02026 19.2256 5.03431 19.243 5.04862C19.2605 5.06296 19.2777 5.07757 19.2947 5.09246C19.3117 5.10736 19.3284 5.12253 19.3449 5.13796C19.3614 5.15339 19.3776 5.16911 19.3936 5.18507C19.4095 5.20104 19.4252 5.21727 19.4407 5.23374C19.4561 5.25024 19.4713 5.26696 19.4862 5.28394C19.5011 5.30093 19.5157 5.31815 19.53 5.3356C19.5444 5.35307 19.5584 5.37078 19.5722 5.38868C19.5859 5.40659 19.5994 5.42474 19.6125 5.44308C19.6257 5.46145 19.6385 5.48001 19.6511 5.49879C19.6636 5.51757 19.6759 5.53656 19.6878 5.55573C19.6997 5.57492 19.7113 5.59428 19.7226 5.61384C19.7339 5.63342 19.7449 5.65317 19.7555 5.67306C19.7662 5.69298 19.7765 5.71307 19.7865 5.73333C19.7965 5.75359 19.8061 5.774 19.8154 5.79457C19.8248 5.81514 19.8338 5.83586 19.8424 5.85673C19.851 5.8776 19.8593 5.89861 19.8673 5.91974C19.8752 5.9409 19.8829 5.96215 19.8901 5.98353C19.8974 6.00493 19.9043 6.02642 19.9108 6.04802C19.9174 6.06966 19.9236 6.09137 19.9294 6.11316C19.9353 6.135 19.9408 6.15691 19.9459 6.17889C19.951 6.20089 19.9558 6.22297 19.9602 6.2451C19.9646 6.26727 19.9687 6.2895 19.9723 6.31177C19.976 6.33404 19.9793 6.35639 19.9823 6.37879C19.9852 6.40118 19.9878 6.42362 19.99 6.44609C19.9922 6.46856 19.9941 6.49107 19.9956 6.51361C19.997 6.53615 19.9982 6.55871 19.9989 6.58128C19.9996 6.60384 20 6.62643 20 6.64902L20 15.8053C20 15.8279 19.9996 15.8505 19.9989 15.8731C19.9982 15.8956 19.997 15.9182 19.9956 15.9407C19.9941 15.9633 19.9922 15.9858 19.99 16.0082C19.9878 16.0307 19.9852 16.0532 19.9823 16.0756C19.9793 16.098 19.976 16.1203 19.9723 16.1426C19.9687 16.1649 19.9646 16.1871 19.9602 16.2092C19.9558 16.2314 19.951 16.2535 19.9459 16.2755C19.9408 16.2975 19.9353 16.3194 19.9294 16.3412C19.9236 16.363 19.9174 16.3847 19.9108 16.4063C19.9043 16.4279 19.8974 16.4494 19.8901 16.4708C19.8829 16.4922 19.8752 16.5135 19.8673 16.5346C19.8593 16.5558 19.851 16.5767 19.8424 16.5976C19.8338 16.6185 19.8248 16.6392 19.8154 16.6598C19.8061 16.6803 19.7965 16.7008 19.7865 16.721C19.7765 16.7413 19.7662 16.7614 19.7555 16.7813C19.7449 16.8012 19.7339 16.8209 19.7226 16.8405C19.7113 16.8601 19.6997 16.8794 19.6878 16.8986C19.6759 16.9178 19.6636 16.9368 19.6511 16.9556C19.6385 16.9743 19.6257 16.9929 19.6125 17.0113C19.5994 17.0296 19.5859 17.0477 19.5722 17.0657C19.5584 17.0836 19.5444 17.1013 19.53 17.1187C19.5157 17.1362 19.5011 17.1534 19.4862 17.1704C19.4713 17.1874 19.4561 17.2041 19.4407 17.2206C19.4252 17.2371 19.4095 17.2533 19.3936 17.2693C19.3776 17.2853 19.3614 17.301 19.3449 17.3164C19.3284 17.3318 19.3117 17.347 19.2947 17.3619C19.2777 17.3768 19.2605 17.3914 19.243 17.4057C19.2256 17.4201 19.2079 17.4341 19.19 17.4478C19.172 17.4616 19.1539 17.475 19.1356 17.4882C19.1172 17.5014 19.0986 17.5142 19.0798 17.5267C19.0611 17.5393 19.0421 17.5515 19.0229 17.5634C19.0037 17.5754 18.9844 17.587 18.9648 17.5983L11.0352 22.177C11.0156 22.1883 10.9959 22.1992 10.976 22.2099C10.9561 22.2205 10.936 22.2308 10.9157 22.2408C10.8955 22.2508 10.875 22.2605 10.8545 22.2698C10.8339 22.2791 10.8132 22.2881 10.7923 22.2968C10.7714 22.3054 10.7504 22.3137 10.7293 22.3216C10.7082 22.3296 10.6869 22.3372 10.6655 22.3445C10.6441 22.3517 10.6226 22.3586 10.601 22.3652C10.5794 22.3717 10.5577 22.378 10.5359 22.3838C10.514 22.3897 10.4921 22.3951 10.4701 22.4003C10.4481 22.4054 10.4261 22.4102 10.4039 22.4146C10.3818 22.419 10.3595 22.423 10.3373 22.4267C10.315 22.4304 10.2926 22.4337 10.2702 22.4366C10.2478 22.4396 10.2254 22.4422 10.2029 22.4444C10.1804 22.4466 10.1579 22.4484 10.1354 22.4499C10.1129 22.4514 10.0903 22.4525 10.0677 22.4532C10.0452 22.454 10.0226 22.4543 10 22.4543C9.97741 22.4543 9.95485 22.454 9.93226 22.4532C9.90967 22.4525 9.88713 22.4514 9.86459 22.4499C9.84205 22.4484 9.81956 22.4466 9.79707 22.4444C9.77458 22.4422 9.75216 22.4396 9.72976 22.4366C9.70737 22.4337 9.68503 22.4304 9.66275 22.4267C9.64046 22.423 9.61823 22.419 9.59608 22.4146C9.57393 22.4102 9.55187 22.4054 9.52987 22.4003C9.50786 22.3951 9.48595 22.3897 9.46414 22.3838C9.44233 22.378 9.42061 22.3717 9.399 22.3652C9.37738 22.3586 9.35588 22.3518 9.33451 22.3445C9.31311 22.3372 9.29183 22.3296 9.2707 22.3216C9.24956 22.3137 9.22855 22.3054 9.20769 22.2968C9.18682 22.2881 9.1661 22.2791 9.14553 22.2698C9.12495 22.2605 9.10455 22.2508 9.08429 22.2408C9.06403 22.2308 9.04394 22.2205 9.02402 22.2099C9.0041 22.1992 8.98438 22.1883 8.9648 22.177L1.0352 17.5983C1.01563 17.587 0.996264 17.5754 0.977096 17.5634C0.957912 17.5515 0.938931 17.5393 0.920152 17.5267C0.901373 17.5142 0.882805 17.5014 0.864446 17.4882C0.846086 17.475 0.827948 17.4616 0.810025 17.4478C0.792103 17.4341 0.774415 17.4201 0.756963 17.4057C0.739494 17.3914 0.722268 17.3768 0.705284 17.3619C0.688318 17.347 0.671584 17.3318 0.655085 17.3164C0.638604 17.301 0.62238 17.2853 0.606415 17.2693C0.59045 17.2533 0.574745 17.2371 0.559297 17.2206C0.543849 17.2041 0.528685 17.1874 0.513805 17.1704C0.498908 17.1534 0.484295 17.1362 0.469963 17.1187C0.455631 17.1013 0.441593 17.0836 0.427844 17.0657C0.414094 17.0477 0.400645 17.0296 0.387495 17.0113C0.374345 16.9929 0.361493 16.9743 0.348942 16.9556C0.336391 16.9368 0.324153 16.9178 0.312233 16.8986C0.300296 16.8794 0.288682 16.8601 0.277392 16.8405C0.266103 16.8209 0.255136 16.8012 0.244492 16.7813C0.233833 16.7614 0.223513 16.7413 0.213534 16.721C0.203537 16.7008 0.193881 16.6803 0.184564 16.6598C0.175248 16.6392 0.166262 16.6185 0.157609 16.5976C0.148972 16.5767 0.140674 16.5558 0.132715 16.5346C0.124758 16.5135 0.117147 16.4922 0.109885 16.4708C0.102622 16.4494 0.0957155 16.4279 0.0891644 16.4063C0.0826138 16.3847 0.0764106 16.363 0.0705551 16.3412C0.0647161 16.3194 0.0592328 16.2975 0.0541052 16.2755C0.0489618 16.2535 0.0441899 16.2314 0.0397906 16.2092C0.0353909 16.1871 0.0313473 16.1649 0.0276594 16.1426C0.0239875 16.1203 0.0206717 16.098 0.0177116 16.0756C0.0147679 16.0532 0.0121879 16.0307 0.00997193 16.0082C0.00775602 15.9858 0.00591198 15.9633 0.00444017 15.9407C0.00296006 15.9182 0.00185052 15.8956 0.00111139 15.8731C0.000370584 15.8505 0 15.8279 0 15.8053L0 6.64902C0 6.62643 0.000370584 6.60384 0.00111139 6.58128C0.00185052 6.55871 0.00296006 6.53615 0.00444017 6.51361C0.00591198 6.49107 0.00775602 6.46856 0.00997193 6.44609C0.0121879 6.42362 0.0147679 6.40118 0.0177116 6.37879C0.0206717 6.35639 0.0239875 6.33404 0.0276594 6.31177C0.0313473 6.2895 0.0353909 6.26727 0.0397906 6.2451C0.0441899 6.22297 0.0489618 6.20089 0.0541052 6.17889C0.0592328 6.15691 0.0647161 6.135 0.0705551 6.11316C0.0764106 6.09137 0.0826138 6.06966 0.0891644 6.04802C0.0957155 6.02642 0.102622 6.00493 0.109885 5.98353C0.117147 5.96215 0.124758 5.9409 0.132715 5.91974C0.140674 5.89861 0.148972 5.8776 0.157609 5.85673C0.166262 5.83586 0.175248 5.81514 0.184564 5.79457C0.193881 5.774 0.203537 5.75359 0.213534 5.73333C0.223513 5.71307 0.233833 5.69298 0.244492 5.67306C0.255136 5.65317 0.266103 5.63342 0.277392 5.61384C0.288682 5.59428 0.300296 5.57492 0.312233 5.55573C0.324153 5.53656 0.336391 5.51757 0.348942 5.49879C0.361493 5.48001 0.374345 5.46145 0.387495 5.44308C0.400645 5.42474 0.414094 5.40659 0.427844 5.38868C0.441593 5.37078 0.455631 5.35307 0.469963 5.3356C0.484295 5.31815 0.498908 5.30093 0.513805 5.28394C0.528685 5.26696 0.543849 5.25024 0.559297 5.23374C0.574745 5.21727 0.59045 5.20104 0.606415 5.18507C0.62238 5.16911 0.638604 5.15339 0.655085 5.13796C0.671584 5.12253 0.688318 5.10736 0.705284 5.09246C0.722268 5.07757 0.739494 5.06296 0.756963 5.04862C0.774415 5.03431 0.792103 5.02026 0.810025 5.0065C0.827948 4.99277 0.846086 4.9793 0.864446 4.96615C0.882805 4.953 0.901373 4.94014 0.920152 4.9276C0.938931 4.91506 0.957912 4.90283 0.977096 4.89089C0.996264 4.87895 1.01563 4.86736 1.0352 4.85605L8.9648 0.27738ZM10 2.07034L2.07039 6.64902L2.07039 15.8053L10 20.384L17.9296 15.8053L17.9296 6.64902L10 2.07034ZM10 7.08637C10.0678 7.08637 10.1355 7.08805 10.2032 7.09137C10.2709 7.09472 10.3384 7.09969 10.4059 7.10632C10.4733 7.11297 10.5405 7.12126 10.6076 7.13121C10.6746 7.14116 10.7414 7.15273 10.8078 7.16596C10.8743 7.17918 10.9404 7.19403 11.0061 7.21048C11.0719 7.22695 11.1372 7.24503 11.202 7.26468C11.2669 7.28436 11.3312 7.30561 11.395 7.32844C11.4588 7.35127 11.522 7.37566 11.5846 7.40159C11.6472 7.42753 11.7091 7.45497 11.7704 7.48394C11.8317 7.51291 11.8922 7.54338 11.952 7.57531C12.0117 7.60726 12.0707 7.64065 12.1288 7.67549C12.1869 7.71033 12.2442 7.74658 12.3005 7.78423C12.3569 7.82189 12.4122 7.86088 12.4667 7.90125C12.5211 7.94162 12.5745 7.98331 12.6269 8.0263C12.6793 8.06929 12.7306 8.11355 12.7808 8.15904C12.831 8.20456 12.8801 8.25129 12.928 8.29918C12.9759 8.34712 13.0226 8.39618 13.0681 8.44638C13.1136 8.4966 13.1579 8.54792 13.2009 8.60028C13.2439 8.65268 13.2855 8.70609 13.3259 8.76051C13.3663 8.81495 13.4053 8.87034 13.4429 8.92668C13.4806 8.98302 13.5168 9.04025 13.5517 9.09838C13.5865 9.15652 13.6199 9.21545 13.6519 9.27521C13.6838 9.33499 13.7143 9.3955 13.7432 9.45676C13.7722 9.51803 13.7996 9.57997 13.8256 9.64257C13.8515 9.70516 13.8759 9.76837 13.8987 9.83218C13.9216 9.89599 13.9428 9.96033 13.9625 10.0252C13.9822 10.09 14.0002 10.1553 14.0167 10.221C14.0332 10.2868 14.048 10.3529 14.0612 10.4194C14.0744 10.4858 14.086 10.5526 14.096 10.6196C14.1059 10.6866 14.1142 10.7539 14.1209 10.8213C14.1275 10.8888 14.1325 10.9563 14.1358 11.024C14.1391 11.0917 14.1408 11.1594 14.1408 11.2272C14.1408 11.295 14.1391 11.3627 14.1358 11.4303C14.1325 11.498 14.1275 11.5656 14.1209 11.633C14.1142 11.7005 14.1059 11.7677 14.096 11.8347C14.086 11.9018 14.0744 11.9685 14.0612 12.035C14.048 12.1015 14.0332 12.1676 14.0167 12.2333C14.0002 12.2991 13.9822 12.3643 13.9625 12.4292C13.9428 12.494 13.9216 12.5584 13.8987 12.6222C13.8759 12.686 13.8515 12.7492 13.8256 12.8118C13.7996 12.8744 13.7722 12.9363 13.7432 12.9976C13.7143 13.0589 13.6838 13.1194 13.6519 13.1791C13.6199 13.2389 13.5865 13.2978 13.5517 13.356C13.5168 13.4141 13.4806 13.4713 13.4429 13.5277C13.4053 13.584 13.3663 13.6394 13.3259 13.6938C13.2855 13.7483 13.2439 13.8017 13.2009 13.8541C13.1579 13.9064 13.1136 13.9577 13.0681 14.008C13.0226 14.0582 12.9759 14.1072 12.928 14.1552C12.8801 14.2031 12.831 14.2498 12.7808 14.2953C12.7306 14.3408 12.6793 14.385 12.6269 14.428C12.5745 14.471 12.5211 14.5127 12.4667 14.5531C12.4122 14.5935 12.3569 14.6324 12.3005 14.6701C12.2442 14.7078 12.1869 14.744 12.1288 14.7788C12.0707 14.8137 12.0117 14.8471 11.952 14.879C11.8922 14.911 11.8317 14.9414 11.7704 14.9704C11.7091 14.9994 11.6472 15.0268 11.5846 15.0527C11.522 15.0787 11.4588 15.1031 11.395 15.1259C11.3312 15.1488 11.2669 15.17 11.202 15.1897C11.1372 15.2093 11.0719 15.2274 11.0061 15.2439C10.9404 15.2603 10.8743 15.2752 10.8078 15.2884C10.7414 15.3016 10.6746 15.3132 10.6076 15.3231C10.5405 15.3331 10.4733 15.3414 10.4059 15.348C10.3384 15.3547 10.2709 15.3596 10.2032 15.363C10.1355 15.3663 10.0678 15.368 10 15.368C9.93223 15.368 9.86449 15.3663 9.79683 15.363C9.72913 15.3596 9.66156 15.3547 9.59414 15.348C9.52669 15.3414 9.45946 15.3331 9.39242 15.3231C9.32538 15.3132 9.25864 15.3016 9.19218 15.2884C9.1257 15.2752 9.05959 15.2603 8.99386 15.2439C8.92813 15.2274 8.86284 15.2093 8.79799 15.1897C8.73314 15.17 8.66882 15.1488 8.60501 15.1259C8.5412 15.1031 8.47799 15.0787 8.4154 15.0527C8.35278 15.0268 8.29086 14.9994 8.2296 14.9704C8.16833 14.9414 8.1078 14.911 8.04804 14.879C7.98828 14.8471 7.92932 14.8137 7.87121 14.7788C7.81308 14.744 7.75585 14.7078 7.69951 14.6701C7.64315 14.6324 7.58776 14.5935 7.53334 14.5531C7.47892 14.5127 7.42549 14.471 7.37311 14.428C7.32072 14.385 7.26943 14.3408 7.21921 14.2953C7.16901 14.2498 7.11993 14.2031 7.07201 14.1552C7.02409 14.1072 6.97739 14.0582 6.93187 14.008C6.88638 13.9577 6.84212 13.9064 6.79913 13.8541C6.75614 13.8017 6.71446 13.7483 6.67408 13.6938C6.63371 13.6394 6.5947 13.584 6.55707 13.5277C6.51941 13.4713 6.48316 13.4141 6.44832 13.356C6.41348 13.2978 6.3801 13.2389 6.34814 13.1791C6.31619 13.1194 6.28574 13.0589 6.25677 12.9976C6.2278 12.9363 6.20036 12.8744 6.17442 12.8118C6.14849 12.7492 6.1241 12.686 6.10127 12.6222C6.07844 12.5584 6.05719 12.494 6.03751 12.4292C6.01783 12.3643 5.99978 12.2991 5.98331 12.2333C5.96683 12.1676 5.95201 12.1015 5.93879 12.035C5.92556 11.9685 5.91397 11.9018 5.90404 11.8347C5.89409 11.7677 5.8858 11.7005 5.87915 11.633C5.87253 11.5656 5.86753 11.498 5.8642 11.4303C5.86088 11.3627 5.85921 11.295 5.85921 11.2272C5.85921 11.1594 5.86088 11.0917 5.8642 11.024C5.86753 10.9563 5.87253 10.8888 5.87915 10.8213C5.8858 10.7539 5.89409 10.6866 5.90404 10.6196C5.91397 10.5526 5.92556 10.4858 5.93879 10.4194C5.95201 10.3529 5.96683 10.2868 5.98331 10.221C5.99978 10.1553 6.01783 10.09 6.03751 10.0252C6.05719 9.96033 6.07844 9.89599 6.10127 9.83218C6.1241 9.76837 6.14849 9.70516 6.17442 9.64257C6.20036 9.57997 6.2278 9.51803 6.25677 9.45676C6.28574 9.3955 6.31619 9.33499 6.34814 9.27521C6.3801 9.21545 6.41348 9.15652 6.44832 9.09838C6.48316 9.04025 6.51941 8.98302 6.55707 8.92668C6.5947 8.87034 6.63371 8.81495 6.67408 8.76051C6.71446 8.70609 6.75614 8.65268 6.79913 8.60028C6.84212 8.54792 6.88638 8.4966 6.93187 8.44638C6.97739 8.39618 7.02409 8.34712 7.07201 8.29918C7.11993 8.25129 7.16901 8.20456 7.21921 8.15904C7.26943 8.11355 7.32072 8.06929 7.37311 8.0263C7.42549 7.98331 7.47892 7.94162 7.53334 7.90125C7.58776 7.86088 7.64315 7.82189 7.69951 7.78423C7.75585 7.74658 7.81308 7.71033 7.87121 7.67549C7.92932 7.64065 7.98828 7.60726 8.04804 7.57531C8.1078 7.54338 8.16833 7.51291 8.2296 7.48394C8.29086 7.45497 8.35278 7.42753 8.4154 7.40159C8.47799 7.37566 8.5412 7.35127 8.60501 7.32844C8.66882 7.30561 8.73314 7.28436 8.79799 7.26468C8.86284 7.24503 8.92813 7.22695 8.99386 7.21048C9.05959 7.19403 9.1257 7.17918 9.19218 7.16596C9.25864 7.15273 9.32538 7.14116 9.39242 7.13121C9.45946 7.12126 9.52669 7.11297 9.59414 7.10632C9.66156 7.09969 9.72913 7.09472 9.79683 7.09137C9.86449 7.08805 9.93223 7.08637 10 7.08637ZM10 9.15678C9.96611 9.15678 9.93226 9.15761 9.89841 9.15926C9.86457 9.16093 9.83079 9.16343 9.79707 9.16676C9.76334 9.17008 9.72972 9.17423 9.69621 9.17918C9.6627 9.18418 9.62932 9.18995 9.59608 9.19655C9.56286 9.20317 9.52982 9.2106 9.49694 9.21882C9.46407 9.22707 9.43143 9.2361 9.399 9.24592C9.36656 9.25577 9.33441 9.2664 9.3025 9.2778C9.2706 9.28923 9.23901 9.30141 9.20769 9.31437C9.17639 9.32735 9.14543 9.34108 9.11479 9.35557C9.08417 9.37005 9.05391 9.38529 9.02402 9.40125C8.99415 9.41722 8.96467 9.43391 8.93561 9.45133C8.90654 9.46875 8.87791 9.48687 8.84974 9.5057C8.82157 9.52453 8.79389 9.54404 8.76667 9.56422C8.73945 9.58441 8.71273 9.60523 8.68655 9.62672C8.66037 9.64822 8.63473 9.67035 8.60962 9.6931C8.58451 9.71586 8.55995 9.73923 8.53601 9.76317C8.51206 9.78715 8.48869 9.81168 8.46594 9.83679C8.44318 9.8619 8.42105 9.88754 8.39955 9.91372C8.37806 9.93993 8.35722 9.96661 8.33705 9.99384C8.31687 10.0211 8.29736 10.0488 8.27853 10.0769C8.2597 10.1051 8.24158 10.1337 8.22416 10.1628C8.20674 10.1918 8.19005 10.2213 8.17408 10.2512C8.15809 10.2811 8.14288 10.3113 8.1284 10.342C8.11391 10.3726 8.10018 10.4036 8.0872 10.4349C8.07424 10.4662 8.06206 10.4978 8.05064 10.5297C8.03921 10.5616 8.02858 10.5938 8.01875 10.6262C8.00893 10.6586 7.99988 10.6913 7.99165 10.7241C7.98343 10.757 7.976 10.79 7.96938 10.8232C7.96278 10.8565 7.95698 10.8899 7.95201 10.9234C7.94704 10.9569 7.94291 10.9905 7.93959 11.0242C7.93626 11.058 7.93376 11.0918 7.93209 11.1256C7.93044 11.1594 7.92961 11.1933 7.92961 11.2272C7.92961 11.2611 7.93044 11.2949 7.93209 11.3288C7.93376 11.3626 7.93626 11.3964 7.93959 11.4301C7.94291 11.4638 7.94704 11.4975 7.95201 11.531C7.95698 11.5645 7.96278 11.5979 7.96938 11.6311C7.976 11.6643 7.98343 11.6974 7.99165 11.7302C7.99988 11.7631 8.00893 11.7958 8.01875 11.8282C8.02858 11.8606 8.03921 11.8928 8.05064 11.9247C8.06206 11.9566 8.07424 11.9882 8.0872 12.0195C8.10018 12.0508 8.11391 12.0818 8.1284 12.1124C8.14288 12.143 8.15809 12.1733 8.17408 12.2031C8.19005 12.233 8.20674 12.2625 8.22416 12.2916C8.24158 12.3206 8.2597 12.3493 8.27853 12.3774C8.29736 12.4056 8.31687 12.4333 8.33705 12.4605C8.35722 12.4877 8.37806 12.5144 8.39955 12.5406C8.42105 12.5668 8.44318 12.5925 8.46594 12.6176C8.48869 12.6427 8.51206 12.6672 8.53601 12.6912C8.55995 12.7151 8.58451 12.7385 8.60962 12.7612C8.63473 12.784 8.66037 12.8061 8.68655 12.8276C8.71273 12.8491 8.73945 12.8699 8.76667 12.8901C8.79389 12.9103 8.82157 12.9298 8.84974 12.9486C8.87791 12.9675 8.90654 12.9856 8.93561 13.003C8.96467 13.0204 8.99415 13.0371 9.02402 13.0531C9.05391 13.0691 9.08417 13.0843 9.11479 13.0988C9.14543 13.1133 9.17639 13.127 9.20769 13.14C9.23901 13.1529 9.2706 13.1651 9.3025 13.1765C9.33441 13.188 9.36656 13.1986 9.399 13.2084C9.43143 13.2183 9.46407 13.2273 9.49694 13.2355C9.52982 13.2438 9.56286 13.2512 9.59608 13.2578C9.62932 13.2644 9.6627 13.2702 9.69621 13.2752C9.72972 13.2801 9.76334 13.2843 9.79707 13.2876C9.83079 13.2909 9.86457 13.2934 9.89841 13.2951C9.93226 13.2967 9.96611 13.2976 10 13.2976C10.0339 13.2976 10.0677 13.2967 10.1016 13.2951C10.1354 13.2934 10.1692 13.2909 10.2029 13.2876C10.2367 13.2843 10.2703 13.2801 10.3038 13.2752C10.3373 13.2702 10.3707 13.2644 10.4039 13.2578C10.4371 13.2512 10.4702 13.2438 10.5031 13.2355C10.5359 13.2273 10.5686 13.2183 10.601 13.2084C10.6334 13.1986 10.6656 13.188 10.6975 13.1765C10.7294 13.1651 10.761 13.1529 10.7923 13.14C10.8236 13.127 10.8546 13.1133 10.8852 13.0988C10.9158 13.0843 10.9461 13.0691 10.976 13.0531C11.0058 13.0371 11.0353 13.0204 11.0644 13.003C11.0935 12.9856 11.1221 12.9675 11.1503 12.9486C11.1784 12.9298 11.2061 12.9103 11.2333 12.8901C11.2606 12.8699 11.2873 12.8491 11.3134 12.8276C11.3396 12.8061 11.3653 12.784 11.3904 12.7612C11.4155 12.7385 11.44 12.7151 11.464 12.6912C11.4879 12.6672 11.5113 12.6427 11.5341 12.6176C11.5568 12.5925 11.5789 12.5668 11.6004 12.5406C11.6219 12.5144 11.6428 12.4877 11.6629 12.4605C11.6831 12.4333 11.7026 12.4056 11.7215 12.3774C11.7403 12.3493 11.7584 12.3206 11.7758 12.2916C11.7933 12.2625 11.81 12.233 11.8259 12.2031C11.8419 12.1733 11.8571 12.143 11.8716 12.1124C11.8861 12.0818 11.8998 12.0508 11.9128 12.0195C11.9258 11.9882 11.9379 11.9566 11.9494 11.9247C11.9608 11.8928 11.9714 11.8606 11.9812 11.8282C11.9911 11.7958 12.0001 11.7631 12.0083 11.7302C12.0166 11.6974 12.024 11.6643 12.0306 11.6311C12.0372 11.5979 12.043 11.5645 12.048 11.531C12.053 11.4975 12.0571 11.4638 12.0604 11.4301C12.0637 11.3964 12.0662 11.3626 12.0679 11.3288C12.0696 11.2949 12.0704 11.2611 12.0704 11.2272C12.0704 11.1933 12.0696 11.1594 12.0679 11.1256C12.0662 11.0918 12.0637 11.058 12.0604 11.0242C12.0571 10.9905 12.053 10.9569 12.048 10.9234C12.043 10.8899 12.0372 10.8565 12.0306 10.8232C12.024 10.79 12.0166 10.757 12.0083 10.7241C12.0001 10.6913 11.9911 10.6586 11.9812 10.6262C11.9714 10.5938 11.9608 10.5616 11.9494 10.5297C11.9379 10.4978 11.9258 10.4662 11.9128 10.4349C11.8998 10.4036 11.8861 10.3726 11.8716 10.342C11.8571 10.3113 11.8419 10.2811 11.8259 10.2512C11.81 10.2213 11.7933 10.1918 11.7758 10.1628C11.7584 10.1337 11.7403 10.1051 11.7215 10.0769C11.7026 10.0488 11.6831 10.0211 11.6629 9.99384C11.6428 9.96661 11.6219 9.93993 11.6004 9.91372C11.5789 9.88754 11.5568 9.8619 11.5341 9.83679C11.5113 9.81168 11.4879 9.78715 11.464 9.76317C11.44 9.73923 11.4155 9.71586 11.3904 9.6931C11.3653 9.67035 11.3396 9.64822 11.3134 9.62672C11.2873 9.60523 11.2606 9.58441 11.2333 9.56422C11.2061 9.54404 11.1784 9.52453 11.1503 9.5057C11.1221 9.48687 11.0935 9.46875 11.0644 9.45133C11.0353 9.43391 11.0058 9.41722 10.976 9.40125C10.9461 9.38529 10.9158 9.37005 10.8852 9.35557C10.8546 9.34108 10.8236 9.32735 10.7923 9.31437C10.761 9.30141 10.7294 9.28923 10.6975 9.2778C10.6656 9.2664 10.6334 9.25577 10.601 9.24592C10.5686 9.2361 10.5359 9.22707 10.5031 9.21882C10.4702 9.2106 10.4371 9.20317 10.4039 9.19655C10.3707 9.18995 10.3373 9.18418 10.3038 9.17918C10.2703 9.17423 10.2367 9.17008 10.2029 9.16676C10.1692 9.16343 10.1354 9.16093 10.1016 9.15926C10.0677 9.15761 10.0339 9.15678 10 9.15678Z"   fill="currentColor" >
</path>
</svg>
