<svg xmlns="http://www.w3.org/2000/svg" xmlns:xlink="http://www.w3.org/1999/xlink" width="20" height="19.806427001953125" viewBox="0 0 20 19.806427001953125" fill="none">
<path d="M16.813 13.4346C15.7574 13.4346 14.8256 13.95 14.2449 14.74L7.30363 10.7315C7.41392 10.3781 7.47242 10.0045 7.47242 9.61512C7.47242 9.46656 7.46342 9.32026 7.44542 9.17621L14.5532 5.43325C15.1294 6.01395 15.9307 6.37407 16.813 6.37407C18.573 6.37407 20 4.94709 20 3.18703C20 1.42696 18.573 0 16.813 0C15.0529 0 13.6259 1.42696 13.6259 3.18703C13.6259 3.53815 13.6844 3.87351 13.7902 4.18859L6.98627 7.77175C6.3448 6.6419 5.12941 5.87891 3.73621 5.87891C1.67229 5.87891 0 7.55119 0 9.61512C0 11.679 1.67229 13.3513 3.73621 13.3513C4.88859 13.3513 5.91943 12.8292 6.60365 12.0076L13.6732 16.0882C13.6439 16.2615 13.6259 16.4371 13.6259 16.6194C13.6259 18.3794 15.0529 19.8064 16.813 19.8064C18.573 19.8064 20 18.3794 20 16.6194C20 14.8593 18.573 13.4346 16.813 13.4346Z"   fill="currentColor" >
</path>
</svg>
