<svg xmlns="http://www.w3.org/2000/svg" xmlns:xlink="http://www.w3.org/1999/xlink" width="20" height="20" viewBox="0 0 20 20" fill="none">
<path d="M15.774 10.758L4.37901 10.758C4.037 10.758 3.77901 10.43 3.77901 10.002C3.77901 9.57399 4.04 9.24599 4.37901 9.24599L15.774 9.24599C16.116 9.24599 16.374 9.57399 16.374 10.002C16.374 10.43 16.1 10.758 15.774 10.758ZM15.773 10.821L4.37901 10.821C3.99901 10.821 3.71301 10.469 3.71301 10.002C3.71301 9.53499 3.99901 9.183 4.37901 9.183L15.773 9.183C16.153 9.183 16.439 9.53499 16.439 10.002C16.439 10.454 16.141 10.821 15.773 10.821ZM4.37901 9.30899C4.071 9.30899 3.83901 9.60899 3.83901 10.002C3.83901 10.395 4.071 10.695 4.37901 10.695L15.773 10.695C16.073 10.695 16.313 10.384 16.313 10.002C16.313 9.61999 16.081 9.30899 15.773 9.30899L4.37901 9.30899Z"   fill="currentColor" >
</path>
</svg>
