<svg xmlns="http://www.w3.org/2000/svg" xmlns:xlink="http://www.w3.org/1999/xlink" width="20" height="20" viewBox="0 0 20 20" fill="none">
<path d="M15.3455 0.00435676L15.3455 1.54203L18.691 5.42706L16.8273 7.61957C16.8091 7.60378 16.7909 7.58841 16.7818 7.57346C16.7635 7.55851 16.7455 7.54399 16.7273 7.52999C16.7182 7.51588 16.7 7.5023 16.6818 7.48915C16.6636 7.47599 16.6455 7.46336 16.6273 7.45115C16.6091 7.43894 16.5909 7.42715 16.5727 7.41588C16.5636 7.40473 16.5455 7.39388 16.5274 7.38367C16.5091 7.37336 16.4909 7.36367 16.4636 7.35441C16.4455 7.34515 16.4272 7.33641 16.4091 7.3282C16.3909 7.31999 16.3727 7.3123 16.3545 7.30504C16.3364 7.29788 16.3182 7.29125 16.3001 7.28515C16.2818 7.27904 16.2545 7.27346 16.2364 7.26852C16.2182 7.26346 16.1999 7.25894 16.1818 7.25504C16.1545 7.25104 16.1364 7.24767 16.1182 7.24483C16.1 7.24199 16.0817 7.23967 16.0545 7.23799C16.0364 7.2362 16.0182 7.23504 16 7.23441C15.9818 7.23378 15.9545 7.23367 15.9364 7.2342C15.9182 7.23388 15.8909 7.23431 15.8727 7.23525C15.8455 7.23631 15.8273 7.23799 15.8091 7.24031C15.7818 7.24252 15.7636 7.24546 15.7365 7.24904C15.7182 7.25262 15.7 7.25683 15.6727 7.26167C15.6545 7.26652 15.6272 7.27199 15.6091 7.27809C15.5909 7.2842 15.5636 7.29094 15.5455 7.29831C15.5273 7.30567 15.5 7.31367 15.4818 7.3222C15.4636 7.33073 15.4455 7.33999 15.4182 7.34978C15.3999 7.35946 15.3818 7.36988 15.3636 7.38083C15.3364 7.39178 15.3182 7.40336 15.3 7.41546C15.2819 7.42757 15.2636 7.4402 15.2455 7.45346C15.2273 7.46662 15.2091 7.48041 15.1909 7.49472C15.1726 7.50904 15.1545 7.52388 15.1364 7.53925C15.1182 7.55472 15.1 7.57051 15.0818 7.58693C15.0635 7.60336 15.0455 7.6202 15.0273 7.63757C15.0182 7.65493 15 7.67283 14.9818 7.69104C14.9636 7.70935 14.9545 7.72809 14.9365 7.74735C14.9182 7.76651 14.9091 7.78609 14.8909 7.80609C14.8818 7.8262 14.8636 7.84662 14.8545 7.86735C14.8363 7.8882 14.8274 7.90946 14.8182 7.93093C14.8 7.95251 14.7909 7.97441 14.7818 7.99662C14.7727 8.01893 14.7545 8.04146 14.7455 8.0643C14.7364 8.08714 14.7273 8.1103 14.7181 8.13377C14.7092 8.15725 14.7 8.18093 14.6909 8.20493C14.6818 8.22882 14.6727 8.25303 14.6727 8.27746C14.6636 8.30188 14.6545 8.32651 14.6455 8.35124C14.6455 8.37609 14.6364 8.40114 14.6273 8.4263C14.6273 8.45145 14.6182 8.47672 14.6182 8.50209C14.609 8.52756 14.609 8.55303 14.609 8.57872C14.6001 8.6043 14.6001 8.62998 14.6001 8.65577C14.6001 8.68156 14.5909 8.70735 14.5909 8.73324C14.5909 8.75914 14.5909 8.78503 14.5909 8.81082L14.5909 16.9259C14.5909 16.951 14.5909 16.9762 14.5909 17.0012C14.5909 17.0264 14.5909 17.0515 14.5909 17.0765C14.5818 17.1016 14.5818 17.1265 14.5818 17.1514C14.5727 17.1763 14.5727 17.201 14.5636 17.2257C14.5636 17.2503 14.5545 17.2749 14.5545 17.2992C14.5455 17.3237 14.5455 17.3479 14.5364 17.372C14.5273 17.396 14.5273 17.4199 14.5182 17.4436C14.5091 17.4672 14.5 17.4907 14.4908 17.5139C14.4819 17.5371 14.4727 17.5601 14.4636 17.5828C14.4545 17.6056 14.4455 17.628 14.4364 17.6502C14.4273 17.6724 14.4182 17.6943 14.4091 17.7159C14.3909 17.7374 14.3817 17.7586 14.3728 17.7796C14.3636 17.8005 14.3455 17.821 14.3364 17.8412C14.3182 17.8615 14.3091 17.8812 14.2909 17.9007C14.2818 17.9202 14.2635 17.9391 14.2546 17.9579C14.2364 17.9765 14.2273 17.9947 14.2091 18.0125C14.1909 18.0303 14.1818 18.0477 14.1636 18.0645C14.1455 18.0814 14.1273 18.0979 14.1091 18.1139C14.1 18.1299 14.0818 18.1453 14.0636 18.1603C14.0455 18.1753 14.0274 18.1899 14.0091 18.2038C13.9909 18.2179 13.9727 18.2313 13.9545 18.2443C13.9364 18.2572 13.9183 18.2697 13.9 18.2816C13.8818 18.2934 13.8636 18.3048 13.8455 18.3156C13.8273 18.3264 13.8001 18.3366 13.7818 18.3463C13.7636 18.3559 13.7455 18.365 13.7273 18.3736C13.6999 18.3821 13.6818 18.39 13.6636 18.3973C13.6455 18.4047 13.6182 18.4114 13.6 18.4177C13.5817 18.4239 13.5545 18.4293 13.5364 18.4344C13.5182 18.4393 13.5 18.4437 13.4726 18.4474C13.4545 18.4512 13.4364 18.4544 13.4091 18.4569C13.3909 18.4594 13.3636 18.4613 13.3455 18.4627C13.3273 18.464 13.3 18.4647 13.2818 18.4647L6.72729 18.4647C6.7 18.4647 6.6818 18.464 6.6545 18.4627C6.63641 18.4613 6.61821 18.4594 6.59091 18.4569C6.57271 18.4544 6.55451 18.4512 6.52732 18.4474C6.50912 18.4437 6.49092 18.4393 6.46363 18.4344C6.44543 18.4294 6.42723 18.4239 6.40914 18.4177C6.38184 18.4114 6.36364 18.4047 6.34544 18.3973C6.31814 18.39 6.30005 18.3821 6.28185 18.3736C6.26365 18.365 6.24545 18.356 6.21815 18.3463C6.19995 18.3366 6.18186 18.3264 6.16366 18.3156C6.14546 18.3048 6.12726 18.2934 6.10906 18.2816C6.09086 18.2697 6.06367 18.2572 6.04547 18.2443C6.02727 18.2313 6.00908 18.2179 5.99088 18.2039C5.97268 18.1899 5.96369 18.1753 5.94549 18.1604C5.92729 18.1453 5.90909 18.1299 5.89089 18.1139C5.87269 18.098 5.85449 18.0816 5.8455 18.0646C5.8273 18.0477 5.8091 18.0304 5.8 18.0125C5.78181 17.9948 5.76361 17.9765 5.75451 17.9579C5.73642 17.9392 5.72732 17.9202 5.70912 17.9008C5.70002 17.8813 5.68182 17.8616 5.67272 17.8413C5.65452 17.8211 5.64542 17.8005 5.63632 17.7797C5.61823 17.7587 5.60913 17.7374 5.60003 17.7159C5.59093 17.6944 5.57273 17.6725 5.56364 17.6503C5.55454 17.6281 5.54544 17.6057 5.53634 17.5829C5.52724 17.5602 5.51814 17.5372 5.50915 17.514C5.50005 17.4907 5.50005 17.4673 5.49095 17.4437C5.48185 17.42 5.47275 17.3961 5.47275 17.372C5.46365 17.348 5.45455 17.3238 5.45455 17.2993C5.44545 17.2749 5.44545 17.2504 5.43635 17.2258C5.43635 17.201 5.42725 17.1763 5.42725 17.1515C5.41815 17.1265 5.41815 17.1016 5.41815 17.0765C5.41815 17.0516 5.41815 17.0264 5.40905 17.0012C5.40905 16.9762 5.40905 16.951 5.40905 16.9259L5.40905 8.81082C5.40905 8.78493 5.40905 8.75903 5.40905 8.73324C5.40905 8.70735 5.40905 8.68156 5.40905 8.65577C5.39995 8.62998 5.39995 8.6043 5.39995 8.57861C5.39095 8.55293 5.39095 8.52745 5.39095 8.50198C5.38185 8.47661 5.38185 8.45124 5.37275 8.42609C5.37275 8.40093 5.36365 8.37598 5.35455 8.35114C5.35455 8.3263 5.34545 8.30177 5.33636 8.27725C5.32726 8.25282 5.31816 8.22861 5.30906 8.20472C5.29996 8.18072 5.29996 8.15704 5.28187 8.13356C5.27277 8.11009 5.26367 8.08693 5.25457 8.06409C5.24547 8.04114 5.23637 8.01862 5.22727 7.9963C5.20907 7.97409 5.19997 7.9522 5.19087 7.93062C5.17267 7.90904 5.16368 7.88788 5.15458 7.86704C5.13638 7.8462 5.12728 7.82578 5.10909 7.80578C5.09999 7.78578 5.08179 7.76609 5.06359 7.74693C5.0546 7.72778 5.0364 7.70904 5.0182 7.69072C5.0091 7.67241 4.9909 7.65462 4.9727 7.63714C4.9545 7.61988 4.93641 7.60293 4.92731 7.58651C4.90911 7.5702 4.89091 7.5543 4.87272 7.53893C4.85452 7.52357 4.83632 7.50872 4.81823 7.4943C4.80003 7.47999 4.78183 7.4663 4.76363 7.45304C4.74543 7.43978 4.71813 7.42715 4.70004 7.41504C4.68184 7.40294 4.66364 7.39146 4.64545 7.38041C4.62725 7.36946 4.60005 7.35915 4.58185 7.34936C4.56365 7.33957 4.54545 7.33041 4.51815 7.32188C4.49995 7.31336 4.48186 7.30536 4.45456 7.29799C4.43636 7.29073 4.41817 7.28399 4.39087 7.27788C4.37278 7.27178 4.35458 7.26631 4.32728 7.26146C4.30908 7.25662 4.28178 7.25252 4.26358 7.24894C4.24549 7.24536 4.21819 7.24241 4.2 7.2401C4.1727 7.23788 4.1545 7.2362 4.13641 7.23525C4.10911 7.2342 4.09091 7.23388 4.06361 7.2342C4.04541 7.23441 4.02732 7.23525 4.00912 7.23641C3.98182 7.23767 3.96363 7.23946 3.94543 7.24178C3.92723 7.24409 3.90914 7.24683 3.89094 7.25009C3.86364 7.25336 3.84544 7.25715 3.82724 7.26146C3.80904 7.26578 3.79095 7.27052 3.77275 7.27578C3.74545 7.28104 3.72725 7.28683 3.70905 7.29315C3.69096 7.29936 3.67276 7.30609 3.65456 7.31336C3.63636 7.32062 3.61816 7.3283 3.59086 7.33652C3.57277 7.34473 3.55457 7.35336 3.53637 7.36251C3.51818 7.37157 3.49998 7.38115 3.48178 7.39125C3.46369 7.40136 3.44549 7.41188 3.42729 7.42283C3.40909 7.43378 3.39089 7.44515 3.38179 7.45704C3.36359 7.46894 3.3455 7.48115 3.3273 7.49388C3.3091 7.50662 3.29091 7.51978 3.27271 7.53336C3.26361 7.54683 3.24541 7.56083 3.22732 7.57525C3.20912 7.58957 3.20002 7.60441 3.18182 7.61957L1.30904 5.42706L4.62725 1.54203L5.44545 1.54203L5.47275 1.58108C5.50915 1.63319 5.54544 1.68477 5.57273 1.73571C5.60913 1.78677 5.64542 1.83708 5.67272 1.88687C5.70912 1.93666 5.74541 1.98582 5.78181 2.03434C5.8182 2.08287 5.85449 2.13076 5.89089 2.17803C5.92729 2.22518 5.96369 2.27182 6.00908 2.31771C6.04547 2.3636 6.08176 2.40887 6.11816 2.45329C6.16366 2.49781 6.19995 2.54171 6.24545 2.58476C6.28185 2.62792 6.32724 2.67023 6.36364 2.71192C6.40914 2.7535 6.45453 2.79444 6.49092 2.83455C6.53631 2.87476 6.58181 2.91413 6.62731 2.95276C6.6636 2.99139 6.70909 3.02918 6.75459 3.06623C6.79998 3.10328 6.84548 3.1396 6.89087 3.17497C6.93636 3.21044 6.98186 3.24507 7.02725 3.27886C7.07275 3.31275 7.12725 3.3457 7.17274 3.37791C7.21813 3.41002 7.26363 3.44139 7.31823 3.47181C7.36362 3.50223 7.40911 3.53191 7.4636 3.56065C7.5091 3.58938 7.56359 3.61728 7.60909 3.64423C7.66368 3.67117 7.70907 3.69738 7.76367 3.72254C7.80906 3.7478 7.86365 3.77212 7.90905 3.79559C7.96365 3.81896 8.01814 3.84149 8.06364 3.86317C8.11823 3.88475 8.17272 3.90549 8.21822 3.92517C8.27271 3.94496 8.3273 3.9638 8.38179 3.9818C8.42729 3.9997 8.48178 4.01675 8.53637 4.03275C8.59086 4.04885 8.64546 4.06401 8.69995 4.07812C8.75455 4.09233 8.80005 4.10559 8.85454 4.1178C8.90914 4.13012 8.96363 4.14149 9.01822 4.1518C9.07271 4.16222 9.12727 4.17159 9.18182 4.18001C9.23636 4.18854 9.29091 4.19601 9.34545 4.20254C9.4 4.20906 9.45455 4.21464 9.50909 4.21917C9.56364 4.2238 9.61818 4.22749 9.67273 4.23012C9.72727 4.23275 9.78182 4.23443 9.83627 4.23517C9.89091 4.23591 9.94536 4.2357 10 4.23443C10.0546 4.23622 10.1091 4.23696 10.1637 4.23675C10.2182 4.23643 10.2727 4.23527 10.3273 4.23306C10.391 4.23085 10.4455 4.22759 10.5 4.22348C10.5545 4.21927 10.6091 4.21412 10.6636 4.20791C10.7182 4.2018 10.7727 4.19464 10.8273 4.18654C10.8818 4.17843 10.9364 4.16938 10.9909 4.15928C11.0455 4.14917 11.0909 4.13822 11.1455 4.12612C11.1999 4.11412 11.2545 4.10117 11.309 4.08728C11.3636 4.07328 11.4183 4.05843 11.4727 4.04254C11.5274 4.02664 11.5727 4.00991 11.6273 3.99212C11.6818 3.97433 11.7364 3.95559 11.7909 3.93601C11.8364 3.91633 11.8909 3.8957 11.9455 3.87422C11.9908 3.85265 12.0455 3.83022 12.1001 3.80686C12.1455 3.78349 12.2 3.75917 12.2455 3.73401C12.3 3.70875 12.3545 3.68265 12.4 3.6557C12.4454 3.62865 12.5 3.60075 12.5455 3.57202C12.6 3.54317 12.6455 3.5136 12.6909 3.48296C12.7455 3.45254 12.7908 3.42107 12.8364 3.38886C12.8818 3.35654 12.9364 3.32349 12.9818 3.28949C13.0273 3.2556 13.0727 3.22086 13.1183 3.18518C13.1636 3.1496 13.2091 3.11318 13.2545 3.07591C13.3 3.03865 13.3455 3.00065 13.3909 2.96181C13.4273 2.92307 13.4726 2.88339 13.5182 2.84307C13.5545 2.80265 13.6 2.7615 13.6455 2.7196C13.6818 2.67771 13.7273 2.63508 13.7636 2.59171C13.809 2.54834 13.8455 2.50423 13.8818 2.45939C13.9272 2.41455 13.9636 2.36908 14 2.32287C14.0363 2.27666 14.0818 2.22982 14.1182 2.18224C14.1545 2.13466 14.1909 2.08645 14.2273 2.03761C14.2635 1.98866 14.2909 1.93919 14.3273 1.88908C14.3636 1.83898 14.4 1.78824 14.4273 1.73687C14.4636 1.6855 14.5 1.63361 14.5273 1.58108C14.5273 1.57982 14.5273 1.57845 14.5273 1.57719C14.5273 1.57593 14.5273 1.57466 14.5273 1.5734C14.5273 1.57214 14.5273 1.57087 14.5273 1.56961C14.5273 1.56835 14.5273 1.56708 14.5273 1.56593C14.5273 1.56477 14.5273 1.56361 14.5273 1.56245C14.5364 1.56129 14.5364 1.56014 14.5364 1.55908C14.5364 1.55803 14.5364 1.55698 14.5364 1.55593C14.5364 1.55498 14.5364 1.55403 14.5364 1.55308C14.5364 1.55214 14.5364 1.55129 14.5364 1.55045C14.5364 1.54972 14.5455 1.54887 14.5455 1.54824C14.5455 1.5475 14.5455 1.54687 14.5455 1.54624C14.5455 1.54561 14.5455 1.54508 14.5455 1.54466C14.5455 1.54414 14.5545 1.54372 14.5545 1.5434C14.5545 1.54308 14.5545 1.54277 14.5545 1.54256C14.5545 1.54235 14.5545 1.54224 14.5545 1.54214C14.5545 1.54203 14.5636 1.54203 14.5636 1.54203L15.3455 1.54203L15.3455 0.00435676ZM5.47275 0.00435676L4.75453 0.00435676C4.74543 0.00330471 4.73633 0.00246147 4.71813 0.00183104C4.70914 0.0010922 4.70004 0.000670578 4.68184 0.000357374C4.67274 4.01544e-05 4.66364 -6.42471e-05 4.65455 4.01544e-05C4.63635 0.000144556 4.62725 0.000461776 4.61815 0.000883397C4.60005 0.00140942 4.59095 0.00203985 4.58185 0.00298748C4.56365 0.00383073 4.55455 0.00488278 4.54545 0.00603922C4.53635 0.00730408 4.51815 0.00877776 4.50905 0.0103558C4.49995 0.0120383 4.49085 0.0138292 4.47276 0.0158288C4.46366 0.0178286 4.45456 0.0200411 4.43636 0.0224624C4.42727 0.0247753 4.41817 0.0274094 4.40907 0.0301439C4.39087 0.0328825 4.38177 0.0358297 4.37278 0.0389859C4.36368 0.0421461 4.34548 0.0454066 4.33638 0.04888C4.32728 0.0524617 4.31818 0.0561439 4.29998 0.0600389C4.29088 0.0638294 4.28178 0.0679332 4.27268 0.0721455C4.25459 0.0764621 4.24549 0.080883 4.23639 0.0854084C4.22729 0.0900383 4.21819 0.0947765 4.2 0.0998279C4.1909 0.104775 4.1818 0.109935 4.1727 0.115199C4.1636 0.120563 4.14551 0.126041 4.13641 0.131722C4.12731 0.137408 4.11821 0.143199 4.10911 0.149198C4.09091 0.155301 4.08181 0.161408 4.07271 0.167829C4.06361 0.174146 4.05451 0.18067 4.04541 0.187409C4.03631 0.194039 4.02732 0.200985 4.00912 0.20804C4.00002 0.214987 3.99092 0.222251 3.98182 0.229619C3.97273 0.236879 3.96363 0.24446 3.95453 0.252141C3.94543 0.259828 3.93633 0.267617 3.92723 0.275616C3.91824 0.283619 3.90914 0.291826 3.90004 0.300038C3.89094 0.308354 3.88184 0.316879 3.87274 0.325407C3.85454 0.334037 3.85454 0.342774 3.84544 0.351721C3.83634 0.360563 3.82724 0.369617 3.81814 0.378881C3.80904 0.388036 3.80005 0.397404 3.79095 0.40688C3.78185 0.416353 3.77275 0.42593 3.76365 0.43572C3.75455 0.445405 3.74545 0.455299 3.73635 0.465301L0.390958 4.35033C0.381858 4.36759 0.363658 4.38538 0.345459 4.40359C0.336359 4.4218 0.31816 4.44033 0.30906 4.45938C0.29086 4.47843 0.281872 4.4979 0.263672 4.5178C0.254572 4.53759 0.236373 4.5578 0.227273 4.57843C0.218173 4.59906 0.199974 4.62001 0.190874 4.64127C0.181774 4.66253 0.172674 4.68422 0.163685 4.70611C0.145485 4.72811 0.136385 4.75032 0.127286 4.77285C0.118186 4.79538 0.109086 4.81822 0.0999864 4.84127C0.0908869 4.86432 0.0817871 4.88759 0.0817871 4.91116C0.0726874 4.93464 0.0635875 4.95843 0.0545987 4.98232C0.0545987 5.00632 0.0454989 5.03043 0.0363992 5.05474C0.0363992 5.07906 0.0272994 5.10348 0.0272994 5.12801C0.0181995 5.15264 0.0181995 5.17727 0.0181995 5.20211C0.00909982 5.22695 0.00909982 5.25179 0.00909982 5.27674C0 5.30169 0 5.32674 0 5.35179C0 5.37685 0 5.402 0 5.42706C0 5.45211 0 5.47727 0 5.50232C0 5.52737 0 5.55232 0.00909982 5.57737C0.00909982 5.60232 0.00909982 5.62716 0.0181995 5.652C0.0181995 5.67674 0.0181995 5.70147 0.0272994 5.72611C0.0272994 5.75063 0.0363992 5.77505 0.0363992 5.79937C0.0454989 5.82368 0.0545987 5.84779 0.0545987 5.87168C0.0635875 5.89568 0.0726874 5.91947 0.0817871 5.94295C0.0817871 5.96653 0.0908869 5.98979 0.0999864 6.01284C0.109086 6.03589 0.118186 6.05873 0.127286 6.08126C0.136385 6.10379 0.145485 6.126 0.163685 6.14789C0.172674 6.16989 0.181774 6.19147 0.190874 6.21284C0.199974 6.2341 0.218173 6.25505 0.227273 6.27568C0.236373 6.29621 0.254572 6.31652 0.263672 6.33631C0.281872 6.35621 0.29086 6.37568 0.30906 6.39463C0.31816 6.41368 0.336359 6.43231 0.345459 6.45052C0.363658 6.46873 0.381858 6.48652 0.390958 6.50378L2.32733 8.7705C2.33632 8.78724 2.35452 8.80345 2.37272 8.81935C2.38182 8.83524 2.40001 8.85061 2.41821 8.86566C2.42731 8.88061 2.4454 8.89514 2.4636 8.90924C2.4727 8.92324 2.4909 8.93692 2.5091 8.94998C2.5273 8.96313 2.5455 8.97577 2.5546 8.98798C2.57269 9.00008 2.59089 9.01177 2.60909 9.02292C2.62728 9.03408 2.64548 9.04471 2.66368 9.05482C2.68177 9.06492 2.69997 9.0745 2.71817 9.08356C2.73637 9.09261 2.75457 9.10113 2.77277 9.10913C2.79086 9.11713 2.80906 9.12461 2.82726 9.13145C2.84545 9.13829 2.86365 9.14461 2.88185 9.1504C2.89995 9.15619 2.92725 9.16134 2.94545 9.16598C2.96365 9.17061 2.98185 9.17461 3.00005 9.17808C3.01814 9.18155 3.04544 9.1845 3.06364 9.18682C3.08183 9.18913 3.10003 9.19082 3.11823 9.19198C3.13632 9.19313 3.16362 9.19376 3.18182 9.19376C3.20002 9.19376 3.21822 9.19313 3.23642 9.19198C3.25451 9.19082 3.28181 9.18913 3.3 9.18682C3.3182 9.1845 3.3364 9.18155 3.35449 9.17808C3.37269 9.17461 3.39999 9.17061 3.41819 9.16598C3.43639 9.16134 3.45459 9.15619 3.47268 9.1504C3.49088 9.14461 3.50908 9.13829 3.52727 9.13145C3.54547 9.12461 3.57277 9.11713 3.59086 9.10913C3.60906 9.10113 3.62726 9.09261 3.64546 9.08356C3.66366 9.0745 3.68186 9.06492 3.69995 9.05482C3.71815 9.04471 3.73635 9.03408 3.74545 9.02292C3.76365 9.01177 3.78185 9.00008 3.80005 8.98798C3.81814 8.97577 3.83634 8.96313 3.85454 8.94998C3.86364 8.93692 3.88184 8.92324 3.90004 8.90924C3.91824 8.89514 3.92723 8.88061 3.94543 8.86566C3.96363 8.85061 3.97273 8.83524 3.99092 8.81935C4.00002 8.80345 4.01822 8.78724 4.03631 8.7705L4.06361 8.7705C4.10001 8.7705 4.10001 8.7705 4.10001 8.80829L4.10001 16.9234C4.10001 16.9737 4.10001 17.024 4.10001 17.0742C4.10001 17.1244 4.10911 17.1746 4.10911 17.2246C4.11821 17.2747 4.11821 17.3246 4.12731 17.3743C4.13641 17.4241 4.13641 17.4737 4.14551 17.5229C4.1545 17.5723 4.1636 17.6213 4.1818 17.6701C4.1909 17.7189 4.2 17.7673 4.20909 17.8155C4.22729 17.8636 4.23639 17.9112 4.25459 17.9586C4.26358 18.006 4.28178 18.0529 4.29998 18.0993C4.31818 18.1458 4.33638 18.1918 4.35458 18.2372C4.37278 18.2826 4.39087 18.3276 4.40907 18.3719C4.42727 18.4162 4.45456 18.46 4.47276 18.5031C4.49085 18.5462 4.51815 18.5887 4.54545 18.6305C4.56365 18.6723 4.59095 18.7134 4.61815 18.7539C4.64545 18.7942 4.66364 18.8339 4.69094 18.8727C4.71813 18.9115 4.75453 18.9497 4.78183 18.9869C4.80913 19.0242 4.83632 19.0606 4.86362 19.0962C4.90001 19.1318 4.92731 19.1665 4.9636 19.2003C4.9909 19.2341 5.0273 19.2669 5.0546 19.2988C5.09089 19.3308 5.12728 19.3618 5.16368 19.3918C5.19087 19.4218 5.22727 19.4507 5.26367 19.4787C5.29996 19.5067 5.33636 19.5336 5.37275 19.5596C5.40905 19.5854 5.44545 19.6103 5.48185 19.6341C5.52724 19.658 5.56364 19.6806 5.60003 19.7021C5.63632 19.7235 5.68182 19.7441 5.71822 19.7634C5.75451 19.7827 5.8 19.8009 5.8364 19.8179C5.88179 19.8349 5.91819 19.8507 5.96369 19.8655C5.99998 19.8802 6.04547 19.8936 6.08176 19.906C6.12726 19.9183 6.16366 19.9294 6.20905 19.9394C6.25455 19.9491 6.29095 19.958 6.33634 19.9655C6.38184 19.973 6.41824 19.9792 6.46363 19.9843C6.50912 19.9894 6.54541 19.9931 6.59091 19.9959C6.63641 19.9984 6.6818 19.9998 6.71819 20L13.2818 20C13.3273 19.9998 13.3636 19.9984 13.4091 19.9959C13.4545 19.9931 13.4909 19.9894 13.5364 19.9843C13.5817 19.9792 13.6182 19.973 13.6636 19.9655C13.7091 19.958 13.7455 19.9491 13.7909 19.9394C13.8364 19.9294 13.8727 19.9183 13.9183 19.906C13.9545 19.8936 14 19.8802 14.0363 19.8655C14.0818 19.8507 14.1182 19.8349 14.1636 19.8179C14.2 19.8009 14.2455 19.7827 14.2818 19.7634C14.3182 19.7441 14.3636 19.7235 14.4 19.7021C14.4364 19.6806 14.4819 19.658 14.5182 19.6341C14.5545 19.6103 14.5909 19.5854 14.6273 19.5596C14.6636 19.5336 14.7 19.5067 14.7364 19.4787C14.7727 19.4507 14.8091 19.4218 14.8363 19.3918C14.8727 19.3618 14.9091 19.3308 14.9454 19.2988C14.9727 19.2669 15.0091 19.2341 15.0364 19.2003C15.0727 19.1665 15.1 19.1318 15.1364 19.0962C15.1637 19.0606 15.1909 19.0242 15.2182 18.9869C15.2545 18.9497 15.2819 18.9115 15.3091 18.8727C15.3364 18.8339 15.3636 18.7942 15.3818 18.7538C15.4091 18.7134 15.4364 18.6723 15.4545 18.6305C15.4818 18.5887 15.5092 18.5462 15.5273 18.5031C15.5455 18.46 15.5727 18.4162 15.5909 18.3719C15.6091 18.3276 15.6272 18.2826 15.6455 18.2372C15.6636 18.1918 15.6818 18.1458 15.7 18.0993C15.7182 18.0529 15.7365 18.006 15.7454 17.9586C15.7636 17.9112 15.7727 17.8636 15.7909 17.8155C15.8 17.7673 15.8091 17.7189 15.8273 17.6701C15.8364 17.6213 15.8455 17.5723 15.8545 17.5229C15.8636 17.4737 15.8636 17.4241 15.8727 17.3743C15.8818 17.3246 15.8818 17.2747 15.8909 17.2246C15.8909 17.1746 15.9 17.1244 15.9 17.0742C15.9 17.024 15.9 16.9737 15.9 16.9234L15.9 8.80829C15.9 8.7705 15.9 8.7705 15.9364 8.7705L15.9726 8.7705C15.9818 8.78682 16 8.80272 16.0091 8.81829C16.0273 8.83377 16.0455 8.84882 16.0545 8.86345C16.0728 8.87819 16.0909 8.8924 16.1 8.90619C16.1182 8.91998 16.1364 8.93335 16.1545 8.94619C16.1727 8.95914 16.1818 8.97156 16.1999 8.98356C16.2182 8.99556 16.2364 9.00703 16.2545 9.01798C16.2727 9.02903 16.2909 9.03956 16.309 9.04956C16.3273 9.05966 16.3455 9.06913 16.3636 9.07819C16.3818 9.08724 16.4 9.09577 16.4183 9.10377C16.4364 9.11177 16.4545 9.11924 16.4727 9.12619C16.4909 9.13324 16.5091 9.13966 16.5274 9.14555C16.5455 9.15145 16.5636 9.15682 16.5818 9.16166C16.6091 9.1665 16.6273 9.17082 16.6455 9.17461C16.6636 9.17829 16.6818 9.18155 16.7 9.18419C16.7273 9.18692 16.7455 9.18903 16.7635 9.19061C16.7818 9.19219 16.8 9.19324 16.8182 9.19366C16.8455 9.19366 16.8636 9.19303 16.8817 9.19187C16.9 9.19071 16.9182 9.18892 16.9364 9.18661C16.9636 9.18419 16.9819 9.18134 17 9.17787C17.0182 9.17429 17.0364 9.17029 17.0545 9.16566C17.0727 9.16103 17.1001 9.15577 17.1182 9.15008C17.1364 9.14429 17.1545 9.13798 17.1727 9.13103C17.1909 9.12419 17.2092 9.11682 17.2273 9.10882C17.2455 9.10082 17.2636 9.09229 17.2818 9.08324C17.3 9.07419 17.3182 9.06461 17.3363 9.0545C17.3545 9.0444 17.3727 9.03377 17.3909 9.02261C17.4091 9.01145 17.4273 8.99987 17.4454 8.98766C17.4636 8.97556 17.4727 8.96292 17.4909 8.94977C17.5091 8.93671 17.5273 8.92314 17.5364 8.90903C17.5546 8.89493 17.5727 8.8804 17.5909 8.86545C17.6 8.8505 17.6182 8.83514 17.6273 8.81924C17.6455 8.80345 17.6637 8.78724 17.6726 8.7705L19.609 6.50378C19.6182 6.48642 19.6364 6.46863 19.6545 6.45052C19.6636 6.43231 19.6818 6.41357 19.6909 6.39452C19.7092 6.37547 19.7273 6.356 19.7364 6.33621C19.7455 6.31631 19.7636 6.2961 19.7727 6.27547C19.7818 6.25484 19.8 6.23389 19.8091 6.21263C19.8182 6.19126 19.8274 6.16968 19.8455 6.14768C19.8545 6.12579 19.8636 6.10358 19.8727 6.08105C19.8818 6.05852 19.8909 6.03568 19.9 6.01263C19.9091 5.98958 19.9182 5.96631 19.9182 5.94274C19.9273 5.91916 19.9365 5.89547 19.9454 5.87158C19.9454 5.84758 19.9545 5.82347 19.9636 5.79916C19.9636 5.77495 19.9727 5.75053 19.9727 5.7259C19.9818 5.70137 19.9818 5.67663 19.9818 5.6519C19.9909 5.62705 19.9909 5.60221 19.9909 5.57726C20 5.55232 20 5.52727 20 5.50221C20 5.47716 20 5.45211 20 5.42706C20 5.402 20 5.37695 20 5.35179C20 5.32685 20 5.30179 19.9909 5.27685C19.9909 5.2519 19.9909 5.22706 19.9818 5.20222C19.9818 5.17737 19.9818 5.15274 19.9727 5.12811C19.9727 5.10358 19.9636 5.07916 19.9636 5.05485C19.9545 5.03064 19.9454 5.00653 19.9454 4.98253C19.9365 4.95864 19.9273 4.93485 19.9182 4.91138C19.9182 4.8878 19.9091 4.86453 19.9 4.84148C19.8909 4.81843 19.8818 4.79559 19.8727 4.77306C19.8636 4.75053 19.8545 4.72832 19.8455 4.70632C19.8274 4.68443 19.8182 4.66274 19.8091 4.64148C19.8 4.62022 19.7818 4.59927 19.7727 4.57864C19.7636 4.55801 19.7455 4.5378 19.7364 4.5179C19.7273 4.49811 19.7092 4.47864 19.6909 4.45948C19.6818 4.44043 19.6636 4.4218 19.6545 4.40359C19.6364 4.38538 19.6182 4.36769 19.609 4.35033L16.2909 0.465301C16.2909 0.456142 16.2818 0.446983 16.2727 0.438037C16.2636 0.429091 16.2545 0.420143 16.2455 0.411406C16.2364 0.402669 16.2273 0.394035 16.2182 0.385511C16.2182 0.37709 16.2091 0.36867 16.1999 0.360354C16.191 0.352143 16.1818 0.344039 16.1727 0.336037C16.1636 0.328038 16.1545 0.320143 16.1455 0.312354C16.1364 0.304667 16.1273 0.296986 16.1182 0.289514C16.1091 0.282037 16.1 0.274669 16.0909 0.267409C16.0817 0.260249 16.0728 0.253198 16.0636 0.246247C16.0545 0.2393 16.0455 0.232458 16.0364 0.225829C16.0273 0.219091 16.0182 0.212566 16.0091 0.206145C16 0.199828 15.9909 0.193512 15.9818 0.187409C15.9726 0.181301 15.9637 0.175406 15.9455 0.169511C15.9364 0.163722 15.9273 0.15804 15.9182 0.152566C15.9091 0.146985 15.9 0.141617 15.8909 0.136356C15.8818 0.131197 15.8727 0.126041 15.8636 0.121094C15.8455 0.116251 15.8364 0.111409 15.8273 0.106775C15.8182 0.102145 15.8091 0.0977238 15.8 0.0933028C15.7909 0.0889862 15.7727 0.0848824 15.7636 0.0807747C15.7545 0.0767752 15.7454 0.0729887 15.7365 0.0691981C15.7273 0.0655119 15.7182 0.0619342 15.7 0.0585653C15.6909 0.0551962 15.6818 0.0519357 15.6727 0.04888C15.6636 0.0457239 15.6455 0.042881 15.6364 0.0400379C15.6272 0.0373034 15.6183 0.0346733 15.6091 0.032252C15.6 0.0298307 15.5818 0.0275138 15.5727 0.0254097C15.5636 0.0233016 15.5545 0.021302 15.5455 0.019515C15.5273 0.0177242 15.5181 0.0160417 15.5092 0.014568C15.5 0.0130943 15.4909 0.0117251 15.4727 0.0105647C15.4636 0.00940818 15.4545 0.00835614 15.4455 0.00761729C15.4364 0.00677807 15.4182 0.00603922 15.4091 0.0055132C15.3999 0.00498717 15.391 0.00466996 15.3727 0.00446116C15.3636 0.00425235 15.3545 0.00425235 15.3455 0.00435676L14.5273 0.00435676C14.5091 0.00446116 14.5 0.00477838 14.4819 0.0054088C14.4636 0.00593482 14.4545 0.00688247 14.4364 0.00793451C14.4273 0.00898656 14.4091 0.0103558 14.4 0.0120383C14.3817 0.0136204 14.3728 0.0155157 14.3545 0.0176198C14.3455 0.0197239 14.3273 0.0221452 14.3182 0.0247753C14.3 0.0274094 14.2909 0.0302523 14.2727 0.0334085C14.2635 0.0365646 14.2455 0.0399336 14.2364 0.0436198C14.2182 0.0471976 14.2091 0.0510925 14.1909 0.0553047C14.1818 0.0594084 14.1636 0.0638294 14.1545 0.0684593C14.1364 0.073093 14.1273 0.0779358 14.1182 0.0830915C14.1 0.0881429 14.0909 0.0935116 14.0727 0.0991975C14.0636 0.104775 14.0455 0.110566 14.0363 0.116673C14.0274 0.122776 14.0091 0.129093 14 0.135722C13.9818 0.142251 13.9727 0.149094 13.9636 0.15604C13.9455 0.163091 13.9364 0.170356 13.9183 0.177828C13.9091 0.185301 13.9 0.19309 13.8818 0.200985C13.8727 0.208988 13.8636 0.217091 13.8455 0.225511C13.8364 0.233932 13.8273 0.24246 13.8182 0.251302C13.8001 0.260144 13.7909 0.269195 13.7818 0.278459C13.7727 0.287722 13.7545 0.29709 13.7455 0.306776C13.7364 0.316457 13.7273 0.326356 13.7091 0.336458C13.6999 0.346461 13.691 0.356776 13.6818 0.367196C13.6727 0.37772 13.6636 0.388353 13.6455 0.399299C13.6364 0.410141 13.6273 0.421196 13.6182 0.432459C13.6091 0.443614 13.6 0.45509 13.5909 0.466666C13.5817 0.478247 13.5728 0.490036 13.5636 0.502034C13.5545 0.514036 13.5455 0.526144 13.5364 0.538458C13.5273 0.550774 13.5182 0.563194 13.5091 0.575826C13.5 0.588455 13.4909 0.6013 13.4818 0.614246C13.4726 0.627192 13.4637 0.640246 13.4545 0.653509C13.4455 0.666772 13.4364 0.680243 13.4273 0.69372C13.4273 0.7073 13.4182 0.720981 13.4091 0.734774C13.3818 0.774032 13.3636 0.81277 13.3364 0.851085C13.3091 0.8894 13.2818 0.927297 13.2545 0.964666C13.2273 1.00203 13.2 1.03898 13.1727 1.0754C13.1455 1.11182 13.1183 1.14782 13.0909 1.18319C13.0636 1.21866 13.0364 1.25361 13 1.28803C12.9727 1.32245 12.9455 1.35635 12.9182 1.38961C12.8818 1.42298 12.8545 1.45582 12.8182 1.48814C12.7908 1.52035 12.7636 1.55203 12.7273 1.58319C12.7 1.61435 12.6637 1.64487 12.6273 1.67487C12.6 1.70487 12.5635 1.73435 12.5364 1.76319C12.5 1.79203 12.4636 1.82024 12.4273 1.84782C12.4 1.8755 12.3636 1.90245 12.3274 1.92887C12.2909 1.95529 12.2545 1.98108 12.2181 2.00624C12.1818 2.0314 12.1545 2.05582 12.1182 2.07971C12.0818 2.10361 12.0455 2.12687 12.0091 2.14939C11.9727 2.17203 11.9273 2.19392 11.8909 2.21518C11.8545 2.23645 11.8182 2.25697 11.7818 2.27697C11.7455 2.29687 11.7091 2.31613 11.6636 2.33466C11.6273 2.35329 11.5909 2.37118 11.5545 2.38834C11.5091 2.4056 11.4727 2.42213 11.4364 2.43792C11.3909 2.45371 11.3545 2.46876 11.3182 2.48318C11.2727 2.4976 11.2364 2.51139 11.1999 2.52434C11.1545 2.53739 11.1182 2.5496 11.0728 2.56118C11.0364 2.57276 10.9909 2.5836 10.9545 2.59381C10.9182 2.60392 10.8727 2.61329 10.8364 2.62202C10.7909 2.63065 10.7545 2.63865 10.7091 2.64592C10.6727 2.65308 10.6272 2.6596 10.5818 2.66539C10.5455 2.67118 10.5 2.67623 10.4636 2.68044C10.4182 2.68476 10.3818 2.68834 10.3364 2.69118C10.3 2.69402 10.2545 2.69613 10.2182 2.6975C10.1726 2.69886 10.1273 2.6995 10.0909 2.69939C10.0455 2.69929 10.0091 2.69844 9.96364 2.69686C9.92727 2.69781 9.88182 2.69813 9.83627 2.69771C9.8 2.69729 9.75455 2.69613 9.71809 2.69434C9.67273 2.69244 9.63636 2.68992 9.59091 2.68665C9.55455 2.68329 9.50909 2.67929 9.47273 2.67455C9.42727 2.66992 9.39091 2.66444 9.34545 2.65823C9.30909 2.65213 9.26355 2.64529 9.22727 2.63771C9.18182 2.63013 9.14555 2.62181 9.1 2.61287C9.06361 2.60392 9.01822 2.59423 8.98182 2.58381C8.93633 2.57339 8.90004 2.56234 8.85454 2.55055C8.81814 2.53876 8.78185 2.52623 8.73635 2.51308C8.69995 2.49992 8.65456 2.48602 8.61816 2.4715C8.58176 2.45687 8.53637 2.44171 8.49998 2.42571C8.46369 2.40981 8.42729 2.39318 8.38179 2.37592C8.3455 2.35866 8.3091 2.34076 8.27271 2.32213C8.22732 2.3036 8.19092 2.28434 8.15452 2.26434C8.11823 2.24445 8.08183 2.22392 8.04544 2.20266C8.00915 2.18139 7.97275 2.1595 7.93635 2.13708C7.89095 2.11455 7.85455 2.0914 7.82726 2.06761C7.79086 2.04392 7.75457 2.0195 7.71817 1.99445C7.68177 1.9695 7.64548 1.94382 7.60909 1.91761C7.57269 1.8914 7.5364 1.86455 7.5091 1.83708C7.4727 1.80971 7.43641 1.78171 7.40911 1.75308C7.37272 1.72445 7.33632 1.69529 7.30913 1.66561C7.27273 1.63582 7.24543 1.6055 7.20914 1.57466C7.18184 1.54372 7.14545 1.51235 7.11815 1.48035C7.08185 1.44845 7.05455 1.41593 7.01815 1.38287C6.99085 1.34982 6.96366 1.31635 6.93636 1.28224C6.89997 1.24814 6.87278 1.21361 6.84548 1.17856C6.81818 1.1434 6.79088 1.10793 6.76358 1.07182C6.73639 1.03571 6.70909 0.999191 6.6818 0.962245C6.6545 0.92519 6.62731 0.887822 6.60001 0.849824C6.57271 0.81193 6.54541 0.773615 6.52732 0.734774C6.51822 0.720981 6.50912 0.707404 6.50912 0.693824C6.50002 0.680243 6.49092 0.666876 6.48182 0.653613C6.47273 0.64035 6.47273 0.627301 6.46363 0.614246C6.45453 0.6013 6.44543 0.588455 6.43633 0.575826C6.42723 0.563194 6.42723 0.55067 6.41824 0.53835C6.40914 0.525931 6.40004 0.513824 6.39094 0.501826C6.38184 0.489828 6.37274 0.47793 6.36364 0.466249C6.35454 0.454564 6.34544 0.443088 6.33634 0.431824C6.32724 0.420457 6.31814 0.409407 6.30904 0.39846C6.30005 0.38751 6.29095 0.376773 6.28185 0.366249C6.27275 0.35572 6.26365 0.3453 6.24545 0.335197C6.23635 0.324986 6.22725 0.315091 6.21815 0.305302C6.20905 0.295617 6.19995 0.28604 6.19096 0.276776C6.17276 0.267409 6.16366 0.258354 6.15456 0.249407C6.14546 0.240566 6.13636 0.231932 6.11816 0.223407C6.10906 0.214987 6.09996 0.206775 6.09086 0.198776C6.07277 0.190773 6.06367 0.182988 6.05457 0.175511C6.03637 0.167934 6.02727 0.160669 6.01818 0.153619C6.00908 0.146563 5.99088 0.139725 5.98178 0.133092C5.97268 0.126566 5.95459 0.120146 5.94549 0.114038C5.93639 0.107935 5.91819 0.102145 5.90909 0.096459C5.89089 0.0908814 5.88179 0.0855129 5.87269 0.0804614C5.85449 0.0753016 5.8455 0.070459 5.8273 0.0658291C5.8182 0.0611993 5.8091 0.0568827 5.79091 0.052775C5.78181 0.0486711 5.76361 0.0447762 5.75451 0.0411984C5.74541 0.0376207 5.72732 0.0343561 5.71822 0.031196C5.70002 0.0281442 5.69092 0.0254097 5.67272 0.0227756C5.66362 0.0202499 5.64542 0.0180413 5.63632 0.0159333C5.62722 0.0139336 5.60913 0.0122511 5.60003 0.0106731C5.58183 0.00919938 5.57273 0.00793451 5.55454 0.00698687C5.54544 0.00603922 5.52724 0.0053044 5.51814 0.00488278C5.50005 0.00446116 5.49095 0.00435676 5.47275 0.00435676Z"   fill="currentColor" >
</path>
</svg>
