<svg xmlns="http://www.w3.org/2000/svg" xmlns:xlink="http://www.w3.org/1999/xlink" width="20" height="20" viewBox="0 0 20 20" fill="none">
<g  clip-path="url(#clip-path-Rl65rLTS_2kE4PvzJY4yf)">
<path d="M18.6441 15.8367L18.6441 15.8367L18.6441 15.8367L18.6441 15.8367Z"   fill="#272536" >
</path>
<path d="M17.0741 2.92587C13.1736 -0.975332 6.82646 -0.975332 2.92593 2.92587C-0.975308 6.82637 -0.975308 13.1735 2.92593 17.074C6.82646 20.9753 13.1736 20.9753 17.0741 17.074C20.9753 13.1735 20.9753 6.82637 17.0741 2.92587ZM16.0588 16.0594C12.718 19.4002 7.28132 19.3995 3.9409 16.0594C0.599756 12.7179 0.599756 7.28231 3.9409 3.94087C7.28132 0.600437 12.718 0.599718 16.0588 3.94087C19.3995 7.28126 19.3995 12.7186 16.0588 16.0594Z"   fill="#231F20" >
</path>
<path d="M6.87888 8.94625C7.47265 8.94625 7.95588 8.46305 7.95588 7.86894C7.95588 7.27412 7.47265 6.79019 6.87888 6.79019C6.28371 6.79019 5.80046 7.27412 5.80046 7.86894C5.80046 8.46305 6.28371 8.94625 6.87888 8.94625Z"   fill="#231F20" >
</path>
<path d="M13.0829 8.94808C13.6774 8.94808 14.1613 8.46382 14.1613 7.86969C14.1613 7.27486 13.6774 6.79166 13.0829 6.79166C12.4891 6.79166 12.0059 7.27486 12.0059 7.86969C12.0059 8.46382 12.4891 8.94808 13.0829 8.94808Z"   fill="#231F20" >
</path>
<path d="M13.1204 12.5648L13.0616 12.584C12.0959 13.0212 11.06 13.2436 9.98515 13.2436C8.87487 13.2436 7.8248 13.019 6.86332 12.5776L6.8052 12.5599C6.76907 12.5499 6.7202 12.5358 6.65925 12.5358C6.30568 12.5358 6.01874 12.8227 6.01874 13.1749C6.01874 13.3421 6.09737 13.51 6.22705 13.6362L6.21924 13.6751L6.38292 13.7488C7.53077 14.2682 8.77921 14.5417 9.99294 14.5417C11.2294 14.5417 12.441 14.2753 13.6101 13.7424C13.8155 13.6297 13.9438 13.4137 13.9438 13.1791C13.9438 12.7661 13.5704 12.4267 13.1204 12.5648Z"   fill="#231F20" >
</path>
</g>
<defs>
<clipPath id="clip-path-Rl65rLTS_2kE4PvzJY4yf">
<path d="M0 20L20 20L20 0L0 0L0 20Z" fill="white"/>
</clipPath>
</defs>
</svg>
