<svg xmlns="http://www.w3.org/2000/svg" xmlns:xlink="http://www.w3.org/1999/xlink" width="20" height="20" viewBox="0 0 20 20" fill="none">
<path d="M3.52698 12.5C3.58477 12.5 3.64253 12.5014 3.70024 12.5044C3.75795 12.5074 3.81556 12.5118 3.87308 12.5178C3.9306 12.5238 3.98793 12.5313 4.04511 12.5403C4.10229 12.5492 4.1592 12.5597 4.21588 12.5716C4.27257 12.5835 4.32893 12.597 4.38498 12.6118C4.44105 12.6267 4.49674 12.6431 4.55204 12.6609C4.60736 12.6787 4.66222 12.6979 4.71663 12.7185C4.77106 12.7392 4.82498 12.7612 4.87838 12.7847C4.93179 12.8082 4.98461 12.833 5.03684 12.8593C5.0891 12.8855 5.14073 12.913 5.19169 12.9419C5.24267 12.9709 5.29295 13.0011 5.34253 13.0326C5.39211 13.0642 5.44092 13.097 5.48898 13.1311C5.53704 13.1652 5.5843 13.2005 5.63072 13.2371C5.67714 13.2736 5.72269 13.3113 5.76738 13.3503C5.81206 13.3892 5.85583 13.4293 5.89865 13.4705C5.9415 13.5117 5.98334 13.554 6.02421 13.5974C6.0651 13.6408 6.10496 13.6853 6.14376 13.7308C6.1826 13.7762 6.22033 13.8227 6.25701 13.8702C6.29368 13.9176 6.32924 13.966 6.36367 14.0153C6.39813 14.0646 6.4314 14.1148 6.46351 14.1658C6.49562 14.2168 6.52653 14.2687 6.55625 14.3214C6.58598 14.374 6.61447 14.4274 6.64171 14.4815C6.66897 14.5357 6.69496 14.5905 6.71966 14.646C6.74439 14.7015 6.76782 14.7576 6.78992 14.8143C6.81207 14.8711 6.83287 14.9283 6.85234 14.9861C6.87181 15.0439 6.88993 15.1022 6.90672 15.161C6.92351 15.2197 6.9389 15.2789 6.95295 15.3384C6.96701 15.398 6.97968 15.4579 6.99095 15.5181C7.00224 15.5783 7.0121 15.6388 7.0206 15.6995C7.02909 15.7602 7.03616 15.8212 7.04181 15.8823C7.0475 15.9434 7.05175 16.0046 7.05457 16.0659C7.05742 16.1273 7.05881 16.1886 7.05881 16.25C7.05881 16.3114 7.05742 16.3728 7.05457 16.4341C7.05175 16.4954 7.0475 16.5566 7.04181 16.6177C7.03616 16.6788 7.02909 16.7397 7.0206 16.8005C7.0121 16.8612 7.00224 16.9217 6.99095 16.9819C6.97968 17.0421 6.96701 17.102 6.95295 17.1616C6.9389 17.2211 6.92351 17.2803 6.90672 17.339C6.88993 17.3978 6.87181 17.4561 6.85234 17.5139C6.83287 17.5717 6.81207 17.6289 6.78992 17.6857C6.76782 17.7424 6.74439 17.7985 6.71966 17.854C6.69496 17.9095 6.66897 17.9643 6.64171 18.0185C6.61447 18.0726 6.58598 18.126 6.55625 18.1786C6.52653 18.2313 6.49562 18.2832 6.46351 18.3342C6.4314 18.3852 6.39813 18.4354 6.36367 18.4847C6.32924 18.534 6.29368 18.5824 6.25701 18.6298C6.22033 18.6773 6.1826 18.7238 6.14376 18.7692C6.10496 18.8147 6.0651 18.8592 6.02421 18.9026C5.98334 18.946 5.9415 18.9883 5.89865 19.0295C5.85583 19.0707 5.81206 19.1108 5.76738 19.1497C5.72269 19.1887 5.67714 19.2264 5.63072 19.2629C5.5843 19.2995 5.53704 19.3348 5.48898 19.3689C5.44092 19.403 5.39211 19.4358 5.34253 19.4674C5.29295 19.4989 5.24267 19.5291 5.19169 19.5581C5.14073 19.587 5.0891 19.6145 5.03684 19.6408C4.98461 19.667 4.93179 19.6918 4.87838 19.7153C4.82498 19.7388 4.77106 19.7608 4.71663 19.7815C4.66222 19.8021 4.60736 19.8214 4.55204 19.8391C4.49674 19.8569 4.44105 19.8733 4.38498 19.8882C4.32893 19.903 4.27257 19.9165 4.21588 19.9284C4.1592 19.9403 4.10229 19.9508 4.04511 19.9598C3.98793 19.9687 3.9306 19.9762 3.87308 19.9822C3.81556 19.9882 3.75795 19.9926 3.70024 19.9956C3.64253 19.9986 3.58477 20 3.52698 20C3.46925 20 3.41154 19.9984 3.35387 19.9954C3.29621 19.9923 3.23867 19.9878 3.1812 19.9817C3.12375 19.9756 3.06647 19.9681 3.00934 19.9591C2.95226 19.95 2.89539 19.9395 2.83876 19.9275C2.78216 19.9155 2.72585 19.902 2.66983 19.8871C2.61385 19.8722 2.55824 19.8558 2.50299 19.8379C2.44774 19.8201 2.39295 19.8008 2.3386 19.7801C2.28425 19.7594 2.2304 19.7373 2.17707 19.7138C2.12375 19.6903 2.071 19.6654 2.01882 19.6392C1.96664 19.6129 1.9151 19.5853 1.86419 19.5564C1.81328 19.5274 1.76307 19.4972 1.71357 19.4656C1.66406 19.4341 1.6153 19.4012 1.56731 19.3671C1.51931 19.333 1.47214 19.2977 1.42578 19.2611C1.37943 19.2245 1.33394 19.1868 1.28932 19.1479C1.2447 19.1089 1.20101 19.0689 1.15824 19.0276C1.11549 18.9865 1.0737 18.9441 1.03287 18.9007C0.992069 18.8573 0.952284 18.8129 0.91352 18.7675C0.874755 18.722 0.837069 18.6756 0.800461 18.6281C0.763853 18.5807 0.728353 18.5323 0.693965 18.483C0.659592 18.4337 0.626369 18.3836 0.594297 18.3326C0.56224 18.2816 0.531374 18.2298 0.501698 18.1771C0.472039 18.1245 0.443601 18.0711 0.416386 18.017C0.389188 17.9629 0.363251 17.9081 0.338577 17.8527C0.313902 17.7972 0.290516 17.7411 0.268416 17.6845C0.246333 17.6278 0.225575 17.5706 0.206145 17.5128C0.186698 17.4551 0.168595 17.3968 0.151835 17.3381C0.135091 17.2794 0.119706 17.2203 0.10568 17.1608C0.0916547 17.1013 0.079012 17.0414 0.067753 16.9813C0.0564971 16.9211 0.0466348 16.8607 0.0381663 16.8C0.0296992 16.7393 0.0226373 16.6784 0.0169804 16.6174C0.0113235 16.5564 0.00707964 16.4952 0.00424879 16.4339C0.00141626 16.3727 0 16.3113 0 16.25C0 16.1886 0.00141626 16.1274 0.00424879 16.0661C0.00707964 16.0048 0.0113235 15.9437 0.0169804 15.8826C0.0226373 15.8216 0.0296992 15.7607 0.0381663 15.7C0.0466348 15.6393 0.0564971 15.5789 0.067753 15.5187C0.079012 15.4586 0.0916547 15.3987 0.10568 15.3392C0.119706 15.2797 0.135091 15.2206 0.151835 15.1619C0.168595 15.1032 0.186698 15.0449 0.206145 14.9872C0.225575 14.9294 0.24634 14.8722 0.26844 14.8155C0.290523 14.7589 0.313902 14.7028 0.338577 14.6473C0.363251 14.5919 0.389188 14.5371 0.416386 14.483C0.443601 14.4289 0.472039 14.3755 0.501698 14.3229C0.531374 14.2702 0.56224 14.2184 0.594297 14.1674C0.626369 14.1164 0.659592 14.0663 0.693965 14.017C0.728353 13.9677 0.763853 13.9193 0.800461 13.8719C0.837069 13.8245 0.874755 13.778 0.91352 13.7326C0.952284 13.6871 0.992069 13.6427 1.03287 13.5993C1.0737 13.5559 1.11549 13.5136 1.15824 13.4724C1.20101 13.4311 1.2447 13.3911 1.28932 13.3521C1.33394 13.3132 1.37943 13.2755 1.42578 13.2389C1.47214 13.2023 1.51931 13.167 1.56731 13.1329C1.6153 13.0988 1.66406 13.0659 1.71357 13.0344C1.76307 13.0028 1.81328 12.9726 1.86419 12.9436C1.9151 12.9147 1.96664 12.8871 2.01882 12.8608C2.071 12.8346 2.12375 12.8097 2.17707 12.7862C2.2304 12.7627 2.28425 12.7406 2.3386 12.7199C2.39295 12.6992 2.44774 12.6799 2.50299 12.6621C2.55824 12.6443 2.61385 12.6279 2.66983 12.6129C2.72585 12.598 2.78216 12.5845 2.83876 12.5725C2.89539 12.5605 2.95226 12.55 3.00934 12.5409C3.06647 12.5319 3.12375 12.5244 3.1812 12.5183C3.23867 12.5122 3.29621 12.5077 3.35387 12.5046C3.41154 12.5016 3.46925 12.5 3.52698 12.5ZM16.4681 12.5C16.5259 12.5 16.5837 12.5014 16.6414 12.5044C16.6991 12.5074 16.7567 12.5118 16.8143 12.5178C16.8718 12.5238 16.9291 12.5313 16.9863 12.5403C17.0435 12.5492 17.1004 12.5597 17.1571 12.5716C17.2138 12.5835 17.2701 12.597 17.3262 12.6118C17.3822 12.6267 17.4379 12.6431 17.4932 12.6609C17.5485 12.6787 17.6034 12.6979 17.6578 12.7185C17.7122 12.7392 17.7662 12.7612 17.8196 12.7847C17.873 12.8082 17.9258 12.833 17.978 12.8593C18.0303 12.8855 18.0819 12.913 18.1329 12.9419C18.1838 12.9709 18.2341 13.0011 18.2837 13.0326C18.3333 13.0642 18.3821 13.097 18.4302 13.1311C18.4782 13.1652 18.5255 13.2005 18.5719 13.2371C18.6183 13.2736 18.6639 13.3113 18.7086 13.3503C18.7532 13.3892 18.797 13.4293 18.8398 13.4705C18.8827 13.5117 18.9245 13.554 18.9654 13.5974C19.0063 13.6408 19.0461 13.6853 19.0849 13.7308C19.1238 13.7762 19.1615 13.8227 19.1982 13.8702C19.2349 13.9176 19.2704 13.966 19.3049 14.0153C19.3393 14.0646 19.3726 14.1148 19.4047 14.1658C19.4368 14.2168 19.4677 14.2687 19.4974 14.3214C19.5272 14.374 19.5557 14.4274 19.5829 14.4815C19.6102 14.5357 19.6361 14.5905 19.6608 14.646C19.6856 14.7015 19.709 14.7576 19.7311 14.8143C19.7532 14.8711 19.774 14.9283 19.7935 14.9861C19.813 15.0439 19.8311 15.1022 19.8479 15.161C19.8647 15.2197 19.8801 15.2789 19.8941 15.3384C19.9082 15.398 19.9209 15.4579 19.9321 15.5181C19.9434 15.5783 19.9533 15.6388 19.9618 15.6995C19.9702 15.7602 19.9773 15.8212 19.983 15.8823C19.9887 15.9434 19.9929 16.0046 19.9957 16.0659C19.9986 16.1273 20 16.1886 20 16.25C20 16.3114 19.9986 16.3728 19.9957 16.4341C19.9929 16.4954 19.9887 16.5566 19.983 16.6177C19.9773 16.6788 19.9702 16.7397 19.9618 16.8005C19.9533 16.8612 19.9434 16.9217 19.9321 16.9819C19.9209 17.0421 19.9082 17.102 19.8941 17.1616C19.8801 17.2211 19.8647 17.2803 19.8479 17.339C19.8311 17.3978 19.813 17.4561 19.7935 17.5139C19.774 17.5717 19.7532 17.6289 19.7311 17.6857C19.709 17.7424 19.6856 17.7985 19.6608 17.854C19.6361 17.9095 19.6102 17.9643 19.5829 18.0185C19.5557 18.0726 19.5272 18.126 19.4974 18.1786C19.4677 18.2313 19.4368 18.2832 19.4047 18.3342C19.3726 18.3852 19.3393 18.4354 19.3049 18.4847C19.2704 18.534 19.2349 18.5824 19.1982 18.6298C19.1615 18.6773 19.1238 18.7238 19.0849 18.7692C19.0461 18.8147 19.0063 18.8592 18.9654 18.9026C18.9245 18.946 18.8827 18.9883 18.8398 19.0295C18.797 19.0707 18.7532 19.1108 18.7086 19.1497C18.6639 19.1887 18.6183 19.2264 18.5719 19.2629C18.5255 19.2995 18.4782 19.3348 18.4302 19.3689C18.3821 19.403 18.3333 19.4358 18.2837 19.4674C18.2341 19.4989 18.1838 19.5291 18.1329 19.5581C18.0819 19.587 18.0303 19.6145 17.978 19.6408C17.9258 19.667 17.873 19.6918 17.8196 19.7153C17.7662 19.7388 17.7122 19.7608 17.6578 19.7815C17.6034 19.8021 17.5485 19.8214 17.4932 19.8391C17.4379 19.8569 17.3822 19.8733 17.3262 19.8882C17.2701 19.903 17.2138 19.9165 17.1571 19.9284C17.1004 19.9403 17.0435 19.9508 16.9863 19.9598C16.9291 19.9687 16.8718 19.9762 16.8143 19.9822C16.7567 19.9882 16.6991 19.9926 16.6414 19.9956C16.5837 19.9986 16.5259 20 16.4681 20C16.4104 20 16.3527 19.9984 16.2951 19.9954C16.2374 19.9923 16.1798 19.9878 16.1224 19.9817C16.0649 19.9756 16.0077 19.9681 15.9505 19.9591C15.8934 19.95 15.8366 19.9395 15.7799 19.9275C15.7233 19.9155 15.667 19.902 15.611 19.8871C15.555 19.8722 15.4994 19.8558 15.4441 19.8379C15.3889 19.8201 15.3341 19.8008 15.2798 19.7801C15.2254 19.7594 15.1716 19.7373 15.1182 19.7138C15.0649 19.6903 15.0122 19.6654 14.96 19.6392C14.9078 19.6129 14.8563 19.5853 14.8054 19.5564C14.7545 19.5274 14.7042 19.4972 14.6547 19.4656C14.6052 19.4341 14.5565 19.4012 14.5085 19.3671C14.4605 19.333 14.4133 19.2977 14.367 19.2611C14.3206 19.2245 14.2751 19.1868 14.2305 19.1479C14.1859 19.1089 14.1422 19.0689 14.0994 19.0276C14.0567 18.9865 14.0149 18.9441 13.9741 18.9007C13.9333 18.8573 13.8935 18.8129 13.8547 18.7675C13.8159 18.722 13.7783 18.6756 13.7416 18.6281C13.705 18.5807 13.6695 18.5323 13.6351 18.483C13.6008 18.4337 13.5676 18.3836 13.5355 18.3326C13.5034 18.2816 13.4726 18.2298 13.4429 18.1771C13.4132 18.1245 13.3848 18.0711 13.3576 18.017C13.3304 17.9629 13.3044 17.9081 13.2798 17.8527C13.2551 17.7972 13.2317 17.7411 13.2096 17.6845C13.1875 17.6278 13.1668 17.5706 13.1473 17.5128C13.1279 17.4551 13.1098 17.3968 13.093 17.3381C13.0763 17.2794 13.0609 17.2203 13.0469 17.1608C13.0328 17.1013 13.0202 17.0414 13.0089 16.9813C12.9977 16.9211 12.9878 16.8607 12.9793 16.8C12.9709 16.7393 12.9638 16.6784 12.9581 16.6174C12.9525 16.5564 12.9482 16.4952 12.9454 16.4339C12.9426 16.3727 12.9412 16.3113 12.9412 16.25C12.9412 16.1886 12.9426 16.1274 12.9454 16.0661C12.9482 16.0048 12.9525 15.9437 12.9582 15.8826C12.9638 15.8216 12.9709 15.7607 12.9793 15.7C12.9878 15.6393 12.9977 15.5789 13.0089 15.5187C13.0202 15.4586 13.0328 15.3987 13.0469 15.3392C13.0609 15.2797 13.0763 15.2206 13.093 15.1619C13.1098 15.1032 13.1279 15.0449 13.1473 14.9872C13.1668 14.9294 13.1875 14.8722 13.2096 14.8155C13.2317 14.7589 13.2551 14.7028 13.2798 14.6473C13.3044 14.5919 13.3304 14.5371 13.3576 14.483C13.3848 14.4289 13.4132 14.3755 13.4429 14.3229C13.4726 14.2702 13.5034 14.2184 13.5355 14.1674C13.5676 14.1164 13.6008 14.0663 13.6351 14.017C13.6695 13.9677 13.705 13.9193 13.7416 13.8719C13.7783 13.8245 13.8159 13.778 13.8547 13.7326C13.8935 13.6871 13.9333 13.6427 13.9741 13.5993C14.0149 13.5559 14.0567 13.5136 14.0994 13.4724C14.1422 13.4311 14.1859 13.3911 14.2305 13.3521C14.2751 13.3132 14.3206 13.2755 14.367 13.2389C14.4133 13.2023 14.4605 13.167 14.5085 13.1329C14.5565 13.0988 14.6052 13.0659 14.6547 13.0344C14.7042 13.0028 14.7545 12.9726 14.8054 12.9436C14.8563 12.9147 14.9078 12.8871 14.96 12.8608C15.0122 12.8346 15.0649 12.8097 15.1182 12.7862C15.1716 12.7627 15.2254 12.7406 15.2798 12.7199C15.3341 12.6992 15.3889 12.6799 15.4441 12.6621C15.4994 12.6443 15.555 12.6279 15.611 12.6129C15.667 12.598 15.7233 12.5845 15.7799 12.5725C15.8366 12.5605 15.8934 12.55 15.9505 12.5409C16.0077 12.5319 16.0649 12.5244 16.1224 12.5183C16.1798 12.5122 16.2374 12.5077 16.2951 12.5046C16.3527 12.5016 16.4104 12.5 16.4681 12.5ZM8.15051 17.185C8.22484 17.2111 8.29963 17.2356 8.37489 17.2586C8.45016 17.2815 8.52582 17.3028 8.60187 17.3225C8.67792 17.3422 8.75433 17.3603 8.83108 17.3768C8.90782 17.3932 8.98484 17.4081 9.06214 17.4213C9.13944 17.4344 9.21696 17.446 9.2947 17.4558C9.37243 17.4657 9.45034 17.474 9.52837 17.4805C9.60642 17.4871 9.68456 17.492 9.76278 17.4953C9.84103 17.4985 9.91929 17.5001 9.99756 17.5C10.0759 17.5001 10.1541 17.4985 10.2323 17.4953C10.3106 17.492 10.3887 17.4871 10.4667 17.4806C10.5448 17.474 10.6227 17.4658 10.7004 17.4559C10.7781 17.4461 10.8556 17.4345 10.9329 17.4214C11.0102 17.4082 11.0873 17.3935 11.164 17.377C11.2407 17.3606 11.3172 17.3425 11.3932 17.3229C11.4693 17.3032 11.545 17.2819 11.6202 17.2591C11.6955 17.2362 11.7703 17.2117 11.8446 17.1856C11.8584 17.263 11.8739 17.3399 11.8911 17.4165C11.9084 17.493 11.9273 17.5691 11.9479 17.6447C11.9685 17.7203 11.9908 17.7954 12.0148 17.8699C12.0388 17.9443 12.0644 18.0182 12.0917 18.0914C12.1189 18.1645 12.1478 18.237 12.1783 18.3087C12.2089 18.3805 12.241 18.4514 12.2747 18.5215C12.3083 18.5916 12.3436 18.6608 12.3804 18.7292C12.4171 18.7975 12.4554 18.8648 12.4952 18.9313L12.4146 18.9606C11.6552 19.2294 10.8423 19.375 9.99756 19.375C9.12287 19.375 8.28226 19.2188 7.49932 18.9313C7.53916 18.8648 7.57747 18.7974 7.61429 18.7291C7.6511 18.6607 7.68635 18.5915 7.72006 18.5214C7.75379 18.4512 7.7859 18.3803 7.81645 18.3085C7.84699 18.2368 7.87592 18.1643 7.90323 18.0911C7.93054 18.0179 7.95619 17.944 7.98017 17.8695C8.00418 17.795 8.02649 17.7199 8.04712 17.6443C8.06777 17.5686 8.08671 17.4925 8.10394 17.416C8.12119 17.3394 8.13671 17.2624 8.15051 17.185ZM3.52698 14.375C3.4981 14.375 3.46925 14.3758 3.44039 14.3773C3.41154 14.3788 3.38275 14.381 3.35399 14.384C3.32526 14.387 3.2966 14.3908 3.26803 14.3953C3.23946 14.3998 3.21102 14.4051 3.18269 14.411C3.15437 14.417 3.12621 14.4237 3.09818 14.4312C3.07019 14.4387 3.04235 14.4468 3.0147 14.4557C2.98707 14.4646 2.95966 14.4743 2.93245 14.4846C2.90528 14.4949 2.87833 14.506 2.85165 14.5177C2.82496 14.5295 2.79857 14.5419 2.77246 14.555C2.74636 14.5681 2.72057 14.5819 2.69509 14.5964C2.66964 14.6109 2.64452 14.626 2.61974 14.6418C2.59496 14.6575 2.57057 14.6739 2.54656 14.691C2.52256 14.708 2.49894 14.7257 2.47573 14.744C2.45254 14.7623 2.42979 14.7811 2.40745 14.8006C2.38513 14.8201 2.36327 14.8401 2.34188 14.8607C2.32047 14.8813 2.29956 14.9025 2.27915 14.9242C2.25872 14.9459 2.23881 14.9681 2.21941 14.9908C2.20001 15.0136 2.18115 15.0368 2.16283 15.0605C2.14451 15.0842 2.12675 15.1084 2.10956 15.1331C2.09235 15.1577 2.07572 15.1828 2.05967 15.2083C2.04363 15.2338 2.02819 15.2597 2.01334 15.286C1.9985 15.3124 1.98426 15.3391 1.97064 15.3661C1.95703 15.3932 1.94405 15.4206 1.9317 15.4483C1.91934 15.4761 1.90764 15.5041 1.89659 15.5325C1.88554 15.5608 1.87515 15.5894 1.86542 15.6183C1.85569 15.6472 1.84663 15.6764 1.83825 15.7057C1.82987 15.7351 1.82218 15.7646 1.81516 15.7944C1.80814 15.8242 1.8018 15.8541 1.79618 15.8842C1.79055 15.9143 1.78561 15.9445 1.78136 15.9749C1.77713 16.0052 1.7736 16.0357 1.77077 16.0662C1.76794 16.0967 1.76582 16.1274 1.7644 16.158C1.76298 16.1886 1.76228 16.2193 1.76228 16.25C1.76228 16.2807 1.76298 16.3114 1.7644 16.342C1.76582 16.3727 1.76794 16.4033 1.77077 16.4338C1.7736 16.4643 1.77713 16.4948 1.78136 16.5251C1.78561 16.5555 1.79055 16.5857 1.79618 16.6158C1.8018 16.6459 1.80814 16.6758 1.81516 16.7056C1.82218 16.7354 1.82987 16.7649 1.83825 16.7943C1.84663 16.8236 1.85569 16.8528 1.86542 16.8817C1.87515 16.9106 1.88554 16.9392 1.89659 16.9675C1.90764 16.9959 1.91934 17.0239 1.9317 17.0517C1.94405 17.0794 1.95703 17.1068 1.97064 17.1339C1.98426 17.1609 1.9985 17.1876 2.01334 17.2139C2.02819 17.2403 2.04363 17.2662 2.05967 17.2917C2.07572 17.3172 2.09235 17.3423 2.10956 17.3669C2.12675 17.3916 2.14451 17.4158 2.16283 17.4395C2.18115 17.4632 2.20001 17.4864 2.21941 17.5092C2.23881 17.5319 2.25872 17.5541 2.27915 17.5758C2.29956 17.5975 2.32047 17.6187 2.34188 17.6393C2.36327 17.6599 2.38513 17.6799 2.40745 17.6994C2.42979 17.7189 2.45254 17.7377 2.47573 17.756C2.49894 17.7743 2.52256 17.792 2.54654 17.809C2.57057 17.8261 2.59496 17.8425 2.61974 17.8582C2.64452 17.874 2.66964 17.8891 2.69509 17.9036C2.72057 17.9181 2.74636 17.9319 2.77246 17.945C2.79857 17.9581 2.82496 17.9705 2.85165 17.9823C2.87833 17.994 2.90528 18.0051 2.93245 18.0154C2.95966 18.0257 2.98707 18.0354 3.0147 18.0443C3.04235 18.0532 3.07019 18.0613 3.09818 18.0688C3.12621 18.0763 3.15437 18.083 3.18269 18.089C3.21102 18.0949 3.23946 18.1002 3.26803 18.1047C3.2966 18.1092 3.32526 18.113 3.35399 18.116C3.38275 18.119 3.41154 18.1212 3.44039 18.1227C3.46925 18.1243 3.4981 18.125 3.52698 18.125C3.55586 18.125 3.58472 18.1243 3.61355 18.1227C3.64241 18.1212 3.67121 18.119 3.69995 18.116C3.72871 18.113 3.75735 18.1092 3.78591 18.1047C3.81448 18.1002 3.84292 18.0949 3.87125 18.089C3.89957 18.083 3.92775 18.0763 3.95576 18.0688C3.9838 18.0613 4.01162 18.0532 4.03924 18.0443C4.06689 18.0354 4.0943 18.0257 4.12149 18.0154C4.14868 18.0051 4.17561 17.994 4.20229 17.9823C4.22898 17.9705 4.25537 17.9581 4.28148 17.945C4.30758 17.9319 4.33337 17.9181 4.35885 17.9036C4.38433 17.8891 4.40945 17.874 4.4342 17.8582C4.459 17.8425 4.48339 17.8261 4.50738 17.809C4.53141 17.792 4.555 17.7743 4.57821 17.756C4.60142 17.7377 4.62418 17.7189 4.64649 17.6994C4.66883 17.6799 4.69069 17.6599 4.71207 17.6393C4.73349 17.6187 4.75439 17.5975 4.7748 17.5758C4.79523 17.5541 4.81514 17.5319 4.83454 17.5092C4.85393 17.4864 4.8728 17.4632 4.89111 17.4395C4.90945 17.4158 4.92721 17.3916 4.94439 17.3669C4.96161 17.3423 4.97824 17.3172 4.99428 17.2917C5.01032 17.2662 5.02577 17.2403 5.0406 17.2139C5.05547 17.1876 5.0697 17.1609 5.08331 17.1339C5.09692 17.1068 5.1099 17.0794 5.12225 17.0517C5.1346 17.0239 5.1463 16.9959 5.15735 16.9675C5.1684 16.9392 5.1788 16.9106 5.18853 16.8817C5.19827 16.8528 5.20732 16.8236 5.21569 16.7943C5.22409 16.7649 5.23179 16.7354 5.23878 16.7056C5.24583 16.6758 5.25215 16.6459 5.25777 16.6158C5.26342 16.5857 5.26834 16.5555 5.27258 16.5251C5.27683 16.4948 5.28035 16.4643 5.28318 16.4338C5.28602 16.4033 5.28815 16.3727 5.28955 16.342C5.29097 16.3114 5.29167 16.2807 5.29167 16.25C5.29167 16.2193 5.29097 16.1886 5.28955 16.158C5.28815 16.1274 5.28602 16.0967 5.28318 16.0662C5.28035 16.0357 5.27683 16.0052 5.27258 15.9749C5.26834 15.9445 5.26342 15.9143 5.25777 15.8842C5.25215 15.8541 5.24583 15.8242 5.23878 15.7944C5.23179 15.7646 5.22409 15.7351 5.21569 15.7057C5.20732 15.6764 5.19827 15.6472 5.18853 15.6183C5.1788 15.5894 5.1684 15.5608 5.15735 15.5325C5.1463 15.5041 5.1346 15.4761 5.12225 15.4483C5.1099 15.4206 5.09692 15.3932 5.08331 15.3661C5.0697 15.3391 5.05547 15.3124 5.0406 15.286C5.02577 15.2597 5.01032 15.2338 4.99428 15.2083C4.97824 15.1828 4.96161 15.1577 4.94439 15.1331C4.92721 15.1084 4.90945 15.0842 4.89111 15.0605C4.8728 15.0368 4.85393 15.0136 4.83454 14.9908C4.81514 14.9681 4.79523 14.9459 4.7748 14.9242C4.75439 14.9025 4.73349 14.8813 4.71207 14.8607C4.69069 14.8401 4.66883 14.8201 4.64649 14.8006C4.62418 14.7811 4.60142 14.7623 4.57821 14.744C4.555 14.7257 4.53141 14.708 4.50738 14.691C4.48339 14.6739 4.459 14.6575 4.4342 14.6418C4.40945 14.626 4.38433 14.6109 4.35885 14.5964C4.33337 14.5819 4.30758 14.5681 4.28148 14.555C4.25537 14.5419 4.22898 14.5295 4.20229 14.5177C4.17561 14.506 4.14868 14.4949 4.12149 14.4846C4.0943 14.4743 4.06689 14.4646 4.03924 14.4557C4.01162 14.4468 3.9838 14.4387 3.95576 14.4312C3.92775 14.4237 3.89957 14.417 3.87125 14.411C3.84292 14.4051 3.81448 14.3998 3.78591 14.3953C3.75735 14.3908 3.72871 14.387 3.69995 14.384C3.67121 14.381 3.64241 14.3788 3.61355 14.3773C3.58472 14.3758 3.55586 14.375 3.52698 14.375ZM16.4681 14.375C16.4393 14.375 16.4104 14.3758 16.3816 14.3773C16.3527 14.3788 16.3239 14.381 16.2952 14.384C16.2664 14.387 16.2378 14.3908 16.2092 14.3953C16.1806 14.3998 16.1522 14.4051 16.1239 14.411C16.0955 14.417 16.0674 14.4237 16.0394 14.4312C16.0113 14.4387 15.9835 14.4468 15.9559 14.4557C15.9283 14.4646 15.9008 14.4743 15.8736 14.4846C15.8465 14.4949 15.8195 14.506 15.7928 14.5177C15.7661 14.5295 15.7397 14.5419 15.7136 14.555C15.6875 14.5681 15.6617 14.5819 15.6363 14.5964C15.6108 14.6109 15.5857 14.626 15.5609 14.6418C15.5361 14.6575 15.5117 14.6739 15.4877 14.691C15.4637 14.708 15.4401 14.7257 15.4169 14.744C15.3937 14.7623 15.371 14.7811 15.3486 14.8006C15.3263 14.8201 15.3045 14.8401 15.2831 14.8607C15.2617 14.8813 15.2407 14.9025 15.2203 14.9242C15.1999 14.9459 15.18 14.9681 15.1606 14.9908C15.1412 15.0136 15.1223 15.0368 15.104 15.0605C15.0857 15.0842 15.0679 15.1084 15.0507 15.1331C15.0335 15.1577 15.0169 15.1828 15.0008 15.2083C14.9848 15.2338 14.9694 15.2597 14.9545 15.286C14.9397 15.3124 14.9254 15.3391 14.9118 15.3661C14.8982 15.3932 14.8852 15.4206 14.8729 15.4483C14.8605 15.4761 14.8488 15.5041 14.8378 15.5325C14.8267 15.5608 14.8163 15.5894 14.8066 15.6183C14.7969 15.6472 14.7878 15.6764 14.7794 15.7057C14.7711 15.7351 14.7634 15.7646 14.7563 15.7944C14.7493 15.8242 14.743 15.8541 14.7374 15.8842C14.7317 15.9143 14.7268 15.9445 14.7225 15.9749C14.7183 16.0052 14.7148 16.0357 14.7119 16.0662C14.7091 16.0967 14.707 16.1274 14.7056 16.158C14.7042 16.1886 14.7035 16.2193 14.7035 16.25C14.7035 16.2807 14.7042 16.3114 14.7056 16.342C14.707 16.3727 14.7091 16.4033 14.7119 16.4338C14.7148 16.4643 14.7183 16.4948 14.7225 16.5251C14.7268 16.5555 14.7317 16.5857 14.7374 16.6158C14.743 16.6459 14.7493 16.6758 14.7563 16.7056C14.7634 16.7354 14.7711 16.7649 14.7794 16.7943C14.7878 16.8236 14.7969 16.8528 14.8066 16.8817C14.8163 16.9106 14.8267 16.9392 14.8378 16.9675C14.8488 16.9959 14.8605 17.0239 14.8729 17.0517C14.8852 17.0794 14.8982 17.1068 14.9118 17.1339C14.9254 17.1609 14.9397 17.1876 14.9545 17.2139C14.9694 17.2403 14.9848 17.2662 15.0008 17.2917C15.0169 17.3172 15.0335 17.3423 15.0507 17.3669C15.0679 17.3916 15.0857 17.4158 15.104 17.4395C15.1223 17.4632 15.1412 17.4864 15.1606 17.5092C15.18 17.5319 15.1999 17.5541 15.2203 17.5758C15.2407 17.5975 15.2617 17.6187 15.2831 17.6393C15.3045 17.6599 15.3263 17.6799 15.3486 17.6994C15.371 17.7189 15.3937 17.7377 15.4169 17.756C15.4401 17.7743 15.4637 17.792 15.4877 17.809C15.5117 17.8261 15.5361 17.8425 15.5609 17.8582C15.5857 17.874 15.6108 17.8891 15.6363 17.9036C15.6617 17.9181 15.6875 17.9319 15.7136 17.945C15.7397 17.9581 15.7661 17.9705 15.7928 17.9823C15.8195 17.994 15.8465 18.0051 15.8736 18.0154C15.9008 18.0257 15.9283 18.0354 15.9559 18.0443C15.9835 18.0532 16.0113 18.0613 16.0394 18.0688C16.0674 18.0763 16.0955 18.083 16.1239 18.089C16.1522 18.0949 16.1806 18.1002 16.2092 18.1047C16.2378 18.1092 16.2664 18.113 16.2952 18.116C16.3239 18.119 16.3527 18.1212 16.3816 18.1227C16.4104 18.1243 16.4393 18.125 16.4681 18.125C16.497 18.125 16.5259 18.1243 16.5547 18.1227C16.5836 18.1212 16.6124 18.119 16.6411 18.116C16.6699 18.113 16.6985 18.1092 16.7271 18.1047C16.7557 18.1002 16.7841 18.0949 16.8124 18.089C16.8408 18.083 16.8689 18.0763 16.8969 18.0688C16.925 18.0613 16.9528 18.0532 16.9804 18.0443C17.0081 18.0354 17.0355 18.0257 17.0627 18.0154C17.0899 18.0051 17.1168 17.994 17.1435 17.9823C17.1702 17.9705 17.1966 17.9581 17.2227 17.945C17.2488 17.9319 17.2746 17.9181 17.3 17.9036C17.3255 17.8891 17.3506 17.874 17.3754 17.8582C17.4002 17.8425 17.4246 17.8261 17.4486 17.809C17.4726 17.792 17.4962 17.7743 17.5194 17.756C17.5426 17.7377 17.5654 17.7189 17.5877 17.6994C17.61 17.6799 17.6319 17.6599 17.6532 17.6393C17.6747 17.6187 17.6956 17.5975 17.716 17.5758C17.7364 17.5541 17.7563 17.5319 17.7757 17.5092C17.7951 17.4864 17.814 17.4632 17.8323 17.4395C17.8506 17.4158 17.8684 17.3916 17.8856 17.3669C17.9028 17.3423 17.9194 17.3172 17.9354 17.2917C17.9515 17.2662 17.9669 17.2403 17.9818 17.2139C17.9966 17.1876 18.0109 17.1609 18.0245 17.1339C18.0381 17.1068 18.0511 17.0794 18.0634 17.0517C18.0758 17.0239 18.0875 16.9959 18.0985 16.9675C18.1096 16.9392 18.12 16.9106 18.1297 16.8817C18.1394 16.8528 18.1485 16.8236 18.1569 16.7943C18.1652 16.7649 18.173 16.7354 18.18 16.7056C18.187 16.6758 18.1933 16.6459 18.1989 16.6158C18.2046 16.5857 18.2095 16.5555 18.2138 16.5251C18.218 16.4948 18.2215 16.4643 18.2244 16.4338C18.2272 16.4033 18.2293 16.3727 18.2307 16.342C18.2321 16.3114 18.2328 16.2807 18.2328 16.25C18.2328 16.2193 18.2321 16.1886 18.2307 16.158C18.2293 16.1274 18.2272 16.0967 18.2244 16.0662C18.2215 16.0357 18.218 16.0052 18.2138 15.9749C18.2095 15.9445 18.2046 15.9143 18.1989 15.8842C18.1933 15.8541 18.187 15.8242 18.18 15.7944C18.173 15.7646 18.1652 15.7351 18.1569 15.7057C18.1485 15.6764 18.1394 15.6472 18.1297 15.6183C18.12 15.5894 18.1096 15.5608 18.0985 15.5325C18.0875 15.5041 18.0758 15.4761 18.0634 15.4483C18.0511 15.4206 18.0381 15.3932 18.0245 15.3661C18.0109 15.3391 17.9966 15.3124 17.9818 15.286C17.9669 15.2597 17.9515 15.2338 17.9354 15.2083C17.9194 15.1828 17.9028 15.1577 17.8856 15.1331C17.8684 15.1084 17.8506 15.0842 17.8323 15.0605C17.814 15.0368 17.7951 15.0136 17.7757 14.9908C17.7563 14.9681 17.7364 14.9459 17.716 14.9242C17.6956 14.9025 17.6747 14.8813 17.6532 14.8607C17.6319 14.8401 17.61 14.8201 17.5877 14.8006C17.5654 14.7811 17.5426 14.7623 17.5194 14.744C17.4962 14.7257 17.4726 14.708 17.4486 14.691C17.4246 14.6739 17.4002 14.6575 17.3754 14.6418C17.3506 14.626 17.3255 14.6109 17.3 14.5964C17.2746 14.5819 17.2488 14.5681 17.2227 14.555C17.1966 14.5419 17.1702 14.5295 17.1435 14.5177C17.1168 14.506 17.0898 14.4949 17.0626 14.4846C17.0355 14.4743 17.0081 14.4646 16.9804 14.4557C16.9528 14.4468 16.925 14.4387 16.8969 14.4312C16.8689 14.4237 16.8408 14.417 16.8124 14.411C16.7841 14.4051 16.7557 14.3998 16.7271 14.3953C16.6985 14.3908 16.6699 14.387 16.6411 14.384C16.6124 14.381 16.5836 14.3788 16.5547 14.3773C16.5259 14.3758 16.497 14.375 16.4681 14.375ZM5.38933 4.76499C5.40487 4.84526 5.42227 4.92503 5.44152 5.00437C5.46077 5.08371 5.48188 5.16249 5.5048 5.24072C5.52775 5.31893 5.5525 5.39651 5.57904 5.47344C5.60561 5.55037 5.63393 5.62653 5.66402 5.70197C5.69413 5.77739 5.72598 5.85198 5.75956 5.92574C5.79314 5.99949 5.82844 6.07232 5.8654 6.14422C5.90239 6.2161 5.94102 6.28698 5.98131 6.35684C6.0216 6.42669 6.06349 6.49547 6.10696 6.56312L6.00343 6.66125C5.96633 6.69765 5.92963 6.73456 5.89339 6.77199C5.85715 6.80939 5.82137 6.84731 5.78605 6.88571C5.75073 6.92408 5.71589 6.96297 5.68151 7.00232C5.64715 7.04167 5.61326 7.08151 5.57986 7.12178C5.54647 7.16205 5.51356 7.20278 5.48114 7.24398C5.44873 7.28517 5.41684 7.3268 5.38543 7.36887C5.35401 7.41094 5.32313 7.45341 5.29275 7.49633C5.2624 7.53924 5.23256 7.58256 5.20324 7.62627C5.17395 7.67 5.14517 7.71412 5.11692 7.75865C5.08869 7.80318 5.06099 7.84806 5.03382 7.89336C5.00671 7.93866 4.98012 7.98429 4.95406 8.0303C4.92803 8.07631 4.90255 8.12266 4.87763 8.16937C4.85273 8.2161 4.82838 8.26314 4.80462 8.31051C4.78085 8.35789 4.75767 8.40559 4.73506 8.45361C4.71246 8.50162 4.69043 8.54992 4.669 8.59855C4.64758 8.64717 4.62673 8.69606 4.60649 8.74525C4.58627 8.79445 4.56663 8.84392 4.54757 8.89365C4.52854 8.94339 4.5101 8.99337 4.49227 9.04359C4.47447 9.09384 4.45724 9.14431 4.44064 9.19502C4.42404 9.24572 4.40807 9.29666 4.39273 9.3478C4.37738 9.39894 4.36264 9.45031 4.34853 9.50186C4.33444 9.55342 4.32095 9.60515 4.30809 9.65706C4.29525 9.70899 4.28302 9.76108 4.27144 9.81333C4.25986 9.8656 4.24891 9.91799 4.23858 9.97057C4.2283 10.0231 4.21863 10.0758 4.20958 10.1286C4.20056 10.1815 4.19218 10.2344 4.18444 10.2874C4.17672 10.3405 4.16963 10.3937 4.16316 10.4469C4.15672 10.5002 4.15093 10.5535 4.14576 10.6069C4.14062 10.6603 4.13611 10.7138 4.13225 10.7673C4.12842 10.8208 4.12521 10.8744 4.12265 10.928C4.12012 10.9816 4.11824 11.0353 4.11698 11.089C4.11575 11.1426 4.11515 11.1963 4.1152 11.25L4.11638 11.2887C4.04284 11.279 3.96911 11.2711 3.89521 11.265C3.82131 11.259 3.74731 11.2548 3.67322 11.2524C3.59915 11.25 3.52503 11.2494 3.45091 11.2507C3.37682 11.2521 3.30277 11.2552 3.2288 11.2602C3.15483 11.2651 3.081 11.2719 3.00731 11.2806C2.93366 11.2892 2.86021 11.2997 2.78699 11.312C2.71379 11.3243 2.64088 11.3384 2.56828 11.3543C2.4957 11.3703 2.42349 11.388 2.35167 11.4075C2.35016 11.3277 2.34976 11.2478 2.35047 11.1679C2.35116 11.0881 2.35297 11.0082 2.35589 10.9284C2.35882 10.8486 2.36285 10.7689 2.36798 10.6892C2.37311 10.6095 2.37935 10.5299 2.3867 10.4505C2.39406 10.371 2.40251 10.2916 2.41209 10.2124C2.42164 10.1332 2.4323 10.0541 2.44403 9.97524C2.4558 9.89636 2.46863 9.81766 2.48258 9.73919C2.49653 9.66072 2.51153 9.58246 2.52765 9.50445C2.54377 9.42645 2.56097 9.3487 2.57926 9.27123C2.59754 9.19376 2.61689 9.1166 2.63731 9.03972C2.65772 8.96287 2.67921 8.88635 2.70175 8.81016C2.72431 8.73397 2.7479 8.65815 2.77256 8.5827C2.79722 8.50726 2.82291 8.4322 2.84965 8.35755C2.8764 8.28293 2.90417 8.20872 2.93298 8.13494C2.96179 8.06119 2.99161 7.98787 3.02244 7.91505C3.0533 7.84222 3.08515 7.76988 3.11798 7.69805C3.15085 7.62619 3.1847 7.5549 3.21953 7.48413C3.25437 7.41335 3.29018 7.34313 3.32697 7.27348C3.36376 7.20383 3.4015 7.1348 3.4402 7.06633C3.47892 6.99786 3.51856 6.93003 3.55914 6.86279C3.59975 6.79558 3.64127 6.729 3.68371 6.66309C3.72615 6.59719 3.76951 6.53195 3.81375 6.46737C3.858 6.40282 3.90314 6.33897 3.94918 6.27583C3.99521 6.21269 4.04211 6.1503 4.08989 6.08862C4.13766 6.02697 4.18625 5.96606 4.23571 5.90589C4.28517 5.84576 4.33547 5.78641 4.38657 5.72784C4.43767 5.66926 4.4896 5.61153 4.54231 5.5546C4.59503 5.49766 4.64852 5.44155 4.70278 5.3863C4.75707 5.33103 4.8121 5.27664 4.86788 5.22311C4.92366 5.16959 4.98019 5.11693 5.03742 5.06518C5.0947 5.01342 5.15265 4.96259 5.2113 4.91265C5.26998 4.86271 5.32931 4.8137 5.38933 4.76563L5.38933 4.76499ZM14.6064 4.76625C14.6652 4.81334 14.7233 4.8613 14.7808 4.91019C14.8383 4.95905 14.895 5.00878 14.9512 5.05941C15.0073 5.11004 15.0627 5.16151 15.1174 5.21383C15.1721 5.26615 15.2261 5.31929 15.2794 5.37328C15.3327 5.42724 15.3852 5.48205 15.437 5.53765C15.4888 5.59325 15.5398 5.64962 15.59 5.70676C15.6403 5.76393 15.6897 5.82186 15.7384 5.88054C15.7871 5.93922 15.8349 5.99864 15.882 6.05881C15.929 6.11897 15.9753 6.17983 16.0206 6.2414C16.066 6.30298 16.1106 6.36524 16.1543 6.42818C16.198 6.49111 16.2408 6.55471 16.2828 6.61898C16.3248 6.68324 16.3658 6.74815 16.406 6.81367C16.4462 6.8792 16.4855 6.94533 16.5239 7.01206C16.5623 7.07879 16.5998 7.14608 16.6364 7.21399C16.6729 7.28187 16.7086 7.35029 16.7433 7.41927C16.778 7.48825 16.8117 7.55775 16.8445 7.62776C16.8773 7.69777 16.9092 7.76829 16.9401 7.83929C16.971 7.91028 17.0009 7.98175 17.0298 8.05365C17.0588 8.12556 17.0867 8.19793 17.1137 8.2707C17.1407 8.34348 17.1667 8.41664 17.1916 8.49021C17.2166 8.56379 17.2406 8.63772 17.2636 8.71203C17.2865 8.78635 17.3085 8.861 17.3294 8.93598C17.3503 9.01096 17.3703 9.08627 17.3891 9.16187C17.408 9.23747 17.4259 9.31332 17.4427 9.38948C17.4595 9.46564 17.4753 9.54203 17.49 9.61866C17.5048 9.69528 17.5185 9.77213 17.5311 9.84916C17.5438 9.92622 17.5554 10.0035 17.5659 10.0809C17.5765 10.1583 17.5859 10.2358 17.5944 10.3135C17.6028 10.3912 17.6102 10.469 17.6165 10.547C17.6228 10.6249 17.6281 10.7029 17.6323 10.781C17.6365 10.8591 17.6396 10.9372 17.6416 11.0154C17.6437 11.0936 17.6447 11.1718 17.6446 11.25L17.6429 11.4069C17.5711 11.3873 17.499 11.3695 17.4265 11.3536C17.354 11.3376 17.2812 11.3235 17.208 11.3111C17.1349 11.2988 17.0615 11.2884 16.9879 11.2797C16.9143 11.2711 16.8405 11.2643 16.7666 11.2593C16.6927 11.2544 16.6188 11.2513 16.5447 11.25C16.4707 11.2487 16.3967 11.2494 16.3226 11.2518C16.2486 11.2543 16.1747 11.2586 16.1009 11.2647C16.027 11.2709 15.9534 11.2789 15.8799 11.2887L15.8799 11.25C15.88 11.1948 15.8793 11.1396 15.878 11.0844C15.8767 11.0292 15.8747 10.974 15.872 10.9188C15.8693 10.8637 15.8659 10.8086 15.8618 10.7535C15.8578 10.6985 15.853 10.6435 15.8475 10.5886C15.8421 10.5337 15.8359 10.4788 15.8291 10.4241C15.8223 10.3693 15.8148 10.3147 15.8066 10.2602C15.7984 10.2056 15.7895 10.1512 15.7799 10.097C15.7704 10.0427 15.7602 9.98854 15.7493 9.93453C15.7384 9.88054 15.7268 9.82671 15.7145 9.77306C15.7023 9.71938 15.6893 9.6659 15.6758 9.61261C15.6622 9.55931 15.6479 9.5062 15.633 9.45329C15.6181 9.4004 15.6025 9.34772 15.5863 9.29525C15.57 9.2428 15.5532 9.19058 15.5356 9.13859C15.5181 9.08661 15.4999 9.03488 15.481 8.98343C15.4622 8.93195 15.4427 8.88076 15.4226 8.82985C15.4025 8.77891 15.3818 8.72828 15.3604 8.67796C15.339 8.62764 15.317 8.5776 15.2944 8.5279C15.2717 8.47819 15.2485 8.42879 15.2246 8.37973C15.2008 8.33069 15.1763 8.28198 15.1512 8.23361C15.1261 8.18524 15.1004 8.13725 15.0741 8.08959C15.0478 8.04196 15.021 7.99472 14.9935 7.94783C14.9661 7.90095 14.938 7.85444 14.9094 7.80835C14.8807 7.76229 14.8515 7.71661 14.8217 7.67134C14.792 7.62606 14.7616 7.58123 14.7308 7.53683C14.6999 7.49241 14.6684 7.44844 14.6364 7.40494C14.6044 7.36141 14.5719 7.31835 14.5388 7.27574C14.5058 7.23314 14.4722 7.19102 14.438 7.14936C14.4039 7.1077 14.3693 7.06656 14.3341 7.02588C14.299 6.9852 14.2633 6.94503 14.2272 6.90534C14.191 6.86569 14.1544 6.82652 14.1172 6.78788C14.0801 6.74925 14.0425 6.71116 14.0044 6.67358C13.9663 6.63602 13.9278 6.59898 13.8887 6.5625C13.9322 6.4949 13.974 6.4262 14.0143 6.3564C14.0546 6.2866 14.0932 6.21579 14.1301 6.14399C14.1671 6.07216 14.2023 5.99941 14.2359 5.92574C14.2695 5.85206 14.3013 5.77754 14.3314 5.7022C14.3615 5.62686 14.3899 5.55075 14.4164 5.47392C14.443 5.3971 14.4678 5.3196 14.4907 5.24144C14.5137 5.16331 14.5348 5.08461 14.5541 5.00537C14.5734 4.92613 14.5908 4.84641 14.6064 4.76625ZM9.99756 0C10.0553 0 10.1131 0.00150399 10.1707 0.0045118C10.2285 0.00751958 10.286 0.0120314 10.3435 0.0180469C10.401 0.0240625 10.4583 0.0315736 10.5154 0.0405799C10.5726 0.0495861 10.6295 0.0600795 10.6861 0.0720594C10.7428 0.0840221 10.7991 0.0974634 10.8551 0.112383C10.9112 0.127285 10.9668 0.143649 11.0221 0.161473C11.0774 0.179281 11.1322 0.198524 11.1866 0.219203C11.241 0.239882 11.2948 0.261962 11.3482 0.285443C11.4016 0.308925 11.4544 0.33379 11.5066 0.36004C11.5588 0.386273 11.6104 0.413856 11.6613 0.44279C11.7123 0.471724 11.7625 0.501962 11.812 0.533511C11.8616 0.56506 11.9104 0.59788 11.9584 0.631974C12.0064 0.666068 12.0537 0.701401 12.1 0.737974C12.1464 0.774529 12.192 0.812271 12.2366 0.851203C12.2813 0.890134 12.325 0.930209 12.3678 0.97143C12.4106 1.01265 12.4524 1.05496 12.4932 1.09835C12.5341 1.14174 12.5739 1.18617 12.6127 1.23165C12.6515 1.27712 12.6892 1.32358 12.7258 1.37102C12.7625 1.41847 12.798 1.46683 12.8324 1.51612C12.8668 1.56542 12.9001 1.61558 12.9322 1.66659C12.9642 1.71763 12.9951 1.76947 13.0248 1.82212C13.0546 1.87476 13.083 1.92814 13.1102 1.98226C13.1375 2.03638 13.1634 2.09118 13.1881 2.14666C13.2128 2.20215 13.2362 2.25824 13.2583 2.31492C13.2804 2.37163 13.3012 2.42887 13.3206 2.48665C13.3401 2.54443 13.3582 2.6027 13.375 2.66143C13.3918 2.72016 13.4072 2.77927 13.4212 2.83882C13.4353 2.89834 13.4479 2.9582 13.4592 3.01842C13.4704 3.07861 13.4803 3.13906 13.4888 3.19976C13.4973 3.26046 13.5043 3.32134 13.51 3.38243C13.5156 3.44352 13.5199 3.50471 13.5227 3.566C13.5256 3.6273 13.527 3.68861 13.527 3.74998C13.527 3.81138 13.5256 3.8727 13.5227 3.93399C13.5199 3.99528 13.5156 4.05647 13.51 4.11756C13.5043 4.17865 13.4973 4.23953 13.4888 4.30023C13.4803 4.36094 13.4704 4.42138 13.4592 4.48157C13.4479 4.54179 13.4353 4.60165 13.4212 4.66117C13.4072 4.72072 13.3918 4.77984 13.375 4.83856C13.3582 4.89729 13.3401 4.95554 13.3206 5.01334C13.3012 5.07112 13.2804 5.12837 13.2583 5.18507C13.2362 5.24175 13.2128 5.29784 13.1881 5.35334C13.1634 5.40881 13.1375 5.46362 13.1102 5.51773C13.083 5.57185 13.0546 5.62524 13.0248 5.67787C12.9951 5.73053 12.9642 5.78236 12.9322 5.83337C12.9001 5.88441 12.8668 5.93458 12.8324 5.98388C12.798 6.03317 12.7625 6.08152 12.7258 6.12897C12.6892 6.17642 12.6515 6.22287 12.6127 6.26834C12.5739 6.31382 12.5341 6.35825 12.4932 6.40165C12.4524 6.44504 12.4106 6.48734 12.3678 6.52856C12.325 6.56978 12.2813 6.60985 12.2366 6.64879C12.192 6.68773 12.1464 6.72546 12.1 6.76202C12.0537 6.79857 12.0064 6.8339 11.9584 6.86802C11.9104 6.90211 11.8616 6.93493 11.812 6.96648C11.7625 6.99804 11.7123 7.02826 11.6613 7.0572C11.6104 7.08615 11.5588 7.11373 11.5066 7.13995C11.4544 7.1662 11.4016 7.19107 11.3482 7.21455C11.2948 7.23803 11.241 7.2601 11.1866 7.28079C11.1322 7.30148 11.0774 7.3207 11.0221 7.33852C10.9668 7.35634 10.9112 7.37272 10.8551 7.38761C10.7991 7.40253 10.7428 7.41596 10.6861 7.42793C10.6295 7.43991 10.5726 7.45042 10.5154 7.45941C10.4583 7.46841 10.401 7.47592 10.3435 7.48195C10.286 7.48797 10.2285 7.49248 10.1707 7.49548C10.1131 7.49848 10.0553 7.49999 9.99756 7.49999C9.9398 7.49999 9.88209 7.49848 9.82438 7.49548C9.76669 7.49248 9.7091 7.48797 9.65161 7.48195C9.59414 7.47592 9.53683 7.46841 9.47968 7.45941C9.42255 7.45042 9.36565 7.43991 9.309 7.42793C9.25235 7.41596 9.19602 7.40253 9.13997 7.38761C9.08395 7.37272 9.02831 7.35634 8.97301 7.33852C8.91776 7.3207 8.86292 7.30148 8.80854 7.28079C8.75416 7.2601 8.70028 7.23803 8.64692 7.21455C8.59355 7.19107 8.54076 7.1662 8.48855 7.13995C8.43634 7.11373 8.38475 7.08615 8.3338 7.0572C8.28287 7.02826 8.23263 6.99804 8.18308 6.96648C8.13354 6.93493 8.08476 6.90211 8.03672 6.86802C7.98871 6.8339 7.9415 6.79857 7.8951 6.76202C7.8487 6.72546 7.80318 6.68773 7.75852 6.64879C7.71388 6.60985 7.67014 6.56978 7.62734 6.52856C7.58456 6.48734 7.54275 6.44504 7.50188 6.40165C7.46106 6.35825 7.42122 6.31382 7.38243 6.26834C7.34366 6.22287 7.30595 6.17642 7.2693 6.12897C7.23265 6.08152 7.19711 6.03317 7.1627 5.98388C7.1283 5.93458 7.09505 5.88441 7.06296 5.83337C7.03088 5.78236 6.99999 5.73053 6.97027 5.67787C6.94059 5.62524 6.91212 5.57185 6.88488 5.51773C6.85767 5.46362 6.83171 5.40881 6.807 5.35334C6.78232 5.29784 6.75892 5.24175 6.73682 5.18507C6.71472 5.12837 6.69392 5.07112 6.67445 5.01334C6.655 4.95554 6.63691 4.89729 6.62012 4.83856C6.60337 4.77984 6.58796 4.72072 6.57391 4.66117C6.5599 4.60165 6.54725 4.54179 6.53596 4.48157C6.52469 4.42138 6.51483 4.36094 6.50636 4.30023C6.49789 4.23953 6.49082 4.17865 6.48515 4.11756C6.47951 4.05647 6.47523 3.99528 6.47239 3.93399C6.46956 3.8727 6.46814 3.81138 6.46814 3.74998C6.46814 3.68861 6.46956 3.6273 6.47239 3.566C6.47523 3.50471 6.47951 3.44352 6.48515 3.38243C6.49082 3.32134 6.49789 3.26046 6.50636 3.19976C6.51483 3.13906 6.52469 3.07861 6.53596 3.01842C6.54725 2.9582 6.5599 2.89834 6.57391 2.83882C6.58796 2.77927 6.60337 2.72016 6.62012 2.66143C6.63691 2.6027 6.655 2.54443 6.67445 2.48665C6.69392 2.42887 6.71472 2.37163 6.73682 2.31492C6.75892 2.25824 6.78232 2.20215 6.807 2.14666C6.83171 2.09118 6.85767 2.03638 6.88488 1.98226C6.91212 1.92814 6.94059 1.87476 6.97027 1.82212C6.99999 1.76947 7.03088 1.71763 7.06296 1.66659C7.09505 1.61558 7.1283 1.56542 7.1627 1.51612C7.19711 1.46683 7.23265 1.41847 7.2693 1.37102C7.30595 1.32358 7.34366 1.27712 7.38243 1.23165C7.42122 1.18617 7.46106 1.14174 7.50188 1.09835C7.54275 1.05496 7.58456 1.01265 7.62734 0.97143C7.67014 0.930209 7.71388 0.890134 7.75852 0.851203C7.80318 0.812271 7.8487 0.774529 7.8951 0.737974C7.9415 0.701401 7.98871 0.666068 8.03672 0.631974C8.08476 0.59788 8.13354 0.56506 8.18308 0.533511C8.23263 0.501962 8.28287 0.471724 8.3338 0.44279C8.38475 0.413856 8.43634 0.386273 8.48855 0.36004C8.54076 0.33379 8.59355 0.308925 8.64692 0.285443C8.70028 0.261962 8.75416 0.239882 8.80854 0.219203C8.86292 0.198524 8.91776 0.179281 8.97301 0.161473C9.02831 0.143649 9.08395 0.127285 9.13997 0.112383C9.19602 0.0974634 9.25235 0.0840221 9.309 0.0720594C9.36565 0.0600795 9.42255 0.0495861 9.47968 0.0405799C9.53683 0.0315736 9.59414 0.0240625 9.65161 0.0180469C9.7091 0.0120314 9.76669 0.00751958 9.82438 0.0045118C9.88209 0.00150399 9.9398 0 9.99756 0ZM9.99756 1.875C9.96868 1.875 9.93983 1.87576 9.91097 1.87726C9.88214 1.87877 9.85335 1.88102 9.8246 1.88403C9.79586 1.88704 9.7672 1.89079 9.73863 1.89528C9.71006 1.89979 9.68162 1.90504 9.65329 1.91102C9.62497 1.917 9.59679 1.92373 9.56878 1.9312C9.54077 1.93865 9.51295 1.94683 9.4853 1.95573C9.45765 1.96463 9.43024 1.97425 9.40305 1.98459C9.37586 1.99493 9.34891 2.00597 9.32223 2.01771C9.29554 2.02945 9.26915 2.04189 9.24304 2.05501C9.21694 2.06814 9.19117 2.08193 9.16569 2.09639C9.14021 2.11086 9.1151 2.12599 9.09032 2.14176C9.06557 2.15753 9.04117 2.17394 9.01714 2.19098C8.99314 2.20803 8.96954 2.22571 8.94633 2.24399C8.92314 2.26226 8.90039 2.28113 8.87805 2.30059C8.85573 2.32006 8.83387 2.3401 8.81245 2.36071C8.79107 2.38132 8.77016 2.40247 8.74972 2.42418C8.72931 2.44587 8.7094 2.46808 8.69001 2.49083C8.67061 2.51356 8.65177 2.53678 8.63343 2.5605C8.61512 2.58422 8.59736 2.60842 8.58013 2.63305C8.56293 2.65771 8.54631 2.68278 8.53026 2.70829C8.51422 2.7338 8.49878 2.75974 8.48392 2.78606C8.46908 2.81239 8.45484 2.83908 8.44123 2.86612C8.42763 2.89319 8.41465 2.9206 8.40229 2.94833C8.38994 2.97607 8.37824 3.00411 8.36719 3.03247C8.35614 3.06082 8.34577 3.08943 8.33602 3.11832C8.32629 3.14721 8.31725 3.17635 8.30885 3.20571C8.30045 3.23506 8.29276 3.26464 8.28574 3.2944C8.27874 3.32416 8.27242 3.35411 8.26677 3.3842C8.26113 3.4143 8.25621 3.44452 8.25196 3.47487C8.24771 3.50522 8.24419 3.53568 8.24134 3.56621C8.23852 3.59674 8.2364 3.62735 8.23497 3.65801C8.23357 3.68864 8.23285 3.7193 8.23285 3.74998C8.23285 3.78067 8.23357 3.81135 8.23497 3.84199C8.2364 3.87265 8.23852 3.90325 8.24134 3.93379C8.24419 3.96432 8.24771 3.99477 8.25196 4.02512C8.25621 4.05547 8.26113 4.0857 8.26677 4.11579C8.27242 4.14589 8.27874 4.17583 8.28574 4.20559C8.29276 4.23535 8.30045 4.26491 8.30885 4.29429C8.31725 4.32364 8.32629 4.35279 8.33602 4.38168C8.34577 4.41057 8.35614 4.43917 8.36719 4.46753C8.37824 4.49588 8.38994 4.52392 8.40229 4.55166C8.41465 4.5794 8.42763 4.6068 8.44123 4.63387C8.45484 4.66092 8.46908 4.6876 8.48392 4.71393C8.49878 4.74026 8.51422 4.76617 8.53026 4.79168C8.54631 4.81719 8.56293 4.84228 8.58013 4.86694C8.59736 4.89158 8.61512 4.91578 8.63343 4.93949C8.65177 4.9632 8.67061 4.98643 8.69001 5.00916C8.7094 5.0319 8.72931 5.05413 8.74972 5.07581C8.77016 5.09753 8.79107 5.11868 8.81245 5.13929C8.83387 5.1599 8.85573 5.17994 8.87805 5.1994C8.90039 5.21886 8.92314 5.23772 8.94633 5.256C8.96954 5.27428 8.99314 5.29197 9.01714 5.30901C9.04117 5.32606 9.06557 5.34247 9.09032 5.35823C9.1151 5.374 9.14021 5.38912 9.16569 5.40361C9.19117 5.41806 9.21694 5.43186 9.24304 5.44498C9.26915 5.45808 9.29554 5.47051 9.32223 5.48228C9.34891 5.49402 9.37586 5.50507 9.40305 5.5154C9.43024 5.52573 9.45765 5.53537 9.4853 5.54426C9.51295 5.55316 9.54077 5.56134 9.56878 5.5688C9.59679 5.57626 9.62495 5.583 9.65327 5.58897C9.68162 5.59494 9.71006 5.6002 9.73863 5.60471C9.7672 5.6092 9.79586 5.61297 9.8246 5.61596C9.85335 5.61896 9.88214 5.62122 9.91097 5.62273C9.93983 5.62425 9.96868 5.62499 9.99756 5.62499C10.0265 5.62499 10.0553 5.62425 10.0842 5.62273C10.113 5.62122 10.1418 5.61896 10.1705 5.61596C10.1993 5.61297 10.2279 5.6092 10.2565 5.60471C10.2851 5.6002 10.3135 5.59494 10.3418 5.58897C10.3702 5.583 10.3984 5.57626 10.4263 5.5688C10.4544 5.56134 10.4822 5.55316 10.5098 5.54426C10.5375 5.53537 10.5649 5.52573 10.5921 5.5154C10.6193 5.50507 10.6462 5.49402 10.6729 5.48228C10.6996 5.47051 10.726 5.45808 10.7521 5.44498C10.7782 5.43186 10.804 5.41806 10.8294 5.40361C10.8549 5.38912 10.88 5.374 10.9048 5.35823C10.9296 5.34247 10.954 5.32606 10.978 5.30901C11.002 5.29197 11.0256 5.27428 11.0488 5.256C11.072 5.23772 11.0948 5.21886 11.1171 5.1994C11.1394 5.17994 11.1613 5.1599 11.1827 5.13929C11.2041 5.11868 11.225 5.09753 11.2454 5.07581C11.2658 5.05413 11.2857 5.0319 11.3051 5.00916C11.3245 4.98643 11.3434 4.9632 11.3617 4.93949C11.38 4.91578 11.3978 4.89158 11.415 4.86694C11.4322 4.84228 11.4488 4.81719 11.4649 4.79168C11.4809 4.76617 11.4964 4.74026 11.5112 4.71393C11.5261 4.6876 11.5403 4.66092 11.5539 4.63387C11.5675 4.6068 11.5805 4.5794 11.5928 4.55166C11.6052 4.52392 11.6169 4.49588 11.6279 4.46753C11.639 4.43917 11.6494 4.41057 11.6591 4.38168C11.6689 4.35279 11.6779 4.32364 11.6863 4.29429C11.6947 4.26491 11.7024 4.23535 11.7094 4.20559C11.7164 4.17583 11.7227 4.14589 11.7283 4.11579C11.734 4.0857 11.7389 4.05547 11.7432 4.02512C11.7474 3.99477 11.751 3.96432 11.7538 3.93379C11.7566 3.90325 11.7587 3.87265 11.7601 3.84199C11.7616 3.81135 11.7623 3.78067 11.7623 3.74998C11.7623 3.7193 11.7616 3.68864 11.7601 3.65801C11.7587 3.62735 11.7566 3.59674 11.7538 3.56621C11.751 3.53568 11.7474 3.50522 11.7432 3.47487C11.7389 3.44452 11.734 3.4143 11.7283 3.3842C11.7227 3.35411 11.7164 3.32416 11.7094 3.2944C11.7024 3.26464 11.6947 3.23506 11.6863 3.20571C11.6779 3.17635 11.6689 3.14721 11.6591 3.11832C11.6494 3.08943 11.639 3.06082 11.6279 3.03247C11.6169 3.00411 11.6052 2.97607 11.5928 2.94833C11.5805 2.9206 11.5675 2.89319 11.5539 2.86612C11.5403 2.83908 11.5261 2.81239 11.5112 2.78606C11.4964 2.75974 11.4809 2.7338 11.4649 2.70829C11.4488 2.68278 11.4322 2.65771 11.415 2.63305C11.3978 2.60842 11.38 2.58422 11.3617 2.5605C11.3434 2.53678 11.3245 2.51356 11.3051 2.49083C11.2857 2.46808 11.2658 2.44587 11.2454 2.42418C11.225 2.40247 11.2041 2.38132 11.1827 2.36071C11.1613 2.3401 11.1394 2.32006 11.1171 2.30059C11.0948 2.28113 11.072 2.26226 11.0488 2.24399C11.0256 2.22571 11.002 2.20803 10.978 2.19098C10.954 2.17394 10.9296 2.15753 10.9048 2.14176C10.88 2.12599 10.8549 2.11086 10.8294 2.09639C10.804 2.08193 10.7782 2.06814 10.7521 2.05501C10.726 2.04189 10.6996 2.02945 10.6729 2.01771C10.6462 2.00597 10.6193 1.99493 10.5921 1.98459C10.5649 1.97425 10.5375 1.96463 10.5098 1.95573C10.4822 1.94683 10.4544 1.93865 10.4263 1.9312C10.3984 1.92373 10.3702 1.917 10.3418 1.91102C10.3135 1.90504 10.2851 1.89979 10.2565 1.89528C10.2279 1.89079 10.1993 1.88704 10.1705 1.88403C10.1418 1.88102 10.113 1.87877 10.0842 1.87726C10.0553 1.87576 10.0265 1.875 9.99756 1.875Z"   fill="currentColor" >
</path>
</svg>
