<svg xmlns="http://www.w3.org/2000/svg" xmlns:xlink="http://www.w3.org/1999/xlink" width="20" height="20" viewBox="0 0 20 20" fill="none">
<path d="M9.17606 0.146895L0.193658 9.4732C-0.0645387 9.73947 -0.0645387 10.2556 0.193658 10.5218L9.17606 19.8508C9.50978 20.1967 10 19.8851 10 19.3252L10 0.669823C10 0.11259 9.50978 -0.203106 9.17606 0.146895ZM19.1747 0.146895L10.1936 9.4732C10.0659 9.60772 10 9.80398 10 9.99888C10 10.1951 10.0659 10.39 10.1936 10.5259L19.1747 19.855C19.5098 20.2008 20 19.8893 20 19.3293L20 0.669823C20 0.11259 19.5098 -0.203106 19.1747 0.146895Z"   fill="currentColor" >
</path>
</svg>
