<svg xmlns="http://www.w3.org/2000/svg" xmlns:xlink="http://www.w3.org/1999/xlink" width="20.000015258789062" height="19.99999237060547" viewBox="0 0 20.000015258789062 19.99999237060547" fill="none">
<path d="M10.8177 19.8535L19.8088 10.5275C20.0636 10.2602 20.0636 9.7455 19.8088 9.47823L10.8177 0.149431C10.4919 -0.197016 9.99637 0.11549 9.99637 0.675487L9.99637 19.3303C9.99637 19.8874 10.4919 20.2028 10.8177 19.8535ZM0.821177 19.8535L9.79812 10.5275C9.93968 10.3917 9.99637 10.1966 9.99637 10.0015C9.99637 9.80488 9.93968 9.60974 9.79812 9.4754L0.821177 0.145201C0.481368 -0.201266 0 0.111261 0 0.671237L0 19.3303C0 19.8874 0.481368 20.2028 0.821177 19.8535Z"   fill="currentColor" >
</path>
</svg>
