<svg xmlns="http://www.w3.org/2000/svg" xmlns:xlink="http://www.w3.org/1999/xlink" width="20" height="20" viewBox="0 0 20 20" fill="none">
<path d="M14.8644 10.3931C14.8744 10.3737 14.8906 10.3575 14.8994 10.3375C15.0713 9.97998 15.015 9.5425 14.7106 9.25498L7.81126 2.72937C7.43499 2.37373 6.8419 2.3906 6.48563 2.76626C6.12999 3.14251 6.14626 3.73562 6.52253 4.09189L12.7132 9.94813L6.54688 15.8913C6.17438 16.2506 6.16313 16.8437 6.52253 17.2169C6.70626 17.4081 6.9519 17.5038 7.19753 17.5038C7.4319 17.5038 7.66628 17.4163 7.84815 17.2413L14.685 10.6519C14.6982 10.6388 14.7031 10.6206 14.7163 10.6069C14.7263 10.5975 14.7369 10.5906 14.7469 10.5807C14.8 10.525 14.8281 10.4569 14.8644 10.3931Z"   fill="#C4C4C4" >
</path>
</svg>
