<svg xmlns="http://www.w3.org/2000/svg" xmlns:xlink="http://www.w3.org/1999/xlink" width="20" height="20" viewBox="0 0 20 20" fill="none">
<path d="M19.819 12.5855L11.1162 2.48303C10.716 1.96451 9.84713 1.95261 9.41978 2.45895L0.26179 12.5615C-0.234868 13.1641 0.247865 14.0083 1.10317 14.0083L5.40629 14.0083L5.40629 18.6979C5.40629 19.4093 6.0682 20 6.89596 20L13.1161 20C13.9296 20 14.6054 19.4214 14.6054 18.6979L14.6054 14.0083L18.95 14.0083C19.7914 14.0083 20.2881 13.1884 19.819 12.5855ZM1.17217 2.04917L18.826 2.04917C19.4742 2.04917 19.9984 1.59098 19.9984 1.02459C19.9984 0.458197 19.4742 0 18.826 0L1.17217 0C0.523889 0 0 0.458197 0 1.02459C0 1.59098 0.524198 2.04917 1.17217 2.04917Z"   fill="currentColor" >
</path>
</svg>
