<svg xmlns="http://www.w3.org/2000/svg" xmlns:xlink="http://www.w3.org/1999/xlink" width="20" height="20.868896484375" viewBox="0 0 20 20.868896484375" fill="none">
<path d="M3.42661 9.90286L6.22581 9.90286C6.63539 9.16719 7.1454 8.49935 7.73759 7.9189L3.45922 7.9189C3.13312 7.9189 2.86833 7.69455 2.86833 7.42063C2.86833 7.14279 3.13312 6.91974 3.45922 6.91974L8.96762 6.91974C10.2798 6.04581 11.8399 5.53319 13.5186 5.53319C14.8739 5.53319 16.1509 5.87233 17.2844 6.4593L17.2844 1.18699C17.2844 0.532188 16.7691 0 16.1326 0L1.15307 0C0.516535 0 2.33242e-07 0.530883 2.33242e-07 1.18699L2.33242e-07 16.6217C2.33242e-07 17.2778 0.516535 17.8087 1.15307 17.8087L5.8932 17.8087C5.40014 16.7065 5.11709 15.4843 5.11709 14.1904C5.11709 14.0795 5.12883 13.9712 5.13274 13.8604L3.45661 13.8604C3.13182 13.8604 2.86833 13.636 2.86833 13.3608C2.86833 13.0843 3.13182 12.8599 3.45661 12.8599L5.22666 12.8599C5.3297 12.1699 5.50579 11.5033 5.75754 10.8772L3.42661 10.8772C3.11878 10.8772 2.86833 10.6594 2.86833 10.3894C2.86964 10.122 3.11878 9.90286 3.42661 9.90286ZM4.78969 0.999156L5.49014 2.97399L11.7955 2.97399L12.4973 0.999156L13.4521 0.999156L12.2521 3.94575L5.04796 3.94575L3.84662 0.999156L4.78969 0.999156ZM13.5186 7.51193C9.93939 7.51193 7.03714 10.5016 7.03714 14.1904C7.03714 17.8792 9.93939 20.8689 13.5186 20.8689C17.0978 20.8689 20 17.8792 20 14.1904C20.0014 10.5029 17.0991 7.51193 13.5186 7.51193ZM13.863 19.1627L12.4855 19.1627L12.4855 17.7422L13.8643 17.7422L13.8643 19.1627L13.863 19.1627ZM14.7486 15.363C14.1525 15.8208 13.8004 15.9695 13.8004 17.0313L12.4855 17.0313L12.4855 15.6108C12.4855 15.6108 15.2534 13.2695 15.243 12.0603C15.2313 10.8851 14.3273 10.6398 13.8643 10.6398C13.4012 10.6398 12.1621 10.7964 11.7955 12.7712L10.4181 12.826C10.4351 10.3659 12.016 9.18545 13.8017 9.22067C15.2313 9.24806 16.5996 10.3281 16.6217 12.2247C16.6374 13.7051 15.8182 14.553 14.7486 15.363Z"   fill="currentColor" >
</path>
</svg>
