<svg xmlns="http://www.w3.org/2000/svg" xmlns:xlink="http://www.w3.org/1999/xlink" width="20" height="20" viewBox="0 0 20 20" fill="none">
<g  clip-path="url(#clip-path-_gbVz0vW_uC7Uj47UmsB8)">
<path d="M9 11C5.97 11 3.5 8.53 3.5 5.5C3.5 2.47 5.97 0 9 0C12.03 0 14.5 2.47 14.5 5.5C14.5 6.27 14.34 7.01 14.04 7.7C13.93 7.95 13.63 8.07 13.38 7.95C13.13 7.84 13.01 7.54 13.13 7.29C13.38 6.72 13.51 6.12 13.51 5.49C13.51 3.01 11.49 0.99 9.01 0.99C6.53 0.99 4.51 3.01 4.51 5.49C4.51 7.97 6.53 9.99 9.01 9.99C9.29 9.99 9.51 10.21 9.51 10.49C9.51 10.77 9.28 11 9 11Z"   fill="currentColor" >
</path>
<path d="M1 20L0 20C0 17.63 1.01 15.13 2.78 13.15C4.57 11.15 6.84 10 9 10L9 11C5.04 11 1 15.54 1 20Z"   fill="currentColor" >
</path>
<path d="M16.21 20C15.79 20 15.4 19.8 15.14 19.43L14.76 18.88C14.7 18.79 14.6 18.74 14.5 18.74C14.4 18.74 14.3 18.79 14.23 18.88L13.85 19.43C13.49 19.95 12.86 20.1301 12.27 19.89C11.68 19.65 11.35 19.06 11.46 18.44L11.57 17.79C11.6 17.63 11.51 17.53 11.47 17.49C11.43 17.45 11.33 17.38 11.19 17.4L10.53 17.52C9.9 17.63 9.32 17.32 9.07 16.74C8.82 16.15 9.01 15.51 9.53 15.14L10.08 14.76C10.17 14.7 10.22 14.6 10.22 14.5C10.22 14.4 10.17 14.3 10.08 14.23L9.53 13.85C9.01 13.49 8.83 12.85 9.07 12.27C9.31 11.68 9.89 11.36 10.52 11.47L11.17 11.59C11.32 11.62 11.43 11.53 11.46 11.5C11.5 11.46 11.57 11.36 11.54 11.22L11.54 11.21L11.43 10.56C11.32 9.93999 11.63 9.35999 12.21 9.10999C12.8 8.85999 13.44 9.04999 13.81 9.56999L14.19 10.12C14.25 10.21 14.35 10.26 14.45 10.26C14.55 10.26 14.65 10.21 14.72 10.12L15.1 9.56999C15.46 9.04999 16.1 8.85999 16.68 9.10999C17.27 9.34999 17.58 9.93999 17.47 10.57L17.4 11.2C17.37 11.36 17.46 11.46 17.5 11.5C17.54 11.54 17.64 11.61 17.78 11.59L18.44 11.47C19.07 11.36 19.66 11.67 19.9 12.25C20.15 12.84 19.96 13.48 19.44 13.85L18.89 14.23C18.8 14.29 18.75 14.39 18.75 14.49C18.75 14.59 18.8 14.69 18.89 14.76L19.44 15.14C19.9699 15.51 20.16 16.16 19.91 16.75C19.66 17.33 19.08 17.64 18.45 17.52L17.81 17.4C17.66 17.37 17.55 17.46 17.52 17.49C17.48 17.53 17.41 17.63 17.44 17.77L17.44 17.78L17.55 18.43C17.66 19.05 17.35 19.64 16.77 19.8801C16.57 19.96 16.39 20 16.21 20ZM14.5 17.74C14.93 17.74 15.34 17.95 15.58 18.31L15.96 18.86C16.1 19.06 16.29 18.99 16.35 18.97C16.42 18.94 16.58 18.85 16.54 18.61L16.43 17.96C16.35 17.54 16.48 17.1 16.78 16.8C17.09 16.49 17.53 16.35 17.96 16.42L18.61 16.54C18.84 16.58 18.93 16.43 18.96 16.36C18.98 16.3 19.05 16.11 18.84 15.96L18.29 15.58C17.93 15.33 17.72 14.92 17.72 14.49C17.72 14.06 17.93 13.65 18.29 13.41L18.84 13.03C19.04 12.89 18.98 12.7 18.95 12.64C18.92 12.57 18.83 12.41 18.59 12.45L17.94 12.57C17.52 12.65 17.09 12.52 16.78 12.22C16.47 11.91 16.32 11.47 16.4 11.04L16.51 10.39C16.55 10.15 16.39 10.06 16.32 10.03C16.25 9.99999 16.07 9.95 15.94 10.14L15.56 10.69C15.31 11.05 14.9 11.26 14.47 11.26C14.04 11.26 13.63 11.05 13.39 10.69L13.01 10.14C12.87 9.95 12.68 10.01 12.62 10.03C12.55 10.06 12.39 10.15 12.43 10.38L12.54 11.03C12.62 11.45 12.49 11.89 12.19 12.19C11.88 12.5 11.44 12.64 11.01 12.57L10.36 12.45C10.14 12.41 10.04 12.58 10.01 12.65C9.98 12.72 9.93 12.9 10.12 13.03L10.67 13.41C11.03 13.66 11.24 14.07 11.24 14.5C11.24 14.93 11.03 15.34 10.67 15.58L10.12 15.96C9.92 16.1 9.98 16.29 10.01 16.35C10.04 16.42 10.13 16.58 10.37 16.54L11.02 16.42C11.44 16.34 11.87 16.47 12.18 16.77C12.49 17.08 12.64 17.52 12.56 17.95L12.45 18.6C12.41 18.84 12.59 18.94 12.65 18.96C12.72 18.99 12.9 19.04 13.03 18.85L13.41 18.3C13.66 17.95 14.06 17.74 14.5 17.74ZM14.51 17.32C12.96 17.32 11.7 16.05 11.7 14.5C11.7 12.95 12.96 11.68 14.51 11.68C16.06 11.68 17.32 12.95 17.32 14.5C17.32 16.05 16.06 17.32 14.51 17.32ZM14.51 12.68C13.51 12.68 12.7 13.5 12.7 14.5C12.7 15.5 13.51 16.32 14.51 16.32C15.51 16.32 16.32 15.5 16.32 14.5C16.32 13.5 15.51 12.68 14.51 12.68Z"   fill="currentColor" >
</path>
</g>
<defs>
<clipPath id="clip-path-_gbVz0vW_uC7Uj47UmsB8">
<path d="M0 20L20 20L20 0L0 0L0 20Z" fill="white"/>
</clipPath>
</defs>
</svg>
