<svg xmlns="http://www.w3.org/2000/svg" xmlns:xlink="http://www.w3.org/1999/xlink" width="20" height="18.947372436523438" viewBox="0 0 20 18.947372436523438" fill="none">
<path d="M15.7895 18.9474L4.21053 18.9474C1.88526 18.9474 0 17.0621 0 14.7368L0 4.21053C0 1.88526 1.88526 0 4.21053 0L15.7895 0C18.1147 0 20 1.88526 20 4.21053L20 14.7368C20 17.0621 18.1147 18.9474 15.7895 18.9474ZM18.9474 4.8421C18.9474 2.74947 17.2505 1.05263 15.1579 1.05263L4.84211 1.05263C2.74947 1.05263 1.05263 2.74947 1.05263 4.8421L1.05263 14.1053C1.05263 16.1979 2.74947 17.8947 4.84211 17.8947L15.1579 17.8947C17.2505 17.8947 18.9474 16.1979 18.9474 14.1053L18.9474 4.8421ZM7.36842 5.28421L13.6842 9.47368L7.36842 13.6632L7.36842 5.28421Z"   fill="currentColor" >
</path>
</svg>
