<svg xmlns="http://www.w3.org/2000/svg" xmlns:xlink="http://www.w3.org/1999/xlink" width="21.10003662109375" height="17.31000328063965" viewBox="0 0 21.10003662109375 17.31000328063965" fill="none">
<path d="M10.28 5.21457C10.8201 5.21457 11.1901 4.8512 11.1901 4.31003C11.1901 3.76267 10.8201 3.40869 10.28 3.40869C9.73999 3.40869 9.19006 3.76267 9.19006 4.31003C9.19006 4.8514 9.73999 5.21457 10.28 5.21457Z"   fill="currentColor" >
</path>
<path d="M5.21998 3.40859C4.68005 3.40859 4.13 3.76267 4.13 4.30993C4.13 4.8511 4.68005 5.21458 5.21998 5.21458C5.76001 5.21458 6.12 4.8511 6.12 4.30993C6.12 3.76267 5.76001 3.40859 5.21998 3.40859Z"   fill="currentColor" >
</path>
<path d="M21.1 11.0058C21.1 8.14418 18.4501 5.70584 15.1901 5.45215C15.1901 5.41666 15.2001 5.37966 15.1901 5.34276C14.54 2.29665 11.26 0 7.57008 0C3.40002 0 0 2.90852 0 6.48349C0 8.40147 0.979981 10.1297 2.83997 11.4924L2.19006 13.4367C2.15002 13.5632 2.19006 13.7025 2.29004 13.7902C2.34998 13.843 2.43005 13.8706 2.5 13.8706C2.55005 13.8706 2.60999 13.8588 2.65002 13.8357L5.07997 12.6205L5.38001 12.6812C6.13001 12.8349 6.77003 12.9681 7.57008 12.9681C7.80006 12.9681 8.45008 12.8824 8.50001 12.8138C9.38001 15.0049 11.79 16.5864 14.63 16.5864C15.36 16.5864 16.09 16.4111 16.75 16.2456L18.63 17.2689C18.6801 17.2959 18.73 17.31 18.78 17.31C18.86 17.31 18.9301 17.285 18.99 17.2367C19.1 17.1522 19.14 17.0131 19.1 16.8858L18.62 15.2961C20.22 14.0295 21.1 12.5143 21.1 11.0058ZM8.19007 12.0854C7.99 12.1033 7.78004 12.1121 7.57008 12.1121C6.87001 12.1121 6.27003 11.9907 5.58998 11.8488L5.19007 11.7682C5.12001 11.7535 5.05006 11.7629 4.97999 11.7954L3.22998 12.6739L3.68005 11.3038C3.72998 11.1697 3.68005 11.0234 3.56006 10.9424C1.80005 9.71338 0.910035 8.21638 0.910035 6.49339C0.910035 3.39598 3.90002 0.875246 7.57008 0.875246C10.8201 0.875246 13.6901 2.85072 14.28 5.47825C10.88 5.52285 8.13001 7.9163 8.13001 10.8559C8.13001 11.2832 8.19007 11.6974 8.30006 12.0968C8.27003 12.0886 8.22999 12.0822 8.19007 12.0854ZM17.87 14.7268C17.77 14.8057 17.73 14.9418 17.76 15.0673L18.0601 16.0535L16.84 15.3876C16.8 15.3621 16.74 15.3489 16.6901 15.3489C16.67 15.3489 16.64 15.3521 16.62 15.3588C15.96 15.5237 15.29 15.6938 14.63 15.6938C11.58 15.6938 9.08998 13.5946 9.08998 11.0146C9.08998 8.43457 11.5701 6.3362 14.63 6.3362C17.63 6.3362 20.16 8.47856 20.16 11.0146C20.16 12.3008 19.35 13.6195 17.87 14.7268Z"   fill="currentColor" >
</path>
<path d="M12.63 8.65366C12.27 8.65366 11.91 9.01824 11.91 9.37961C11.91 9.74369 12.27 10.103 12.63 10.103C13.1801 10.103 13.54 9.74369 13.54 9.37961C13.54 9.01773 13.1801 8.65366 12.63 8.65366Z"   fill="currentColor" >
</path>
<path d="M16.61 8.65366C16.25 8.65366 15.89 9.01824 15.89 9.37961C15.89 9.74369 16.25 10.103 16.61 10.103C17.1501 10.103 17.52 9.74369 17.52 9.37961C17.52 9.01773 17.1501 8.65366 16.61 8.65366Z"   fill="currentColor" >
</path>
</svg>
